<svg width="164" height="120" viewBox="0 0 164 120" fill="none" xmlns="http://www.w3.org/2000/svg">
<rect width="164" height="120" fill="white"/>
<path d="M73 12.6286C73 11.0084 73 10.1983 73.327 9.57953C73.6146 9.0352 74.0735 8.59265 74.638 8.3153C75.2798 8 76.1198 8 77.8 8H86.2C87.8802 8 88.7202 8 89.362 8.3153C89.9265 8.59265 90.3854 9.0352 90.673 9.57953C91 10.1983 91 11.0084 91 12.6286V18.125C91 19.4729 91 20.1469 90.7716 20.6785C90.4672 21.3873 89.8831 21.9505 89.1481 22.2441C88.5967 22.4643 87.8978 22.4643 86.5 22.4643C86.0114 22.4643 85.7671 22.4643 85.5405 22.5159C85.2383 22.5847 84.9569 22.7204 84.7185 22.9122C84.5397 23.0561 84.3931 23.2445 84.1 23.6214L82.64 25.4986C82.4229 25.7777 82.3143 25.9173 82.1812 25.9672C82.0647 26.0109 81.9353 26.0109 81.8188 25.9672C81.6857 25.9173 81.5771 25.7777 81.36 25.4986L79.9 23.6214C79.6069 23.2445 79.4603 23.0561 79.2815 22.9122C79.0431 22.7204 78.7617 22.5847 78.4595 22.5159C78.2329 22.4643 77.9886 22.4643 77.5 22.4643C76.1022 22.4643 75.4033 22.4643 74.8519 22.2441C74.1169 21.9505 73.5328 21.3873 73.2284 20.6785C73 20.1469 73 19.4729 73 18.125V12.6286Z" stroke="#1AB415" stroke-width="1.77617" stroke-linecap="round" stroke-linejoin="round"/>
<path d="M85.5805 12.5856L80.949 17.2171L78.8438 15.1118" stroke="#1AB415" stroke-width="1.78069" stroke-linecap="round" stroke-linejoin="round"/>
<path d="M127 30L37 30L37 120H127V30Z" fill="#1AB415"/>
<path d="M57.559 62.1187C50.39 62.1187 44.5577 67.9509 44.5577 75.1199C44.5577 82.2889 50.39 88.1187 57.559 88.1187C64.728 88.1187 70.5577 82.2864 70.5577 75.1199C70.5577 67.9534 64.7255 62.1187 57.559 62.1187ZM57.559 85.1184C52.0459 85.1184 47.5606 80.633 47.5606 75.1199C47.5606 69.6068 52.0459 65.1215 57.559 65.1215C63.0721 65.1215 67.5574 69.6068 67.5574 75.1199C67.5574 80.633 63.0721 85.1184 57.559 85.1184Z" fill="white"/>
<path d="M57.5512 65.1205C52.0381 65.1205 47.5527 69.6058 47.5527 75.1189C47.5527 80.632 52.0381 85.1174 57.5512 85.1174C63.0643 85.1174 67.5496 80.632 67.5496 75.1189C67.5496 69.6058 63.0643 65.1205 57.5512 65.1205Z" fill="#1AB415"/>
<path d="M123.998 36C116.829 36 111 41.8328 111 49C111 56.1672 116.832 62 123.998 62C131.165 62 137 56.1672 137 49C137 41.8328 131.167 36 123.998 36ZM123.998 59.0019C118.485 59.0019 114 54.5161 114 49.0025C114 43.4889 118.485 39.0031 123.998 39.0031C129.511 39.0031 133.997 43.4889 133.997 49.0025C133.997 54.5161 129.511 59.0019 123.998 59.0019Z" fill="white"/>
<path d="M123.993 39.0004C118.48 39.0004 113.995 43.4862 113.995 48.9998C113.995 54.5135 118.48 58.9993 123.993 58.9993C129.506 58.9993 133.992 54.5135 133.992 48.9998C133.992 43.4862 129.506 39.0004 123.993 39.0004Z" fill="#1AB415"/>
<path d="M78 58C79.6569 58 81 55.3137 81 52C81 48.6863 79.6569 46 78 46C76.3431 46 75 48.6863 75 52C75 55.3137 76.3431 58 78 58Z" fill="#12141A"/>
<path d="M86 58C87.6569 58 89 55.3137 89 52C89 48.6863 87.6569 46 86 46C84.3431 46 83 48.6863 83 52C83 55.3137 84.3431 58 86 58Z" fill="#12141A"/>
</svg>
