<svg width="164" height="120" viewBox="0 0 164 120" fill="none" xmlns="http://www.w3.org/2000/svg">
<rect width="164" height="120" fill="white"/>
<path d="M79.9984 24L22 120H138L79.9984 24Z" fill="#FFE100"/>
<path d="M76.1333 73C77.735 73 79.0333 70.3137 79.0333 67C79.0333 63.6863 77.735 61 76.1333 61C74.5317 61 73.2333 63.6863 73.2333 67C73.2333 70.3137 74.5317 73 76.1333 73Z" fill="#12141A"/>
<path d="M83.8667 73C85.4683 73 86.7667 70.3137 86.7667 67C86.7667 63.6863 85.4683 61 83.8667 61C82.265 61 80.9667 63.6863 80.9667 67C80.9667 70.3137 82.265 73 83.8667 73Z" fill="#12141A"/>
<path d="M110.933 68C104.003 68 98.3666 73.8328 98.3666 81C98.3666 88.1672 104.005 94 110.933 94C117.862 94 123.5 88.1672 123.5 81C123.5 73.8328 117.862 68 110.933 68ZM110.933 91.0019C105.603 91.0019 101.267 86.5161 101.267 81.0025C101.267 75.4889 105.603 71.0031 110.933 71.0031C116.263 71.0031 120.599 75.4889 120.599 81.0025C120.599 86.5161 116.263 91.0019 110.933 91.0019Z" fill="white"/>
<path d="M110.933 71.0003C105.603 71.0003 101.267 75.4861 101.267 80.9997C101.267 86.5133 105.603 90.9991 110.933 90.9991C116.263 90.9991 120.599 86.5133 120.599 80.9997C120.599 75.4861 116.263 71.0003 110.933 71.0003Z" fill="#FFE100"/>
<path d="M49.0667 68C42.1359 68 36.5 73.8328 36.5 81C36.5 88.1672 42.1384 94 49.0667 94C55.995 94 61.6333 88.1672 61.6333 81C61.6333 73.8328 55.995 68 49.0667 68ZM49.0667 91.0019C43.7368 91.0019 39.4006 86.5161 39.4006 81.0025C39.4006 75.4889 43.7368 71.0031 49.0667 71.0031C54.3965 71.0031 58.7328 75.4889 58.7328 81.0025C58.7328 86.5161 54.3965 91.0019 49.0667 91.0019Z" fill="white"/>
<path d="M49.0567 71.0003C43.7268 71.0003 39.3906 75.4861 39.3906 80.9997C39.3906 86.5133 43.7268 90.9991 49.0567 90.9991C54.3865 90.9991 58.7228 86.5133 58.7228 80.9997C58.7228 75.4861 54.3865 71.0003 49.0567 71.0003Z" fill="#FFE100"/>
</svg>
