<svg width="164" height="120" viewBox="0 0 164 120" fill="none" xmlns="http://www.w3.org/2000/svg">
<rect width="164" height="120" fill="white"/>
<path d="M125 30L35 30L35 120H125V30Z" fill="#C4C4C6"/>
<path d="M78 73C79.6569 73 81 70.3137 81 67C81 63.6863 79.6569 61 78 61C76.3431 61 75 63.6863 75 67C75 70.3137 76.3431 73 78 73Z" fill="#12141A"/>
<path d="M86 73C87.6569 73 89 70.3137 89 67C89 63.6863 87.6569 61 86 61C84.3431 61 83 63.6863 83 67C83 70.3137 84.3431 73 86 73Z" fill="#12141A"/>
<path d="M96.927 82.4214C89.7579 82.4214 83.9282 88.2542 83.9282 95.4214C83.9282 102.589 89.7604 108.421 96.927 108.421C104.093 108.421 109.928 102.589 109.928 95.4214C109.928 88.2542 104.096 82.4214 96.927 82.4214ZM96.927 105.423C91.4139 105.423 86.9285 100.938 86.9285 95.4239C86.9285 89.9103 91.4139 85.4245 96.927 85.4245C102.44 85.4245 106.925 89.9103 106.925 95.4239C106.925 100.938 102.44 105.423 96.927 105.423Z" fill="white"/>
<path d="M96.9228 85.4221C91.4097 85.4221 86.9243 89.9078 86.9243 95.4215C86.9243 100.935 91.4097 105.421 96.9228 105.421C102.436 105.421 106.921 100.935 106.921 95.4215C106.921 89.9078 102.436 85.4221 96.9228 85.4221Z" fill="#C4C4C6"/>
<path d="M35.0013 68C27.8322 68 22 73.8322 22 81.0013C22 88.1703 27.8322 94 35.0013 94C42.1703 94 48 88.1678 48 81.0013C48 73.8347 42.1678 68 35.0013 68ZM35.0013 90.9997C29.4882 90.9997 25.0028 86.5143 25.0028 81.0013C25.0028 75.4882 29.4882 71.0028 35.0013 71.0028C40.5144 71.0028 44.9997 75.4882 44.9997 81.0013C44.9997 86.5143 40.5144 90.9997 35.0013 90.9997Z" fill="white"/>
<path d="M34.995 71.0021C29.4819 71.0021 24.9966 75.4874 24.9966 81.0005C24.9966 86.5136 29.4819 90.999 34.995 90.999C40.5081 90.999 44.9935 86.5136 44.9935 81.0005C44.9935 75.4874 40.5081 71.0021 34.995 71.0021Z" fill="#C4C4C6"/>
</svg>
