<svg width="164" height="120" viewBox="0 0 164 120" fill="none" xmlns="http://www.w3.org/2000/svg">
<rect width="164" height="120" fill="white"/>
<path d="M127 30L37 30L37 120H127V30Z" fill="#C4C4C6"/>
<path d="M120.858 36C113.689 36 107.859 41.8328 107.859 49C107.859 56.1672 113.692 62 120.858 62C128.025 62 133.859 56.1672 133.859 49C133.859 41.8328 128.027 36 120.858 36ZM120.858 59.0019C115.345 59.0019 110.86 54.5161 110.86 49.0025C110.86 43.4889 115.345 39.0031 120.858 39.0031C126.371 39.0031 130.857 43.4889 130.857 49.0025C130.857 54.5161 126.371 59.0019 120.858 59.0019Z" fill="white"/>
<path d="M120.854 39.0007C115.341 39.0007 110.856 43.4865 110.856 49.0001C110.856 54.5138 115.341 58.9996 120.854 58.9996C126.367 58.9996 130.853 54.5138 130.853 49.0001C130.853 43.4865 126.367 39.0007 120.854 39.0007Z" fill="#C4C4C6"/>
<path d="M43.0013 36C35.8322 36 30 41.8322 30 49.0013C30 56.1703 35.8322 62 43.0013 62C50.1703 62 56 56.1678 56 49.0013C56 41.8347 50.1678 36 43.0013 36ZM43.0013 58.9997C37.4882 58.9997 33.0028 54.5143 33.0028 49.0013C33.0028 43.4882 37.4882 39.0028 43.0013 39.0028C48.5144 39.0028 52.9997 43.4882 52.9997 49.0013C52.9997 54.5143 48.5144 58.9997 43.0013 58.9997Z" fill="white"/>
<path d="M42.9945 39.0016C37.4815 39.0016 32.9961 43.4869 32.9961 49C32.9961 54.5131 37.4815 58.9985 42.9945 58.9985C48.5076 58.9985 52.993 54.5131 52.993 49C52.993 43.4869 48.5076 39.0016 42.9945 39.0016Z" fill="#C4C4C6"/>
<path d="M72 48L91.9999 56" stroke="#12141A" stroke-width="3.39286" stroke-linecap="round"/>
<path d="M92 48L72.0001 56" stroke="#12141A" stroke-width="3.39286" stroke-linecap="round"/>
</svg>
