<svg width="164" height="120" viewBox="0 0 164 120" fill="none" xmlns="http://www.w3.org/2000/svg">
<rect width="164" height="120" fill="white"/>
<path d="M127 30L37 30L37 120H127V30Z" fill="#FFE100"/>
<path d="M78 58C79.6569 58 81 55.3137 81 52C81 48.6863 79.6569 46 78 46C76.3431 46 75 48.6863 75 52C75 55.3137 76.3431 58 78 58Z" fill="#12141A"/>
<path d="M86 58C87.6569 58 89 55.3137 89 52C89 48.6863 87.6569 46 86 46C84.3431 46 83 48.6863 83 52C83 55.3137 84.3431 58 86 58Z" fill="#12141A"/>
<path d="M128.597 68C121.428 68 115.599 73.8328 115.599 81C115.599 88.1672 121.431 94 128.597 94C135.764 94 141.599 88.1672 141.599 81C141.599 73.8328 135.766 68 128.597 68ZM128.597 91.0019C123.084 91.0019 118.599 86.5161 118.599 81.0025C118.599 75.4889 123.084 71.0031 128.597 71.0031C134.11 71.0031 138.596 75.4889 138.596 81.0025C138.596 86.5161 134.11 91.0019 128.597 91.0019Z" fill="white"/>
<path d="M128.592 71.0004C123.079 71.0004 118.594 75.4862 118.594 80.9998C118.594 86.5135 123.079 90.9993 128.592 90.9993C134.105 90.9993 138.591 86.5135 138.591 80.9998C138.591 75.4862 134.105 71.0004 128.592 71.0004Z" fill="#FFE100"/>
<path d="M35.4026 68C28.2336 68 22.4014 73.8322 22.4014 81.0013C22.4014 88.1703 28.2336 94 35.4026 94C42.5717 94 48.4014 88.1678 48.4014 81.0013C48.4014 73.8347 42.5692 68 35.4026 68ZM35.4026 90.9997C29.8895 90.9997 25.4042 86.5143 25.4042 81.0013C25.4042 75.4882 29.8895 71.0028 35.4026 71.0028C40.9157 71.0028 45.4011 75.4882 45.4011 81.0013C45.4011 86.5143 40.9157 90.9997 35.4026 90.9997Z" fill="white"/>
<path d="M35.3949 71.0016C29.8818 71.0016 25.3965 75.4869 25.3965 81C25.3965 86.5131 29.8818 90.9985 35.3949 90.9985C40.908 90.9985 45.3934 86.5131 45.3934 81C45.3934 75.4869 40.908 71.0016 35.3949 71.0016Z" fill="#FFE100"/>
<path d="M74.0769 7.33473C76.6293 5.15397 80.0262 5.7946 82.0633 8.17612C84.1004 5.7946 87.4535 5.17691 90.0497 7.33473C92.6458 9.49255 92.9613 13.1616 90.957 15.7408C89.443 17.6889 85.1422 21.5999 83.1282 23.3971C82.7579 23.7275 82.5728 23.8926 82.356 23.9577C82.1679 24.0141 81.9587 24.0141 81.7706 23.9577C81.5538 23.8926 81.3687 23.7275 80.9984 23.3971C78.9844 21.5999 74.6836 17.6889 73.1696 15.7408C71.1653 13.1616 71.5246 9.51549 74.0769 7.33473Z" fill="#3385FF"/>
</svg>
