<svg width="164" height="120" viewBox="0 0 164 120" fill="none" xmlns="http://www.w3.org/2000/svg">
<rect width="164" height="120" fill="white"/>
<path d="M83 30C58.1879 30 38 50.1879 38 75C38 99.8121 58.1879 120 83 120C107.812 120 128 99.8121 128 75C128 50.1879 107.812 30 83 30Z" fill="#FFE100"/>
<path d="M78 58C79.6569 58 81 55.3137 81 52C81 48.6863 79.6569 46 78 46C76.3431 46 75 48.6863 75 52C75 55.3137 76.3431 58 78 58Z" fill="#12141A"/>
<path d="M86 58C87.6568 58 89 55.3137 89 52C89 48.6863 87.6568 46 86 46C84.3431 46 83 48.6863 83 52C83 55.3137 84.3431 58 86 58Z" fill="#12141A"/>
<path d="M62.5663 62.6874C57.0527 62.6874 52.5669 67.1732 52.5669 72.6868C52.5669 78.2004 57.0527 82.6862 62.5663 82.6862C68.0799 82.6862 72.5657 78.2004 72.5657 72.6868C72.5657 67.1732 68.0799 62.6874 62.5663 62.6874Z" fill="#FFE100"/>
<path d="M62.5845 59.6882C55.4147 59.6882 49.5845 65.521 49.5845 72.6882C49.5845 79.8554 55.4173 85.6882 62.5845 85.6882C69.7517 85.6882 75.5845 79.8554 75.5845 72.6882C75.5845 65.521 69.7517 59.6882 62.5845 59.6882ZM62.5845 82.6902C57.0708 82.6902 52.5851 78.2044 52.5851 72.6907C52.5851 67.1771 57.0708 62.6913 62.5845 62.6913C68.0981 62.6913 72.5839 67.1771 72.5839 72.6907C72.5839 78.2044 68.0981 82.6902 62.5845 82.6902Z" fill="white"/>
<path d="M116.195 36C109.026 36 103.195 41.8322 103.195 49.0013C103.195 56.1703 109.026 62 116.195 62C123.363 62 129.195 56.1678 129.195 49.0013C129.195 41.8347 123.363 36 116.195 36ZM116.195 58.9997C110.682 58.9997 106.197 54.5143 106.197 49.0013C106.197 43.4882 110.682 39.0028 116.195 39.0028C121.707 39.0028 126.192 43.4882 126.192 49.0013C126.192 54.5143 121.707 58.9997 116.195 58.9997Z" fill="white"/>
<path d="M116.184 39.0037C110.671 39.0037 106.186 43.4891 106.186 49.0022C106.186 54.5153 110.671 59.0006 116.184 59.0006C121.696 59.0006 126.181 54.5153 126.181 49.0022C126.181 43.4891 121.696 39.0037 116.184 39.0037Z" fill="#FFE100"/>
</svg>
