<svg width="20" height="20" viewBox="0 0 20 20" fill="none" xmlns="http://www.w3.org/2000/svg">
<g clip-path="url(#clip0_6462_196073)">
<path d="M20 9.99999C20 15.5224 15.5233 20 9.99941 20C4.47672 20 0 15.5224 0 9.99999C0 4.47762 4.47672 0 9.99941 0C15.5233 0 20 4.47762 20 9.99999Z" fill="#231F20"/>
<path d="M12.2457 4.32527C13.1482 3.53044 13.5522 3.40428 13.7486 3.65242C13.9867 3.95102 13.4417 5.05003 13.0113 5.61042C12.2917 6.54581 11.3356 6.98542 11.3356 6.98542C11.3356 6.98542 11.8171 7.34126 10.8717 8.27253C9.25363 9.86522 8.51324 11.2188 8.1881 11.7491C8.02002 12.0224 8.08135 12.0522 8.11485 12.0098C9.41878 10.6538 10.5864 9.87507 11.5524 9.87507C12.1873 9.87512 12.5592 10.227 12.5592 10.8389C12.5588 12.4549 10.4882 13.6574 9.76036 13.9766C8.72315 14.4303 7.71136 14.6123 7.09435 14.6856L6.62267 14.7286C6.53976 14.7339 6.49221 14.7344 6.48985 14.7344C6.48985 14.7344 6.24288 14.8209 6.1588 15.3048C6.11288 15.5702 5.97982 15.685 5.34337 15.96C5.2646 15.9935 5.18135 16.0296 5.09435 16.0684C5.02455 16.0992 4.9671 16.0516 5.02989 15.9425C5.05266 15.9024 5.38963 15.325 5.84435 14.5391C5.62092 14.4327 5.4435 14.3006 5.34825 14.2012L5.46349 13.9991C5.64869 14.1302 5.82912 14.2182 5.99669 14.2764C6.94154 12.6467 8.26993 10.3498 8.49864 9.92292C9.42177 8.19498 11.1228 5.31411 12.2457 4.32527ZM13.9205 15.8858L13.8082 16.0772H6.13732L6.25157 15.8858H13.9205ZM11.2311 10.3585C11.0535 10.3585 10.8242 10.4249 10.5856 10.546L10.5465 10.5655C8.36654 11.6386 6.68446 14.3496 6.66271 14.3848C6.67915 14.3848 6.69334 14.3841 6.7086 14.3829C6.96492 14.3623 8.24286 14.2296 9.38927 13.6319C10.3822 13.1128 11.5116 12.037 11.6471 10.8995C11.6682 10.7155 11.637 10.5748 11.5553 10.4825C11.4818 10.4002 11.3733 10.3585 11.2311 10.3585ZM13.1666 4.08992C13.1666 4.08992 11.1609 6.04357 9.80626 8.66218C10.5149 7.88836 10.9798 7.56708 10.9733 7.30964C10.968 7.10217 10.766 6.9921 10.9703 6.84578C11.7441 6.29372 12.7562 5.43274 13.1666 4.08992Z" fill="white"/>
</g>
<defs>
<clipPath id="clip0_6462_196073">
<rect width="20" height="20" fill="white"/>
</clipPath>
</defs>
</svg>
