<svg width="20" height="20" viewBox="0 0 20 20" fill="none" xmlns="http://www.w3.org/2000/svg">
<path d="M0 2.22222C0 1 1 0 2.22222 0H17.7778C19 0 20 1 20 2.22222V17.7778C20 19 19 20 17.7778 20H2.22222C1 20 0 19 0 17.7778V2.22222Z" fill="#1E88E5"/>
<path d="M2.22168 3.4439C2.22168 2.77724 2.77724 2.22168 3.4439 2.22168H7.66612C8.33279 2.22168 8.88835 2.77724 8.88835 3.4439V15.4439C8.88835 16.1106 8.33279 16.6661 7.66612 16.6661H3.4439C2.77724 16.6661 2.22168 16.1106 2.22168 15.4439V3.4439ZM11.1106 9.33279C11.1106 9.99946 11.6661 10.555 12.3328 10.555H16.555C17.2217 10.555 17.7772 9.99946 17.7772 9.33279V3.4439C17.7772 2.77724 17.2217 2.22168 16.555 2.22168H12.3328C11.6661 2.22168 11.1106 2.77724 11.1106 3.4439V9.33279Z" fill="white"/>
</svg>
