<svg width="20" height="20" viewBox="0 0 20 20" fill="none" xmlns="http://www.w3.org/2000/svg">
<g clip-path="url(#clip0_6462_196066)">
<path d="M15.5623 19.9895L4.45709 20C2.01394 20.0022 0.0133282 18.0055 0.0105519 15.5623L1.85114e-06 4.45709C-0.0022192 2.01394 1.9945 0.0133282 4.43766 0.0105519L15.5429 1.85114e-06C17.9861 -0.0022192 19.9867 1.9945 19.9894 4.43766L20 15.5429C20.0028 17.9866 18.0055 19.9872 15.5623 19.9895Z" fill="url(#paint0_radial_6462_196066)"/>
<path d="M15.5623 19.9895L4.45709 20C2.01394 20.0022 0.0133282 18.0055 0.0105519 15.5623L1.85114e-06 4.45709C-0.0022192 2.01394 1.9945 0.0133282 4.43766 0.0105519L15.5429 1.85114e-06C17.9861 -0.0022192 19.9867 1.9945 19.9894 4.43766L20 15.5429C20.0028 17.9866 18.0055 19.9872 15.5623 19.9895Z" fill="url(#paint1_radial_6462_196066)"/>
<path d="M10.0001 13.8871C7.85736 13.8871 6.11328 12.1436 6.11328 10.0002C6.11328 7.85693 7.85736 6.1134 10.0001 6.1134C12.1429 6.1134 13.887 7.85693 13.887 10.0002C13.887 12.1436 12.1429 13.8871 10.0001 13.8871ZM10.0001 7.22393C8.46926 7.22393 7.22381 8.46938 7.22381 10.0002C7.22381 11.5311 8.46926 12.7766 10.0001 12.7766C11.531 12.7766 12.7764 11.5311 12.7764 10.0002C12.7764 8.46938 11.531 7.22393 10.0001 7.22393Z" fill="white"/>
<path d="M14.1654 6.66835C14.6254 6.66835 14.9983 6.29545 14.9983 5.83546C14.9983 5.37546 14.6254 5.00256 14.1654 5.00256C13.7054 5.00256 13.3325 5.37546 13.3325 5.83546C13.3325 6.29545 13.7054 6.66835 14.1654 6.66835Z" fill="white"/>
<path d="M13.3307 17.2187H6.6676C4.52484 17.2187 2.78076 15.4752 2.78076 13.3318V6.6687C2.78076 4.52538 4.52484 2.78186 6.6676 2.78186H13.3307C15.4735 2.78186 17.2176 4.52538 17.2176 6.6687V13.3318C17.2176 15.4752 15.4735 17.2187 13.3307 17.2187ZM6.6676 3.89239C5.13674 3.89239 3.89129 5.13784 3.89129 6.6687V13.3318C3.89129 14.8627 5.13674 16.1082 6.6676 16.1082H13.3307C14.8616 16.1082 16.1071 14.8627 16.1071 13.3318V6.6687C16.1071 5.13784 14.8616 3.89239 13.3307 3.89239H6.6676Z" fill="white"/>
</g>
<defs>
<radialGradient id="paint0_radial_6462_196066" cx="0" cy="0" r="1" gradientUnits="userSpaceOnUse" gradientTransform="translate(7.43497 20.0144) scale(24.9307 24.9307)">
<stop stop-color="#FFDD55"/>
<stop offset="0.328" stop-color="#FF543F"/>
<stop offset="0.348" stop-color="#FC5245"/>
<stop offset="0.504" stop-color="#E64771"/>
<stop offset="0.643" stop-color="#D53E91"/>
<stop offset="0.761" stop-color="#CC39A4"/>
<stop offset="0.841" stop-color="#C837AB"/>
</radialGradient>
<radialGradient id="paint1_radial_6462_196066" cx="0" cy="0" r="1" gradientUnits="userSpaceOnUse" gradientTransform="translate(3.2183 -0.249698) scale(16.554 11.03)">
<stop stop-color="#4168C9"/>
<stop offset="0.999" stop-color="#4168C9" stop-opacity="0"/>
</radialGradient>
<clipPath id="clip0_6462_196066">
<rect width="20" height="20" fill="white"/>
</clipPath>
</defs>
</svg>
