<svg width="20" height="20" viewBox="0 0 20 20" fill="none" xmlns="http://www.w3.org/2000/svg">
<path d="M19.5818 5.15459C19.4687 4.7291 19.2459 4.34077 18.9356 4.02847C18.6253 3.71617 18.2384 3.49084 17.8136 3.37504C16.25 2.95459 10 2.95459 10 2.95459C10 2.95459 3.75 2.95459 2.18636 3.37504C1.76161 3.49084 1.37472 3.71617 1.06441 4.02847C0.754097 4.34077 0.531255 4.7291 0.418182 5.15459C4.96705e-08 6.72504 0 10 0 10C0 10 4.96705e-08 13.275 0.418182 14.8455C0.531255 15.271 0.754097 15.6593 1.06441 15.9716C1.37472 16.2839 1.76161 16.5092 2.18636 16.625C3.75 17.0455 10 17.0455 10 17.0455C10 17.0455 16.25 17.0455 17.8136 16.625C18.2384 16.5092 18.6253 16.2839 18.9356 15.9716C19.2459 15.6593 19.4687 15.271 19.5818 14.8455C20 13.275 20 10 20 10C20 10 20 6.72504 19.5818 5.15459Z" fill="#FF0302"/>
<path d="M7.95312 12.9746V7.02686L13.1804 10.0007L7.95312 12.9746Z" fill="#FEFEFE"/>
</svg>
