<svg width="20" height="20" viewBox="0 0 20 20" fill="none" xmlns="http://www.w3.org/2000/svg">
<g clip-path="url(#clip0_6462_196084)">
<path d="M3.71604 3.50645C4.33771 4.01145 4.57104 3.97312 5.73937 3.89478L16.7518 3.23395C16.9852 3.23395 16.791 3.00062 16.7135 2.96229L14.8835 1.63979C14.5335 1.36812 14.066 1.05646 13.171 1.13396L2.50854 1.91229C2.12021 1.95062 2.04188 2.14562 2.19688 2.30062L3.71604 3.50645ZM4.37687 6.07311V17.6598C4.37687 18.2823 4.68771 18.5156 5.38854 18.4764L17.491 17.7764C18.1918 17.7381 18.2702 17.3098 18.2702 16.8039V5.29478C18.2702 4.78978 18.076 4.51728 17.6468 4.55562L4.99937 5.29478C4.53271 5.33395 4.37687 5.56728 4.37687 6.07228V6.07311ZM16.3243 6.69395C16.4018 7.04395 16.3243 7.39394 15.9743 7.43394L15.391 7.55061V16.1039C14.8843 16.3764 14.4177 16.5323 14.0285 16.5323C13.4052 16.5323 13.2494 16.3373 12.7827 15.7548L8.96853 9.76644V15.5598L10.1752 15.8331C10.1752 15.8331 10.1752 16.5331 9.20186 16.5331L6.51687 16.6881C6.43937 16.5331 6.51687 16.1439 6.78937 16.0664L7.48936 15.8723V8.21144L6.51853 8.13311C6.4402 7.78311 6.6352 7.27811 7.17937 7.23895L10.0594 7.04478L14.0293 13.1106V7.74394L13.0169 7.62811C12.9394 7.19978 13.2502 6.88895 13.6394 6.85061L16.3243 6.69395ZM1.61355 0.862291L12.7052 0.0456265C14.0668 -0.0710399 14.4177 0.00645995 15.2735 0.628959L18.8143 3.11729C19.3977 3.54479 19.5927 3.66145 19.5927 4.12812V17.7764C19.5927 18.6314 19.2818 19.1381 18.1927 19.2148L5.31104 19.9931C4.49437 20.0323 4.10437 19.9156 3.67604 19.3706L1.06855 15.9873C0.601881 15.3648 0.407715 14.8989 0.407715 14.3539V2.22229C0.407715 1.52312 0.719381 0.938958 1.61355 0.862291Z" fill="#12141A"/>
<path d="M3.71604 3.50645C4.33771 4.01145 4.57104 3.97312 5.73937 3.89478L16.7518 3.23395C16.9852 3.23395 16.791 3.00062 16.7135 2.96229L14.8835 1.63979C14.5335 1.36812 14.066 1.05646 13.171 1.13396L2.50854 1.91229C2.12021 1.95062 2.04188 2.14562 2.19688 2.30062L3.71604 3.50645Z" fill="white"/>
<path fill-rule="evenodd" clip-rule="evenodd" d="M4.37687 6.07311V17.6598C4.37687 18.2823 4.68771 18.5156 5.38854 18.4764L17.491 17.7764C18.1918 17.7381 18.2702 17.3098 18.2702 16.8039V5.29478C18.2702 4.78978 18.076 4.51728 17.6468 4.55562L4.99937 5.29478C4.53271 5.33395 4.37687 5.56728 4.37687 6.07228V6.07311ZM15.9743 7.43394C16.3243 7.39394 16.4018 7.04395 16.3243 6.69395L13.6394 6.85061C13.2502 6.88895 12.9394 7.19978 13.0169 7.62811L14.0293 7.74394V13.1106L10.0594 7.04478L7.17937 7.23895C6.6352 7.27811 6.4402 7.78311 6.51853 8.13311L7.48936 8.21144V15.8723L6.78937 16.0664C6.51687 16.1439 6.43937 16.5331 6.51687 16.6881L9.20186 16.5331C10.1752 16.5331 10.1752 15.8331 10.1752 15.8331L8.96853 15.5598V9.76644L12.7827 15.7548L12.7836 15.7559C13.2495 16.3375 13.4056 16.5323 14.0285 16.5323C14.4177 16.5323 14.8843 16.3764 15.391 16.1039V7.55061L15.9743 7.43394Z" fill="white"/>
</g>
<defs>
<clipPath id="clip0_6462_196084">
<rect width="20" height="20" fill="white"/>
</clipPath>
</defs>
</svg>
