<svg width="1099" height="940" viewBox="0 0 1099 940" fill="none" xmlns="http://www.w3.org/2000/svg">
<g opacity="0.7">
<path d="M197.77 26.0736L106 85.1098L203.161 135.112L197.77 26.0736ZM194.848 31.7596L199.693 129.729L112.395 84.8029L194.85 31.7608L194.848 31.7596Z" fill="#F3F3F3"/>
<path d="M194.846 31.7601L112.392 84.8058L199.69 129.732L194.846 31.7601Z" fill="white"/>
<path d="M170.823 68.9424C172.226 69.6643 174.625 67.7961 176.181 64.7698C177.737 61.7434 177.86 58.7048 176.456 57.9829C175.053 57.261 172.654 59.1291 171.098 62.1555C169.543 65.1819 169.419 68.2205 170.823 68.9424Z" fill="#F3F3F3"/>
<path d="M178.603 72.9464C180.007 73.6683 182.406 71.8002 183.961 68.7738C185.517 65.7474 185.64 62.7088 184.237 61.9869C182.833 61.265 180.434 63.1332 178.879 66.1595C177.323 69.1859 177.2 72.2245 178.603 72.9464Z" fill="#F3F3F3"/>
<path d="M146.612 50.9773C139.81 47.4768 131.438 50.1569 127.948 56.9479C124.457 63.7389 127.151 72.1134 133.951 75.6127C140.751 79.1119 149.125 76.4331 152.615 69.6421C156.106 62.851 153.412 54.4766 146.612 50.9773ZM135.411 72.7719C130.18 70.08 128.108 63.6395 130.793 58.4153C133.478 53.1911 139.919 51.1308 145.15 53.8228C150.381 56.5147 152.452 62.9552 149.767 68.1794C147.082 73.4037 140.642 75.4639 135.411 72.7719Z" fill="#F3F3F3"/>
<path d="M206.659 81.885C199.857 78.3845 191.485 81.0646 187.994 87.8556C184.504 94.6466 187.198 103.021 193.998 106.52C200.798 110.02 209.172 107.341 212.662 100.55C216.153 93.7587 213.459 85.3843 206.659 81.885ZM195.458 103.68C190.226 100.988 188.155 94.5472 190.84 89.323C193.525 84.0988 199.966 82.0386 205.197 84.7305C210.428 87.4225 212.499 93.8629 209.814 99.0872C207.129 104.311 200.689 106.372 195.458 103.68Z" fill="#F3F3F3"/>
<path d="M205.198 84.7264C199.966 82.0345 193.526 84.0947 190.841 89.3189C188.156 94.5432 190.227 100.984 195.458 103.676C200.69 106.368 207.13 104.307 209.815 99.0831C212.5 93.8589 210.429 87.4184 205.198 84.7264Z" fill="white"/>
<path d="M145.15 53.8187C139.919 51.1268 133.479 53.187 130.794 58.4112C128.109 63.6354 130.18 70.0759 135.411 72.7679C140.642 75.4598 147.083 73.3996 149.768 68.1754C152.453 62.9511 150.381 56.5107 145.15 53.8187Z" fill="white"/>
<path d="M0 471.106L59.5578 634.904L223.58 575.121L164.022 411.324L0 471.106ZM215.886 571.542L63.157 627.208L7.69978 474.689L160.429 419.022L215.886 571.542Z" fill="#F3F3F3"/>
<path d="M160.425 419.025L7.6958 474.691L63.153 627.211L215.882 571.544L160.425 419.025Z" fill="white"/>
<path d="M189.306 497.214C176.861 501.75 170.418 515.548 174.935 527.971C179.452 540.395 193.252 546.815 205.693 542.281C218.133 537.746 224.585 523.945 220.068 511.521C215.551 499.098 201.751 492.678 189.306 497.214ZM203.803 537.084C194.233 540.572 183.62 535.634 180.145 526.077C176.67 516.52 181.629 505.907 191.199 502.419C200.769 498.931 211.382 503.869 214.857 513.426C218.332 522.983 213.373 533.596 203.803 537.084Z" fill="#F3F3F3"/>
<path d="M50.8768 474.556C38.4322 479.091 31.9842 492.892 36.503 505.319C41.0217 517.747 54.8204 524.163 67.265 519.627C79.7096 515.091 86.1532 501.292 81.636 488.869C77.1188 476.446 63.3171 470.021 50.8768 474.556ZM65.3739 514.426C55.8038 517.914 45.1905 512.976 41.7155 503.419C38.2405 493.862 43.1994 483.249 52.7695 479.761C62.3396 476.273 72.9528 481.21 76.4278 490.767C79.9028 500.324 74.944 510.938 65.3739 514.426Z" fill="#F3F3F3"/>
<path d="M129.573 494.115C132.141 493.179 132.592 487.933 130.579 482.396C128.567 476.86 124.853 473.131 122.285 474.066C119.716 475.002 119.265 480.249 121.278 485.785C123.29 491.321 127.004 495.051 129.573 494.115Z" fill="#F3F3F3"/>
<path d="M143.81 488.928C146.378 487.992 146.829 482.745 144.816 477.209C142.804 471.673 139.09 467.943 136.521 468.879C133.953 469.815 133.502 475.061 135.515 480.598C137.527 486.134 141.241 489.863 143.81 488.928Z" fill="#F3F3F3"/>
<path d="M191.196 502.414C181.626 505.902 176.667 516.516 180.142 526.073C183.617 535.63 194.23 540.567 203.8 537.079C213.37 533.591 218.329 522.978 214.854 513.421C211.379 503.864 200.766 498.926 191.196 502.414Z" fill="white"/>
<path d="M52.7697 479.758C43.1997 483.246 38.2408 493.859 41.7157 503.416C45.1907 512.973 55.804 517.911 65.3741 514.423C74.9442 510.934 79.903 500.321 76.428 490.764C72.953 481.207 62.3398 476.27 52.7697 479.758Z" fill="white"/>
<path d="M938.162 619.415C864.407 599.354 788.15 642.966 768.18 716.629C748.21 790.292 791.97 866.549 865.725 886.61C939.479 906.672 1015.74 863.06 1035.71 789.397C1055.68 715.734 1011.92 639.477 938.162 619.415Z" fill="white"/>
<path d="M886.477 711.407C890.976 712.631 896.754 705.761 899.382 696.062C902.009 686.363 900.492 677.509 895.992 676.285C891.493 675.061 885.715 681.932 883.087 691.63C880.46 701.329 881.977 710.183 886.477 711.407Z" fill="#F3F3F3"/>
<path d="M911.419 718.186C915.918 719.409 921.696 712.539 924.324 702.841C926.952 693.142 925.434 684.288 920.935 683.064C916.435 681.84 910.657 688.71 908.03 698.409C905.402 708.107 906.919 716.962 911.419 718.186Z" fill="#F3F3F3"/>
<path d="M821.176 744.734C804.412 740.175 787.081 750.086 782.542 766.829C778.003 783.572 787.949 800.903 804.712 805.463C821.476 810.022 838.807 800.11 843.346 783.368C847.885 766.625 837.939 749.294 821.176 744.734Z" fill="white"/>
<path d="M1031.01 679.184C1011.23 644.706 979.197 619.966 940.827 609.529C902.456 599.092 862.338 604.207 827.853 623.923C793.375 643.641 768.661 675.61 758.271 713.933C747.882 752.257 753.058 792.356 772.843 826.834C792.628 861.312 824.661 886.052 863.031 896.489C901.402 906.926 941.52 901.811 976.005 882.095C1010.49 862.379 1035.2 830.408 1045.59 792.084C1055.98 753.761 1050.8 713.669 1031.01 679.184ZM865.718 886.609C791.964 866.547 748.203 790.29 768.173 716.627C788.144 642.964 864.401 599.352 938.155 619.413C1011.91 639.475 1055.67 715.732 1035.7 789.395C1015.73 863.058 939.472 906.67 865.718 886.609Z" fill="#F3F3F3"/>
<path d="M823.648 735.625C801.85 729.695 779.322 742.586 773.422 764.349C767.521 786.113 780.453 808.649 802.244 814.576C824.035 820.503 846.571 807.615 852.471 785.851C858.371 764.087 845.439 741.552 823.648 735.625ZM804.712 805.472C787.949 800.912 778.003 783.581 782.542 766.838C787.081 750.096 804.413 740.184 821.176 744.744C837.939 749.303 847.885 766.635 843.346 783.377C838.807 800.12 821.476 810.032 804.712 805.472Z" fill="#F3F3F3"/>
<path d="M1049.69 675.649C1027.89 669.72 1005.35 682.608 999.45 704.379C993.548 726.151 1006.48 748.679 1028.28 754.608C1050.08 760.537 1072.61 747.649 1078.51 725.885C1084.41 704.121 1071.48 681.578 1049.69 675.649ZM1030.75 745.496C1013.99 740.937 1004.04 723.605 1008.58 706.863C1013.12 690.12 1030.45 680.208 1047.21 684.768C1063.98 689.328 1073.92 706.659 1069.38 723.402C1064.84 740.144 1047.51 750.056 1030.75 745.496Z" fill="#F3F3F3"/>
<path d="M1047.22 684.77C1030.45 680.21 1013.12 690.122 1008.58 706.864C1004.04 723.607 1013.99 740.938 1030.75 745.498C1047.52 750.058 1064.85 740.146 1069.39 723.403C1073.93 706.661 1063.98 689.329 1047.22 684.77Z" fill="white"/>
</g>
</svg>
