<svg width="44" height="44" viewBox="0 0 44 44" fill="none" xmlns="http://www.w3.org/2000/svg">
<path fill-rule="evenodd" clip-rule="evenodd" d="M14.2014 26.3583L15.9312 23.6147C16.0844 23.3716 16.1657 23.0901 16.1657 22.8027V18.9583C16.1657 15.7367 18.7774 13.125 21.9991 13.125C25.2207 13.125 27.8324 15.7367 27.8324 18.9583V22.8027C27.8324 23.0901 27.9137 23.3716 28.067 23.6147L29.7968 26.3583C30.0067 26.6913 29.7674 27.125 29.3738 27.125H14.6243C14.2307 27.125 13.9914 26.6913 14.2014 26.3583ZM14.6657 18.9583C14.6657 14.9082 17.949 11.625 21.9991 11.625C26.0492 11.625 29.3324 14.9082 29.3324 18.9583V22.8027C29.3324 22.807 29.3336 22.8111 29.3359 22.8147L31.0657 25.5584C31.9053 26.8902 30.9482 28.625 29.3738 28.625H25.7491C25.7491 30.6961 24.0701 32.375 21.9991 32.375C19.928 32.375 18.2491 30.6961 18.2491 28.625H14.6243C13.0499 28.625 12.0928 26.8902 12.9325 25.5584L14.6623 22.8147C14.6645 22.8111 14.6657 22.807 14.6657 22.8027V18.9583ZM19.7491 28.625C19.7491 29.8676 20.7564 30.875 21.9991 30.875C23.2417 30.875 24.2491 29.8676 24.2491 28.625H19.7491Z" fill="#17171B"/>
</svg>
