<svg width="24" height="24" viewBox="0 0 24 24" fill="current" xmlns="http://www.w3.org/2000/svg">
<path d="M5 7.8C5 6.11984 5 5.27976 5.32698 4.63803C5.6146 4.07354 6.07354 3.6146 6.63803 3.32698C7.27976 3 8.11984 3 9.8 3H14.2C15.8802 3 16.7202 3 17.362 3.32698C17.9265 3.6146 18.3854 4.07354 18.673 4.63803C19 5.27976 19 6.11984 19 7.8V18.2429C19 19.1483 19 19.601 18.8098 19.8635C18.6439 20.0925 18.3888 20.2406 18.1076 20.271C17.7853 20.3059 17.3923 20.0813 16.6062 19.6321L12 17L7.39382 19.6321C6.60772 20.0813 6.21467 20.3059 5.89237 20.271C5.61123 20.2406 5.35611 20.0925 5.1902 19.8635C5 19.601 5 19.1483 5 18.2429V7.8Z"/>
</svg>
