<svg width="22" height="23" viewBox="0 0 22 23" fill="none" xmlns="http://www.w3.org/2000/svg">
<path id="skill" d="M14.192 7.5707C13.796 7.17468 13.598 6.97668 13.5238 6.74835C13.4586 6.5475 13.4586 6.33116 13.5238 6.13031C13.598 5.90199 13.796 5.70398 14.192 5.30796L17.0304 2.46959C16.2772 2.12895 15.4411 1.93933 14.5607 1.93933C11.2469 1.93933 8.56065 4.62562 8.56065 7.93933C8.56065 8.43037 8.61964 8.90763 8.73091 9.36442C8.85007 9.85357 8.90965 10.0981 8.89908 10.2527C8.888 10.4144 8.86388 10.5005 8.78928 10.6444C8.71803 10.782 8.58151 10.9185 8.30847 11.1915L2.06065 17.4393C1.23222 18.2678 1.23222 19.6109 2.06065 20.4393C2.88908 21.2678 4.23222 21.2678 5.06065 20.4393L11.3085 14.1915C11.5815 13.9185 11.718 13.782 11.8555 13.7107C11.9995 13.6361 12.0856 13.612 12.2473 13.6009C12.4018 13.5903 12.6464 13.6499 13.1356 13.7691C13.5923 13.8803 14.0696 13.9393 14.5607 13.9393C17.8744 13.9393 20.5607 11.253 20.5607 7.93933C20.5607 7.05892 20.371 6.2228 20.0304 5.46959L17.192 8.30796C16.796 8.70398 16.598 8.90199 16.3697 8.97617C16.1688 9.04143 15.9525 9.04143 15.7516 8.97617C15.5233 8.90199 15.3253 8.70398 14.9293 8.30796L14.192 7.5707Z" stroke="#17171B" stroke-width="2" stroke-linecap="round" stroke-linejoin="round"/>
</svg>
