<svg width="24" height="24" viewBox="0 0 24 24" fill="none" xmlns="http://www.w3.org/2000/svg">
<g id="Group 986834">
<path id="Vector" d="M0 0H24V24H0V0Z" fill="#017ACB"/>
<path id="Vector_2" d="M11.5237 8.88685H12.675V10.8744H9.56246V19.7168L9.47996 19.7394C9.36746 19.7694 7.88621 19.7693 7.56746 19.7356L7.31246 19.7131V10.8744H4.19995V8.88685L5.1862 8.8756C5.7262 8.8681 7.11371 8.8681 8.26871 8.8756C9.42371 8.8831 10.8862 8.88685 11.5237 8.88685ZM20.31 18.7793C19.8525 19.2631 19.3612 19.5331 18.5437 19.7543C18.1875 19.8518 18.1275 19.8556 17.325 19.8519C16.5225 19.8481 16.4587 19.8481 16.0687 19.7468C15.06 19.4881 14.2462 18.9818 13.6912 18.2656C13.5337 18.0631 13.275 17.6431 13.275 17.5906C13.275 17.5756 13.3125 17.5419 13.3612 17.5194C13.41 17.4969 13.5112 17.4331 13.5937 17.3843C13.6762 17.3356 13.8262 17.2456 13.9275 17.1931C14.0287 17.1406 14.3212 16.9681 14.5762 16.8143C14.8312 16.6606 15.0637 16.5368 15.09 16.5368C15.1162 16.5368 15.165 16.5894 15.2025 16.6531C15.4275 17.0318 15.9525 17.5156 16.3237 17.6806C16.5525 17.7781 17.0587 17.8868 17.3025 17.8868C17.5275 17.8868 17.94 17.7894 18.1612 17.6881C18.3975 17.5794 18.5175 17.4706 18.66 17.2531C18.7575 17.0993 18.7687 17.0581 18.765 16.7656C18.765 16.4956 18.75 16.4206 18.675 16.2969C18.465 15.9518 18.18 15.7719 17.025 15.2618C15.8325 14.7331 15.2962 14.4181 14.8612 13.9944C14.5387 13.6794 14.475 13.5931 14.2725 13.1993C14.01 12.6931 13.9762 12.5281 13.9725 11.7744C13.9687 11.2456 13.98 11.0731 14.0362 10.8931C14.115 10.6231 14.37 10.1019 14.4862 9.9706C14.7262 9.68935 14.8125 9.6031 14.9812 9.46435C15.4912 9.04435 16.2862 8.76685 17.0475 8.7406C17.1337 8.7406 17.4187 8.7556 17.685 8.77435C18.45 8.8381 18.9712 9.0256 19.4737 9.42685C19.8525 9.72685 20.4262 10.4319 20.37 10.5256C20.3325 10.5819 18.8362 11.5794 18.7387 11.6094C18.6787 11.6281 18.6375 11.6056 18.555 11.5081C18.045 10.8969 17.8387 10.7656 17.3437 10.7356C16.9912 10.7131 16.8037 10.7544 16.5675 10.9119C16.32 11.0769 16.2 11.3281 16.2 11.6768C16.2037 12.1868 16.3987 12.4268 17.1187 12.7831C17.5837 13.0118 17.9812 13.1993 18.0112 13.1993C18.0562 13.1993 19.02 13.6793 19.2712 13.8293C20.4412 14.5156 20.9175 15.2206 21.0412 16.4356C21.1312 17.3506 20.8725 18.1868 20.31 18.7793Z" fill="white"/>
</g>
</svg>
