<svg width="125" height="53" viewBox="0 0 125 53" fill="none" xmlns="http://www.w3.org/2000/svg">
<path d="M119.246 26.8187V0H67.1562V52.0902H119.246V40.9097C122.482 40.1575 124.833 37.2581 124.833 33.8642C124.833 30.4703 122.482 27.5709 119.246 26.8187ZM117.452 39.3623V50.2976H68.9488V1.79392H117.452V28.3689L118.243 28.4631C120.978 28.7872 123.039 31.1089 123.039 33.8656C123.039 36.6223 120.978 38.9454 118.243 39.2681L117.452 39.3623Z" fill="white"/>
<path d="M118.242 28.4645L117.451 28.3703V1.79541H68.9473V50.2991H117.451V39.3638L118.242 39.2696C120.976 38.9455 123.038 36.6238 123.038 33.8671C123.038 31.1104 120.976 28.7873 118.242 28.4645Z" fill="#0066FF"/>
<path d="M78.0683 7.62866C73.1493 2.70958 66.608 0 59.6512 0C52.6944 0 46.1546 2.70958 41.2341 7.62866C36.3151 12.5477 33.6055 19.089 33.6055 26.0458C33.6055 33.0026 36.3151 39.5424 41.2341 44.4629C46.1532 49.382 52.6944 52.0915 59.6512 52.0915C66.608 52.0915 73.1479 49.382 78.0683 44.4629C82.9874 39.5438 85.697 33.0026 85.697 26.0458C85.697 19.089 82.9874 12.5491 78.0683 7.62866ZM59.6526 50.2976C46.2807 50.2976 35.4008 39.4177 35.4008 26.0458C35.4008 12.6738 46.2807 1.79392 59.6526 1.79392C73.0246 1.79392 83.9045 12.6738 83.9045 26.0458C83.9045 39.4177 73.0246 50.2976 59.6526 50.2976Z" fill="white"/>
<path d="M59.6639 1.79541C46.292 1.79541 35.4121 12.6753 35.4121 26.0473C35.4121 39.4192 46.292 50.2991 59.6639 50.2991C73.0359 50.2991 83.9158 39.4192 83.9158 26.0473C83.9158 12.6753 73.0359 1.79541 59.6639 1.79541Z" fill="#0066FF"/>
<path d="M55.1237 19.7319C55.9385 19.7319 56.599 18.3048 56.599 16.5444C56.599 14.784 55.9385 13.3569 55.1237 13.3569C54.3089 13.3569 53.6484 14.784 53.6484 16.5444C53.6484 18.3048 54.3089 19.7319 55.1237 19.7319Z" fill="white"/>
<path d="M59.6472 19.732C60.462 19.732 61.1225 18.3049 61.1225 16.5445C61.1225 14.7841 60.462 13.357 59.6472 13.357C58.8324 13.357 58.1719 14.7841 58.1719 16.5445C58.1719 18.3049 58.8324 19.732 59.6472 19.732Z" fill="white"/>
<path d="M81.0636 19.6937C84.5645 19.6937 87.4026 16.8556 87.4026 13.3547C87.4026 9.8538 84.5645 7.01575 81.0636 7.01575C77.5627 7.01575 74.7246 9.8538 74.7246 13.3547C74.7246 16.8556 77.5627 19.6937 81.0636 19.6937Z" fill="white"/>
<path d="M56.6962 52.0911L28.3481 2.9917L14.1879 27.5178C13.1282 26.9346 11.9424 26.6299 10.7109 26.6299C6.7213 26.6299 3.47424 29.8756 3.47424 33.8651C3.47424 36.4168 4.81241 38.7496 6.95264 40.0489L0 52.0897H56.6962V52.0911ZM10.7109 28.4224C11.8925 28.4224 13.0159 28.795 13.9593 29.4988L14.7669 30.1014L28.3481 6.57815L53.5904 50.2985H3.10575L9.47659 39.2635L8.55263 38.8645C6.55646 38.0015 5.26677 36.04 5.26677 33.8665C5.26677 30.8646 7.70899 28.4238 10.7095 28.4238L10.7109 28.4224Z" fill="white"/>
<path d="M53.5946 50.301L28.3522 6.58063L14.7711 30.1038L13.9635 29.5012C13.0187 28.7975 11.8953 28.4249 10.7151 28.4249C7.71318 28.4249 5.27234 30.8671 5.27234 33.8676C5.27234 36.0411 6.56203 38.0026 8.5582 38.8656L9.48216 39.2646L3.11133 50.2996H53.5959L53.5946 50.301Z" fill="#0066FF"/>
<path d="M45.6398 40.2102C49.1407 40.2102 51.9787 37.3722 51.9787 33.8713C51.9787 30.3703 49.1407 27.5323 45.6398 27.5323C42.1388 27.5323 39.3008 30.3703 39.3008 33.8713C39.3008 37.3722 42.1388 40.2102 45.6398 40.2102Z" fill="white"/>
</svg>
