<svg width="184" height="44" viewBox="0 0 184 44" fill="none" xmlns="http://www.w3.org/2000/svg">
<path d="M29.9691 10V21.6378C29.9691 22.1529 29.8382 22.6369 29.6084 23.0596C29.1039 23.9862 28.1217 24.6147 26.9923 24.6147C25.8628 24.6147 24.8807 23.9862 24.3761 23.0596C24.1458 22.6369 24.0154 22.1529 24.0154 21.6378V10H19.9846V21.6378C19.9846 22.1529 19.8536 22.6369 19.6238 23.0596C19.1193 23.9862 18.1372 24.6147 17.0077 24.6147C15.8783 24.6147 14.8961 23.9862 14.3916 23.0596C14.1618 22.6369 14.0309 22.1529 14.0309 21.6378V10H10V34H34V10H29.9691Z" fill="#0066FF"/>
<path d="M38.0006 10V34H43.9537V28.0469H56.0469V34H62V10H38H38.0006ZM50.0009 22.2324C48.357 22.2324 47.024 20.8995 47.024 19.2555C47.024 17.6116 48.357 16.2787 50.0009 16.2787C51.6448 16.2787 52.9777 17.6116 52.9777 19.2555C52.9777 20.8995 51.6448 22.2324 50.0009 22.2324Z" fill="#0066FF"/>
<path d="M81.3454 19.9846V21.6016V21.6028C81.3454 21.6028 81.3454 21.6039 81.3454 21.6045C81.3454 22.2347 81.1484 22.8182 80.814 23.2993C80.2762 24.0727 79.3817 24.5796 78.3686 24.5796C77.3555 24.5796 76.4604 24.0727 75.9232 23.2993C75.5888 22.8182 75.3923 22.2341 75.3918 21.6045C75.3918 21.6045 75.3918 21.6033 75.3918 21.6028V21.6016V19.9846H75.3853V14.0315H90V10H66V34H90V19.9846H81.3448H81.3454Z" fill="#0066FF"/>
<path d="M109.345 19.9846V21.6016V21.6028C109.345 21.6028 109.345 21.6039 109.345 21.6045C109.345 22.2347 109.148 22.8182 108.814 23.2993C108.276 24.0727 107.382 24.5796 106.369 24.5796C105.355 24.5796 104.46 24.0727 103.923 23.2993C103.589 22.8182 103.392 22.2341 103.392 21.6045C103.392 21.6045 103.392 21.6033 103.392 21.6028V21.6016V19.9846H103.385V14.0315H118V10H94V34H118V19.9846H109.345H109.345Z" fill="#0066FF"/>
<path d="M136.078 24.6147C135.85 24.6147 135.626 24.5983 135.407 24.5667C133.379 24.2762 131.769 22.689 131.445 20.6721C131.406 20.4277 131.385 20.1775 131.385 19.922V10H122V34H146V24.6147H136.078Z" fill="#0066FF"/>
<path d="M159.385 29.9691V24.0154H174V19.9846H159.385V14.0309H174V10H150V34H174V29.9691H159.385Z" fill="#0066FF"/>
</svg>
