<svg width="164" height="24" viewBox="0 0 164 24" fill="none" xmlns="http://www.w3.org/2000/svg">
<g id="logo">
<path id="Vector" d="M27.8463 0V24H33.7994V18.0469H45.8926V24H51.8457V0H27.8457H27.8463ZM39.8466 12.2324C38.2027 12.2324 36.8697 10.8995 36.8697 9.25555C36.8697 7.61162 38.2027 6.27871 39.8466 6.27871C41.4905 6.27871 42.8234 7.61162 42.8234 9.25555C42.8234 10.8995 41.4905 12.2324 39.8466 12.2324Z" fill="#0066FF"/>
<path id="Vector_2" d="M71.0378 9.98455V11.6016V11.6028C71.0378 11.6028 71.0378 11.6039 71.0378 11.6045C71.0378 12.2347 70.8408 12.8182 70.5064 13.2993C69.9686 14.0727 69.0741 14.5796 68.061 14.5796C67.0478 14.5796 66.1528 14.0727 65.6156 13.2993C65.2812 12.8182 65.0847 12.2341 65.0841 11.6045C65.0841 11.6045 65.0841 11.6033 65.0841 11.6028V11.6016V9.98455H65.0777V4.03147H79.6924V0H55.6924V24H79.6924V9.98455H71.0372H71.0378Z" fill="#0066FF"/>
<path id="Vector_3" d="M98.8838 9.98455V11.6016V11.6028C98.8838 11.6028 98.8838 11.6039 98.8838 11.6045C98.8838 12.2347 98.6867 12.8182 98.3523 13.2993C97.8145 14.0727 96.9201 14.5796 95.9069 14.5796C94.8938 14.5796 93.9988 14.0727 93.4615 13.2993C93.1271 12.8182 92.9307 12.2341 92.9301 11.6045C92.9301 11.6045 92.9301 11.6033 92.9301 11.6028V11.6016V9.98455H92.9237V4.03147H107.538V0H83.5383V24H107.538V9.98455H98.8832H98.8838Z" fill="#0066FF"/>
<path id="Vector_4" d="M19.9691 0V11.6378C19.9691 12.1529 19.8382 12.6369 19.6084 13.0596C19.1039 13.9862 18.1217 14.6147 16.9923 14.6147C15.8628 14.6147 14.8807 13.9862 14.3761 13.0596C14.1458 12.6369 14.0154 12.1529 14.0154 11.6378V0H9.98455V11.6378C9.98455 12.1529 9.8536 12.6369 9.62385 13.0596C9.11933 13.9862 8.13719 14.6147 7.00772 14.6147C5.87825 14.6147 4.89611 13.9862 4.39159 13.0596C4.16184 12.6369 4.03089 12.1529 4.03089 11.6378V0H0V24H24V0H19.9691Z" fill="#0066FF"/>
<path id="Vector_5" d="M148.617 19.9691V14.0154H163.232V9.98455H148.617V4.03089H163.232V0H139.232V24H163.232V19.9691H148.617Z" fill="#0066FF"/>
<path id="Vector_6" d="M125.464 14.6147C125.236 14.6147 125.012 14.5983 124.793 14.5667C122.765 14.2762 121.155 12.689 120.831 10.6721C120.792 10.4277 120.771 10.1775 120.771 9.922V0H111.386V24H135.386V14.6147H125.464Z" fill="#0066FF"/>
</g>
</svg>
