<svg width="241" height="144" viewBox="0 0 241 144" fill="none" xmlns="http://www.w3.org/2000/svg">
<path d="M232.004 103.307V60.1244H148.131V143.998H232.004V125.995C237.215 124.784 241 120.116 241 114.651C241 109.186 237.215 104.518 232.004 103.307ZM229.116 123.504V141.111H151.017V63.0129H229.116V105.803L230.389 105.954C234.792 106.476 238.111 110.215 238.111 114.653C238.111 119.092 234.792 122.833 230.389 123.352L229.116 123.504Z" fill="white"/>
<path d="M230.392 105.954L229.118 105.802V63.0122H151.02V141.111H229.118V123.503L230.392 123.352C234.795 122.83 238.114 119.091 238.114 114.653C238.114 110.214 234.795 106.473 230.392 105.954Z" fill="#0066FF"/>
<path d="M165.709 72.4077C157.789 64.4872 147.257 60.1244 136.055 60.1244C124.853 60.1244 114.323 64.4872 106.401 72.4077C98.4801 80.3282 94.1172 90.8606 94.1172 102.062C94.1172 113.264 98.4801 123.794 106.401 131.717C114.321 139.637 124.853 144 136.055 144C147.257 144 157.787 139.637 165.709 131.717C173.63 123.796 177.993 113.264 177.993 102.062C177.993 90.8606 173.63 80.3305 165.709 72.4077ZM136.057 141.111C114.526 141.111 97.008 123.593 97.008 102.062C97.008 80.5312 114.526 63.0129 136.057 63.0129C157.588 63.0129 175.107 80.5312 175.107 102.062C175.107 123.593 157.588 141.111 136.057 141.111Z" fill="white"/>
<path d="M136.054 63.0123C114.523 63.0123 97.0049 80.5306 97.0049 102.062C97.0049 123.593 114.523 141.111 136.054 141.111C157.585 141.111 175.103 123.593 175.103 102.062C175.103 80.5306 157.585 63.0123 136.054 63.0123Z" fill="#0066FF"/>
<path d="M128.771 91.8959C130.083 91.8959 131.146 89.5981 131.146 86.7635C131.146 83.929 130.083 81.6312 128.771 81.6312C127.459 81.6312 126.396 83.929 126.396 86.7635C126.396 89.5981 127.459 91.8959 128.771 91.8959Z" fill="white"/>
<path d="M136.055 91.8958C137.367 91.8958 138.431 89.598 138.431 86.7635C138.431 83.9289 137.367 81.6311 136.055 81.6311C134.743 81.6311 133.68 83.9289 133.68 86.7635C133.68 89.598 134.743 91.8958 136.055 91.8958Z" fill="white"/>
<path d="M170.542 91.834C176.179 91.834 180.748 87.2643 180.748 81.6273C180.748 75.9903 176.179 71.4205 170.542 71.4205C164.905 71.4205 160.335 75.9903 160.335 81.6273C160.335 87.2643 164.905 91.834 170.542 91.834Z" fill="white"/>
<path d="M131.29 144L85.6448 64.942L62.8447 104.433C61.1384 103.494 59.2291 103.003 57.2462 103.003C50.8224 103.003 45.5941 108.229 45.5941 114.653C45.5941 118.762 47.7487 122.518 51.1948 124.61L40 143.997H131.29V144ZM57.2462 105.889C59.1488 105.889 60.9577 106.489 62.4767 107.623L63.7771 108.593L85.6448 70.7167L126.289 141.113H45.0008L55.2588 123.345L53.7711 122.703C50.5569 121.313 48.4803 118.155 48.4803 114.655C48.4803 109.822 52.4127 105.892 57.2439 105.892L57.2462 105.889Z" fill="white"/>
<path d="M126.295 141.114L85.6507 70.7177L63.7829 108.594L62.4825 107.623C60.9613 106.49 59.1524 105.89 57.252 105.89C52.4185 105.89 48.4884 109.823 48.4884 114.654C48.4884 118.154 50.565 121.312 53.7791 122.702L55.2668 123.344L45.0088 141.112H126.297L126.295 141.114Z" fill="#0066FF"/>
<path d="M113.472 124.866C119.109 124.866 123.679 120.296 123.679 114.659C123.679 109.022 119.109 104.453 113.472 104.453C107.835 104.453 103.266 109.022 103.266 114.659C103.266 120.296 107.835 124.866 113.472 124.866Z" fill="white"/>
<mask id="path-11-inside-1_2078_28688" fill="white">
<path fill-rule="evenodd" clip-rule="evenodd" d="M133.333 0C148.061 0 160 11.9391 160 26.6667C160 41.3943 148.061 53.3333 133.333 53.3333H45.1474C44.0688 55.4629 44.7181 58.7704 45.4264 62.3786C45.5953 63.2393 45.7676 64.1171 45.9206 65.0001C45.9206 65.0001 36.9855 56.9001 33.6538 53.7501C33.4987 53.6038 33.3464 53.465 33.1964 53.3333H26.6667C11.9391 53.3333 0 41.3943 0 26.6667C0 11.9391 11.9391 0 26.6667 0H133.333Z"/>
</mask>
<path d="M45.1474 53.3333L43.3632 52.4297L43.9185 51.3333H45.1474V53.3333ZM45.4264 62.3786L43.4638 62.7638V62.7638L45.4264 62.3786ZM45.9206 65.0001L47.8913 64.6586L48.8838 70.3857L44.5774 66.4818L45.9206 65.0001ZM33.6538 53.7501L35.0262 52.2952L35.0278 52.2968L33.6538 53.7501ZM33.1964 53.3333V51.3333H33.9497L34.5159 51.8303L33.1964 53.3333ZM158 26.6667C158 13.0436 146.956 2 133.333 2V-2C149.165 -2 162 10.8345 162 26.6667H158ZM133.333 51.3333C146.956 51.3333 158 40.2897 158 26.6667H162C162 42.4988 149.165 55.3333 133.333 55.3333V51.3333ZM45.1474 51.3333H133.333V55.3333H45.1474V51.3333ZM43.4638 62.7638C43.1159 60.9917 42.7492 59.1377 42.6224 57.4513C42.4974 55.7877 42.5755 53.9849 43.3632 52.4297L46.9316 54.237C46.6407 54.8113 46.5042 55.7271 46.6112 57.1516C46.7165 58.5534 47.0285 60.1573 47.3889 61.9933L43.4638 62.7638ZM43.95 65.3416C43.8014 64.4841 43.6334 63.628 43.4638 62.7638L47.3889 61.9933C47.5572 62.8505 47.7338 63.75 47.8913 64.6586L43.95 65.3416ZM35.0278 52.2968C36.6786 53.8575 39.732 56.658 42.3848 59.0791C43.7087 60.2872 44.9286 61.3972 45.8176 62.2051C46.2621 62.6091 46.6238 62.9375 46.8743 63.1649C46.9996 63.2785 47.097 63.367 47.1631 63.4269C47.1962 63.4569 47.2214 63.4798 47.2384 63.4951C47.2468 63.5028 47.2532 63.5086 47.2575 63.5125C47.2597 63.5144 47.2613 63.5159 47.2623 63.5169C47.2629 63.5174 47.2633 63.5177 47.2635 63.518C47.2637 63.5181 47.2638 63.5182 47.2638 63.5182C47.2639 63.5183 47.2639 63.5183 45.9206 65.0001C44.5774 66.4818 44.5773 66.4818 44.5773 66.4817C44.5772 66.4817 44.5771 66.4816 44.5769 66.4814C44.5767 66.4812 44.5762 66.4808 44.5757 66.4803C44.5746 66.4793 44.573 66.4778 44.5708 66.4759C44.5664 66.4719 44.56 66.4661 44.5514 66.4583C44.5344 66.4428 44.509 66.4199 44.4758 66.3897C44.4094 66.3295 44.3117 66.2408 44.1861 66.1269C43.935 65.899 43.5726 65.57 43.1273 65.1653C42.2369 64.3561 41.0148 63.2442 39.6884 62.0336C37.0407 59.6172 33.9607 56.7926 32.2798 55.2034L35.0278 52.2968ZM34.5159 51.8303C34.6848 51.9786 34.8548 52.1335 35.0262 52.2952L32.2814 55.2049C32.1427 55.074 32.008 54.9514 31.8769 54.8363L34.5159 51.8303ZM26.6667 51.3333H33.1964V55.3333H26.6667V51.3333ZM2 26.6667C2 40.2897 13.0436 51.3333 26.6667 51.3333V55.3333C10.8345 55.3333 -2 42.4988 -2 26.6667H2ZM26.6667 2C13.0436 2 2 13.0436 2 26.6667H-2C-2 10.8345 10.8345 -2 26.6667 -2V2ZM133.333 2H26.6667V-2H133.333V2Z" fill="#0066FF" mask="url(#path-11-inside-1_2078_28688)"/>
<path d="M38.625 25.3854V26.8073H36.5312V34.026H34.7969V19.9323H36.5312V25.3854H38.625ZM25.9688 30.5416V21.3073H27.6875V29.1041C29.5703 29.0729 31.5703 28.9088 33.7031 28.4635L33.8906 29.9323C31.5078 30.4088 29.25 30.5338 27.1562 30.5416H25.9688ZM43.875 20.9166C46.1172 20.9088 47.75 22.3229 47.7656 24.3229C47.75 26.3307 46.1172 27.7369 43.875 27.7448C41.6562 27.7369 39.9922 26.3307 40 24.3229C39.9922 22.3229 41.6562 20.9088 43.875 20.9166ZM39.3594 29.6979C41.9062 29.6979 45.4297 29.6666 48.4844 29.2291L48.625 30.4948C45.4609 31.0963 42.0703 31.1198 39.5781 31.1198L39.3594 29.6979ZM41.7188 24.3229C41.7109 25.5026 42.6406 26.2291 43.875 26.2291C45.125 26.2291 46.0547 25.5026 46.0625 24.3229C46.0547 23.151 45.1328 22.4166 43.875 22.4166C42.6406 22.4166 41.7109 23.151 41.7188 24.3229ZM49.3281 34.0729V19.9323H51.0625V34.0729H49.3281ZM69.8125 26.6979V28.0885H56.9219V26.6979H62.5156V25.3541H58.5V20.5729H68.25V21.9323H60.2344V23.9791H68.3281V25.3541H64.2188V26.6979H69.8125ZM58.4219 31.4791C58.4219 29.8229 60.2734 28.8932 63.3438 28.901C66.3906 28.8932 68.2266 29.8229 68.2344 31.4791C68.2266 33.1198 66.3906 34.0494 63.3438 34.0573C60.2734 34.0494 58.4219 33.1198 58.4219 31.4791ZM60.1875 31.4791C60.1797 32.2994 61.2891 32.7213 63.3438 32.7135C65.3672 32.7213 66.4844 32.2994 66.5 31.4791C66.4844 30.6666 65.3672 30.2291 63.3438 30.2291C61.2891 30.2291 60.1797 30.6666 60.1875 31.4791ZM83.6562 30.9791V32.4166H70.75V30.9791H74.1719V28.651H72.2812V24.0416H80.4062V22.3073H72.25V20.901H82.125V25.4323H74.0156V27.2448H82.4531V28.651H80.3906V30.9791H83.6562ZM75.8594 30.9791H78.6875V28.651H75.8594V30.9791ZM95.6406 19.9323V25.4479H97.7344V26.901H95.6406V34.026H93.9062V19.9323H95.6406ZM84.5 30.1666C87.9375 28.4479 89.7969 26.0573 90.1406 22.8385H85.2656V21.401H91.9062C91.8984 25.5494 90.1797 29.1979 85.4844 31.5104L84.5 30.1666ZM102.016 29.7448C102.852 29.7448 103.883 29.7369 104.969 29.7135V27.1823H102.688V21.2604H108.734V22.6823H104.391V25.7916H108.859V27.1823H106.625V29.651C107.547 29.6119 108.453 29.5416 109.25 29.4479L109.344 30.6979C107.047 31.1119 104.109 31.1744 102.266 31.1823L102.016 29.7448ZM109.844 33.3698V20.1979H111.469V25.6354H112.781V19.9323H114.453V34.0573H112.781V27.0573H111.469V33.3698H109.844ZM127.094 19.9323V25.3541H129.266V26.8073H127.094V34.0729H125.375V19.9323H127.094ZM116.594 22.5729V21.1666H123.094V26.4948H118.344V29.3073C120.586 29.2916 122.328 29.1979 124.297 28.8541L124.453 30.2604C122.273 30.651 120.352 30.7448 117.781 30.7448H116.625V25.1041H121.359V22.5729H116.594ZM132.766 21.3541L132.594 29.3385H130.828L130.641 21.3541H132.766ZM130.5 31.5729C130.492 30.9166 131.047 30.3776 131.719 30.3698C132.367 30.3776 132.922 30.9166 132.922 31.5729C132.922 32.2448 132.367 32.7916 131.719 32.7916C131.047 32.7916 130.492 32.2448 130.5 31.5729Z" fill="#17171B"/>
</svg>
