<svg width="40" height="40" viewBox="0 0 40 40" fill="none" xmlns="http://www.w3.org/2000/svg">
<path d="M20 2.5C29.665 2.5 37.5 10.335 37.5 20L38.5 20C38.5 9.78274 30.2173 1.5 20 1.5L20 2.5ZM2.5 20C2.5 10.335 10.335 2.5 20 2.5L20 1.5C9.78274 1.5 1.5 9.78273 1.5 20L2.5 20ZM20 37.5C10.335 37.5 2.5 29.665 2.5 20L1.5 20C1.5 30.2173 9.78273 38.5 20 38.5L20 37.5ZM20 38.5C30.2173 38.5 38.5 30.2173 38.5 20L37.5 20C37.5 29.665 29.665 37.5 20 37.5L20 38.5Z" fill="#E8E8E9"/>
<path d="M15 20L25 20" stroke="#5D5D60" stroke-width="2" stroke-linecap="round"/>
<path d="M20 15L20 25" stroke="#5D5D60" stroke-width="2" stroke-linecap="round"/>
</svg>
