<svg width="32" height="32" viewBox="0 0 32 32" fill="none" xmlns="http://www.w3.org/2000/svg">
<g id="symbol">
<path id="Vector" d="M15.2572 1.79639C7.42486 1.79639 1.05225 8.169 1.05225 16.0013C1.05225 23.8336 7.42486 30.2062 15.2572 30.2062C23.0895 30.2062 29.4621 23.8336 29.4621 16.0013C29.4621 8.169 23.0895 1.79639 15.2572 1.79639Z" fill="#FFE100"/>
<g id="Group">
<path id="Vector_2" d="M12.6063 12.2893C13.0836 12.2893 13.4704 11.4534 13.4704 10.4223C13.4704 9.39118 13.0836 8.5553 12.6063 8.5553C12.1291 8.5553 11.7422 9.39118 11.7422 10.4223C11.7422 11.4534 12.1291 12.2893 12.6063 12.2893Z" fill="#17171B"/>
<path id="Vector_3" d="M15.2572 12.2893C15.7344 12.2893 16.1213 11.4534 16.1213 10.4223C16.1213 9.39118 15.7344 8.5553 15.2572 8.5553C14.7799 8.5553 14.3931 9.39118 14.3931 10.4223C14.3931 11.4534 14.7799 12.2893 15.2572 12.2893Z" fill="#17171B"/>
</g>
<path id="Vector_4" d="M7.04368 17.348C5.26351 17.348 3.81519 18.7963 3.81519 20.5765C3.81519 22.3567 5.26351 23.805 7.04368 23.805C8.82386 23.805 10.2722 22.3567 10.2722 20.5765C10.2722 18.7963 8.82386 17.348 7.04368 17.348Z" fill="#FFE100"/>
<path id="Vector_5" d="M26.0433 5.21268C23.162 2.33145 19.3307 0.744385 15.2559 0.744385C11.1811 0.744385 7.35058 2.33145 4.46854 5.21268C1.58731 8.0939 0.000244141 11.9253 0.000244141 16C0.000244141 20.0748 1.58731 23.9062 4.46854 26.7874C7.34977 29.6686 11.1811 31.2557 15.2559 31.2557C19.3307 31.2557 23.1612 29.6686 26.0433 26.7874C28.9253 23.9062 30.5116 20.0748 30.5116 16C30.5116 11.9253 28.9245 8.09472 26.0433 5.21268ZM15.2567 30.205C7.42441 30.205 1.0518 23.8323 1.0518 16C1.0518 8.16774 7.42441 1.79512 15.2567 1.79512C23.089 1.79512 29.4616 8.16774 29.4616 16C29.4616 23.8323 23.089 30.205 15.2567 30.205Z" fill="white"/>
<path id="Vector_6" d="M7.04373 16.3794C4.72885 16.3794 2.84644 18.2626 2.84644 20.5767C2.84644 22.8908 4.72966 24.774 7.04373 24.774C9.3578 24.774 11.241 22.8908 11.241 20.5767C11.241 18.2626 9.3578 16.3794 7.04373 16.3794ZM7.04373 23.806C5.26355 23.806 3.81523 22.3577 3.81523 20.5775C3.81523 18.7973 5.26355 17.349 7.04373 17.349C8.82391 17.349 10.2722 18.7973 10.2722 20.5775C10.2722 22.3577 8.82391 23.806 7.04373 23.806Z" fill="white"/>
<path id="Vector_7" d="M27.8019 4.36926C25.487 4.36926 23.6038 6.25249 23.6038 8.56737C23.6038 10.8822 25.487 12.7647 27.8019 12.7647C30.1167 12.7647 32 10.8814 32 8.56737C32 6.2533 30.1167 4.36926 27.8019 4.36926ZM27.8019 11.7959C26.0217 11.7959 24.5734 10.3475 24.5734 8.56737C24.5734 6.78719 26.0217 5.33887 27.8019 5.33887C29.582 5.33887 31.0304 6.78719 31.0304 8.56737C31.0304 10.3475 29.582 11.7959 27.8019 11.7959Z" fill="white"/>
<path id="Vector_8" d="M27.801 5.33801C26.0208 5.33801 24.5725 6.78633 24.5725 8.56651C24.5725 10.3467 26.0208 11.795 27.801 11.795C29.5812 11.795 31.0295 10.3467 31.0295 8.56651C31.0295 6.78633 29.5812 5.33801 27.801 5.33801Z" fill="#FFE100"/>
</g>
</svg>
