<svg width="44" height="44" viewBox="0 0 44 44" fill="none" xmlns="http://www.w3.org/2000/svg">
<path d="M26 20H18L22 24L26 20Z" fill="#17171B"/>
<path d="M18 20V19C17.5955 19 17.2309 19.2436 17.0761 19.6173C16.9213 19.991 17.0069 20.4211 17.2929 20.7071L18 20ZM26 20L26.7071 20.7071C26.9931 20.4211 27.0787 19.991 26.9239 19.6173C26.7691 19.2436 26.4045 19 26 19V20ZM22 24L21.2929 24.7071C21.6834 25.0976 22.3166 25.0976 22.7071 24.7071L22 24ZM18 21H26V19H18V21ZM25.2929 19.2929L21.2929 23.2929L22.7071 24.7071L26.7071 20.7071L25.2929 19.2929ZM22.7071 23.2929L18.7071 19.2929L17.2929 20.7071L21.2929 24.7071L22.7071 23.2929Z" fill="#17171B"/>
</svg>
