<svg width="10" height="6" viewBox="0 0 10 6" fill="none" xmlns="http://www.w3.org/2000/svg">
<path d="M9 1H1L5 5L9 1Z" fill="#17171B"/>
<path d="M1 1V0C0.595538 0 0.230901 0.243642 0.0761205 0.617317C-0.0786605 0.990991 0.00689524 1.42111 0.292893 1.70711L1 1ZM9 1L9.70711 1.70711C9.9931 1.42111 10.0787 0.990991 9.92388 0.617317C9.7691 0.243642 9.40446 0 9 0V1ZM5 5L4.29289 5.70711C4.68342 6.09763 5.31658 6.09763 5.70711 5.70711L5 5ZM1 2H9V0H1V2ZM8.29289 0.292893L4.29289 4.29289L5.70711 5.70711L9.70711 1.70711L8.29289 0.292893ZM5.70711 4.29289L1.70711 0.292893L0.292893 1.70711L4.29289 5.70711L5.70711 4.29289Z" fill="#17171B"/>
</svg>
