<svg width="18" height="18" viewBox="0 0 18 18" fill="none" xmlns="http://www.w3.org/2000/svg">
<path d="M12 7.5H6L9 10.5L12 7.5Z" fill="#17171B"/>
<path d="M6 7.5V6.5C5.59554 6.5 5.2309 6.74364 5.07612 7.11732C4.92134 7.49099 5.0069 7.92111 5.29289 8.20711L6 7.5ZM12 7.5L12.7071 8.20711C12.9931 7.92111 13.0787 7.49099 12.9239 7.11732C12.7691 6.74364 12.4045 6.5 12 6.5V7.5ZM9 10.5L8.29289 11.2071C8.68342 11.5976 9.31658 11.5976 9.70711 11.2071L9 10.5ZM6 8.5H12V6.5H6V8.5ZM11.2929 6.79289L8.29289 9.79289L9.70711 11.2071L12.7071 8.20711L11.2929 6.79289ZM9.70711 9.79289L6.70711 6.79289L5.29289 8.20711L8.29289 11.2071L9.70711 9.79289Z" fill="#17171B"/>
</svg>
