<svg width="44" height="44" viewBox="0 0 44 44" fill="none" xmlns="http://www.w3.org/2000/svg">
<path d="M15.3163 29.4384C15.9246 28.0052 17.3449 27 19 27H25C26.6551 27 28.0754 28.0052 28.6837 29.4384M26 19.5C26 21.7091 24.2091 23.5 22 23.5C19.7909 23.5 18 21.7091 18 19.5C18 17.2909 19.7909 15.5 22 15.5C24.2091 15.5 26 17.2909 26 19.5ZM32 22C32 27.5228 27.5228 32 22 32C16.4772 32 12 27.5228 12 22C12 16.4772 16.4772 12 22 12C27.5228 12 32 16.4772 32 22Z" stroke="#17171B" stroke-width="1.5" stroke-linecap="round" stroke-linejoin="round"/>
</svg>
