<svg width="24" height="24" viewBox="0 0 24 24" fill="none" xmlns="http://www.w3.org/2000/svg">
<g clip-path="url(#clip0_6462_196685)">
<path d="M18.6748 23.9873L5.34851 24C2.41673 24.0027 0.0159938 21.6066 0.0126622 18.6748L2.22137e-06 5.34851C-0.00266304 2.41673 2.39341 0.0159938 5.32519 0.0126622L18.6515 2.22137e-06C21.5833 -0.00266304 23.984 2.39341 23.9873 5.32519L24 18.6515C24.0033 21.5839 21.6066 23.9847 18.6748 23.9873Z" fill="url(#paint0_radial_6462_196685)"/>
<path d="M18.6748 23.9873L5.34851 24C2.41673 24.0027 0.0159938 21.6066 0.0126622 18.6748L2.22137e-06 5.34851C-0.00266304 2.41673 2.39341 0.0159938 5.32519 0.0126622L18.6515 2.22137e-06C21.5833 -0.00266304 23.984 2.39341 23.9873 5.32519L24 18.6515C24.0033 21.5839 21.6066 23.9847 18.6748 23.9873Z" fill="url(#paint1_radial_6462_196685)"/>
<path d="M12.0001 16.6646C9.42883 16.6646 7.33594 14.5724 7.33594 12.0004C7.33594 9.42841 9.42883 7.33618 12.0001 7.33618C14.5714 7.33618 16.6643 9.42841 16.6643 12.0004C16.6643 14.5724 14.5714 16.6646 12.0001 16.6646ZM12.0001 8.66881C10.1631 8.66881 8.66857 10.1634 8.66857 12.0004C8.66857 13.8374 10.1631 15.332 12.0001 15.332C13.8372 15.332 15.3317 13.8374 15.3317 12.0004C15.3317 10.1634 13.8372 8.66881 12.0001 8.66881Z" fill="white"/>
<path d="M16.9985 8.002C17.5505 8.002 17.998 7.55452 17.998 7.00252C17.998 6.45053 17.5505 6.00305 16.9985 6.00305C16.4465 6.00305 15.999 6.45053 15.999 7.00252C15.999 7.55452 16.4465 8.002 16.9985 8.002Z" fill="white"/>
<path d="M15.9969 20.6624H8.00112C5.42981 20.6624 3.33691 18.5702 3.33691 15.9982V8.00246C3.33691 5.43049 5.42981 3.33826 8.00112 3.33826H15.9969C18.5682 3.33826 20.6611 5.43049 20.6611 8.00246V15.9982C20.6611 18.5702 18.5682 20.6624 15.9969 20.6624ZM8.00112 4.67089C6.16409 4.67089 4.66954 6.16543 4.66954 8.00246V15.9982C4.66954 17.8353 6.16409 19.3298 8.00112 19.3298H15.9969C17.8339 19.3298 19.3285 17.8353 19.3285 15.9982V8.00246C19.3285 6.16543 17.8339 4.67089 15.9969 4.67089H8.00112Z" fill="white"/>
</g>
<defs>
<radialGradient id="paint0_radial_6462_196685" cx="0" cy="0" r="1" gradientUnits="userSpaceOnUse" gradientTransform="translate(8.92196 24.0173) scale(29.9169 29.9169)">
<stop stop-color="#FFDD55"/>
<stop offset="0.328" stop-color="#FF543F"/>
<stop offset="0.348" stop-color="#FC5245"/>
<stop offset="0.504" stop-color="#E64771"/>
<stop offset="0.643" stop-color="#D53E91"/>
<stop offset="0.761" stop-color="#CC39A4"/>
<stop offset="0.841" stop-color="#C837AB"/>
</radialGradient>
<radialGradient id="paint1_radial_6462_196685" cx="0" cy="0" r="1" gradientUnits="userSpaceOnUse" gradientTransform="translate(3.86196 -0.299638) scale(19.8648 13.2359)">
<stop stop-color="#4168C9"/>
<stop offset="0.999" stop-color="#4168C9" stop-opacity="0"/>
</radialGradient>
<clipPath id="clip0_6462_196685">
<rect width="24" height="24" fill="white"/>
</clipPath>
</defs>
</svg>
