<svg width="24" height="24" viewBox="0 0 24 24" fill="none" xmlns="http://www.w3.org/2000/svg">
<g clip-path="url(#clip0_6462_196692)">
<path d="M24 12C24 18.6268 18.6279 24 11.9993 24C5.37207 24 0 18.6268 0 12C0 5.37314 5.37207 0 11.9993 0C18.6279 0 24 5.37314 24 12Z" fill="#231F20"/>
<path d="M14.6938 5.19093C15.7775 4.23638 16.2628 4.08489 16.4984 4.38332C16.784 4.74187 16.1291 6.06064 15.6127 6.73292C14.7565 7.84577 13.6221 8.37346 13.6029 8.38234C13.6176 8.39355 14.1655 8.82467 13.0463 9.92726C11.1046 11.8385 10.2158 13.4628 9.82559 14.0991C9.6244 14.4263 9.69647 14.4629 9.73673 14.4126C11.3014 12.7852 12.7026 11.8504 13.8617 11.8501C14.6237 11.8501 15.0707 12.2719 15.0707 13.0064C15.0705 14.9456 12.5858 16.3879 11.7123 16.771C10.0529 17.497 8.44763 17.6447 7.94669 17.6743H7.94571C7.84727 17.6806 7.79113 17.6812 7.78751 17.6812C7.78751 17.6812 7.491 17.7844 7.39005 18.3648C7.33501 18.6837 7.17564 18.8217 6.41153 19.1519C6.31701 19.1921 6.21709 19.2352 6.1127 19.2818C6.02895 19.3188 5.95933 19.2623 6.03458 19.1314C6.05857 19.089 6.46488 18.3943 7.01309 17.4468C6.7451 17.3192 6.5327 17.1607 6.41837 17.0415L6.55606 16.7984C6.77831 16.9557 6.99463 17.0615 7.19571 17.1314C8.32951 15.1757 9.92316 12.42 10.1977 11.9077C11.3053 9.83444 13.3462 6.37792 14.6938 5.19093ZM16.7045 19.063L16.5697 19.2925H7.36466L7.50138 19.063H16.7045ZM13.477 12.4302C13.2639 12.4302 12.9889 12.5095 12.7025 12.6548L12.6557 12.6782C10.0395 13.9658 8.02064 17.2199 7.99454 17.2622C8.0143 17.2622 8.03186 17.2607 8.0502 17.2593C8.35843 17.2345 9.89161 17.0752 11.267 16.3579C12.4587 15.735 13.8147 14.4438 13.977 13.0786C14.0023 12.858 13.9646 12.6894 13.8666 12.5786C13.7784 12.4799 13.6477 12.4302 13.477 12.4302ZM15.7992 4.90871C15.7844 4.92321 13.3875 7.26164 11.767 10.3941C12.6177 9.4652 13.1767 9.07998 13.1684 8.77101C13.162 8.52201 12.9191 8.39097 13.1645 8.21535C14.0929 7.55292 15.3067 6.51991 15.7992 4.90871Z" fill="white"/>
</g>
<defs>
<clipPath id="clip0_6462_196692">
<rect width="24" height="24" fill="white"/>
</clipPath>
</defs>
</svg>
