<svg width="24" height="24" viewBox="0 0 24 24" fill="none" xmlns="http://www.w3.org/2000/svg">
<path d="M5.71604 5.50645C6.33771 6.01145 6.57104 5.97312 7.73937 5.89478L18.7518 5.23395C18.9852 5.23395 18.791 5.00062 18.7135 4.96229L16.8835 3.63979C16.5335 3.36812 16.066 3.05646 15.171 3.13396L4.50854 3.91229C4.12021 3.95062 4.04188 4.14562 4.19688 4.30062L5.71604 5.50645ZM6.37687 8.07311V19.6598C6.37687 20.2823 6.68771 20.5156 7.38854 20.4764L19.491 19.7764C20.1918 19.7381 20.2702 19.3098 20.2702 18.8039V7.29478C20.2702 6.78978 20.076 6.51728 19.6468 6.55562L6.99937 7.29478C6.53271 7.33395 6.37687 7.56728 6.37687 8.07228V8.07311ZM18.3243 8.69395C18.4018 9.04395 18.3243 9.39394 17.9743 9.43394L17.391 9.55061V18.1039C16.8843 18.3764 16.4177 18.5323 16.0285 18.5323C15.4052 18.5323 15.2494 18.3373 14.7827 17.7548L10.9685 11.7664V17.5598L12.1752 17.8331C12.1752 17.8331 12.1752 18.5331 11.2019 18.5331L8.51687 18.6881C8.43937 18.5331 8.51687 18.1439 8.78937 18.0664L9.48936 17.8723V10.2114L8.51853 10.1331C8.4402 9.78311 8.6352 9.27811 9.17937 9.23895L12.0594 9.04478L16.0293 15.1106V9.74394L15.0169 9.62811C14.9394 9.19978 15.2502 8.88895 15.6394 8.85061L18.3243 8.69395ZM3.61355 2.86229L14.7052 2.04563C16.0668 1.92896 16.4177 2.00646 17.2735 2.62896L20.8143 5.11729C21.3977 5.54479 21.5927 5.66145 21.5927 6.12812V19.7764C21.5927 20.6314 21.2818 21.1381 20.1927 21.2148L7.31104 21.9931C6.49437 22.0323 6.10437 21.9156 5.67604 21.3706L3.06855 17.9873C2.60188 17.3648 2.40771 16.8989 2.40771 16.3539V4.22229C2.40771 3.52312 2.71938 2.93896 3.61355 2.86229Z" fill="#12141A"/>
<path d="M5.71604 5.50645C6.33771 6.01145 6.57104 5.97312 7.73937 5.89478L18.7518 5.23395C18.9852 5.23395 18.791 5.00062 18.7135 4.96229L16.8835 3.63979C16.5335 3.36812 16.066 3.05646 15.171 3.13396L4.50854 3.91229C4.12021 3.95062 4.04188 4.14562 4.19688 4.30062L5.71604 5.50645Z" fill="white"/>
<path fill-rule="evenodd" clip-rule="evenodd" d="M6.37687 8.07311V19.6598C6.37687 20.2823 6.68771 20.5156 7.38854 20.4764L19.491 19.7764C20.1918 19.7381 20.2702 19.3098 20.2702 18.8039V7.29478C20.2702 6.78978 20.076 6.51728 19.6468 6.55562L6.99937 7.29478C6.53271 7.33395 6.37687 7.56728 6.37687 8.07228V8.07311ZM17.9743 9.43394C18.3243 9.39394 18.4018 9.04395 18.3243 8.69395L15.6394 8.85061C15.2502 8.88895 14.9394 9.19978 15.0169 9.62811L16.0293 9.74394V15.1106L12.0594 9.04478L9.17937 9.23895C8.6352 9.27811 8.4402 9.78311 8.51853 10.1331L9.48936 10.2114V17.8723L8.78937 18.0664C8.51687 18.1439 8.43937 18.5331 8.51687 18.6881L11.2019 18.5331C12.1752 18.5331 12.1752 17.8331 12.1752 17.8331L10.9685 17.5598V11.7664L14.7827 17.7548L14.7836 17.7559C15.2495 18.3375 15.4056 18.5323 16.0285 18.5323C16.4177 18.5323 16.8843 18.3764 17.391 18.1039V9.55061L17.9743 9.43394Z" fill="white"/>
</svg>
