<svg width="24" height="24" viewBox="0 0 24 24" fill="none" xmlns="http://www.w3.org/2000/svg">
<path d="M0 2.66667C0 1.2 1.2 0 2.66667 0H21.3333C22.8 0 24 1.2 24 2.66667V21.3333C24 22.8 22.8 24 21.3333 24H2.66667C1.2 24 0 22.8 0 21.3333V2.66667Z" fill="#1E88E5"/>
<path d="M2.66602 4.13268C2.66602 3.33268 3.33268 2.66602 4.13268 2.66602H9.19935C9.99935 2.66602 10.666 3.33268 10.666 4.13268V18.5327C10.666 19.3327 9.99935 19.9993 9.19935 19.9993H4.13268C3.33268 19.9993 2.66602 19.3327 2.66602 18.5327V4.13268ZM13.3327 11.1993C13.3327 11.9993 13.9993 12.666 14.7993 12.666H19.866C20.666 12.666 21.3327 11.9993 21.3327 11.1993V4.13268C21.3327 3.33268 20.666 2.66602 19.866 2.66602H14.7993C13.9993 2.66602 13.3327 3.33268 13.3327 4.13268V11.1993Z" fill="white"/>
</svg>
