<svg width="24" height="24" viewBox="0 0 24 24" fill="none" xmlns="http://www.w3.org/2000/svg">
<path d="M21.5818 7.15459C21.4687 6.7291 21.2459 6.34077 20.9356 6.02847C20.6253 5.71617 20.2384 5.49084 19.8136 5.37504C18.25 4.95459 12 4.95459 12 4.95459C12 4.95459 5.75 4.95459 4.18636 5.37504C3.76161 5.49084 3.37472 5.71617 3.06441 6.02847C2.7541 6.34077 2.53125 6.7291 2.41818 7.15459C2 8.72504 2 12 2 12C2 12 2 15.275 2.41818 16.8455C2.53125 17.271 2.7541 17.6593 3.06441 17.9716C3.37472 18.2839 3.76161 18.5092 4.18636 18.625C5.75 19.0455 12 19.0455 12 19.0455C12 19.0455 18.25 19.0455 19.8136 18.625C20.2384 18.5092 20.6253 18.2839 20.9356 17.9716C21.2459 17.6593 21.4687 17.271 21.5818 16.8455C22 15.275 22 12 22 12C22 12 22 8.72504 21.5818 7.15459Z" fill="#FF0302"/>
<path d="M9.95264 14.9746V9.02686L15.1799 12.0007L9.95264 14.9746Z" fill="#FEFEFE"/>
</svg>
