<svg width="81" height="67" viewBox="0 0 81 67" fill="none" xmlns="http://www.w3.org/2000/svg">
<path d="M38.5446 0L0 67H77.0892L38.5446 0ZM38.5446 4.53324L73.1774 64.7315H3.91366L38.5465 4.53324H38.5446Z" fill="white"/>
<path d="M38.543 4.53305L3.91211 64.7332H73.1758L38.543 4.53305Z" fill="#FFE100"/>
<path d="M35.4559 35.7724C36.5685 35.7724 37.4705 33.8167 37.4705 31.4043C37.4705 28.9919 36.5685 27.0362 35.4559 27.0362C34.3433 27.0362 33.4414 28.9919 33.4414 31.4043C33.4414 33.8167 34.3433 35.7724 35.4559 35.7724Z" fill="#17171B"/>
<path d="M41.6356 35.7723C42.7482 35.7723 43.6501 33.8167 43.6501 31.4042C43.6501 28.9918 42.7482 27.0362 41.6356 27.0362C40.523 27.0362 39.6211 28.9918 39.6211 31.4042C39.6211 33.8167 40.523 35.7723 41.6356 35.7723Z" fill="#17171B"/>
<path d="M14.4609 32.2982C9.06423 32.2982 4.67578 36.7043 4.67578 42.1184C4.67578 47.5324 9.06612 51.9385 14.4609 51.9385C19.8557 51.9385 24.246 47.5324 24.246 42.1184C24.246 36.7043 19.8557 32.2982 14.4609 32.2982ZM14.4609 49.6737C10.3108 49.6737 6.93432 46.2852 6.93432 42.1203C6.93432 37.9553 10.3108 34.5668 14.4609 34.5668C18.611 34.5668 21.9875 37.9553 21.9875 42.1203C21.9875 46.2852 18.611 49.6737 14.4609 49.6737Z" fill="white"/>
<path d="M62.1445 32.2982C56.7478 32.2982 52.3594 36.7043 52.3594 42.1184C52.3594 47.5324 56.7497 51.9385 62.1445 51.9385C67.5392 51.9385 71.9296 47.5324 71.9296 42.1184C71.9296 36.7043 67.5392 32.2982 62.1445 32.2982ZM62.1445 49.6737C57.9944 49.6737 54.6179 46.2852 54.6179 42.1203C54.6179 37.9553 57.9944 34.5668 62.1445 34.5668C66.2946 34.5668 69.6711 37.9553 69.6711 42.1203C69.6711 46.2852 66.2946 49.6737 62.1445 49.6737Z" fill="white"/>
<path d="M62.1438 34.5648C57.9936 34.5648 54.6172 37.9533 54.6172 42.1183C54.6172 46.2832 57.9936 49.6718 62.1438 49.6718C66.2939 49.6718 69.6703 46.2832 69.6703 42.1183C69.6703 37.9533 66.2939 34.5648 62.1438 34.5648Z" fill="#FFE100"/>
<path d="M14.4602 34.5648C10.3101 34.5648 6.93359 37.9533 6.93359 42.1183C6.93359 46.2832 10.3101 49.6718 14.4602 49.6718C18.6103 49.6718 21.9867 46.2832 21.9867 42.1183C21.9867 37.9533 18.6103 34.5648 14.4602 34.5648Z" fill="#FFE100"/>
<path d="M71.5903 16.2454V13.591M71.5903 10.9366H71.5979M70.0034 20.1891L71.1067 21.6654C71.2708 21.885 71.3528 21.9948 71.4534 22.034C71.5415 22.0684 71.6392 22.0684 71.7273 22.034C71.8279 21.9948 71.9099 21.885 72.074 21.6654L73.1773 20.1891C73.3988 19.8927 73.5096 19.7444 73.6447 19.6313C73.8248 19.4804 74.0375 19.3737 74.2659 19.3196C74.4371 19.279 74.6218 19.279 74.991 19.279C76.0473 19.279 76.5755 19.279 76.9921 19.1058C77.5476 18.8749 77.9889 18.432 78.219 17.8745C78.3916 17.4564 78.3916 16.9263 78.3916 15.8662V11.5433C78.3916 10.2691 78.3916 9.63199 78.1445 9.1453C77.9272 8.71719 77.5803 8.36913 77.1538 8.151C76.6688 7.90302 76.0339 7.90302 74.7643 7.90302H68.4164C67.1467 7.90302 66.5119 7.90302 66.0269 8.151C65.6003 8.36913 65.2535 8.71719 65.0362 9.1453C64.7891 9.63199 64.7891 10.2691 64.7891 11.5433V15.8662C64.7891 16.9263 64.7891 17.4564 64.9616 17.8745C65.1917 18.432 65.6331 18.8749 66.1886 19.1058C66.6052 19.279 67.1334 19.279 68.1897 19.279C68.5589 19.279 68.7435 19.279 68.9148 19.3196C69.1432 19.3737 69.3558 19.4804 69.536 19.6313C69.6711 19.7444 69.7818 19.8927 70.0034 20.1891Z" stroke="#66A3FF" stroke-width="1.82536" stroke-linecap="round" stroke-linejoin="round"/>
</svg>
