<svg width="162" height="68" viewBox="0 0 162 68" fill="none" xmlns="http://www.w3.org/2000/svg">
<path d="M154.749 35.009V0H87.1504V67.9982H154.749V53.4033C158.949 52.4213 162 48.6365 162 44.2061C162 39.7758 158.949 35.991 154.749 35.009ZM152.421 51.3834V65.6582H89.4766V2.34177H152.421V37.0325L153.448 37.1555C156.997 37.5787 159.672 40.6094 159.672 44.208C159.672 47.8065 156.997 50.8391 153.448 51.2604L152.421 51.3834Z" fill="white"/>
<path d="M153.45 37.1538L152.423 37.0308V2.34003H89.4785V65.6565H152.423V51.3816L153.45 51.2586C156.998 50.8355 159.673 47.8047 159.673 44.2062C159.673 40.6076 156.998 37.5751 153.45 37.1538Z" fill="#0066FF"/>
<path d="M101.314 9.95841C94.9306 3.53707 86.4418 0 77.4137 0C68.3857 0 59.8987 3.53707 53.5133 9.95841C47.1296 16.3797 43.6133 24.9186 43.6133 34C43.6133 43.0814 47.1296 51.6184 53.5133 58.0416C59.8969 64.4629 68.3857 68 77.4137 68C86.4418 68 94.9288 64.4629 101.314 58.0416C107.698 51.6202 111.214 43.0814 111.214 34C111.214 24.9186 107.698 16.3816 101.314 9.95841ZM77.4155 65.6582C60.0623 65.6582 45.9431 51.4557 45.9431 34C45.9431 16.5443 60.0623 2.34177 77.4155 2.34177C94.7688 2.34177 108.888 16.5443 108.888 34C108.888 51.4557 94.7688 65.6582 77.4155 65.6582Z" fill="white"/>
<path d="M77.4138 2.34174C60.0605 2.34174 45.9414 16.5443 45.9414 33.9999C45.9414 51.4556 60.0605 65.6582 77.4138 65.6582C94.767 65.6582 108.886 51.4556 108.886 33.9999C108.886 16.5443 94.767 2.34174 77.4138 2.34174Z" fill="#0066FF"/>
<path d="M71.5474 25.7522C72.6047 25.7522 73.4619 23.8893 73.4619 21.5913C73.4619 19.2933 72.6047 17.4304 71.5474 17.4304C70.49 17.4304 69.6328 19.2933 69.6328 21.5913C69.6328 23.8893 70.49 25.7522 71.5474 25.7522Z" fill="white"/>
<path d="M77.4224 25.7522C78.4797 25.7522 79.3369 23.8893 79.3369 21.5913C79.3369 19.2933 78.4797 17.4304 77.4224 17.4304C76.365 17.4304 75.5078 19.2933 75.5078 21.5913C75.5078 23.8893 76.365 25.7522 77.4224 25.7522Z" fill="white"/>
<path d="M105.207 25.7051C109.75 25.7051 113.433 22.0003 113.433 17.4303C113.433 12.8602 109.75 9.1554 105.207 9.1554C100.664 9.1554 96.9805 12.8602 96.9805 17.4303C96.9805 22.0003 100.664 25.7051 105.207 25.7051Z" fill="white"/>
<path d="M73.5765 67.9981L36.7882 3.90411L18.4121 35.9204C17.0368 35.1591 15.498 34.7613 13.8998 34.7613C8.72245 34.7613 4.50864 38.9981 4.50864 44.2061C4.50864 47.537 6.24522 50.5822 9.02267 52.2784L0 67.9963H73.5765V67.9981ZM13.8998 37.1012C15.4333 37.1012 16.8912 37.5877 18.1155 38.5063L19.1635 39.2929L36.7882 8.58585L69.546 65.6582H4.03044L12.2981 51.2531L11.099 50.7323C8.50854 49.6057 6.83486 47.0452 6.83486 44.2079C6.83486 40.2893 10.0042 37.103 13.898 37.103L13.8998 37.1012Z" fill="white"/>
<path d="M69.545 65.6582L36.7872 8.58588L19.1625 39.2929L18.1145 38.5063C16.8884 37.5877 15.4305 37.1012 13.8989 37.1012C10.0032 37.1012 6.83567 40.2893 6.83567 44.2061C6.83567 47.0434 8.50935 49.604 11.0998 50.7305L12.2989 51.2513L4.03125 65.6564H69.5468L69.545 65.6582Z" fill="#0066FF"/>
<path d="M59.2204 52.4827C63.7637 52.4827 67.4467 48.7779 67.4467 44.2078C67.4467 39.6378 63.7637 35.933 59.2204 35.933C54.6772 35.933 50.9941 39.6378 50.9941 44.2078C50.9941 48.7779 54.6772 52.4827 59.2204 52.4827Z" fill="white"/>
</svg>
