<svg width="124" height="52" viewBox="0 0 124 52" fill="none" xmlns="http://www.w3.org/2000/svg">
<path d="M118.449 26.7716V0H66.707V51.9986H118.449V40.8378C121.664 40.0869 123.999 37.1926 123.999 33.8047C123.999 30.4168 121.664 27.5225 118.449 26.7716ZM116.667 39.2931V50.2092H68.4876V1.79077H116.667V28.319L117.453 28.413C120.169 28.7366 122.217 31.0542 122.217 33.8061C122.217 36.5579 120.169 38.8769 117.453 39.1991L116.667 39.2931Z" fill="white"/>
<path d="M117.456 28.4117L116.67 28.3177V1.78943H68.4902V50.2079H116.67V39.2918L117.456 39.1978C120.172 38.8742 122.219 36.5566 122.219 33.8047C122.219 31.0529 120.172 28.7339 117.456 28.4117Z" fill="#0066FF"/>
<path d="M77.5488 7.61525C72.6625 2.70482 66.165 0 59.2546 0C52.3443 0 45.8481 2.70482 40.9605 7.61525C36.0743 12.5257 33.3828 19.0554 33.3828 26C33.3828 32.9446 36.0743 39.4729 40.9605 44.3847C45.8468 49.2952 52.3443 52 59.2546 52C66.165 52 72.6612 49.2952 77.5488 44.3847C82.435 39.4743 85.1265 32.9446 85.1265 26C85.1265 19.0554 82.435 12.5271 77.5488 7.61525ZM59.256 50.2092C45.9734 50.2092 35.1662 39.3485 35.1662 26C35.1662 12.6515 45.9734 1.79077 59.256 1.79077C72.5387 1.79077 83.3459 12.6515 83.3459 26C83.3459 39.3485 72.5387 50.2092 59.256 50.2092Z" fill="white"/>
<path d="M59.2539 1.79077C45.9713 1.79077 35.1641 12.6515 35.1641 26C35.1641 39.3485 45.9713 50.2092 59.2539 50.2092C72.5366 50.2092 83.3438 39.3485 83.3438 26C83.3438 12.6515 72.5366 1.79077 59.2539 1.79077Z" fill="#0066FF"/>
<path d="M54.7643 19.6929C55.5736 19.6929 56.2297 18.2683 56.2297 16.511C56.2297 14.7537 55.5736 13.3291 54.7643 13.3291C53.9549 13.3291 53.2988 14.7537 53.2988 16.511C53.2988 18.2683 53.9549 19.6929 54.7643 19.6929Z" fill="white"/>
<path d="M59.2604 19.6929C60.0697 19.6929 60.7258 18.2683 60.7258 16.511C60.7258 14.7537 60.0697 13.3291 59.2604 13.3291C58.451 13.3291 57.7949 14.7537 57.7949 16.511C57.7949 18.2683 58.451 19.6929 59.2604 19.6929Z" fill="white"/>
<path d="M80.5291 19.6569C84.0066 19.6569 86.8257 16.8238 86.8257 13.3291C86.8257 9.83429 84.0066 7.00122 80.5291 7.00122C77.0515 7.00122 74.2324 9.83429 74.2324 13.3291C74.2324 16.8238 77.0515 19.6569 80.5291 19.6569Z" fill="white"/>
<path d="M56.3175 51.9986L28.1588 2.98547L14.0931 27.4685C13.0405 26.8863 11.8626 26.5821 10.6393 26.5821C6.67642 26.5821 3.45104 29.8221 3.45104 33.8046C3.45104 36.3518 4.78027 38.6805 6.90621 39.9776L0 51.9972H56.3175V51.9986ZM10.6393 28.3715C11.8131 28.3715 12.929 28.7435 13.8661 29.446L14.6683 30.0475L28.1588 6.56563L53.2325 50.2092H3.08501L9.41331 39.1935L8.49551 38.7953C6.51268 37.9338 5.23159 35.9757 5.23159 33.806C5.23159 30.8094 7.65751 28.3729 10.638 28.3729L10.6393 28.3715Z" fill="white"/>
<path d="M53.232 50.2092L28.1583 6.56567L14.6679 30.0475L13.8656 29.446C12.9272 28.7435 11.8112 28.3715 10.6389 28.3715C7.65706 28.3715 5.23252 30.8095 5.23252 33.8047C5.23252 35.9743 6.5136 37.9324 8.49644 38.7939L9.41423 39.1922L3.08594 50.2078H53.2334L53.232 50.2092Z" fill="#0066FF"/>
<path d="M45.3298 40.1338C48.8074 40.1338 51.6265 37.3008 51.6265 33.806C51.6265 30.3112 48.8074 27.4781 45.3298 27.4781C41.8523 27.4781 39.0332 30.3112 39.0332 33.806C39.0332 37.3008 41.8523 40.1338 45.3298 40.1338Z" fill="white"/>
</svg>
