<svg width="111" height="92" viewBox="0 0 111 92" fill="none" xmlns="http://www.w3.org/2000/svg">
<path d="M52.9988 0L0 92H105.998L52.9988 0ZM52.9988 6.22474L100.619 88.885H5.38129L53.0014 6.22474H52.9988Z" fill="white"/>
<path d="M52.9984 6.22449L5.38086 88.8874H100.618L52.9984 6.22449Z" fill="#FFE100"/>
<path d="M48.7504 49.1203C50.2803 49.1203 51.5204 46.4349 51.5204 43.1223C51.5204 39.8097 50.2803 37.1243 48.7504 37.1243C47.2206 37.1243 45.9805 39.8097 45.9805 43.1223C45.9805 46.4349 47.2206 49.1203 48.7504 49.1203Z" fill="#17171B"/>
<path d="M57.2465 49.1202C58.7763 49.1202 60.0165 46.4348 60.0165 43.1222C60.0165 39.8096 58.7763 37.1243 57.2465 37.1243C55.7167 37.1243 54.4766 39.8096 54.4766 43.1222C54.4766 46.4348 55.7167 49.1202 57.2465 49.1202Z" fill="#17171B"/>
<path d="M19.8842 44.3499C12.4638 44.3499 6.42969 50.3999 6.42969 57.8342C6.42969 65.2684 12.4664 71.3185 19.8842 71.3185C27.302 71.3185 33.3387 65.2684 33.3387 57.8342C33.3387 50.3999 27.302 44.3499 19.8842 44.3499ZM19.8842 68.2087C14.1778 68.2087 9.53518 63.5558 9.53518 57.8368C9.53518 52.1177 14.1778 47.4648 19.8842 47.4648C25.5906 47.4648 30.2332 52.1177 30.2332 57.8368C30.2332 63.5558 25.5906 68.2087 19.8842 68.2087Z" fill="white"/>
<path d="M85.4487 44.3499C78.0283 44.3499 71.9941 50.3999 71.9941 57.8342C71.9941 65.2684 78.0309 71.3185 85.4487 71.3185C92.8665 71.3185 98.9032 65.2684 98.9032 57.8342C98.9032 50.3999 92.8665 44.3499 85.4487 44.3499ZM85.4487 68.2087C79.7423 68.2087 75.0996 63.5558 75.0996 57.8368C75.0996 52.1177 79.7423 47.4648 85.4487 47.4648C91.1551 47.4648 95.7977 52.1177 95.7977 57.8368C95.7977 63.5558 91.1551 68.2087 85.4487 68.2087Z" fill="white"/>
<path d="M85.4486 47.4621C79.7422 47.4621 75.0996 52.115 75.0996 57.8341C75.0996 63.5531 79.7422 68.206 85.4486 68.206C91.155 68.206 95.7977 63.5531 95.7977 57.8341C95.7977 52.115 91.155 47.4621 85.4486 47.4621Z" fill="#FFE100"/>
<path d="M19.8842 47.4621C14.1778 47.4621 9.53516 52.115 9.53516 57.8341C9.53516 63.5531 14.1778 68.206 19.8842 68.206C25.5906 68.206 30.2332 63.5531 30.2332 57.8341C30.2332 52.115 25.5906 47.4621 19.8842 47.4621Z" fill="#FFE100"/>
<path d="M98.4357 22.3072V18.6623M98.4357 15.0175H98.4461M96.2537 27.7224L97.7707 29.7496C97.9963 30.0511 98.1091 30.2018 98.2474 30.2557C98.3685 30.3029 98.5029 30.3029 98.624 30.2557C98.7623 30.2018 98.8751 30.0511 99.1007 29.7496L100.618 27.7224C100.922 27.3153 101.075 27.1118 101.26 26.9564C101.508 26.7492 101.801 26.6027 102.115 26.5284C102.35 26.4727 102.604 26.4727 103.112 26.4727C104.564 26.4727 105.29 26.4727 105.863 26.2349C106.627 25.9178 107.234 25.3096 107.55 24.5441C107.787 23.97 107.787 23.2421 107.787 21.7865V15.8506C107.787 14.1009 107.787 13.226 107.448 12.5577C107.149 11.9699 106.672 11.492 106.085 11.1924C105.419 10.8519 104.546 10.8519 102.8 10.8519H94.0716C92.3258 10.8519 91.4528 10.8519 90.786 11.1924C90.1995 11.492 89.7226 11.9699 89.4237 12.5577C89.084 13.226 89.084 14.1009 89.084 15.8506V21.7865C89.084 23.2421 89.084 23.97 89.3213 24.5441C89.6377 25.3096 90.2445 25.9178 91.0083 26.2349C91.5812 26.4727 92.3074 26.4727 93.7599 26.4727C94.2675 26.4727 94.5214 26.4727 94.7569 26.5284C95.0709 26.6027 95.3633 26.7492 95.611 26.9564C95.7968 27.1118 95.9491 27.3153 96.2537 27.7224Z" stroke="#66A3FF" stroke-width="1.82536" stroke-linecap="round" stroke-linejoin="round"/>
</svg>
