<svg width="17" height="16" viewBox="0 0 17 16" fill="none" xmlns="http://www.w3.org/2000/svg">
<path d="M14.8306 7.87772C14.8306 7.05522 14.1639 6.38846 13.3413 6.38846C13.2884 6.38846 13.2362 6.3913 13.1848 6.39668L15.2303 0.363678H6.53757L8.58024 6.39144C8.55027 6.38963 8.52015 6.38846 8.48974 6.38846C7.66724 6.38846 7.00045 7.05522 7.00045 7.87772C7.00045 8.54258 7.43616 9.10541 8.03752 9.29692C7.71991 9.8471 7.32024 10.3426 6.86649 10.7707C6.2495 11.3528 5.54335 11.7941 4.77959 12.0661C3.8703 11.599 3.44088 10.5602 3.82837 9.64926C3.87209 9.5464 3.91679 9.44215 3.95945 9.33835C4.61824 9.1846 5.10909 8.59405 5.10909 7.88841C5.10909 7.06591 4.44234 6.39916 3.6198 6.39916C2.7973 6.39916 2.13051 7.06591 2.13051 7.88841C2.13051 8.3928 2.38148 8.83829 2.76507 9.10771C2.39647 9.94698 1.85462 10.8253 1.68581 11.8433C1.48351 13.0633 1.68516 14.3584 2.74034 15.0897C5.19777 16.7929 7.86529 14.0338 10.6778 13.3403C11.6972 13.0889 12.816 13.1294 13.7141 12.6093C14.3885 12.2187 14.833 11.5714 14.9592 10.8447C15.0839 10.1267 14.9022 9.41193 14.4842 8.83233C14.7004 8.57382 14.8306 8.24105 14.8306 7.87772Z" fill="#99425B"/>
<path d="M14.6007 10.7824C14.4911 11.4134 14.1014 11.9645 13.5316 12.2946C13.0003 12.6023 12.3637 12.6941 11.6897 12.7913C11.3287 12.8433 10.9553 12.8972 10.5905 12.9872C9.62612 13.225 8.69198 13.689 7.78863 14.1377C5.98078 15.0356 4.4195 15.811 2.94734 14.7908C1.86899 14.0434 1.91879 12.6606 2.04442 11.9028C2.16085 11.2008 2.47562 10.5543 2.78003 9.92899C2.83262 9.82089 2.88416 9.71479 2.93432 9.6096C3.0852 9.66987 3.24568 9.711 3.41296 9.7297C3.10309 10.7523 3.59038 11.8642 4.61319 12.3897L4.75315 12.4616L4.90141 12.4088C5.70998 12.1209 6.45505 11.6588 7.11591 11.0353C7.54307 10.6323 7.91037 10.1864 8.21222 9.70999C8.30272 9.72363 8.39529 9.73079 8.48953 9.73079C9.42825 9.73079 10.2056 9.02901 10.3259 8.12263C10.7101 8.10856 11.1183 8.10845 11.5047 8.12249C11.625 9.02894 12.4024 9.73079 13.3411 9.73079C13.7336 9.73079 14.0977 9.60778 14.3976 9.39882C14.6059 9.82507 14.6836 10.3047 14.6007 10.7824ZM3.61959 6.7629C4.24026 6.7629 4.74515 7.26783 4.74515 7.88846C4.74515 8.11139 4.67975 8.31927 4.56743 8.49433C4.38029 8.78611 4.06236 8.98613 3.69692 9.01108C3.67135 9.01283 3.6456 9.01403 3.61959 9.01403C3.4813 9.01403 3.34879 8.98878 3.22629 8.94299C2.97848 8.85024 2.77199 8.67245 2.6421 8.44541C2.54808 8.28104 2.49403 8.09099 2.49403 7.88846C2.49403 7.26783 2.99896 6.7629 3.61959 6.7629ZM7.36397 7.87777C7.36397 7.31388 7.7808 6.84565 8.32247 6.76468C8.37699 6.7565 8.43279 6.75221 8.48953 6.75221C8.85035 6.75221 9.1716 6.92316 9.37765 7.18803C9.42886 7.25383 9.47328 7.32523 9.50903 7.40147C9.57694 7.54623 9.61509 7.70758 9.61509 7.87777C9.61509 7.96776 9.60418 8.05523 9.58414 8.13915C9.47444 8.59835 9.08288 8.94932 8.60309 8.99762C8.56577 9.00137 8.52787 9.00333 8.48953 9.00333C8.26482 9.00333 8.05546 8.93688 7.87952 8.82296C7.56962 8.62222 7.36397 8.27365 7.36397 7.87777ZM12.0617 6.53935C11.8205 6.77007 11.6412 7.06483 11.5519 7.3963C11.1351 7.38066 10.6932 7.38066 10.2788 7.3963C10.1836 7.04301 9.98614 6.73133 9.72058 6.49458L10.8852 4.13954L12.0617 6.53935ZM7.04469 0.72746H14.7227L12.9093 6.07596C12.8306 6.09484 12.754 6.11859 12.6796 6.14714L10.8881 2.49268L9.09161 6.12532C9.01396 6.09859 8.93394 6.07705 8.85203 6.06072L7.04469 0.72746ZM14.4667 7.87777C14.4667 7.99063 14.4498 8.09957 14.4188 8.20243C14.3449 8.44715 14.1898 8.65684 13.9849 8.80023C13.8024 8.92804 13.5804 9.00333 13.3411 9.00333C12.8214 9.00333 12.383 8.64917 12.2541 8.16955C12.2291 8.07644 12.2155 7.97867 12.2155 7.87777C12.2155 7.72391 12.2466 7.57722 12.3028 7.44355C12.3317 7.37466 12.3678 7.30955 12.4092 7.24837C12.6118 6.94942 12.9536 6.75221 13.3411 6.75221C13.3766 6.75221 13.4117 6.75406 13.4464 6.7573C14.0179 6.81055 14.4667 7.29264 14.4667 7.87777ZM15.1941 7.87777C15.1941 6.9731 14.5423 6.21829 13.6838 6.05701L15.7375 0H6.03006L8.08685 6.06934C7.25812 6.25375 6.63651 6.99431 6.63651 7.87777C6.63651 8.54114 6.98711 9.12387 7.51252 9.4513C7.2598 9.82783 6.96008 10.1821 6.61669 10.5062C6.072 11.02 5.46523 11.4097 4.81106 11.6661C4.15216 11.2522 3.87362 10.4716 4.16289 9.79164L4.18555 9.73836C4.19974 9.70508 4.21392 9.67172 4.22807 9.63837C4.95179 9.38594 5.47261 8.69711 5.47261 7.88846C5.47261 6.86667 4.64134 6.03544 3.61959 6.03544C2.59784 6.03544 1.76657 6.86667 1.76657 7.88846C1.76657 8.4042 1.97855 8.87123 2.31973 9.20749C2.25789 9.33927 2.19279 9.47331 2.12597 9.61054C1.81404 10.2513 1.46049 10.9774 1.32678 11.7838C1.06122 13.3853 1.48959 14.6655 2.53295 15.3887C3.16609 15.8275 3.80902 16 4.45606 16C5.67441 16 6.90684 15.3879 8.11224 14.7892C8.98035 14.358 9.87803 13.9121 10.7647 13.6934C11.0946 13.6121 11.4341 13.5631 11.7936 13.5113C12.5063 13.4085 13.2433 13.3022 13.8962 12.9241C14.6529 12.4858 15.1709 11.7505 15.3174 10.9069C15.4431 10.1827 15.2918 9.4573 14.9227 8.84216C15.0948 8.56104 15.1941 8.23081 15.1941 7.87777Z" fill="white"/>
</svg>
