<svg width="17" height="16" viewBox="0 0 17 16" fill="none" xmlns="http://www.w3.org/2000/svg">
<path d="M15.6584 4.69183C15.6582 4.42351 15.6008 4.18623 15.4848 3.98287C15.3707 3.78287 15.2 3.61487 14.971 3.48239C13.0806 2.39247 11.1886 1.30591 9.299 0.214706C8.7894 -0.0793737 8.29548 -0.0684937 7.78988 0.229746C7.0374 0.673426 3.27052 2.83167 2.14796 3.48159C1.68572 3.74927 1.46076 4.15887 1.46076 4.69119C1.45996 6.88319 1.46076 9.07519 1.45996 11.2672C1.45996 11.5296 1.515 11.7621 1.62588 11.9625C1.73996 12.1686 1.91308 12.3409 2.14748 12.4766C3.26988 13.1269 7.0374 15.2848 7.78956 15.7286C8.29548 16.0272 8.78956 16.0377 9.299 15.7435C11.1888 14.6523 13.0811 13.5659 14.9716 12.476C15.2059 12.3405 15.379 12.168 15.4931 11.9619C15.6038 11.7616 15.659 11.5289 15.659 11.2665C15.659 11.2665 15.6592 6.88383 15.6584 4.69183Z" fill="#A179DC"/>
<path d="M8.58118 7.95789L1.62598 11.9625C1.7399 12.1686 1.91302 12.3409 2.14726 12.4766C3.27014 13.1268 7.0375 15.2848 7.7895 15.7286C8.29542 16.0272 8.7895 16.0377 9.29894 15.7435C11.1887 14.6523 13.081 13.5659 14.9716 12.476C15.2058 12.3404 15.3789 12.168 15.493 11.9619L8.58118 7.95789Z" fill="#280068"/>
<path d="M15.6582 4.69181C15.658 4.42349 15.6006 4.18621 15.4846 3.98285L8.58105 7.95789L15.4929 11.9619C15.6036 11.7616 15.6587 11.5289 15.6588 11.2665C15.6588 11.2665 15.659 6.88381 15.6582 4.69181Z" fill="#390091"/>
<path d="M12.6764 6.46082V7.2093H13.4249V6.46082H13.7993V7.2093H14.5476V7.5837H13.7993V8.33218H14.5478V8.70642H13.7993V9.4549H13.4249V8.70642H12.6766V9.4549H12.3022V8.70642H11.5537V8.33202H12.3022V7.58354H11.5537V7.2093H12.3022V6.46082H12.6764ZM13.4249 7.58354H12.6764V8.33218H13.4249V7.58354Z" fill="white"/>
<path d="M8.59661 2.70142C10.5491 2.70142 12.2537 3.76174 13.1667 5.3379L13.1579 5.3227L10.8606 6.64542C10.4081 5.87902 9.57837 5.3619 8.62653 5.35134L8.59661 5.35118C7.14525 5.35118 5.96845 6.52766 5.96845 7.97918C5.96845 8.45374 6.09501 8.8987 6.31517 9.28302C6.76797 10.0739 7.61965 10.6073 8.59677 10.6073C9.57949 10.6073 10.436 10.067 10.8867 9.26782L10.8758 9.28701L13.1694 10.6158C12.2665 12.1785 10.5851 13.2355 8.65533 13.2566L8.59661 13.2569C6.63805 13.2569 4.92861 12.1901 4.01773 10.6057C3.55845 9.80666 3.31742 8.90084 3.31885 7.97918C3.31885 5.06446 5.68173 2.70142 8.59661 2.70142Z" fill="white"/>
</svg>
