<svg width="17" height="16" viewBox="0 0 17 16" fill="none" xmlns="http://www.w3.org/2000/svg">
<g clip-path="url(#clip0_6232_185054)">
<path d="M0.5 5.79048C0.5 3.76362 0.5 2.75019 0.894453 1.97603C1.24142 1.29507 1.79507 0.741423 2.47603 0.394453C3.25019 0 4.26362 0 6.29048 0H10.7095C12.7364 0 13.7498 0 14.524 0.394453C15.2049 0.741423 15.7586 1.29507 16.1055 1.97603C16.5 2.75019 16.5 3.76362 16.5 5.79048V10.2095C16.5 12.2364 16.5 13.2498 16.1055 14.024C15.7586 14.7049 15.2049 15.2586 14.524 15.6055C13.7498 16 12.7364 16 10.7095 16H6.29048C4.26362 16 3.25019 16 2.47603 15.6055C1.79507 15.2586 1.24142 14.7049 0.894453 14.024C0.5 13.2498 0.5 12.2364 0.5 10.2095V5.79048Z" fill="#001E36"/>
<path d="M3.92822 11.7236V4.68768C3.92822 4.63982 3.94822 4.61247 3.99489 4.61247C4.68382 4.61247 5.37244 4.57144 6.06156 4.57144C7.17974 4.57144 8.3905 4.95378 8.81489 6.12358C8.91489 6.41076 8.96822 6.70478 8.96822 7.01247C8.96822 7.6005 8.83489 8.08597 8.56822 8.46888C7.82332 9.53849 6.53222 9.52187 5.37489 9.52187V11.7167C5.38394 11.7817 5.32857 11.8125 5.27489 11.8125H4.00822C3.95489 11.8125 3.92822 11.7851 3.92822 11.7236ZM5.38156 5.93213V8.22956C5.84044 8.26318 6.32064 8.26683 6.76156 8.12016C7.24831 7.97975 7.51489 7.55839 7.51489 7.05349C7.52842 6.62326 7.29398 6.21046 6.89489 6.0552C6.45929 5.87408 5.85177 5.86323 5.38156 5.93213Z" fill="#31A8FF"/>
<path d="M13.1263 7.77566C12.9246 7.66935 12.7098 7.59158 12.4877 7.54447C12.2023 7.47731 11.0767 7.24213 11.0762 7.8307C11.0862 8.15929 11.6078 8.32027 11.8383 8.41414C12.6473 8.69191 13.5629 9.18842 13.5449 10.1865C13.5696 11.4291 12.3658 11.9258 11.3338 11.9259C10.7966 11.9314 10.237 11.8482 9.74529 11.6176C9.69836 11.5928 9.66815 11.5397 9.67016 11.4855V10.2966C9.66487 10.2489 9.71603 10.2073 9.75603 10.2416C10.2378 10.5329 10.8088 10.6743 11.366 10.6819C11.612 10.6819 12.0996 10.6581 12.0959 10.2966C12.0959 9.94974 11.5127 9.79026 11.2802 9.70214C10.9431 9.58183 10.6236 9.41518 10.3303 9.20676C9.92033 8.91436 9.66317 8.44554 9.67017 7.92977C9.66777 6.75983 10.7759 6.2347 11.7739 6.23445C12.2405 6.23061 12.7415 6.26516 13.1758 6.45462C13.2382 6.47301 13.2512 6.53879 13.2509 6.59774V7.7096C13.2549 7.77862 13.1782 7.80212 13.1263 7.77566Z" fill="#31A8FF"/>
</g>
<defs>
<clipPath id="clip0_6232_185054">
<rect width="16" height="16" fill="white" transform="translate(0.5)"/>
</clipPath>
</defs>
</svg>
