<svg width="17" height="16" viewBox="0 0 17 16" fill="none" xmlns="http://www.w3.org/2000/svg">
<g clip-path="url(#clip0_6232_185081)">
<path fill-rule="evenodd" clip-rule="evenodd" d="M9.55885 7.02224C9.37042 7.07495 9.1793 7.12842 8.95811 7.18855C8.85003 7.21913 8.82547 7.22607 8.72491 7.10384C8.60429 6.95983 8.51583 6.86665 8.34696 6.78194C7.84035 6.51934 7.34982 6.59558 6.89146 6.909C6.34464 7.28173 6.06319 7.83234 6.07123 8.51849C6.07927 9.19617 6.52155 9.75526 7.15683 9.84844C7.70364 9.92468 8.16201 9.72137 8.52387 9.28935C8.59621 9.19621 8.66062 9.09445 8.74099 8.97593H7.18899C7.02012 8.97593 6.97991 8.8658 7.0362 8.7218C7.14074 8.4592 7.33374 8.0187 7.44632 7.79846C7.47044 7.74763 7.52673 7.66292 7.64735 7.66292H10.2351C10.3513 7.27492 10.54 6.9083 10.7916 6.56141C11.3786 5.74819 12.0862 5.32464 13.0432 5.14675C13.8634 4.99427 14.6354 5.07898 15.335 5.57877C15.9702 6.03621 16.3643 6.65459 16.4688 7.4678C16.6055 8.61139 16.2919 9.5432 15.544 10.3395C15.0133 10.907 14.362 11.2628 13.6141 11.4238C13.4714 11.4516 13.3288 11.4648 13.1884 11.4778C13.1151 11.4846 13.0425 11.4913 12.9708 11.5C12.239 11.4831 11.5716 11.2628 11.0087 10.7546C10.6128 10.3941 10.3401 9.95108 10.2046 9.43535C10.1105 9.63545 9.99808 9.82708 9.86679 10.0094C9.28781 10.8141 8.53191 11.3139 7.57498 11.4495C6.78692 11.5596 6.05515 11.3986 5.41183 10.8904C4.81677 10.416 4.47903 9.78914 4.39057 9.00981C4.28603 8.08647 4.54336 7.25631 5.07409 6.52781C5.64503 5.74001 6.40093 5.24022 7.3257 5.06233C8.08159 4.91832 8.80532 5.0115 9.45668 5.47741C9.88287 5.77389 10.1884 6.1805 10.3895 6.67182C10.4377 6.74805 10.4056 6.79041 10.3091 6.81582C10.0272 6.89122 9.79513 6.95615 9.55885 7.02224ZM14.8791 7.98712C14.8806 8.01557 14.8823 8.04556 14.8847 8.07772C14.8444 8.80622 14.4987 9.34836 13.8634 9.69568C13.4372 9.92439 12.9949 9.94981 12.5526 9.7465C11.9736 9.47543 11.6681 8.80622 11.8128 8.14548C11.9897 7.34921 12.4722 6.84942 13.2201 6.67153C13.984 6.48517 14.7158 6.95955 14.8605 7.79817C14.8719 7.85815 14.8752 7.91812 14.8791 7.98712Z" fill="#00ACD7"/>
<path d="M1.7223 6.92598C1.70622 6.95139 1.71426 6.96833 1.74643 6.96833L4.1413 6.97681C4.16542 6.97681 4.20563 6.95139 4.22171 6.92598L4.35842 6.70573C4.3745 6.68032 4.36646 6.65491 4.33429 6.65491H1.97963C1.94746 6.65491 1.90726 6.67185 1.89117 6.69726L1.7223 6.92598Z" fill="#00ACD7"/>
<path d="M0.508041 7.70527C0.491959 7.73069 0.5 7.74763 0.532166 7.74763L3.81964 7.73916C3.8518 7.73916 3.88397 7.72221 3.89201 7.68833L3.95634 7.48503C3.96438 7.45961 3.9483 7.4342 3.91614 7.4342H0.765368C0.733202 7.4342 0.692995 7.45114 0.676912 7.47656L0.508041 7.70527Z" fill="#00ACD7"/>
<path d="M2.45406 8.47616C2.43798 8.50158 2.44602 8.52699 2.47819 8.52699L3.71509 8.53546C3.73922 8.53546 3.77138 8.51005 3.77138 8.47616L3.78747 8.27286C3.78747 8.23897 3.77138 8.21356 3.73922 8.21356H2.64706C2.61489 8.21356 2.58273 8.23898 2.56664 8.26439L2.45406 8.47616Z" fill="#00ACD7"/>
</g>
<defs>
<clipPath id="clip0_6232_185081">
<rect width="16" height="16" fill="white" transform="translate(0.5)"/>
</clipPath>
</defs>
</svg>
