<svg width="17" height="16" viewBox="0 0 17 16" fill="none" xmlns="http://www.w3.org/2000/svg">
<g clip-path="url(#clip0_6232_185086)">
<path d="M0.5 5.79048C0.5 3.76362 0.5 2.75019 0.894453 1.97603C1.24142 1.29507 1.79507 0.741423 2.47603 0.394453C3.25019 0 4.26362 0 6.29048 0H10.7095C12.7364 0 13.7498 0 14.524 0.394453C15.2049 0.741423 15.7586 1.29507 16.1055 1.97603C16.5 2.75019 16.5 3.76362 16.5 5.79048V10.2095C16.5 12.2364 16.5 13.2498 16.1055 14.024C15.7586 14.7049 15.2049 15.2586 14.524 15.6055C13.7498 16 12.7364 16 10.7095 16H6.29048C4.26362 16 3.25019 16 2.47603 15.6055C1.79507 15.2586 1.24142 14.7049 0.894453 14.024C0.5 13.2498 0.5 12.2364 0.5 10.2095V5.79048Z" fill="#330000"/>
<path d="M8.2533 10.055H5.77391L5.26945 11.6623C5.25544 11.722 5.20045 11.7643 5.14064 11.7613H3.88484C3.81323 11.7613 3.78818 11.721 3.80971 11.6402L5.95636 5.29932C5.97784 5.23328 5.99932 5.15805 6.02078 5.07364C6.04886 4.92676 6.06323 4.77748 6.06371 4.62781C6.05756 4.58359 6.09643 4.54453 6.13885 4.55073H7.84542C7.89542 4.55073 7.92405 4.56909 7.9313 4.60579L10.3678 11.6512C10.3892 11.7247 10.3678 11.7614 10.3034 11.7613H8.90802C8.85908 11.7669 8.81235 11.7333 8.8007 11.6843L8.2533 10.055ZM6.1603 8.66794H7.85617C7.57754 7.71584 7.2631 6.77624 7.00825 5.81672C6.73328 6.77786 6.43328 7.73513 6.1603 8.66794Z" fill="#FF9A00"/>
<path d="M11.8166 5.71761C11.7072 5.72212 11.598 5.70288 11.4963 5.66115C11.3945 5.61941 11.3026 5.55613 11.2263 5.47543C11.1503 5.39123 11.0912 5.29244 11.0525 5.18476C11.0139 5.07707 10.9963 4.96261 11.0009 4.84794C10.997 4.73441 11.0165 4.62131 11.0581 4.51603C11.0997 4.41075 11.1625 4.31566 11.2424 4.23696C11.3215 4.15908 11.4149 4.09806 11.5171 4.05744C11.6194 4.01681 11.7285 3.99739 11.8381 4.00028C12.0957 4.00028 12.2979 4.07917 12.4445 4.23696C12.5186 4.31896 12.5761 4.41513 12.6139 4.51997C12.6516 4.62481 12.6689 4.73626 12.6646 4.84794C12.669 4.96305 12.6509 5.07792 12.6113 5.18571C12.5717 5.2935 12.5113 5.39203 12.4338 5.47543C12.3528 5.55731 12.2562 5.6211 12.1499 5.66279C12.0437 5.70447 11.9302 5.72314 11.8166 5.71761ZM11.076 11.6512V6.38912C11.076 6.32308 11.1045 6.29004 11.1619 6.29004H12.4821C12.5393 6.29004 12.5679 6.32307 12.568 6.38912V11.6512C12.568 11.7247 12.5394 11.7614 12.4821 11.7613H11.1726C11.1082 11.7613 11.076 11.7246 11.076 11.6512Z" fill="#FF9A00"/>
</g>
<defs>
<clipPath id="clip0_6232_185086">
<rect width="16" height="16" fill="white" transform="translate(0.5)"/>
</clipPath>
</defs>
</svg>
