<svg width="17" height="16" viewBox="0 0 17 16" fill="none" xmlns="http://www.w3.org/2000/svg">
<g clip-path="url(#clip0_6232_185026)">
<path d="M0.5 5.79048C0.5 3.76362 0.5 2.75019 0.894453 1.97603C1.24142 1.29507 1.79507 0.741423 2.47603 0.394453C3.25019 0 4.26362 0 6.29048 0H10.7095C12.7364 0 13.7498 0 14.524 0.394453C15.2049 0.741423 15.7586 1.29507 16.1055 1.97603C16.5 2.75019 16.5 3.76362 16.5 5.79048V10.2095C16.5 12.2364 16.5 13.2498 16.1055 14.024C15.7586 14.7049 15.2049 15.2586 14.524 15.6055C13.7498 16 12.7364 16 10.7095 16H6.29048C4.26362 16 3.25019 16 2.47603 15.6055C1.79507 15.2586 1.24142 14.7049 0.894453 14.024C0.5 13.2498 0.5 12.2364 0.5 10.2095V5.79048Z" fill="#00005B"/>
<path d="M3.92822 11.3118V4.11883C3.92822 4.0699 3.94828 4.04194 3.99509 4.04194C4.68608 4.04194 5.37675 4 6.06792 4C7.18945 4 8.40382 4.39088 8.82947 5.58679C8.92977 5.88038 8.98327 6.18096 8.98327 6.49552C8.98327 7.09669 8.84953 7.593 8.58207 7.98445C7.83494 9.07794 6.53999 9.06095 5.37921 9.06095V11.3048C5.38828 11.3713 5.33274 11.4027 5.27891 11.4027H4.00846C3.95497 11.4027 3.92822 11.3747 3.92822 11.3118ZM5.38589 5.39106V7.73979C5.84615 7.77416 6.32778 7.77789 6.77001 7.62795C7.25822 7.4844 7.52559 7.05363 7.52559 6.53747C7.53917 6.09763 7.30403 5.67562 6.90374 5.51689C6.46684 5.33172 5.85751 5.32063 5.38589 5.39106Z" fill="#9999FF"/>
<path d="M9.88966 5.83539H11.0631C11.1278 5.83598 11.1859 5.8827 11.203 5.94794C11.289 6.14755 11.2996 6.38826 11.2999 6.60377C11.5012 6.35882 11.7438 6.15471 12.0158 6.00168C12.3075 5.82912 12.6382 5.74166 12.9733 5.74845C13.0289 5.74014 13.0782 5.7916 13.0702 5.84974V7.21151C13.0702 7.26409 13.0342 7.29029 12.9626 7.29029C12.4659 7.25446 11.6926 7.37714 11.3317 7.78548V11.3263C11.3317 11.3938 11.303 11.4276 11.2456 11.4276H9.98657C9.92472 11.4369 9.87017 11.3787 9.87889 11.315V7.47037C9.87889 6.95518 9.88958 6.42451 9.81431 5.91418C9.80272 5.86722 9.84574 5.82355 9.88966 5.83539Z" fill="#9999FF"/>
</g>
<defs>
<clipPath id="clip0_6232_185026">
<rect width="16" height="16" fill="white" transform="translate(0.5)"/>
</clipPath>
</defs>
</svg>
