<svg width="17" height="16" viewBox="0 0 17 16" fill="none" xmlns="http://www.w3.org/2000/svg">
<g clip-path="url(#clip0_6232_185071)">
<path d="M0.5 5.79048C0.5 3.76362 0.5 2.75019 0.894453 1.97603C1.24142 1.29507 1.79507 0.741423 2.47603 0.394453C3.25019 0 4.26362 0 6.29048 0H10.7095C12.7364 0 13.7498 0 14.524 0.394453C15.2049 0.741423 15.7586 1.29507 16.1055 1.97603C16.5 2.75019 16.5 3.76362 16.5 5.79048V10.2095C16.5 12.2364 16.5 13.2498 16.1055 14.024C15.7586 14.7049 15.2049 15.2586 14.524 15.6055C13.7498 16 12.7364 16 10.7095 16H6.29048C4.26362 16 3.25019 16 2.47603 15.6055C1.79507 15.2586 1.24142 14.7049 0.894453 14.024C0.5 13.2498 0.5 12.2364 0.5 10.2095V5.79048Z" fill="#470137"/>
<path d="M8.86886 4.70503L6.87244 8.08466L9.00838 11.6735C9.05278 11.7548 9.00838 11.7728 8.94399 11.7728H7.41987C7.31251 11.7728 7.23738 11.7689 7.19445 11.6955C7.05122 11.4093 6.90811 11.1249 6.76512 10.8423C6.62189 10.5599 6.46984 10.2718 6.30897 9.97813C6.14796 9.68469 5.98875 9.38746 5.83133 9.08643C5.6881 9.38005 5.52888 9.67362 5.37514 9.96712C5.22121 10.2607 5.06915 10.5525 4.91899 10.8423C4.76873 11.1323 4.61489 11.4204 4.45747 11.7065C4.42879 11.7725 4.37863 11.7793 4.30718 11.7793H2.83673C2.77896 11.7793 2.77199 11.7359 2.80454 11.6845L4.87606 8.19473L2.85819 4.69402C2.82153 4.64407 2.85308 4.59084 2.91186 4.59494H4.42524C4.49077 4.59123 4.54869 4.61597 4.58625 4.67201C4.71505 4.96562 4.85816 5.25918 5.01557 5.55269C5.1729 5.84631 5.33211 6.1362 5.49321 6.42237C5.65421 6.70859 5.81344 6.99848 5.9494 7.29204C6.09243 6.99119 6.23733 6.69763 6.3841 6.41137C6.53068 6.12514 6.68094 5.83708 6.83488 5.54718C6.98869 5.25735 7.13717 4.9693 7.28032 4.68301C7.29934 4.62022 7.3448 4.5884 7.40913 4.59494H8.81518C8.86886 4.59494 8.89106 4.66822 8.86886 4.70503Z" fill="#FF61F6"/>
<path d="M11.9492 11.9157C11.0027 11.9305 10.0112 11.5408 9.51278 10.6773C9.26942 10.2627 9.14777 9.74347 9.14783 9.11955C9.1438 8.6143 9.26967 8.11688 9.51278 7.67743C10.14 6.55619 11.4037 6.13608 12.604 6.24632V4.07764C12.604 4.02637 12.6254 4.00058 12.6684 4.00058H14.0208C14.0577 3.99516 14.0904 4.02871 14.0852 4.06662V10.5727C14.0852 10.8411 14.1118 11.1086 14.1281 11.3763C14.1307 11.422 14.1043 11.4672 14.0637 11.4864C13.3955 11.7722 12.6725 11.9124 11.9492 11.9157ZM12.604 10.5507V7.54533C11.6236 7.27295 10.6718 8.01966 10.672 9.05349C10.6487 10.1223 11.57 10.8608 12.604 10.5507Z" fill="#FF61F6"/>
</g>
<defs>
<clipPath id="clip0_6232_185071">
<rect width="16" height="16" fill="white" transform="translate(0.5)"/>
</clipPath>
</defs>
</svg>
