<svg width="17" height="16" viewBox="0 0 17 16" fill="none" xmlns="http://www.w3.org/2000/svg">
<path d="M5.60807 15.5508C5.23563 15.5508 4.88388 15.3853 4.64593 15.0853L1.025 10.585C0.787056 10.2849 0.693946 9.90215 0.787056 9.52971L2.08025 3.9121C2.16301 3.53966 2.4113 3.23964 2.7527 3.07411L7.98753 0.570496C8.15306 0.487732 8.33928 0.44635 8.5255 0.44635C8.71172 0.44635 8.89794 0.487732 9.06347 0.570496L14.2983 3.06377C14.6397 3.22929 14.888 3.52931 14.9708 3.90175L16.2639 9.51937C16.3467 9.89181 16.2639 10.2746 16.026 10.5746L12.4051 15.0749C12.1671 15.3646 11.8154 15.5405 11.4429 15.5405L5.60807 15.5508Z" fill="#326DE6"/>
<path d="M8.51552 0.704989C8.66035 0.704989 8.80519 0.736026 8.93968 0.798099L14.1745 3.29137C14.4435 3.42586 14.6504 3.67415 14.7125 3.96383L16.0057 9.58144C16.0781 9.88146 16.0057 10.1918 15.8091 10.4298L12.1882 14.9301C12.002 15.168 11.7123 15.3025 11.4123 15.3025H5.60843C5.30841 15.3025 5.01873 15.168 4.83251 14.9301L1.21158 10.4298C1.02536 10.1918 0.952946 9.88146 1.01502 9.58144L2.30821 3.96383C2.38063 3.66381 2.57719 3.41551 2.84618 3.29137L8.08101 0.787753C8.2155 0.736026 8.37068 0.704989 8.51552 0.704989ZM8.51552 0.21875C8.29826 0.21875 8.08101 0.270478 7.8741 0.363587L2.63927 2.8672C2.22544 3.06377 1.93577 3.42586 1.83231 3.87072L0.539125 9.48833C0.43567 9.93319 0.539125 10.3884 0.8288 10.7505L4.44973 15.2508C4.72906 15.6025 5.15322 15.7991 5.59808 15.7991H11.4019C11.8468 15.7991 12.2709 15.6025 12.5503 15.2508L16.1712 10.7505C16.4609 10.3987 16.5643 9.93319 16.4609 9.48833L15.1677 3.87072C15.0642 3.42586 14.7746 3.06377 14.3607 2.8672L9.1466 0.363587C8.95003 0.270478 8.73277 0.21875 8.51552 0.21875Z" fill="white"/>
<path d="M13.7606 9.1366C13.7503 9.1366 13.7503 9.1366 13.7606 9.1366H13.7503C13.7399 9.1366 13.7296 9.1366 13.7296 9.12626C13.7089 9.12626 13.6882 9.11591 13.6675 9.11591C13.5951 9.10557 13.533 9.09522 13.471 9.09522C13.4399 9.09522 13.4089 9.09522 13.3675 9.08487H13.3572C13.1399 9.06418 12.964 9.04349 12.7985 8.99177C12.7261 8.96073 12.7054 8.91935 12.6847 8.87796C12.6847 8.86762 12.6744 8.86762 12.6744 8.85727L12.5399 8.81589C12.6019 8.34 12.5812 7.84341 12.4674 7.35717C12.3536 6.87093 12.1571 6.41573 11.8881 6.00191L11.9915 5.9088V5.88811C11.9915 5.83638 12.0019 5.78465 12.0433 5.73293C12.1674 5.61913 12.3226 5.52602 12.5088 5.41222C12.5399 5.39153 12.5709 5.38118 12.6019 5.36049C12.664 5.32945 12.7157 5.29842 12.7778 5.25703C12.7882 5.24669 12.8088 5.23634 12.8295 5.21565C12.8399 5.20531 12.8502 5.20531 12.8502 5.19496C12.9951 5.07081 13.0261 4.8639 12.9226 4.72941C12.8709 4.65699 12.7778 4.61561 12.6847 4.61561C12.6019 4.61561 12.5295 4.64665 12.4571 4.69838C12.4468 4.70872 12.4468 4.70872 12.4364 4.71907C12.4157 4.72941 12.4054 4.7501 12.3847 4.76045C12.333 4.81218 12.2916 4.85356 12.2502 4.90529C12.2295 4.92598 12.2088 4.95701 12.1778 4.9777C12.0329 5.13289 11.8984 5.25703 11.7639 5.35014C11.7329 5.37083 11.7019 5.38118 11.6708 5.38118C11.6501 5.38118 11.6295 5.38118 11.6088 5.37083H11.5881L11.4639 5.4536C11.3294 5.30876 11.1846 5.18461 11.0398 5.06047C10.419 4.57423 9.66381 4.27421 8.87755 4.20179L8.8672 4.0673C8.85686 4.05695 8.85686 4.05695 8.84651 4.04661C8.81548 4.01557 8.77409 3.98454 8.76375 3.91212C8.7534 3.74659 8.77409 3.56037 8.79479 3.35346V3.34311C8.79479 3.31208 8.80513 3.27069 8.81548 3.23966C8.82582 3.17758 8.83617 3.11551 8.84651 3.04309V2.98102V2.94998C8.84651 2.76376 8.70168 2.60858 8.5258 2.60858C8.44304 2.60858 8.36027 2.64996 8.2982 2.71204C8.23613 2.77411 8.20509 2.85687 8.20509 2.94998V2.97067V3.03275C8.20509 3.10517 8.21544 3.16724 8.23613 3.22931C8.24647 3.26035 8.24647 3.29139 8.25682 3.33277V3.34311C8.27751 3.55002 8.30855 3.73624 8.28786 3.90177C8.27751 3.97419 8.23613 4.00523 8.20509 4.03626C8.19475 4.04661 8.19475 4.04661 8.1844 4.05695L8.17406 4.19145C7.98784 4.21214 7.80162 4.23283 7.6154 4.27421C6.81879 4.45008 6.1153 4.85356 5.56698 5.43291L5.46353 5.36049H5.44284C5.42215 5.36049 5.40146 5.37083 5.38077 5.37083C5.34973 5.37083 5.31869 5.36049 5.28766 5.3398C5.15316 5.24669 5.01867 5.1122 4.87384 4.95701C4.85314 4.93632 4.83245 4.90529 4.80142 4.88459C4.76003 4.83287 4.71865 4.79149 4.66692 4.73976C4.65658 4.72941 4.63589 4.71907 4.6152 4.69838C4.60485 4.68803 4.59451 4.68803 4.59451 4.67768C4.53243 4.62596 4.44967 4.59492 4.3669 4.59492C4.2738 4.59492 4.18069 4.6363 4.12896 4.70872C4.0255 4.84321 4.05654 5.05012 4.20138 5.17427C4.21172 5.17427 4.21172 5.18461 4.22207 5.18461C4.24276 5.19496 4.2531 5.21565 4.2738 5.226C4.33587 5.26738 4.3876 5.29842 4.44967 5.32945C4.48071 5.3398 4.51174 5.36049 4.54278 5.38118C4.729 5.49498 4.88418 5.58809 5.00833 5.70189C5.06005 5.75362 5.06005 5.80535 5.06005 5.85707V5.87776L5.16351 5.97087C5.14282 6.00191 5.12213 6.0226 5.11178 6.05364C4.59451 6.87093 4.39794 7.83307 4.53243 8.78485L4.39794 8.82624C4.39794 8.83658 4.3876 8.83658 4.3876 8.84693C4.3669 8.88831 4.33587 8.92969 4.2738 8.96073C4.11861 9.01246 3.93239 9.03315 3.71514 9.05384H3.70479C3.67376 9.05384 3.63237 9.05384 3.60134 9.06418C3.53926 9.06418 3.47719 9.07453 3.40477 9.08487C3.38408 9.08487 3.36339 9.09522 3.3427 9.09522C3.33235 9.09522 3.32201 9.09522 3.31166 9.10557C3.12544 9.14695 3.01164 9.32282 3.04268 9.48835C3.07372 9.63319 3.20821 9.7263 3.37374 9.7263C3.40477 9.7263 3.42546 9.7263 3.4565 9.71595C3.46684 9.71595 3.47719 9.71595 3.47719 9.70561C3.49788 9.70561 3.51857 9.69526 3.53926 9.69526C3.61168 9.67457 3.66341 9.65388 3.72548 9.62284C3.75652 9.61249 3.78756 9.5918 3.81859 9.58146H3.82894C4.0255 9.50904 4.20138 9.44697 4.3669 9.42628H4.3876C4.44967 9.42628 4.49105 9.45731 4.52209 9.478C4.53243 9.478 4.53243 9.48835 4.54278 9.48835L4.68762 9.46766C4.93591 10.2332 5.4118 10.916 6.04288 11.4126C6.18772 11.5264 6.33255 11.6195 6.48774 11.7126L6.42566 11.8471C6.42566 11.8575 6.43601 11.8575 6.43601 11.8678C6.4567 11.9092 6.47739 11.9609 6.4567 12.0333C6.39463 12.1885 6.30152 12.3437 6.18772 12.5196V12.5299C6.16702 12.561 6.14633 12.5817 6.12564 12.6127C6.08426 12.6644 6.05322 12.7162 6.01184 12.7782C6.0015 12.7886 5.99115 12.8093 5.98081 12.83C5.98081 12.8403 5.97046 12.8506 5.97046 12.8506C5.8877 13.0265 5.94977 13.2231 6.10495 13.2955C6.14633 13.3162 6.18772 13.3265 6.2291 13.3265C6.35324 13.3265 6.47739 13.2438 6.53946 13.13C6.53946 13.1196 6.54981 13.1093 6.54981 13.1093C6.56015 13.0886 6.5705 13.0679 6.58085 13.0576C6.61188 12.9851 6.62223 12.9334 6.64292 12.8713C6.65326 12.8403 6.66361 12.8093 6.67395 12.7782C6.74637 12.5713 6.7981 12.4058 6.89121 12.2609C6.93259 12.1989 6.98432 12.1885 7.0257 12.1678C7.03605 12.1678 7.03605 12.1678 7.04639 12.1575L7.11881 12.023C7.57402 12.1989 8.0706 12.292 8.56718 12.292C8.8672 12.292 9.17757 12.2609 9.46724 12.1885C9.65346 12.1471 9.82934 12.0954 10.0052 12.0333L10.0673 12.1471C10.0776 12.1471 10.0776 12.1471 10.088 12.1575C10.1397 12.1678 10.1811 12.1885 10.2225 12.2506C10.3052 12.3954 10.3673 12.5713 10.4397 12.7679V12.7782C10.4501 12.8093 10.4604 12.8403 10.4708 12.8713C10.4915 12.9334 10.5018 12.9955 10.5328 13.0576C10.5432 13.0782 10.5535 13.0886 10.5639 13.1093C10.5639 13.1196 10.5742 13.13 10.5742 13.13C10.6363 13.2541 10.7604 13.3265 10.8846 13.3265C10.926 13.3265 10.9673 13.3162 11.0087 13.2955C11.0811 13.2541 11.1432 13.192 11.1639 13.1093C11.1846 13.0265 11.1846 12.9334 11.1432 12.8506C11.1432 12.8403 11.1329 12.8403 11.1329 12.83C11.1225 12.8093 11.1122 12.7886 11.1018 12.7782C11.0708 12.7162 11.0294 12.6644 10.988 12.6127C10.9673 12.5817 10.9467 12.561 10.926 12.5299V12.5196C10.8122 12.3437 10.7087 12.1885 10.657 12.0333C10.6363 11.9609 10.657 11.9195 10.6673 11.8678C10.6673 11.8575 10.6777 11.8575 10.6777 11.8471L10.6259 11.723C11.1743 11.4023 11.6398 10.9471 11.9915 10.3884C12.1778 10.0987 12.3226 9.77802 12.4261 9.45731L12.5502 9.478C12.5606 9.478 12.5606 9.46766 12.5709 9.46766C12.6123 9.44697 12.6433 9.41593 12.7054 9.41593H12.7261C12.8916 9.43662 13.0675 9.49869 13.264 9.57111H13.2744C13.3054 9.58146 13.3365 9.60215 13.3675 9.61249C13.4296 9.64353 13.4813 9.66422 13.5537 9.68491C13.5744 9.68491 13.5951 9.69526 13.6158 9.69526C13.6261 9.69526 13.6365 9.69526 13.6468 9.70561C13.6779 9.71595 13.6986 9.71595 13.7296 9.71595C13.8848 9.71595 14.0193 9.6125 14.0607 9.478C14.0607 9.35386 13.9469 9.18833 13.7606 9.1366ZM8.97066 8.62967L8.51546 8.84693L8.06025 8.62967L7.94645 8.14343L8.25682 7.7503H8.76375L9.07412 8.14343L8.97066 8.62967ZM11.6708 7.55374C11.7536 7.90549 11.7743 8.25723 11.7433 8.59863L10.1604 8.14343C10.0156 8.10205 9.93279 7.95721 9.96383 7.81238C9.97418 7.77099 9.99487 7.72961 10.0259 7.69858L11.2777 6.57091C11.4536 6.86059 11.5881 7.19165 11.6708 7.55374ZM10.7811 5.95018L9.42586 6.91232C9.31206 6.98473 9.15688 6.96404 9.06377 6.85024C9.03273 6.81921 9.02239 6.77782 9.01204 6.73644L8.91893 5.05012C9.63277 5.13289 10.2845 5.4536 10.7811 5.95018ZM7.78093 5.10185C7.89473 5.08116 7.99818 5.06047 8.11198 5.03978L8.01887 6.69506C8.00853 6.8399 7.89473 6.96404 7.73954 6.96404C7.69816 6.96404 7.64643 6.9537 7.6154 6.93301L6.23944 5.95018C6.66361 5.52602 7.19123 5.23634 7.78093 5.10185ZM5.74286 6.57091L6.97397 7.66754C7.08778 7.76065 7.09812 7.93652 7.00501 8.05032C6.97397 8.0917 6.93259 8.12274 6.88087 8.13309L5.27731 8.59863C5.21524 7.89514 5.37042 7.1813 5.74286 6.57091ZM5.46353 9.37455L7.10847 9.09522C7.24296 9.08487 7.36711 9.17798 7.39814 9.31248C7.40849 9.37455 7.40849 9.42628 7.3878 9.478L6.75672 10.9988C6.17737 10.6264 5.71182 10.0574 5.46353 9.37455ZM9.23964 11.4333C9.0017 11.485 8.76375 11.5161 8.51546 11.5161C8.15336 11.5161 7.80162 11.454 7.47056 11.3505L8.28786 9.87113C8.37062 9.77802 8.50511 9.73664 8.61891 9.79872C8.67064 9.82975 8.71202 9.87113 8.74306 9.91252L9.53966 11.3505C9.44655 11.3816 9.3431 11.4023 9.23964 11.4333ZM11.257 9.99528C10.9984 10.4091 10.657 10.7402 10.2638 10.9988L9.61208 9.43662C9.58105 9.31248 9.63277 9.17798 9.75692 9.11591C9.7983 9.09522 9.85003 9.08487 9.90176 9.08487L11.557 9.3642C11.495 9.5918 11.3915 9.79872 11.257 9.99528Z" fill="white"/>
</svg>
