<svg width="17" height="16" viewBox="0 0 17 16" fill="none" xmlns="http://www.w3.org/2000/svg">
<g clip-path="url(#clip0_6232_185029)">
<mask id="mask0_6232_185029" style="mask-type:luminance" maskUnits="userSpaceOnUse" x="0" y="4" width="17" height="9">
<path d="M0.824219 8.1204C0.824219 10.3706 4.30529 12.1948 8.59923 12.1948C12.8932 12.1948 16.3743 10.3706 16.3743 8.1204C16.3743 5.87023 12.8932 4.04601 8.59923 4.04601C4.30529 4.04601 0.824219 5.87023 0.824219 8.1204Z" fill="white"/>
</mask>
<g mask="url(#mask0_6232_185029)">
<path d="M0.824219 8.1204C0.824219 10.3706 4.30529 12.1948 8.59923 12.1948C12.8932 12.1948 16.3743 10.3706 16.3743 8.1204C16.3743 5.87023 12.8932 4.04601 8.59923 4.04601C4.30529 4.04601 0.824219 5.87023 0.824219 8.1204Z" fill="url(#paint0_radial_6232_185029)"/>
</g>
<mask id="mask1_6232_185029" style="mask-type:luminance" maskUnits="userSpaceOnUse" x="0" y="3" width="17" height="10">
<path d="M0.5 3.58207H16.6979V12.6588H0.5V3.58207Z" fill="white"/>
</mask>
<g mask="url(#mask1_6232_185029)">
<path d="M8.59874 11.8923C12.725 11.8923 16.07 10.2036 16.07 8.12041C16.07 6.03729 12.725 4.34852 8.59874 4.34852C4.47251 4.34852 1.12744 6.03729 1.12744 8.12041C1.12744 10.2036 4.47251 11.8923 8.59874 11.8923Z" fill="#777BB3"/>
</g>
<mask id="mask2_6232_185029" style="mask-type:luminance" maskUnits="userSpaceOnUse" x="0" y="3" width="17" height="10">
<path d="M0.5 3.58207H16.6979V12.6588H0.5V3.58207Z" fill="white"/>
</mask>
<g mask="url(#mask2_6232_185029)">
<path d="M5.0477 8.58811C5.38699 8.58811 5.64028 8.52577 5.80054 8.4029C5.95909 8.28129 6.0686 8.0706 6.12599 7.7767C6.17951 7.50199 6.15912 7.31017 6.06542 7.20666C5.96961 7.10093 5.76247 7.04731 5.44976 7.04731H4.90755L4.60696 8.58811H5.0477ZM3.27428 10.4861C3.24911 10.4861 3.22521 10.4749 3.20921 10.4555C3.19318 10.4361 3.18668 10.4106 3.19149 10.386L3.98812 6.30288C3.99582 6.26341 4.03055 6.23489 4.07093 6.23489H5.78786C6.32746 6.23489 6.72909 6.38085 6.98153 6.66875C7.23533 6.95817 7.3137 7.36273 7.21446 7.87116C7.17408 8.0783 7.10462 8.27067 7.00802 8.44291C6.91131 8.61534 6.7835 8.77488 6.62807 8.91719C6.44202 9.09066 6.23145 9.21644 6.00277 9.29046C5.77771 9.36349 5.48868 9.40052 5.14371 9.40052H4.44849L4.24996 10.4181C4.24225 10.4576 4.20755 10.4861 4.16717 10.4861H3.27428Z" fill="#12141A"/>
<path d="M4.97699 7.13133H5.44965C5.82707 7.13133 5.95817 7.21383 6.00272 7.26299C6.07662 7.34463 6.09057 7.51675 6.04307 7.76073C5.9897 8.03387 5.89077 8.22753 5.74898 8.33628C5.60382 8.44761 5.36782 8.50403 5.0476 8.50403H4.70919L4.97699 7.13133ZM5.78776 6.15082H4.0708C3.99004 6.15082 3.92061 6.20786 3.9052 6.28683L3.10857 10.37C3.09895 10.4192 3.11195 10.4702 3.14398 10.5089C3.17604 10.5477 3.22379 10.5701 3.27418 10.5701H4.16704C4.24783 10.5701 4.31726 10.5131 4.33267 10.4341L4.51793 9.48454H5.14361C5.49743 9.48454 5.79529 9.4461 6.02884 9.37032C6.26903 9.29258 6.49001 9.16078 6.68559 8.97857C6.84735 8.83032 6.98058 8.66391 7.08154 8.48392C7.18252 8.30387 7.25508 8.10309 7.29718 7.88716C7.40165 7.35197 7.31678 6.9234 7.04495 6.61345C6.77578 6.30647 6.35277 6.15082 5.78776 6.15082ZM4.50449 8.67212H5.0476C5.40758 8.67212 5.67572 8.60458 5.8519 8.46946C6.02811 8.33432 6.14695 8.10878 6.20871 7.79272C6.26779 7.48927 6.24088 7.27512 6.12797 7.15038C6.01492 7.02563 5.78885 6.96324 5.44965 6.96324H4.8379L4.50449 8.67212ZM5.78776 6.31891C6.30426 6.31891 6.68106 6.45394 6.9179 6.72402C7.15471 6.99411 7.22603 7.3711 7.13154 7.85511C7.09265 8.05449 7.02687 8.23678 6.93427 8.40192C6.84155 8.56718 6.72049 8.71829 6.57088 8.85531C6.39259 9.02152 6.19453 9.13996 5.97659 9.2105C5.75865 9.28124 5.48107 9.31645 5.14361 9.31645H4.37882L4.16704 10.402H3.27418L4.0708 6.31891H5.78776Z" fill="white"/>
<path d="M9.26153 9.40051C9.23634 9.40051 9.21246 9.38931 9.19646 9.36992C9.1804 9.35056 9.17391 9.3251 9.17872 9.30045L9.53111 7.49382C9.56463 7.32201 9.55636 7.19869 9.50785 7.14658C9.47815 7.11473 9.38895 7.06131 9.1252 7.06131H8.48679L8.04373 9.33249C8.03603 9.37199 8.0013 9.40051 7.96092 9.40051H7.07509C7.0499 9.40051 7.02602 9.38931 7.00999 9.36992C6.99396 9.35056 6.98747 9.32507 6.99227 9.30045L7.7889 5.21731C7.7966 5.17784 7.83133 5.14932 7.87172 5.14932H8.75754C8.78274 5.14932 8.80661 5.16053 8.82264 5.17989C8.83867 5.19927 8.84517 5.22474 8.84036 5.24939L8.64812 6.23488H9.3349C9.8581 6.23488 10.2129 6.32677 10.4195 6.51581C10.6301 6.70866 10.6959 7.01702 10.6149 7.43241L10.2442 9.33249C10.2365 9.37199 10.2018 9.40051 10.1614 9.40051H9.26153Z" fill="#12141A"/>
<path d="M8.75744 5.06525H7.87161C7.79082 5.06525 7.72139 5.12229 7.70598 5.20126L6.90935 9.28439C6.89974 9.33367 6.91273 9.38463 6.94479 9.42337C6.97684 9.46212 7.02459 9.48453 7.07499 9.48453H7.96081C8.04158 9.48453 8.11104 9.42749 8.12645 9.34852L8.55623 7.14532H9.1251C9.3884 7.14532 9.44366 7.20135 9.44588 7.20376C9.46185 7.22088 9.48286 7.30016 9.44818 7.47777L9.09579 9.28439C9.08618 9.33367 9.09917 9.38463 9.13123 9.42337C9.16329 9.46212 9.21104 9.48453 9.26143 9.48453H10.1613C10.2421 9.48453 10.3115 9.42749 10.327 9.34852L10.6976 7.44844C10.7845 7.00242 10.7101 6.66784 10.4765 6.45393C10.2536 6.24995 9.8801 6.15081 9.3348 6.15081H8.75032L8.92307 5.26541C8.93266 5.21614 8.9197 5.16515 8.88764 5.12643C8.85558 5.08769 8.80783 5.06525 8.75744 5.06525ZM8.75744 5.23334L8.54566 6.3189H9.3348C9.83134 6.3189 10.1738 6.40524 10.3623 6.57769C10.5508 6.75026 10.6073 7.02987 10.532 7.41639L10.1613 9.31644H9.26143L9.61382 7.50985C9.65392 7.30433 9.63919 7.16415 9.56956 7.08941C9.4999 7.01466 9.35173 6.97724 9.1251 6.97724H8.41711L7.96081 9.31644H7.07499L7.87161 5.23334H8.75744Z" fill="white"/>
<path d="M12.0165 8.58811C12.3557 8.58811 12.609 8.52577 12.7693 8.4029C12.9278 8.28132 13.0373 8.07062 13.0948 7.7767C13.1483 7.50199 13.1279 7.31017 13.0342 7.20666C12.9384 7.10093 12.7312 7.04731 12.4185 7.04731H11.8763L11.5757 8.58811H12.0165ZM10.2431 10.4861C10.2179 10.4861 10.194 10.4749 10.178 10.4555C10.162 10.4361 10.1554 10.4106 10.1602 10.386L10.9569 6.30288C10.9646 6.26341 10.9993 6.23489 11.0397 6.23489H12.7566C13.2962 6.23489 13.6978 6.38085 13.9503 6.66875C14.2041 6.95814 14.2824 7.3627 14.1832 7.87116C14.1428 8.0783 14.0734 8.27067 13.9768 8.44291C13.8801 8.61534 13.7522 8.77488 13.5968 8.91719C13.4108 9.09066 13.2002 9.21644 12.9715 9.29046C12.7465 9.36349 12.4574 9.40052 12.1125 9.40052H11.4172L11.2188 10.4181C11.211 10.4576 11.1763 10.4861 11.1359 10.4861H10.2431Z" fill="#12141A"/>
<path d="M11.9457 7.13133H12.4184C12.7958 7.13133 12.9269 7.21383 12.9714 7.26299C13.0454 7.34463 13.0593 7.51675 13.0118 7.7607C12.9584 8.03387 12.8595 8.22753 12.7177 8.33628C12.5725 8.44761 12.3365 8.50403 12.0163 8.50403H11.6779L11.9457 7.13133ZM12.7565 6.15082H11.0396C10.9588 6.15082 10.8894 6.20786 10.8739 6.28683L10.0773 10.37C10.0677 10.4192 10.0807 10.4702 10.1127 10.5089C10.1448 10.5477 10.1925 10.5701 10.2429 10.5701H11.1358C11.2165 10.5701 11.286 10.5131 11.3014 10.4341L11.4867 9.48454H12.1123C12.4662 9.48454 12.764 9.4461 12.9976 9.37032C13.2377 9.29258 13.4588 9.16075 13.6544 8.97851C13.8161 8.83029 13.9493 8.66391 14.0503 8.48392C14.1512 8.30387 14.2238 8.10309 14.2659 7.88716C14.3704 7.35194 14.2855 6.92338 14.0137 6.61342C13.7445 6.30647 13.3215 6.15082 12.7565 6.15082ZM11.4732 8.67212H12.0163C12.3763 8.67212 12.6444 8.60458 12.8206 8.46946C12.9969 8.33432 13.1157 8.10878 13.1774 7.79272C13.2365 7.48927 13.2096 7.27512 13.0967 7.15038C12.9836 7.02563 12.7576 6.96324 12.4184 6.96324H11.8066L11.4732 8.67212ZM12.7565 6.31891C13.273 6.31891 13.6498 6.45394 13.8866 6.72402C14.1235 6.99411 14.1948 7.3711 14.1003 7.85511C14.0614 8.05449 13.9956 8.23678 13.903 8.40192C13.8103 8.56718 13.6892 8.71829 13.5396 8.85531C13.3613 9.02152 13.1633 9.13996 12.9453 9.2105C12.7274 9.28124 12.4498 9.31645 12.1123 9.31645H11.3475L11.1358 10.402H10.2429L11.0396 6.31891H12.7565Z" fill="white"/>
</g>
</g>
<defs>
<radialGradient id="paint0_radial_6232_185029" cx="0" cy="0" r="1" gradientUnits="userSpaceOnUse" gradientTransform="translate(5.49238 5.47844) scale(10.2097 10.1709)">
<stop stop-color="#AEB2D5"/>
<stop offset="0.3" stop-color="#AEB2D5"/>
<stop offset="0.75" stop-color="#484C89"/>
<stop offset="1" stop-color="#484C89"/>
</radialGradient>
<clipPath id="clip0_6232_185029">
<rect width="16" height="16" fill="white" transform="translate(0.5)"/>
</clipPath>
</defs>
</svg>
