<svg width="17" height="16" viewBox="0 0 17 16" fill="none" xmlns="http://www.w3.org/2000/svg">
<g clip-path="url(#clip0_6232_185023)">
<path d="M15.2137 12.0405C14.826 12.0405 14.4542 11.8564 14.2188 11.5486L11.9925 8.63758L9.76578 11.5486C9.53039 11.8564 9.1586 12.0405 8.77092 12.0405H7.88818L11.2414 7.65544L7.90528 3.29266H8.78802C9.1757 3.29266 9.54788 3.47637 9.78288 3.78413L11.9921 6.6733L14.2017 3.78413C14.4367 3.47637 14.8089 3.29266 15.1966 3.29266H16.0793L12.7428 7.65544L16.0964 12.0405H15.2137Z" fill="#B0C1D4"/>
<path d="M15.678 3.49147L12.4937 7.65543L15.6951 11.8417H15.2147C14.8867 11.8417 14.5769 11.6886 14.3777 11.4281L11.9935 8.31032L9.60936 11.4281C9.41014 11.689 9.10039 11.8417 8.77235 11.8417H8.29201L11.4933 7.65543L8.30832 3.49147H8.78865C9.11669 3.49147 9.42645 3.64456 9.62566 3.905L11.9931 7.00054L14.3606 3.905C14.5598 3.64416 14.8696 3.49147 15.1976 3.49147H15.678ZM16.4828 3.09384H15.678H15.1976C14.7487 3.09384 14.3177 3.30697 14.0449 3.66364L11.9935 6.34644L9.94217 3.66364C9.669 3.30697 9.23797 3.09384 8.78905 3.09384H8.30871H7.50391L7.9926 3.73283L10.9923 7.65543L7.9759 11.5999L7.48682 12.2393H8.29162H8.77195C9.22087 12.2393 9.6519 12.0262 9.92467 11.6695L11.9931 8.96442L14.0616 11.6695C14.3344 12.0262 14.7654 12.2393 15.2147 12.2393H15.6951H16.4999L16.0112 11.6003L12.9948 7.65583L15.9945 3.73323L16.4828 3.09384Z" fill="#66798F"/>
<path d="M4.47668 12.4383C2.39391 12.4383 0.699219 10.6851 0.699219 8.53039V6.80269C0.699219 4.64834 2.39391 2.8952 4.47668 2.8952C6.55946 2.8952 8.25415 4.64795 8.25415 6.80269V8.4616L1.8921 8.46199V8.53039C1.8921 10.0275 3.05159 11.2454 4.47668 11.2454C5.26279 11.2454 6.02465 10.8494 6.51453 10.1865C6.76424 9.84813 7.13125 9.65448 7.52132 9.65448H8.10544L8.00683 9.92208C7.45253 11.4271 6.03419 12.4383 4.47668 12.4383ZM7.06127 7.26911V6.80269C7.06127 5.30562 5.90178 4.08809 4.47668 4.08809C3.05159 4.08809 1.8921 5.30562 1.8921 6.80269V7.26911H7.06127Z" fill="#B0C1D4"/>
<path d="M4.47628 3.09395C6.44931 3.09395 8.05493 4.75802 8.05493 6.80262V8.26311H1.69288V8.53032C1.69288 10.1371 2.94144 11.4441 4.47628 11.4441C5.34629 11.4441 6.15546 11.0059 6.67397 10.3045C6.87597 10.0314 7.18095 9.85362 7.52092 9.85362H7.81993L7.82033 9.85402C7.29467 11.2807 5.94989 12.2398 4.47628 12.2398C2.50325 12.2398 0.897628 10.5757 0.897628 8.53072V6.80302C0.897628 4.75802 2.50325 3.09395 4.47628 3.09395ZM1.69288 7.46786H7.25968V6.80262C7.25968 5.19621 6.01112 3.8892 4.47628 3.8892C2.94144 3.8892 1.69288 5.19621 1.69288 6.80262V7.46786ZM4.47628 2.69632C2.28376 2.69632 0.5 4.53853 0.5 6.80262V8.53032C0.5 10.7948 2.28376 12.637 4.47628 12.637C6.1165 12.637 7.60999 11.5738 8.19331 9.9912L8.39013 9.45679L7.82073 9.456H7.52132C7.06722 9.456 6.64216 9.67907 6.35428 10.0683C5.90138 10.6807 5.19957 11.0465 4.47628 11.0465C3.20228 11.0465 2.15811 9.98762 2.09369 8.66074H8.05493H8.45256V8.26311V6.80302C8.45256 4.53853 6.6688 2.69632 4.47628 2.69632ZM2.09051 7.07023V6.80262C2.09051 5.4153 3.16093 4.28683 4.47628 4.28683C5.79163 4.28683 6.86205 5.4153 6.86205 6.80262V7.07023H2.09051Z" fill="#66798F"/>
</g>
<defs>
<clipPath id="clip0_6232_185023">
<rect width="16" height="16" fill="white" transform="translate(0.5)"/>
</clipPath>
</defs>
</svg>
