<svg width="17" height="16" viewBox="0 0 17 16" fill="none" xmlns="http://www.w3.org/2000/svg">
<g clip-path="url(#clip0_6232_185036)">
<path d="M13.6552 5.48898C13.4892 5.43185 13.3172 5.37779 13.1402 5.32667C13.1693 5.20788 13.196 5.09063 13.2197 4.97537C13.6096 3.08281 13.3547 1.55814 12.4842 1.05616C11.6495 0.574819 10.2845 1.07669 8.90581 2.27649C8.77324 2.39186 8.64029 2.51401 8.50741 2.64202C8.41886 2.55733 8.33046 2.47547 8.24229 2.39718C6.79742 1.11428 5.34917 0.573651 4.47954 1.07709C3.64565 1.55982 3.3987 2.99315 3.74966 4.78675C3.78355 4.95999 3.82316 5.13691 3.86796 5.31679C3.66299 5.37497 3.46512 5.437 3.27578 5.50299C1.58183 6.09357 0.5 7.01917 0.5 7.97925C0.5 8.97083 1.66135 9.9654 3.42573 10.5685C3.56497 10.616 3.70944 10.661 3.85834 10.7038C3.81001 10.8983 3.76797 11.089 3.73268 11.2749C3.39805 13.0374 3.65938 14.4368 4.49104 14.9165C5.35008 15.4119 6.79178 14.9027 8.19564 13.6756C8.30659 13.5786 8.41795 13.4757 8.5295 13.3679C8.6741 13.5071 8.81846 13.6389 8.96206 13.7625C10.3219 14.9326 11.6649 15.4052 12.4958 14.9241C13.354 14.4273 13.6329 12.924 13.2708 11.0949C13.2431 10.9552 13.2109 10.8125 13.1748 10.6672C13.276 10.6373 13.3754 10.6064 13.4723 10.5743C15.3066 9.96654 16.5 8.98407 16.5 7.97925C16.5 7.01569 15.3833 6.08386 13.6552 5.48898ZM13.2574 9.92547C13.1699 9.95444 13.0801 9.98243 12.9886 10.0096C12.7862 9.36852 12.5129 8.68686 12.1784 7.98258C12.4976 7.29508 12.7603 6.62213 12.9571 5.98524C13.1208 6.0326 13.2796 6.08255 13.4327 6.13527C14.9133 6.64497 15.8165 7.39858 15.8165 7.97925C15.8165 8.59777 14.8411 9.4007 13.2574 9.92547ZM12.6002 11.2276C12.7603 12.0364 12.7832 12.7677 12.6772 13.3393C12.5819 13.853 12.3902 14.1954 12.1533 14.3326C11.649 14.6245 10.5707 14.2451 9.40782 13.2444C9.27451 13.1296 9.14023 13.0072 9.00552 12.8775C9.45635 12.3844 9.90693 11.8112 10.3467 11.1746C11.1202 11.106 11.8509 10.9938 12.5136 10.8406C12.5463 10.9722 12.5753 11.1014 12.6002 11.2276ZM5.95476 14.2822C5.46212 14.4562 5.06975 14.4611 4.83257 14.3244C4.32788 14.0333 4.11807 12.9096 4.40427 11.4024C4.43705 11.2298 4.47606 11.0524 4.52103 10.8712C5.17647 11.0161 5.90187 11.1204 6.67721 11.1833C7.11993 11.8062 7.58352 12.3788 8.0507 12.8802C7.94863 12.9787 7.84696 13.0725 7.74586 13.1609C7.12508 13.7035 6.503 14.0885 5.95476 14.2822ZM3.64679 9.92169C2.86661 9.65503 2.22232 9.30846 1.78068 8.93027C1.38384 8.59043 1.18349 8.25303 1.18349 7.97925C1.18349 7.39664 2.05209 6.65352 3.50077 6.14843C3.67655 6.08714 3.86056 6.02938 4.05151 5.97513C4.25173 6.6264 4.51437 7.30733 4.83132 7.99588C4.51027 8.69466 4.2439 9.38644 4.04172 10.0453C3.90558 10.0062 3.77369 9.96503 3.64679 9.92169ZM4.42044 4.65549C4.11975 3.11878 4.31945 1.95953 4.82198 1.66864C5.35726 1.35875 6.5409 1.80059 7.78843 2.90831C7.86818 2.97911 7.94823 3.05322 8.02852 3.12988C7.56364 3.62905 7.10429 4.19733 6.6655 4.8166C5.91301 4.88635 5.1927 4.99838 4.53043 5.14842C4.48879 4.98093 4.45191 4.81637 4.42044 4.65549ZM11.3221 6.35969C11.1638 6.08623 11.0013 5.81923 10.8356 5.55952C11.3461 5.62406 11.8352 5.70972 12.2945 5.81456C12.1566 6.25651 11.9847 6.71859 11.7824 7.1923C11.6373 6.91675 11.4838 6.63893 11.3221 6.35969ZM8.50763 3.61837C8.8229 3.95993 9.13863 4.34127 9.44917 4.75502C9.13624 4.74024 8.81943 4.73255 8.5 4.73255C8.18359 4.73255 7.86912 4.74007 7.55812 4.7546C7.86897 4.34469 8.18743 3.96386 8.50763 3.61837ZM5.67512 6.36442C5.51697 6.63865 5.36631 6.91496 5.22346 7.19178C5.02441 6.71973 4.85413 6.25554 4.71504 5.80732C5.17154 5.70517 5.65834 5.62164 6.1656 5.55833C5.99757 5.82043 5.83369 6.08939 5.67512 6.36436V6.36442ZM6.18021 10.4489C5.65612 10.3905 5.162 10.3112 4.70561 10.2119C4.84693 9.75568 5.02097 9.28157 5.22423 8.79935C5.36745 9.07598 5.51871 9.3524 5.67782 9.62723H5.67785C5.83993 9.90722 6.00785 10.1815 6.18021 10.4489ZM8.52654 12.3883C8.20259 12.0388 7.87945 11.6521 7.56387 11.2363C7.87023 11.2483 8.18256 11.2544 8.5 11.2544C8.82612 11.2544 9.14851 11.2471 9.46583 11.233C9.15427 11.6563 8.83968 12.0436 8.52654 12.3883ZM11.7889 8.77478C12.0028 9.26221 12.1831 9.73383 12.3262 10.1823C11.8623 10.2881 11.3614 10.3733 10.8337 10.4367C10.9998 10.1735 11.1637 9.90189 11.3249 9.62253C11.4878 9.3399 11.6426 9.05684 11.7889 8.77478ZM10.7328 9.28106C10.4827 9.71472 10.2259 10.1287 9.96523 10.5195C9.49044 10.5534 8.99993 10.5709 8.5 10.5709C8.00209 10.5709 7.51776 10.5554 7.05138 10.5252C6.78019 10.1293 6.51784 9.71407 6.26932 9.28479H6.26938C6.02152 8.85668 5.7934 8.42496 5.58669 7.99565C5.79334 7.56535 6.02086 7.13314 6.2673 6.7058L6.26724 6.70589C6.51433 6.27741 6.77438 5.86423 7.04306 5.47081C7.5189 5.43484 8.00684 5.41607 8.49997 5.41607H8.5C8.99535 5.41607 9.48392 5.43498 9.95962 5.47126C10.2242 5.86181 10.4825 6.27365 10.7305 6.70219C10.9814 7.13554 11.2119 7.56487 11.4203 7.98594C11.2125 8.41425 10.9826 8.84791 10.7328 9.28106ZM12.1428 1.64831C12.6786 1.95728 12.8869 3.20339 12.5503 4.83742C12.5288 4.94168 12.5047 5.04788 12.4784 5.15551C11.8146 5.00234 11.0938 4.88837 10.3391 4.81757C9.89944 4.1915 9.44385 3.62233 8.98655 3.12957C9.1095 3.01129 9.23227 2.89851 9.35454 2.79208C10.5358 1.76411 11.6398 1.35824 12.1428 1.64831ZM8.5 6.5505C9.28906 6.5505 9.92875 7.19016 9.92875 7.97925C9.92875 8.76831 9.28906 9.408 8.5 9.408C7.71094 9.408 7.07125 8.76831 7.07125 7.97925C7.07125 7.19016 7.71094 6.5505 8.5 6.5505Z" fill="#00D8FF"/>
</g>
<defs>
<clipPath id="clip0_6232_185036">
<rect width="16" height="16" fill="white" transform="translate(0.5)"/>
</clipPath>
</defs>
</svg>
