<svg width="17" height="16" viewBox="0 0 17 16" fill="none" xmlns="http://www.w3.org/2000/svg">
<g clip-path="url(#clip0_6232_185053)">
<path d="M14.75 0H2.25C1.2835 0 0.5 0.783502 0.5 1.75V14.25C0.5 15.2165 1.2835 16 2.25 16H14.75C15.7165 16 16.5 15.2165 16.5 14.25V1.75C16.5 0.783502 15.7165 0 14.75 0Z" fill="#092E20"/>
<path d="M12.1488 5.88738V10.0265C12.1488 11.4528 12.0445 12.1368 11.7315 12.7281C11.4415 13.2963 11.0589 13.6557 10.2705 14.0499L8.6124 13.2615C9.4009 12.8905 9.78353 12.5659 10.027 12.0671C10.2821 11.5571 10.3633 10.9657 10.3633 9.41207V5.88738H12.1488ZM9.30828 3.12988V11.3948C8.39234 11.5687 7.71984 11.6383 6.9894 11.6383C4.80959 11.6383 3.67334 10.6528 3.67334 8.76282C3.67334 6.94245 4.87921 5.75988 6.74584 5.75988C7.03571 5.75988 7.25603 5.78301 7.52271 5.85257V3.13001L9.30828 3.12988ZM6.91984 7.19751C6.01546 7.19751 5.49365 7.75407 5.49365 8.72795C5.49365 9.67882 5.99228 10.2005 6.90828 10.2005C7.10528 10.2005 7.26765 10.1889 7.52271 10.1543V7.2902C7.31403 7.2207 7.14015 7.19751 6.91984 7.19751ZM12.1488 3.13938V4.97138H10.3633V3.13945L12.1488 3.13938Z" fill="#FFFFFD"/>
</g>
<defs>
<clipPath id="clip0_6232_185053">
<rect width="16" height="16" fill="white" transform="translate(0.5)"/>
</clipPath>
</defs>
</svg>
