<svg width="17" height="16" viewBox="0 0 17 16" fill="none" xmlns="http://www.w3.org/2000/svg">
<path fill-rule="evenodd" clip-rule="evenodd" d="M9.86195 1.83357L13.1519 3.73309C13.2445 3.63496 13.3528 3.54832 13.4755 3.47702C14.1578 3.08478 15.0281 3.31767 15.4244 4C15.8167 4.68233 15.5838 5.5526 14.9015 5.94893C14.7796 6.01895 14.6517 6.06906 14.5215 6.10023V9.90075C14.6503 9.93199 14.7768 9.98178 14.8974 10.0511C15.5838 10.4474 15.8167 11.3177 15.4204 12C15.0281 12.6823 14.1538 12.9152 13.4714 12.523C13.3356 12.4449 13.2176 12.3477 13.1187 12.2367L9.84883 14.1246C9.89557 14.2659 9.92087 14.417 9.92087 14.5741C9.92087 15.3585 9.28348 16 8.49492 16C7.70636 16 7.06898 15.3626 7.06898 14.5741C7.06898 14.4339 7.08911 14.2985 7.12666 14.1706L3.83757 12.2716C3.74592 12.3678 3.63921 12.4528 3.51841 12.523C2.832 12.9152 1.96172 12.6823 1.56949 12C1.17725 11.3177 1.41014 10.4474 2.09247 10.0511C2.21311 9.98172 2.33963 9.93191 2.46836 9.90068V6.10023C2.33814 6.06906 2.2102 6.01895 2.08838 5.94893C1.40605 5.55669 1.17316 4.68233 1.5654 4C1.95764 3.31767 2.832 3.08478 3.51433 3.47702C3.63642 3.54793 3.74412 3.63402 3.83642 3.73149L7.12727 1.83146C7.08933 1.70297 7.06898 1.56687 7.06898 1.42594C7.06898 0.637385 7.70636 0 8.49492 0C9.28348 0 9.92087 0.637385 9.92087 1.42594C9.92087 1.56764 9.90028 1.70446 9.86195 1.83357ZM9.51917 2.41882L12.817 4.32286C12.715 4.68089 12.7524 5.07787 12.9525 5.42594C13.1533 5.77515 13.4803 6.00664 13.8432 6.09686V9.90213C13.8247 9.90667 13.8063 9.91158 13.788 9.91685L9.48088 2.45685C9.49388 2.44442 9.50665 2.43174 9.51917 2.41882ZM7.50986 2.45771L3.20278 9.91759C3.18416 9.91218 3.16543 9.90715 3.14661 9.9025V6.09686C3.50954 6.00664 3.83657 5.77515 4.03731 5.42594C4.2378 5.07718 4.27496 4.67932 4.17227 4.32074L7.46914 2.41723C7.48244 2.431 7.49602 2.44449 7.50986 2.45771ZM8.89334 2.79567L13.1995 10.2538C13.1031 10.3457 13.0181 10.4528 12.9484 10.5741C12.8792 10.6946 12.8294 10.8211 12.7981 10.9499H4.19179C4.16056 10.8212 4.11075 10.6947 4.0414 10.5741C3.97142 10.4536 3.88666 10.3471 3.79077 10.2556L8.0977 2.79602C8.22375 2.8324 8.35702 2.85189 8.49492 2.85189C8.63326 2.85189 8.76694 2.83227 8.89334 2.79567ZM9.54945 13.6134L12.8258 11.7217C12.816 11.6909 12.8072 11.6597 12.7995 11.6282H4.18997C4.1854 11.6467 4.18047 11.6651 4.17517 11.6834L7.46764 13.5843C7.72688 13.3153 8.09107 13.1481 8.49492 13.1481C8.91313 13.1481 9.28881 13.3274 9.54945 13.6134Z" fill="#E535AB"/>
</svg>
