<svg width="17" height="16" viewBox="0 0 17 16" fill="none" xmlns="http://www.w3.org/2000/svg">
<path d="M14.3086 2.11698C12.8228 -0.00945924 9.88856 -0.639745 7.76693 0.712012L4.04083 3.08683C3.02303 3.72715 2.32198 4.76652 2.1096 5.95008C1.93186 6.93606 2.08808 7.95316 2.55354 8.84034C2.2346 9.32416 2.01706 9.86763 1.91409 10.4379C1.69965 11.6442 1.98015 12.886 2.69227 13.883C4.1783 16.0096 7.1126 16.6397 9.2339 15.288L12.96 12.9132C13.9779 12.2729 14.6789 11.2335 14.8912 10.0499C15.069 9.06393 14.9128 8.04685 14.4476 7.15957C14.7665 6.67576 14.9839 6.13231 15.0868 5.56208C15.3014 4.35579 15.0209 3.11392 14.3086 2.11698" fill="#FF3E00"/>
<path d="M7.40305 14.0853C6.20164 14.3977 4.93292 13.9274 4.22538 12.9074C3.79693 12.3077 3.62815 11.5607 3.75716 10.835C3.77878 10.7171 3.80855 10.6008 3.84623 10.487L3.91642 10.2729L4.10738 10.4132C4.54838 10.7372 5.04146 10.9836 5.56538 11.1417L5.7039 11.1837L5.69114 11.322C5.67422 11.5186 5.72747 11.715 5.84147 11.8761C6.0544 12.1834 6.43639 12.3252 6.79821 12.2312C6.87922 12.2096 6.95642 12.1757 7.02715 12.1306L10.7545 9.75538C10.9389 9.63927 11.0659 9.45097 11.1046 9.23651C11.1433 9.0178 11.0924 8.79274 10.9635 8.61187C10.7505 8.30457 10.3684 8.16273 10.0064 8.25657C9.92552 8.27822 9.84841 8.31213 9.77778 8.35711L8.35547 9.26379C8.12159 9.4125 7.86636 9.52458 7.59861 9.59616C6.39721 9.90853 5.12851 9.43826 4.42098 8.41829C3.99251 7.81859 3.82373 7.07156 3.95276 6.3459C4.08049 5.63398 4.50224 5.00881 5.11453 4.62378L8.8415 2.24834C9.07548 2.09939 9.3309 1.98716 9.59887 1.91557C10.8003 1.60321 12.0689 2.07348 12.7765 3.09343C13.2049 3.69314 13.3737 4.44017 13.2447 5.16583C13.223 5.28374 13.1932 5.40003 13.1556 5.51389L13.0854 5.72792L12.8946 5.58788C12.4536 5.26366 11.9605 5.01719 11.4365 4.85909L11.298 4.81705L11.3107 4.6788C11.3275 4.48213 11.2743 4.28586 11.1604 4.12464C10.9475 3.8174 10.5655 3.67562 10.2036 3.76953C10.1226 3.79118 10.0454 3.82511 9.97471 3.87015L6.24741 6.24549C6.06303 6.36151 5.93602 6.5498 5.89749 6.76421C5.85862 6.98292 5.90938 7.20806 6.03833 7.38893C6.25139 7.69622 6.63347 7.83806 6.99544 7.74423C7.07643 7.72254 7.15362 7.68861 7.22437 7.64362L8.64649 6.73728C8.88027 6.58838 9.13549 6.47619 9.40327 6.40464C10.6047 6.09227 11.8734 6.56254 12.5809 7.58251C13.0094 8.18221 13.1781 8.92924 13.0491 9.65489C12.9213 10.3669 12.4996 10.9921 11.8873 11.3773L8.16036 13.7525C7.92638 13.9015 7.67096 14.0137 7.40299 14.0853" fill="white"/>
</svg>
