<svg width="17" height="16" viewBox="0 0 17 16" fill="none" xmlns="http://www.w3.org/2000/svg">
<path d="M5.85417 16C7.32617 16 8.52083 14.8053 8.52083 13.3333V10.6667H5.85417C4.38217 10.6667 3.1875 11.8613 3.1875 13.3333C3.1875 14.8053 4.38217 16 5.85417 16Z" fill="#0ACF83"/>
<path d="M3.1875 8.00001C3.1875 6.52801 4.38217 5.33334 5.85417 5.33334H8.52083V10.6667H5.85417C4.38217 10.6667 3.1875 9.47201 3.1875 8.00001Z" fill="#A259FF"/>
<path d="M3.1875 2.66667C3.1875 1.19467 4.38217 0 5.85417 0H8.52083V5.33333H5.85417C4.38217 5.33333 3.1875 4.13867 3.1875 2.66667Z" fill="#F24E1E"/>
<path d="M8.521 0H11.1877C12.6597 0 13.8543 1.19467 13.8543 2.66667C13.8543 4.13867 12.6597 5.33333 11.1877 5.33333H8.521V0Z" fill="#FF7262"/>
<path d="M13.8543 8.00001C13.8543 9.47201 12.6597 10.6667 11.1877 10.6667C9.71566 10.6667 8.521 9.47201 8.521 8.00001C8.521 6.52801 9.71566 5.33334 11.1877 5.33334C12.6597 5.33334 13.8543 6.52801 13.8543 8.00001Z" fill="#1ABCFE"/>
</svg>
