<svg width="16" height="16" viewBox="0 0 16 16" fill="none" xmlns="http://www.w3.org/2000/svg">
<path d="M8 8.625C8.34518 8.625 8.625 8.34518 8.625 8C8.625 7.65482 8.34518 7.375 8 7.375C7.65482 7.375 7.375 7.65482 7.375 8C7.375 8.34518 7.65482 8.625 8 8.625Z" stroke="#DBDCDD" stroke-width="1.25" stroke-linecap="round" stroke-linejoin="round"/>
<path d="M12.375 8.625C12.7202 8.625 13 8.34518 13 8C13 7.65482 12.7202 7.375 12.375 7.375C12.0298 7.375 11.75 7.65482 11.75 8C11.75 8.34518 12.0298 8.625 12.375 8.625Z" stroke="#DBDCDD" stroke-width="1.25" stroke-linecap="round" stroke-linejoin="round"/>
<path d="M3.625 8.625C3.97018 8.625 4.25 8.34518 4.25 8C4.25 7.65482 3.97018 7.375 3.625 7.375C3.27982 7.375 3 7.65482 3 8C3 8.34518 3.27982 8.625 3.625 8.625Z" stroke="#DBDCDD" stroke-width="1.25" stroke-linecap="round" stroke-linejoin="round"/>
</svg>
