<svg width="17" height="16" viewBox="0 0 17 16" fill="none" xmlns="http://www.w3.org/2000/svg">
<g clip-path="url(#clip0_6232_185044)">
<path d="M6.42538 12.3737C6.42538 12.3737 5.81395 12.7293 6.86051 12.8496C8.12839 12.9942 8.77639 12.9735 10.1736 12.709C10.1736 12.709 10.5409 12.9394 11.054 13.1389C7.92178 14.4813 3.96522 13.0611 6.42538 12.3737Z" fill="#5382A1"/>
<path d="M6.04229 10.6219C6.04229 10.6219 5.35651 11.1296 6.40385 11.2379C7.75824 11.3776 8.82783 11.3891 10.6786 11.0327C10.6786 11.0327 10.9346 11.2922 11.3372 11.4341C7.55016 12.5415 3.33213 11.5215 6.04229 10.6219Z" fill="#5382A1"/>
<path d="M9.26891 7.65041C10.0407 8.53896 9.06614 9.33854 9.06614 9.33854C9.06614 9.33854 11.0258 8.32691 10.1258 7.06011C9.28526 5.87874 8.64066 5.29176 12.1302 3.26794C12.1302 3.26794 6.65277 4.63596 9.26891 7.65041Z" fill="#E76F00"/>
<path d="M13.4118 13.6694C13.4118 13.6694 13.8643 14.0422 12.9135 14.3306C11.1056 14.8783 5.38871 15.0437 3.80058 14.3524C3.22969 14.1041 4.30027 13.7594 4.63704 13.6871C4.98825 13.6109 5.18895 13.6251 5.18895 13.6251C4.55406 13.1779 1.08529 14.5033 3.42699 14.8829C9.81313 15.9186 15.0683 14.4166 13.4118 13.6694Z" fill="#5382A1"/>
<path d="M6.71968 8.80693C6.71968 8.80693 3.81171 9.49762 5.6899 9.74843C6.48292 9.85461 8.06381 9.83059 9.53636 9.70721C10.7398 9.60569 11.9482 9.38985 11.9482 9.38985C11.9482 9.38985 11.5239 9.57158 11.2169 9.78121C8.26386 10.5578 2.55923 10.1965 4.20152 9.40214C5.59041 8.73077 6.71968 8.80693 6.71968 8.80693Z" fill="#5382A1"/>
<path d="M11.9368 11.7228C14.9387 10.1629 13.5507 8.66388 12.5819 8.86583C12.3445 8.91525 12.2386 8.95808 12.2386 8.95808C12.2386 8.95808 12.3268 8.81999 12.4951 8.76022C14.4117 8.08643 15.8856 10.7475 11.8765 11.8014C11.8765 11.8014 11.9229 11.7599 11.9368 11.7228Z" fill="#5382A1"/>
<path d="M10.1258 0C10.1258 0 11.7883 1.66303 8.54901 4.22031C5.95145 6.27169 7.95669 7.44133 8.54793 8.77769C7.0317 7.40967 5.91898 6.20541 6.66548 5.08458C7.76116 3.43932 10.7966 2.64163 10.1258 0Z" fill="#E76F00"/>
<path d="M7.01448 15.9497C9.89589 16.1342 14.3206 15.8474 14.4254 14.484C14.4254 14.484 14.224 15.0008 12.0441 15.4113C9.58474 15.8741 6.55149 15.8201 4.75244 15.5235C4.75248 15.5234 5.12073 15.8283 7.01448 15.9497Z" fill="#5382A1"/>
</g>
<defs>
<clipPath id="clip0_6232_185044">
<rect width="16" height="16" fill="white" transform="translate(0.5)"/>
</clipPath>
</defs>
</svg>
