<svg width="17" height="16" viewBox="0 0 17 16" fill="none" xmlns="http://www.w3.org/2000/svg">
<g clip-path="url(#clip0_6232_185031)">
<path d="M8.89017 15.6103C12.8775 15.6103 16.1099 12.2032 16.1099 8.0003C16.1099 3.79741 12.8775 0.390289 8.89017 0.390289C4.9028 0.390289 1.67041 3.79741 1.67041 8.0003C1.67041 12.2032 4.9028 15.6103 8.89017 15.6103Z" fill="#616161"/>
<path d="M10.2577 12.0728C13.4907 12.0728 16.1115 9.53648 16.1115 6.4078C16.1115 3.27912 13.4907 0.742828 10.2577 0.742828C7.02467 0.742828 4.40381 3.27912 4.40381 6.4078C4.40381 9.53648 7.02467 12.0728 10.2577 12.0728Z" fill="#212121"/>
<path d="M9.8649 1.17056C9.8649 1.17056 11.8162 1.95108 10.9963 2.64651C10.5814 2.99814 10.0542 3.18429 9.56245 3.41454C8.99151 3.68187 8.40339 3.91407 7.88747 4.28794C7.4976 4.57048 7.1292 4.8741 6.86461 5.28231C6.54772 5.77091 6.36117 6.30556 6.32917 6.88939C6.30029 7.41506 6.39786 7.92006 6.6164 8.39578C6.92822 9.07483 7.43438 9.57162 8.0986 9.91349C8.57159 10.157 9.07307 10.2698 9.60226 10.2573C10.222 10.2429 10.7929 10.0673 11.3053 9.71368C11.5961 9.51309 11.8279 9.25864 12.0464 8.98C12.2993 8.65764 12.5034 8.3111 12.6787 7.94581C12.8968 7.49156 13.0611 7.01544 13.2418 6.54557C13.3803 6.18576 13.5216 5.82399 13.7366 5.50281C14.548 4.29262 15.3285 5.46339 15.3285 5.46339C15.3285 5.46339 14.9382 3.90236 13.7675 2.73159C12.5967 1.56082 9.8649 1.17056 9.8649 1.17056Z" fill="#3949AB"/>
<path d="M14.1588 6.24419C13.9871 8.4347 13.555 10.0722 12.9646 11.2886C12.067 13.51 9.80389 15.0328 7.21336 14.808C4.49132 14.5715 2.28715 12.3427 2.07797 9.61835C1.91211 7.45906 2.96034 5.53392 4.60957 4.44627C5.95908 3.45151 7.85143 3.05657 9.47568 2.73187C10.7916 2.46884 11.4418 2.07234 11.7259 1.66296C12.0053 1.26021 11.7887 0.698634 11.331 0.523799C10.28 0.123005 9.12601 -0.0674408 7.91426 0.0215378C3.72134 0.329451 0.42406 3.94635 0.501331 8.14981C0.585236 12.7482 4.54947 16.3987 9.25753 15.9659C12.8385 15.6365 15.8045 12.8754 16.3903 9.32761C16.6474 7.77087 16.4398 6.29024 15.9013 4.97936C15.6488 4.36549 14.784 4.30968 14.4846 4.90209C14.2552 5.35674 14.1806 5.96554 14.1588 6.24419Z" fill="#E0E0E0"/>
</g>
<defs>
<clipPath id="clip0_6232_185031">
<rect width="16" height="16" fill="white" transform="translate(0.5)"/>
</clipPath>
</defs>
</svg>
