<svg width="17" height="16" viewBox="0 0 17 16" fill="none" xmlns="http://www.w3.org/2000/svg">
<g clip-path="url(#clip0_6232_185067)">
<path d="M0.5 5.79048C0.5 3.76362 0.5 2.75019 0.894453 1.97603C1.24142 1.29507 1.79507 0.741423 2.47603 0.394453C3.25019 0 4.26362 0 6.29048 0H10.7095C12.7364 0 13.7498 0 14.524 0.394453C15.2049 0.741423 15.7586 1.29507 16.1055 1.97603C16.5 2.75019 16.5 3.76362 16.5 5.79048V10.2095C16.5 12.2364 16.5 13.2498 16.1055 14.024C15.7586 14.7049 15.2049 15.2586 14.524 15.6055C13.7498 16 12.7364 16 10.7095 16H6.29048C4.26362 16 3.25019 16 2.47603 15.6055C1.79507 15.2586 1.24142 14.7049 0.894453 14.024C0.5 13.2498 0.5 12.2364 0.5 10.2095V5.79048Z" fill="#49021F"/>
<path d="M5.98119 4.68314V11.6956C5.98119 11.769 5.949 11.8057 5.88461 11.8057H4.58584C4.52852 11.8057 4.4999 11.769 4.5 11.6956V4.68314C4.5 4.62448 4.53219 4.59513 4.59658 4.59507H5.89532C5.94459 4.58789 5.98819 4.63261 5.98119 4.68314Z" fill="#FF3366"/>
<path d="M9.82374 11.9157C9.32971 11.9234 8.84021 11.8181 8.39083 11.6075C7.4368 11.1546 7.02224 10.1523 7.02234 9.11955C7.01411 8.08934 7.55974 7.10774 8.44988 6.6206C9.06434 6.27151 9.78712 6.18283 10.4785 6.24632V4.07764C10.4785 4.02637 10.4999 4.00058 10.5429 4.00058H11.8953C11.9322 3.99516 11.9649 4.02871 11.9597 4.06662V10.5727C11.9597 10.8411 11.9863 11.1086 12.0026 11.3763C12.0052 11.422 11.9788 11.4673 11.9382 11.4864C11.5893 11.6356 11.2259 11.7463 10.8541 11.8166C10.5142 11.881 10.1694 11.9141 9.82374 11.9157ZM10.4785 10.5507V7.54533C9.50257 7.27418 8.54634 8.01927 8.54647 9.0535C8.52288 10.1366 9.48862 10.8476 10.4785 10.5507Z" fill="#FF3366"/>
</g>
<defs>
<clipPath id="clip0_6232_185067">
<rect width="16" height="16" fill="white" transform="translate(0.5)"/>
</clipPath>
</defs>
</svg>
