<svg width="17" height="16" viewBox="0 0 17 16" fill="none" xmlns="http://www.w3.org/2000/svg">
<path d="M7.97605 0.00430566C7.94164 0.00743325 7.83216 0.0183798 7.73363 0.0261988C5.46109 0.231056 3.33245 1.45707 1.98426 3.34145C1.23353 4.38919 0.753372 5.57768 0.571945 6.83654C0.50782 7.27596 0.5 7.40576 0.5 8.00157C0.5 8.59737 0.50782 8.72717 0.571945 9.1666C1.00674 12.1707 3.14477 14.6946 6.04448 15.6298C6.56373 15.7971 7.11114 15.9113 7.73363 15.9801C7.97605 16.0066 9.02395 16.0066 9.26637 15.9801C10.3409 15.8612 11.2511 15.5954 12.1489 15.1372C12.2865 15.0668 12.3131 15.048 12.2943 15.0324C12.2818 15.023 11.6953 14.2364 10.9915 13.2856L9.71212 11.5576L8.10899 9.18536C7.22688 7.88115 6.50117 6.81464 6.49492 6.81464C6.48866 6.81308 6.4824 7.86708 6.47928 9.15409C6.47458 11.4075 6.47302 11.4982 6.44487 11.5514C6.4042 11.628 6.37292 11.6593 6.30723 11.6937C6.25718 11.7187 6.21339 11.7234 5.97722 11.7234H5.70665L5.6347 11.6781C5.58778 11.6483 5.55337 11.6092 5.52991 11.5639L5.49707 11.4935L5.5002 8.35811L5.50489 5.22113L5.55337 5.16015C5.5784 5.12731 5.63157 5.08508 5.66911 5.06475C5.73324 5.03348 5.75826 5.03035 6.02884 5.03035C6.3479 5.03035 6.40108 5.04286 6.48397 5.13356C6.50743 5.15858 7.37546 6.46592 8.41398 8.04066C9.45249 9.61541 10.8726 11.7656 11.5702 12.8212L12.837 14.74L12.9012 14.6977C13.4689 14.3287 14.0695 13.8033 14.545 13.2559C15.5569 12.094 16.2091 10.6772 16.4281 9.1666C16.4922 8.72717 16.5 8.59737 16.5 8.00157C16.5 7.40576 16.4922 7.27596 16.4281 6.83654C15.9933 3.83248 13.8552 1.30851 10.9555 0.373362C10.4441 0.207599 9.89981 0.0934421 9.28983 0.024635C9.13969 0.00899705 8.10587 -0.00820472 7.97605 0.00430566ZM11.2511 4.8427C11.3262 4.88023 11.3872 4.95216 11.4091 5.02722C11.4216 5.06788 11.4247 5.93735 11.4216 7.89679L11.4169 10.7085L10.9211 9.94849L10.4238 9.18849V7.14461C10.4238 5.8232 10.43 5.08039 10.4394 5.04443C10.4644 4.95685 10.5192 4.88805 10.5942 4.84739C10.6584 4.81455 10.6818 4.81142 10.9274 4.81142C11.1588 4.81142 11.1995 4.81455 11.2511 4.8427Z" fill="#12141A"/>
</svg>
