<svg width="17" height="16" viewBox="0 0 17 16" fill="none" xmlns="http://www.w3.org/2000/svg">
<g clip-path="url(#clip0_6232_185025)">
<path d="M0.5 5.79048C0.5 3.76362 0.5 2.75019 0.894453 1.97603C1.24142 1.29507 1.79507 0.741423 2.47603 0.394453C3.25019 0 4.26362 0 6.29048 0H10.7095C12.7364 0 13.7498 0 14.524 0.394453C15.2049 0.741423 15.7586 1.29507 16.1055 1.97603C16.5 2.75019 16.5 3.76362 16.5 5.79048V10.2095C16.5 12.2364 16.5 13.2498 16.1055 14.024C15.7586 14.7049 15.2049 15.2586 14.524 15.6055C13.7498 16 12.7364 16 10.7095 16H6.29048C4.26362 16 3.25019 16 2.47603 15.6055C1.79507 15.2586 1.24142 14.7049 0.894453 14.024C0.5 13.2498 0.5 12.2364 0.5 10.2095V5.79048Z" fill="#00005B"/>
<path d="M7.23767 10.0365H4.75828L4.25382 11.6468C4.23981 11.7065 4.18482 11.7488 4.12501 11.7459H2.86922C2.7976 11.7459 2.77256 11.7055 2.79408 11.6248L4.94073 5.31009C4.96222 5.24405 4.98366 5.17948 5.00515 5.09501C5.03323 4.94814 5.0476 4.79886 5.04808 4.64918C5.04193 4.60496 5.0801 4.56581 5.12322 4.57211H6.82979C6.87979 4.57211 6.90842 4.59046 6.91567 4.62717L9.35216 11.6358C9.37361 11.7093 9.35213 11.746 9.28774 11.7459H7.89239C7.84345 11.7515 7.79672 11.7179 7.78507 11.6688L7.23767 10.0365ZM5.14467 8.67871H6.84054C6.56191 7.72661 6.24747 6.78702 5.99262 5.8275C5.70382 6.82283 5.43715 7.7459 5.14467 8.67871Z" fill="#9999FF"/>
<path d="M11.1642 9.4147C11.2629 10.2324 11.9495 10.6222 12.7098 10.6056C13.1386 10.5971 13.5967 10.5306 13.9973 10.3685C14.033 10.3392 14.051 10.3575 14.051 10.4235V11.4693C14.0544 11.5238 14.0317 11.5724 13.9866 11.6014C13.4887 11.8276 12.9171 11.8958 12.3771 11.8872C10.7669 11.8872 9.66111 10.7526 9.66156 9.10201C9.65736 7.53778 10.6721 6.21812 12.2483 6.21812C13.5843 6.18348 14.5093 7.25318 14.513 8.58461C14.513 8.82712 14.4995 9.07045 14.4701 9.31117C14.4644 9.36077 14.4222 9.39926 14.3735 9.39925C13.3064 9.39925 12.2342 9.4147 11.1642 9.4147ZM11.1642 8.41185C11.7589 8.41185 12.357 8.43287 12.9513 8.40634C13.0406 8.39719 13.107 8.38027 13.107 8.28737C13.0946 7.79376 12.678 7.38781 12.1946 7.40669C11.6106 7.37049 11.2368 7.86349 11.1642 8.41185Z" fill="#9999FF"/>
</g>
<defs>
<clipPath id="clip0_6232_185025">
<rect width="16" height="16" fill="white" transform="translate(0.5)"/>
</clipPath>
</defs>
</svg>
