<svg width="17" height="16" viewBox="0 0 17 16" fill="none" xmlns="http://www.w3.org/2000/svg">
<path d="M9.9481 0C9.87213 0 9.79981 0.0271348 9.73473 0.0597476C9.87578 0.201154 9.9517 0.385939 9.99149 0.597986C9.99509 0.625184 9.99869 0.646905 10.0023 0.674103C10.006 0.701302 10.0095 0.723022 10.0095 0.750221C10.0204 1.1145 9.94446 1.15794 9.89387 1.3754C9.8143 1.65268 9.83599 1.95173 9.93361 2.19092C9.94081 2.21811 9.9517 2.25079 9.96615 2.28334C9.86129 1.23406 10.4435 1.07641 10.552 0.750157C10.5592 0.462057 10.4037 0.271794 10.2808 0.141343C10.1542 0.0325491 10.0457 0 9.9481 0ZM10.8233 0.233767C10.8124 0.331606 10.8196 0.304471 10.816 0.353326C10.8124 0.385939 10.8124 0.429444 10.8088 0.462057C10.8016 0.494669 10.7979 0.527282 10.7907 0.559959L10.769 0.657797C10.7581 0.69041 10.7509 0.717608 10.7401 0.755635L10.7184 0.804554C10.7111 0.815446 10.7075 0.831753 10.7003 0.842645C10.6858 0.869844 10.6714 0.902456 10.6605 0.924177C10.6424 0.951375 10.6316 0.978574 10.6099 1.00029V1.00571C10.5918 1.02749 10.5773 1.04921 10.5592 1.071C10.5014 1.13622 10.4363 1.18514 10.3748 1.25037C10.3567 1.27215 10.335 1.28846 10.3206 1.31024C10.3025 1.3319 10.2844 1.35368 10.2699 1.3754L10.2193 1.45152C10.2049 1.47872 10.1904 1.50592 10.1795 1.53305C10.1651 1.56025 10.1506 1.59293 10.1397 1.62006C10.1289 1.65268 10.1217 1.67994 10.1108 1.71797C10.1036 1.75058 10.0928 1.77771 10.0891 1.8158C10.0819 1.85383 10.0747 1.88651 10.0711 1.91912C10.0674 1.93543 10.0674 1.95715 10.0638 1.97345C10.0602 1.98976 10.0602 2.00607 10.0566 2.02237C10.0566 2.05499 10.053 2.09308 10.053 2.12569C10.053 2.15289 10.053 2.17461 10.0566 2.20181C10.0566 2.23442 10.0602 2.26703 10.0638 2.30512C10.0674 2.33774 10.0711 2.37035 10.0783 2.40296L10.1 2.5008C10.1072 2.52258 10.1144 2.54431 10.118 2.56068L9.48521 2.19092C9.3767 2.14741 9.27184 2.10397 9.16697 2.06588C9.10909 2.04416 9.05121 2.02237 8.99338 2.00607C8.82701 1.957 8.65929 1.91892 8.4907 1.89192C8.4835 1.89192 8.4835 1.88644 8.47621 1.88644C8.30987 1.85931 8.14713 1.84842 7.98438 1.84842C7.86147 1.84842 7.74211 1.85925 7.62275 1.87014C7.45641 1.88644 7.28646 1.91912 7.12008 1.96256C7.08029 1.97345 7.03691 1.98435 6.99712 1.99524C6.91035 2.02237 6.83078 2.04957 6.7476 2.07677C6.70782 2.09308 6.66443 2.10938 6.62465 2.12569C6.58486 2.15289 6.54508 2.18009 6.50533 2.20181C6.47588 2.22403 6.44571 2.24399 6.41491 2.26162C6.40767 2.26703 6.40407 2.26703 6.40042 2.27245C6.37473 2.29127 6.34941 2.31124 6.3245 2.33232C6.31729 2.33774 6.31005 2.34315 6.30641 2.34315C6.27747 2.36487 6.24497 2.38666 6.21963 2.40838C6.20154 2.41927 6.1798 2.43557 6.1654 2.45188C6.15815 2.46271 6.14731 2.46819 6.14006 2.47367C6.11477 2.49532 6.08943 2.51711 6.06774 2.53341C6.0424 2.5552 6.0207 2.57692 6.00266 2.59329C5.98456 2.61494 5.96283 2.63131 5.94842 2.65304C5.94478 2.65845 5.94118 2.65845 5.94118 2.66386C5.9228 2.68078 5.90581 2.70087 5.89054 2.72374L5.8833 2.73457C5.86885 2.75087 5.85436 2.76724 5.84351 2.78355C5.83631 2.78896 5.83267 2.79438 5.82542 2.79986C5.81097 2.81616 5.79653 2.83788 5.78564 2.85419C5.78204 2.86502 5.77843 2.86502 5.77479 2.8705C5.75674 2.89769 5.74225 2.914 5.72416 2.9412C5.72056 2.9412 5.72056 2.94661 5.71695 2.95203C5.69886 2.97381 5.68441 2.99553 5.66632 3.02273C5.66272 3.02815 5.66272 3.03356 5.65912 3.03356C5.64463 3.05534 5.63014 3.07713 5.61929 3.09885C5.61209 3.10968 5.60484 3.11516 5.60124 3.12605C5.58675 3.15325 5.5723 3.17497 5.55421 3.20217C5.55061 3.21299 5.54701 3.21299 5.54337 3.22389C5.52167 3.2565 5.50358 3.28911 5.47828 3.32172L5.47104 3.33262C5.42765 3.40332 5.38062 3.47402 5.32999 3.53377C5.27936 3.599 5.22873 3.66429 5.17449 3.71862C5.12026 3.77843 5.06603 3.82735 5.00815 3.87627C4.95391 3.91977 4.89604 3.96328 4.83456 4.00131C4.77571 4.03962 4.71531 4.07232 4.65372 4.09921C4.53801 4.13723 4.41866 4.20794 4.31743 4.21883C4.2957 4.21883 4.2704 4.22966 4.24871 4.22966C4.22337 4.24049 4.20168 4.24597 4.17999 4.25686C4.15829 4.26775 4.1366 4.28406 4.1149 4.29488C4.09321 4.30571 4.07152 4.32208 4.04982 4.33839C4.03173 4.36017 4.01 4.37648 3.98835 4.39826C3.97025 4.41992 3.94852 4.44171 3.93411 4.4689C3.91598 4.49062 3.89428 4.51782 3.87984 4.54502C3.86174 4.57216 3.8473 4.59935 3.83281 4.62655C3.81836 4.65917 3.80391 4.68637 3.79306 4.72439C3.77857 4.75159 3.76412 4.78427 3.75324 4.82229C3.74235 4.86032 3.73158 4.893 3.72434 4.93102C3.71714 4.96364 3.70625 5.00173 3.699 5.03975C3.6918 5.07237 3.68815 5.10498 3.68455 5.13759C3.68455 5.14301 3.68095 5.14842 3.68095 5.14842C3.67371 5.18651 3.67371 5.23543 3.67371 5.26263C3.67011 5.28983 3.6665 5.31703 3.6665 5.34416C3.6665 5.36047 3.6665 5.38225 3.67011 5.39856C3.67371 5.42576 3.67731 5.45289 3.68095 5.47468C3.68815 5.50187 3.6918 5.5236 3.699 5.55079V5.55621C3.70625 5.58341 3.71709 5.60513 3.72794 5.63233C3.73879 5.65952 3.74963 5.68124 3.76412 5.70844C3.77857 5.73016 3.79306 5.75195 3.81115 5.77367C3.8292 5.80087 3.84365 5.81717 3.86174 5.83889C3.92687 5.9259 3.94492 5.9531 4.02809 6.02374L4.07152 6.05636C4.07512 6.05636 4.07872 6.06183 4.07872 6.06183C4.07872 6.07266 4.07872 6.07266 4.08236 6.08355C4.08597 6.11617 4.08957 6.14878 4.09681 6.18146C4.10404 6.2195 4.11128 6.25212 4.11851 6.27929C4.12935 6.32006 4.133 6.32821 4.1402 6.35541C4.14384 6.36624 4.14745 6.37172 4.14745 6.37713C4.15829 6.40975 4.16914 6.43701 4.17999 6.46956C4.19448 6.49676 4.20892 6.52943 4.21981 6.55657C4.23422 6.58376 4.24871 6.6109 4.2668 6.63268C4.28485 6.65988 4.29934 6.67619 4.31743 6.70339C4.31743 6.70339 4.32103 6.7088 4.32464 6.7088C4.34273 6.73052 4.35718 6.75231 4.37527 6.76861C4.39336 6.79033 4.4151 6.80664 4.43675 6.82295C4.45484 6.83925 4.47657 6.85556 4.50187 6.86645C4.51992 6.87728 4.53801 6.88817 4.5561 6.89365C4.5597 6.89906 4.56331 6.89906 4.56695 6.90448C4.5778 6.90996 4.59224 6.91537 4.60309 6.91537C4.59589 7.13831 4.59224 7.35029 4.61394 7.42641C4.63928 7.50794 4.75863 7.25787 4.88155 6.96429C4.8635 7.25245 4.85265 7.58406 4.88155 7.68738C4.91044 7.79069 5.07687 7.46992 5.22152 7.11111C7.17435 6.43147 8.9572 8.45938 9.14523 11.3299C9.10909 10.8841 8.74382 10.6341 8.57387 10.6939C8.4907 10.9983 8.34965 11.3952 8.12543 11.6398C8.14352 11.368 8.13628 11.0853 8.09649 10.8134C8.03506 11.194 7.9157 11.5528 7.75656 11.8573C7.4962 11.8845 7.23219 11.6942 7.09474 11.4115C7.08394 11.4006 7.08033 11.3734 7.07309 11.3571C7.06589 11.3299 7.055 11.2973 7.0514 11.2701C7.04415 11.2429 7.03691 11.2103 7.0333 11.1831C7.0297 11.1559 7.0297 11.1234 7.0297 11.0908V11.0309C7.0333 11.0037 7.03691 10.9711 7.04415 10.9439C7.0514 10.9167 7.055 10.8841 7.06224 10.8569C7.07309 10.8298 7.08029 10.7971 7.09478 10.77C7.14181 10.5688 7.14181 10.4111 7.055 10.3133C7.03691 10.297 7.02246 10.2861 7.00437 10.2698C6.99352 10.2644 6.97907 10.2589 6.96822 10.2535C6.96098 10.2481 6.95373 10.2426 6.94649 10.2426C6.92844 10.2317 6.90675 10.2263 6.88865 10.2209C6.87056 10.21 6.84887 10.21 6.83078 10.21C6.81268 10.2045 6.79099 10.1991 6.76934 10.1991C6.75485 10.1991 6.74036 10.2045 6.72951 10.2045C6.70782 10.2045 6.68973 10.21 6.66808 10.2154C6.64998 10.2209 6.62825 10.2263 6.6102 10.2317C6.59211 10.2426 6.57037 10.2481 6.55232 10.2589C6.53427 10.2698 6.51618 10.2861 6.49809 10.297C6.48 10.3079 6.46555 10.3242 6.44745 10.3405C5.80373 10.9711 6.18709 12.4444 6.62825 12.8685C6.4619 12.912 6.29556 12.9664 6.24857 13.0208L6.24133 13.0316C6.35985 13.1402 6.48449 13.233 6.6138 13.3089C6.79099 13.3959 6.97903 13.4719 7.0586 13.51V13.5154C7.28646 13.5861 7.51789 13.6133 7.75296 13.5916C8.97169 13.4611 9.9734 12.0693 10.1542 10.2263C10.1614 10.2644 10.1651 10.297 10.1723 10.3351C10.1795 10.4111 10.1904 10.4873 10.1976 10.5688V10.5742C10.2048 10.6123 10.2048 10.6504 10.2085 10.683V10.6993C10.2121 10.7374 10.2157 10.7754 10.2157 10.808C10.2193 10.8515 10.2229 10.9004 10.2229 10.9439V11.0092C10.2229 11.0309 10.2266 11.0527 10.2266 11.0744C10.2266 11.1016 10.2229 11.1234 10.2229 11.1505V11.2104C10.2229 11.2375 10.2193 11.2647 10.2193 11.2919C10.2193 11.3082 10.2193 11.3245 10.2157 11.3462C10.2157 11.3734 10.2121 11.4061 10.2121 11.4387C10.2085 11.4495 10.2085 11.4659 10.2085 11.4767C10.2049 11.5094 10.2013 11.5366 10.2013 11.5746C10.2013 11.5854 10.2013 11.6018 10.1976 11.6126C10.194 11.6561 10.1904 11.6887 10.1868 11.7322V11.7431C10.1796 11.7812 10.1759 11.8193 10.1687 11.8573V11.8681C10.1615 11.9062 10.1578 11.9443 10.1506 11.9823C10.1506 11.9878 10.147 11.9932 10.147 11.9986C10.1398 12.0367 10.1361 12.0747 10.1289 12.1128V12.1237C10.1217 12.1672 10.1108 12.1998 10.1072 12.2379C10.1036 12.2433 10.1036 12.2487 10.1036 12.2487C10.0964 12.2922 10.0855 12.3302 10.0783 12.3738C10.0674 12.4172 10.0602 12.4499 10.0493 12.4934C10.0384 12.5369 10.0313 12.5749 10.0204 12.613C10.0096 12.6565 9.99873 12.6891 9.98789 12.7326H9.98424C9.9734 12.7706 9.96255 12.8087 9.9481 12.8468C9.94446 12.8576 9.94086 12.8685 9.94086 12.874C9.93725 12.8794 9.93726 12.8848 9.93365 12.8848C9.75282 13.4285 9.48877 13.9014 9.15972 14.2766C9.13803 14.2983 9.11634 14.3201 9.09464 14.3473C9.0874 14.3582 9.08015 14.3582 9.07655 14.369C9.05746 14.3921 9.03686 14.4121 9.01507 14.4289L9.02228 14.456H9.02592C9.06571 14.4452 9.10185 14.4397 9.14163 14.4289H9.14523C9.2176 14.4125 9.28993 14.3908 9.35861 14.369C9.3767 14.3636 9.39844 14.3582 9.42009 14.3473C9.43458 14.3418 9.44543 14.3364 9.45992 14.3364C9.47796 14.331 9.49966 14.3255 9.51775 14.3201C9.53584 14.3092 9.55029 14.3092 9.56838 14.2983C9.84319 14.2005 10.1108 14.0646 10.3676 13.9015C9.93001 14.7985 9.34416 15.5271 8.65705 16C8.97523 15.9675 9.29033 15.8855 9.59728 15.7554C10.7075 15.2606 11.6405 14.1407 12.2011 12.6293C12.089 13.5861 11.8359 14.4995 11.4597 15.2933C11.7273 15.0268 11.9733 14.7224 12.1938 14.3745C12.8122 13.4067 13.2173 12.1726 13.3547 10.8515C13.4487 11.5039 13.4776 12.1835 13.4343 12.8468C15.4233 8.67684 13.6006 4.34928 12.8376 3.21299C12.834 3.20217 12.8304 3.20217 12.8304 3.19127C12.8267 3.19669 12.8267 3.19669 12.8267 3.2021C12.8267 3.19669 12.8267 3.19669 12.8231 3.19127C12.8231 3.24019 12.8195 3.28911 12.8159 3.33803C12.8087 3.43593 12.7978 3.52288 12.7869 3.6153C12.7725 3.70773 12.758 3.80015 12.7399 3.88716C12.7218 3.97417 12.7002 4.06659 12.6748 4.15354C12.6495 4.23507 12.6242 4.32208 12.5916 4.40361C12.5612 4.48351 12.5286 4.56149 12.494 4.63738C12.4578 4.71356 12.4181 4.78962 12.3819 4.86032C12.3421 4.93644 12.2951 5.00173 12.2517 5.06689C12.2228 5.10498 12.2011 5.13759 12.1721 5.17021C12.1504 5.1974 12.1324 5.2246 12.1071 5.25174C12.0564 5.31161 12.0094 5.36595 11.9516 5.4148C11.9009 5.46385 11.8431 5.5127 11.7888 5.55621C11.7309 5.59971 11.6731 5.63233 11.6152 5.67035C11.5574 5.70303 11.4959 5.73023 11.4344 5.75736C11.3729 5.7845 11.3114 5.80087 11.25 5.81717C11.1877 5.83305 11.1249 5.84394 11.0619 5.84979C11.0185 5.8552 10.9751 5.86062 10.9281 5.86062C10.863 5.86062 10.8016 5.84979 10.7401 5.84437C10.675 5.83348 10.6135 5.82259 10.552 5.80087C10.4869 5.78456 10.429 5.75736 10.3676 5.73016H10.364C10.4254 5.71934 10.4869 5.71386 10.5448 5.69755C10.6099 5.68125 10.6678 5.65952 10.7292 5.63774C10.7907 5.61061 10.8522 5.58341 10.91 5.55079C10.9715 5.51818 11.0294 5.47468 11.0836 5.43659C11.1415 5.39315 11.1921 5.34964 11.25 5.30072C11.3006 5.24632 11.3549 5.19199 11.4055 5.13759C11.4561 5.07778 11.5031 5.01797 11.5465 4.95274C11.5935 4.89293 11.6333 4.82229 11.6767 4.75159C11.7165 4.67547 11.7563 4.60477 11.7924 4.52865C11.7996 4.51782 11.8033 4.50152 11.8105 4.48521C11.8391 4.42008 11.8657 4.35295 11.8901 4.28406C11.919 4.20252 11.9479 4.12099 11.9733 4.03398C11.9986 3.94697 12.0203 3.85996 12.0383 3.76754C12.0564 3.68059 12.0709 3.58817 12.0854 3.49574C12.0962 3.39784 12.1071 3.3109 12.1143 3.21847C12.1215 3.12057 12.1252 3.02815 12.1252 2.93572C12.1252 2.8705 12.1215 2.80527 12.1179 2.73457C12.1107 2.63673 12.1034 2.54972 12.0962 2.4573C12.0854 2.35946 12.0709 2.27245 12.0564 2.18009C12.0383 2.09308 12.0166 2.00065 11.995 1.91364C11.9733 1.82663 11.9443 1.73969 11.919 1.65816C11.8901 1.57662 11.8575 1.49509 11.825 1.4135L11.7165 1.18514C11.6767 1.11444 11.6333 1.04374 11.5899 0.973096C11.5682 0.940483 11.5429 0.902393 11.5176 0.869844C11.3946 0.723023 11.2645 0.587093 11.1342 0.462057C11.1162 0.44575 11.0981 0.434922 11.08 0.418552C10.9932 0.320713 10.91 0.277272 10.8233 0.233767Z" fill="#FF1744"/>
</svg>
