<svg width="17" height="16" viewBox="0 0 17 16" fill="none" xmlns="http://www.w3.org/2000/svg">
<g clip-path="url(#clip0_6232_185051)">
<path fill-rule="evenodd" clip-rule="evenodd" d="M0.5 0H16.5V16H0.5V0Z" fill="#F7DF1E"/>
<path fill-rule="evenodd" clip-rule="evenodd" d="M4.70706 13.3708L5.93149 12.6298C6.1677 13.0486 6.38259 13.4029 6.89802 13.4029C7.39209 13.4029 7.70358 13.2097 7.70358 12.4579V7.34555H9.20717V12.4792C9.20717 14.0365 8.29431 14.7454 6.96247 14.7454C5.75965 14.7454 5.06144 14.1224 4.70703 13.3706" fill="#12141A"/>
<path fill-rule="evenodd" clip-rule="evenodd" d="M10.0234 13.2096L11.2477 12.5008C11.57 13.0271 11.9889 13.4137 12.7299 13.4137C13.3529 13.4137 13.7502 13.1022 13.7502 12.6726C13.7502 12.1571 13.3421 11.9745 12.6547 11.6739L12.2789 11.5126C11.1941 11.0509 10.4745 10.4709 10.4745 9.24652C10.4745 8.1188 11.3337 7.25955 12.6762 7.25955C13.6321 7.25955 14.3195 7.59253 14.8135 8.4625L13.6428 9.21427C13.385 8.75248 13.1059 8.56993 12.6763 8.56993C12.2359 8.56993 11.9566 8.84916 11.9566 9.21427C11.9566 9.66537 12.2359 9.848 12.8803 10.1273L13.2561 10.2884C14.5342 10.8361 15.2538 11.3946 15.2538 12.6511C15.2538 14.0045 14.1906 14.7455 12.7622 14.7455C11.3659 14.7455 10.4637 14.0796 10.0235 13.2096" fill="#12141A"/>
</g>
<defs>
<clipPath id="clip0_6232_185051">
<rect width="16" height="16" fill="white" transform="translate(0.5)"/>
</clipPath>
</defs>
</svg>
