<svg width="17" height="17" viewBox="0 0 17 17" fill="none" xmlns="http://www.w3.org/2000/svg">
<path fill-rule="evenodd" clip-rule="evenodd" d="M16.4795 7.61536L9.49363 0.629909C9.09161 0.22753 8.43907 0.22753 8.03653 0.629909L6.58592 2.08054L8.42608 3.92074C8.85373 3.77626 9.34406 3.87317 9.68498 4.2141C10.0275 4.55714 10.1237 5.05169 9.9757 5.48075L11.7492 7.25424C12.1782 7.10642 12.6733 7.2021 13.016 7.54531C13.4949 8.02406 13.4949 8.80002 13.016 9.27912C12.5369 9.75822 11.7609 9.75822 11.2817 9.27912C10.9214 8.91853 10.8324 8.38939 11.0148 7.94558L9.36091 6.29165L9.36073 10.6441C9.47748 10.702 9.58773 10.7791 9.68498 10.876C10.1639 11.3547 10.1639 12.1307 9.68498 12.6102C9.20589 13.0891 8.42959 13.0891 7.95121 12.6102C7.47229 12.1307 7.47229 11.3547 7.95121 10.876C8.06953 10.7578 8.20646 10.6685 8.35252 10.6084V6.21546C8.20646 6.15577 8.06971 6.06694 7.95121 5.94791C7.58833 5.58556 7.50108 5.05309 7.687 4.60753L5.87317 2.79331L1.08316 7.58306C0.680613 7.98579 0.680613 8.63834 1.08316 9.04071L8.069 16.0263C8.4712 16.4287 9.12356 16.4287 9.52628 16.0263L16.4795 9.07319C16.8818 8.67064 16.8818 8.01774 16.4795 7.61536Z" fill="#DE4C36"/>
</svg>
