<svg width="17" height="16" viewBox="0 0 17 16" fill="none" xmlns="http://www.w3.org/2000/svg">
<g clip-path="url(#clip0_6232_185028)">
<path d="M4.05563 0C4.14938 0 12.7619 0 12.9181 0C13.3494 0 13.7681 0.06875 14.1744 0.2125C14.7619 0.425 15.2931 0.8 15.6931 1.2875C16.0994 1.775 16.3681 2.375 16.4619 3C16.4994 3.23125 16.5056 3.4625 16.5056 3.69375C16.5056 3.90625 16.5056 11.3938 16.5056 11.7312C16.5056 11.9312 16.5056 12.1375 16.5056 12.3375C16.5056 12.6125 16.4931 12.8938 16.4369 13.1625C16.3119 13.7812 16.0181 14.3625 15.5931 14.8313C15.1744 15.3 14.6244 15.65 14.0306 15.8375C13.6681 15.95 13.2931 16 12.9119 16C12.7431 16 4.03063 16 3.89938 15.9937C3.26188 15.9625 2.63063 15.7562 2.09938 15.4C1.58063 15.05 1.15563 14.5625 0.880626 14C0.643126 13.5188 0.524376 12.9813 0.524376 12.4438C0.524376 12.3188 0.524376 3.68125 0.524376 3.55625C0.511876 3.025 0.624376 2.5 0.855626 2.025C1.12438 1.4625 1.54313 0.96875 2.06188 0.61875C2.59313 0.25625 3.21813 0.04375 3.85563 0.0125C3.91813 0 3.98688 0 4.05563 0Z" fill="url(#paint0_linear_6232_185028)"/>
<path d="M14 13.0875C13.9438 13 13.8813 12.9125 13.8125 12.8313C13.6562 12.6438 13.475 12.4813 13.275 12.3438C13.025 12.175 12.7312 12.0688 12.4312 12.0563C12.2188 12.0438 12.0062 12.0813 11.8062 12.1563C11.6062 12.225 11.4125 12.325 11.225 12.425C11.0063 12.5375 10.7875 12.65 10.5562 12.7438C10.2812 12.8563 9.99375 12.9438 9.7 13.0063C9.33125 13.075 8.95625 13.1 8.5875 13.0938C7.91875 13.0813 7.25 12.9813 6.6125 12.7938C6.05 12.625 5.5125 12.3938 5.00625 12.1C4.5625 11.8438 4.15 11.55 3.7625 11.2188C3.44375 10.9438 3.15 10.65 2.875 10.3375C2.6875 10.1188 2.50625 9.8875 2.3375 9.65C2.26875 9.55625 2.20625 9.45625 2.15 9.35625L0.5 7.575V3.54375C0.5 1.5875 2.08125 0 4.0375 0H7.19375L9.53125 2.375C14.8062 5.9625 13.1 9.91875 13.1 9.91875C13.1 9.91875 14.6 11.6063 14 13.0875Z" fill="url(#paint1_linear_6232_185028)"/>
<path d="M9.54365 2.375C14.8187 5.9625 13.1124 9.91875 13.1124 9.91875C13.1124 9.91875 14.6124 11.6125 14.0062 13.0938C14.0062 13.0938 13.3874 12.0562 12.3499 12.0562C11.3499 12.0562 10.7624 13.0938 8.7499 13.0938C4.26865 13.0938 2.1499 9.35 2.1499 9.35C6.1874 12.0063 8.94365 10.125 8.94365 10.125C7.1249 9.06875 3.25615 4.01875 3.25615 4.01875C6.6249 6.8875 8.08115 7.64375 8.08115 7.64375C7.2124 6.925 4.7749 3.4125 4.7749 3.4125C6.7249 5.3875 10.5999 8.14375 10.5999 8.14375C11.6999 5.09375 9.54365 2.375 9.54365 2.375Z" fill="white"/>
</g>
<defs>
<linearGradient id="paint0_linear_6232_185028" x1="10.0175" y1="-0.570925" x2="6.99458" y2="16.5729" gradientUnits="userSpaceOnUse">
<stop stop-color="#FAAE42"/>
<stop offset="1" stop-color="#EF3E31"/>
</linearGradient>
<linearGradient id="paint1_linear_6232_185028" x1="8.66323" y1="0.258519" x2="6.45081" y2="12.8058" gradientUnits="userSpaceOnUse">
<stop stop-color="#E39F3A"/>
<stop offset="1" stop-color="#D33929"/>
</linearGradient>
<clipPath id="clip0_6232_185028">
<rect width="16" height="16" fill="white" transform="translate(0.5)"/>
</clipPath>
</defs>
</svg>
