<svg width="17" height="16" viewBox="0 0 17 16" fill="none" xmlns="http://www.w3.org/2000/svg">
<path d="M5.83395 0.468932H10.5685L5.65358 15.0313C5.55 15.3381 5.26227 15.5448 4.93843 15.5448H1.25379C1.01102 15.5448 0.783102 15.4279 0.641499 15.2307C0.499897 15.0335 0.461947 14.7802 0.539551 14.5502L5.11863 0.982425C5.22216 0.675461 5.51 0.46875 5.83395 0.46875V0.468932Z" fill="url(#paint0_linear_6232_185078)"/>
<path d="M12.7141 10.2364H5.20628C5.06343 10.2362 4.93505 10.3235 4.88264 10.4564C4.83024 10.5893 4.86449 10.7407 4.96899 10.8381L9.79335 15.341C9.93381 15.472 10.1188 15.5448 10.3108 15.5448H14.5621L12.7141 10.2364Z" fill="#0078D4"/>
<path d="M5.83445 0.468939C5.50664 0.467686 5.21612 0.679811 5.11749 0.992439L0.545689 14.5378C0.462837 14.7688 0.497729 15.0256 0.639192 15.2261C0.780655 15.4265 1.01094 15.5455 1.25629 15.5448H5.03603C5.32263 15.4936 5.55951 15.2922 5.65608 15.0175L6.56778 12.3306L9.82439 15.3681C9.96087 15.481 10.1321 15.5434 10.3092 15.5448H14.5446L12.687 10.2364L7.27184 10.2377L10.5861 0.468939H5.83445Z" fill="url(#paint1_linear_6232_185078)"/>
<path d="M11.8814 0.981699C11.7781 0.675229 11.4906 0.468933 11.1672 0.468933H5.89062C6.21405 0.468933 6.50142 0.675264 6.60486 0.981699L11.1841 14.55C11.2618 14.7801 11.2239 15.0335 11.0823 15.2307C10.9407 15.428 10.7127 15.545 10.4699 15.545H15.7466C15.9894 15.545 16.2173 15.4279 16.3589 15.2307C16.5005 15.0334 16.5384 14.78 16.4607 14.55L11.8814 0.981699Z" fill="url(#paint2_linear_6232_185078)"/>
<defs>
<linearGradient id="paint0_linear_6232_185078" x1="6.43757" y1="1.58611" x2="1.80066" y2="15.2847" gradientUnits="userSpaceOnUse">
<stop stop-color="#114A8B"/>
<stop offset="1" stop-color="#0669BC"/>
</linearGradient>
<linearGradient id="paint1_linear_6232_185078" x1="8.88784" y1="8.35554" x2="7.88554" y2="8.69445" gradientUnits="userSpaceOnUse">
<stop stop-opacity="0.3"/>
<stop offset="0.071" stop-opacity="0.2"/>
<stop offset="0.321" stop-opacity="0.1"/>
<stop offset="0.623" stop-opacity="0.05"/>
<stop offset="1" stop-opacity="0"/>
</linearGradient>
<linearGradient id="paint2_linear_6232_185078" x1="9.8458" y1="1.16244" x2="14.9067" y2="14.6456" gradientUnits="userSpaceOnUse">
<stop stop-color="#3CCBF4"/>
<stop offset="1" stop-color="#2892DF"/>
</linearGradient>
</defs>
</svg>
