<svg width="17" height="16" viewBox="0 0 17 16" fill="none" xmlns="http://www.w3.org/2000/svg">
<g clip-path="url(#clip0_6232_185099)">
<path d="M6.77733 8.53271C6.83552 7.49483 7.34371 6.58052 8.11046 5.93233C8.86233 5.29571 9.87433 4.90659 10.9786 4.90659C12.0817 4.90659 13.0938 5.29571 13.8462 5.93233C14.6123 6.58046 15.1206 7.49483 15.1793 8.53158C15.2374 9.59795 14.8088 10.5886 14.0569 11.3229C13.2903 12.0698 12.1997 12.5385 10.9786 12.5385C9.75745 12.5385 8.66477 12.0698 7.89858 11.3229C7.14614 10.5885 6.71858 9.59789 6.77733 8.53271Z" fill="white"/>
<path d="M8.82306 8.62554C8.85287 8.09305 9.11368 7.62386 9.50706 7.2913C9.89287 6.96467 10.4121 6.76498 10.9787 6.76498C11.5447 6.76498 12.0641 6.96467 12.4501 7.2913C12.8432 7.62386 13.104 8.09304 13.1341 8.62504C13.164 9.17217 12.9441 9.68048 12.5582 10.0572C12.1649 10.4405 11.6053 10.681 10.9787 10.681C10.3522 10.681 9.7915 10.4405 9.39837 10.0572C9.01231 9.68048 8.79293 9.17217 8.82306 8.62554Z" fill="#265787"/>
<path d="M5.40067 9.71958C5.40442 9.92833 5.47099 10.3342 5.57092 10.6511C5.78086 11.3219 6.13699 11.9425 6.63255 12.4894C7.14111 13.0516 7.7673 13.5031 8.49067 13.8237C9.25092 14.1604 10.0747 14.3319 10.9303 14.3306C11.7845 14.3294 12.6084 14.1545 13.3686 13.8152C14.0919 13.4915 14.7175 13.038 15.2253 12.4756C15.7205 11.9264 16.0761 11.3047 16.2867 10.6339C16.3925 10.295 16.4593 9.95096 16.4862 9.60577C16.5124 9.26525 16.5013 8.92289 16.4532 8.58477C16.3589 7.92158 16.1294 7.29934 15.7761 6.73209C15.453 6.21084 15.0365 5.75453 14.5412 5.3704L14.5423 5.36959L9.54417 1.53178C9.5396 1.52841 9.53592 1.52478 9.5311 1.52166C9.20323 1.26991 8.65173 1.27078 8.29111 1.52303C7.92648 1.77816 7.88473 2.20009 8.20923 2.46616L8.20786 2.46759L10.2925 4.16284L3.93861 4.16959H3.93011C3.40493 4.17022 2.90011 4.51478 2.80011 4.95021C2.69743 5.39384 3.05418 5.76184 3.60024 5.76384L3.59936 5.76578L6.81998 5.75953L1.07299 10.1708C1.06568 10.1762 1.05774 10.1818 1.05099 10.1872C0.508868 10.6023 0.333618 11.2926 0.675055 11.7295C1.02162 12.1737 1.75849 12.1745 2.30624 11.732L5.44274 9.16508C5.44274 9.16508 5.39699 9.51158 5.40067 9.71958ZM13.4604 10.88C12.8141 11.5384 11.9093 11.9117 10.9304 11.9137C9.94992 11.9154 9.04517 11.5454 8.39892 10.8881C8.08311 10.5678 7.85117 10.1993 7.70805 9.80671C7.56731 9.42039 7.51318 9.00788 7.54948 8.59833C7.58361 8.19446 7.70386 7.80927 7.89573 7.46071C8.08423 7.11815 8.34386 6.80852 8.66448 6.54665C9.29261 6.03477 10.0924 5.75759 10.9289 5.75646C11.7662 5.75534 12.5654 6.02996 13.1942 6.54021C13.5142 6.8009 13.7736 7.1094 13.9621 7.45146C14.1565 7.80187 14.2749 8.18927 14.3098 8.58846C14.3456 8.99775 14.2912 9.40991 14.1506 9.79596C14.0072 10.1897 13.7761 10.5583 13.4604 10.88Z" fill="#EA7600"/>
</g>
<defs>
<clipPath id="clip0_6232_185099">
<rect width="16" height="16" fill="white" transform="translate(0.5)"/>
</clipPath>
</defs>
</svg>
