<svg width="17" height="16" viewBox="0 0 17 16" fill="none" xmlns="http://www.w3.org/2000/svg">
<g clip-path="url(#clip0_6232_185042)">
<path d="M1.75 0H15.25C15.9404 0 16.5 0.559644 16.5 1.25V14.75C16.5 15.4404 15.9404 16 15.25 16H1.75C1.05964 16 0.5 15.4404 0.5 14.75V1.25C0.5 0.559644 1.05964 0 1.75 0Z" fill="#3178C6"/>
<path d="M9.90738 12.5297V14.2559C10.1881 14.3998 10.5202 14.5077 10.9035 14.5796C11.2868 14.6516 11.6908 14.6875 12.1156 14.6875C12.5294 14.6875 12.9227 14.6479 13.2952 14.5688C13.6677 14.4897 13.9944 14.3593 14.2751 14.1777C14.5558 13.9961 14.7781 13.7587 14.9419 13.4656C15.1056 13.1726 15.1875 12.8103 15.1875 12.3787C15.1875 12.0658 15.1407 11.7916 15.0471 11.556C14.9536 11.3204 14.8186 11.1109 14.6422 10.9276C14.4659 10.7441 14.2544 10.5796 14.0079 10.4339C13.7613 10.2883 13.4833 10.1508 13.1737 10.0213C12.9469 9.92775 12.7436 9.837 12.5636 9.74887C12.3837 9.66075 12.2307 9.57087 12.1047 9.47913C11.9787 9.38744 11.8816 9.29031 11.8132 9.18781C11.7448 9.08531 11.7106 8.96938 11.7106 8.83988C11.7106 8.72119 11.7412 8.61425 11.8024 8.51894C11.8636 8.42362 11.95 8.34181 12.0616 8.2735C12.1731 8.20513 12.3099 8.15212 12.4719 8.11431C12.6338 8.07656 12.8138 8.05769 13.0118 8.05769C13.1558 8.05769 13.3078 8.0685 13.4679 8.09006C13.6281 8.11162 13.7892 8.14487 13.9512 8.18987C14.1131 8.23481 14.2706 8.29144 14.4236 8.35981C14.5765 8.42813 14.7178 8.50725 14.8474 8.59713V6.98419C14.5846 6.8835 14.2976 6.80888 13.9862 6.76031C13.6749 6.71175 13.3177 6.6875 12.9146 6.6875C12.5042 6.6875 12.1156 6.73156 11.7484 6.81969C11.3813 6.90775 11.0582 7.04531 10.7793 7.23231C10.5004 7.41938 10.2799 7.65762 10.1179 7.94712C9.956 8.23662 9.875 8.58275 9.875 8.98556C9.875 9.49981 10.0234 9.93856 10.3204 10.3018C10.6174 10.665 11.0681 10.9725 11.6728 11.2242C11.9104 11.3214 12.1318 11.4166 12.3369 11.5102C12.5421 11.6037 12.7193 11.7007 12.8687 11.8014C13.0181 11.9021 13.1359 12.0118 13.2223 12.1305C13.3087 12.2492 13.3519 12.3841 13.3519 12.5351C13.3519 12.6466 13.3249 12.75 13.2709 12.8453C13.2169 12.9406 13.135 13.0233 13.0253 13.0934C12.9155 13.1636 12.7787 13.2184 12.6149 13.2579C12.4512 13.2975 12.2595 13.3173 12.0399 13.3173C11.6656 13.3173 11.2949 13.2517 10.9278 13.1204C10.5606 12.9891 10.2205 12.7923 9.90738 12.5297ZM7.03013 8.23388H9.25V6.8125H3.0625V8.23388H5.27154V14.5625H7.03013V8.23388Z" fill="white"/>
</g>
<defs>
<clipPath id="clip0_6232_185042">
<rect width="16" height="16" fill="white" transform="translate(0.5)"/>
</clipPath>
</defs>
</svg>
