<svg width="17" height="16" viewBox="0 0 17 16" fill="none" xmlns="http://www.w3.org/2000/svg">
<path d="M10.3755 1.78331C9.71085 0.98658 9.13851 0.177397 9.02158 0.00933669C9.00928 -0.00311223 8.99081 -0.00311223 8.9785 0.00933669C8.86157 0.177397 8.28923 0.98658 7.62458 1.78331C1.91966 9.13439 8.52309 14.0953 8.52309 14.0953L8.57848 14.1327C8.62771 14.8983 8.75079 16 8.75079 16H8.99696H9.24313C9.24313 16 9.36622 14.9045 9.41545 14.1327L9.47083 14.0891C9.47699 14.0891 16.0804 9.13439 10.3755 1.78331ZM8.99696 13.9833C8.99696 13.9833 8.70156 13.7281 8.62156 13.5973V13.5849L8.9785 5.58024C8.9785 5.55534 9.01543 5.55534 9.01543 5.58024L9.37237 13.5849V13.5973C9.29236 13.7281 8.99696 13.9833 8.99696 13.9833Z" fill="#00684A"/>
</svg>
