<svg width="17" height="16" viewBox="0 0 17 16" fill="none" xmlns="http://www.w3.org/2000/svg">
<path fill-rule="evenodd" clip-rule="evenodd" d="M8.51417 15.7835C8.29925 15.7835 8.09865 15.7262 7.91239 15.6259L6.00677 14.494C5.72021 14.3364 5.86349 14.2791 5.94946 14.2504C6.33631 14.1215 6.40795 14.0928 6.80914 13.8636C6.85212 13.8349 6.90943 13.8492 6.95241 13.8779L8.41387 14.7519C8.47118 14.7806 8.54282 14.7806 8.58581 14.7519L14.3027 11.4421C14.36 11.4135 14.3886 11.3562 14.3886 11.2845V4.67932C14.3886 4.60768 14.36 4.55037 14.3027 4.52171L8.58581 1.22628C8.52849 1.19762 8.45685 1.19762 8.41387 1.22628L2.697 4.52171C2.63969 4.55037 2.61104 4.62201 2.61104 4.67932V11.2845C2.61104 11.3418 2.63969 11.4135 2.697 11.4421L4.25875 12.3448C5.10411 12.7746 5.63424 12.2732 5.63424 11.7717V5.25244C5.63424 5.16647 5.70588 5.08051 5.80618 5.08051H6.5369C6.62287 5.08051 6.70884 5.15215 6.70884 5.25244V11.7717C6.70884 12.9036 6.09274 13.5627 5.01814 13.5627C4.68859 13.5627 4.43069 13.5627 3.69996 13.2045L2.19553 12.3448C1.823 12.1299 1.59375 11.7287 1.59375 11.2989V4.69365C1.59375 4.26381 1.823 3.86263 2.19553 3.64771L7.91239 0.337944C8.27059 0.137352 8.75774 0.137352 9.11594 0.337944L14.8328 3.64771C15.2053 3.86263 15.4346 4.26381 15.4346 4.69365V11.2989C15.4346 11.7287 15.2053 12.1299 14.8328 12.3448L9.11594 15.6546C8.92968 15.7405 8.71476 15.7835 8.51417 15.7835ZM10.2765 11.2415C7.76911 11.2415 7.2533 10.0953 7.2533 9.121C7.2533 9.03503 7.32494 8.94906 7.42524 8.94906H8.17029C8.25626 8.94906 8.3279 9.00637 8.3279 9.09234C8.44253 9.85172 8.77207 10.2243 10.2908 10.2243C11.4944 10.2243 12.0102 9.95202 12.0102 9.30726C12.0102 8.93473 11.8669 8.6625 9.98995 8.47624C8.4282 8.31863 7.45389 7.97476 7.45389 6.72822C7.45389 5.56766 8.4282 4.87991 10.0616 4.87991C11.8956 4.87991 12.7982 5.51034 12.9129 6.88583C12.9129 6.92882 12.8985 6.9718 12.8699 7.01478C12.8412 7.04344 12.7982 7.07209 12.7552 7.07209H12.0102C11.9386 7.07209 11.8669 7.01478 11.8526 6.94314C11.6806 6.1551 11.2365 5.8972 10.0616 5.8972C8.74341 5.8972 8.58581 6.3557 8.58581 6.69957C8.58581 7.11508 8.77207 7.24403 10.5487 7.47328C12.3111 7.70253 13.1421 8.03207 13.1421 9.26428C13.1278 10.5251 12.0962 11.2415 10.2765 11.2415Z" fill="#539E43"/>
</svg>
