<svg width="17" height="16" viewBox="0 0 17 16" fill="none" xmlns="http://www.w3.org/2000/svg">
<path d="M2.6875 12.9147L2.78436 12.7791L7.36636 4.08495L7.37604 3.99292L5.35619 0.198945C5.18697 -0.118869 4.71057 -0.0385147 4.65503 0.317253L2.6875 12.9147Z" fill="#FFC24A"/>
<path d="M2.74463 12.8112L2.8179 12.6684L7.35189 4.06534L5.3371 0.25593C5.16965 -0.0585533 4.74443 0.021615 4.68947 0.373655L2.74463 12.8112Z" fill="#FFA712"/>
<path d="M8.84879 6.86265L10.3527 5.3224L8.84836 2.45057C8.70555 2.17873 8.30682 2.17795 8.16553 2.45057L7.36182 3.9834V4.11395L8.84879 6.86265Z" fill="#F4BD62"/>
<path d="M8.82208 6.79846L10.2842 5.30106L8.82208 2.51699C8.68325 2.25271 8.34596 2.22502 8.2086 2.49006L7.40062 4.04664L7.37646 4.12622L8.82208 6.79846Z" fill="#FFA50E"/>
<path d="M2.6875 12.9146L2.73141 12.8705L2.89093 12.8057L8.75403 6.96436L8.82831 6.76215L7.36571 3.97504L2.6875 12.9146Z" fill="#F6820C"/>
<path d="M9.0363 15.8606L14.3425 12.9012L12.8273 3.56909C12.7799 3.27712 12.4216 3.16169 12.2127 3.37104L2.6875 12.9147L7.9633 15.8603C8.29672 16.0465 8.7028 16.0466 9.0363 15.8606Z" fill="#FDE068"/>
<path d="M14.2948 12.8764L12.791 3.61513C12.7439 3.32537 12.4461 3.20547 12.2387 3.41323L2.74609 12.8966L7.96395 15.813C8.29484 15.9978 8.69783 15.9979 9.0288 15.8133L14.2948 12.8764Z" fill="#FCCA3F"/>
<path d="M9.0363 15.7734C8.7028 15.9594 8.29672 15.9593 7.9633 15.7731L2.72999 12.8698L2.6875 12.9147L7.9633 15.8603C8.29672 16.0465 8.7028 16.0466 9.0363 15.8606L14.3425 12.9012L14.3295 12.8213L9.0363 15.7734Z" fill="#EEAB37"/>
</svg>
