<svg width="17" height="16" viewBox="0 0 17 16" fill="none" xmlns="http://www.w3.org/2000/svg">
<path d="M9.11161 2.86222L11.6151 4.32444C11.7052 4.37556 11.7074 4.52 11.6151 4.56889L8.63945 6.30667C8.54941 6.36 8.444 6.35556 8.35835 6.30667L5.38486 4.56889C5.29482 4.51778 5.29043 4.37333 5.38486 4.32444L7.8862 2.86222V0L1.5 3.73111V11.1933L3.95082 9.76222V6.83778C3.94863 6.73333 4.07161 6.66 4.16165 6.71556L7.13733 8.45333C7.22737 8.50667 7.27788 8.60222 7.27788 8.7V12.1756C7.28008 12.28 7.15929 12.3533 7.06925 12.2978L4.56573 10.8356L2.11271 12.2689L8.4989 16L14.8851 12.2689L12.4365 10.8378L9.93294 12.3C9.8451 12.3533 9.71992 12.2844 9.72431 12.1778V8.70222C9.72431 8.59778 9.78141 8.50445 9.86486 8.45556L12.8384 6.71778C12.9262 6.66222 13.0514 6.73333 13.0492 6.84V9.76444L15.5 11.1956V3.73111L9.11161 0V2.86222Z" fill="#12141A"/>
</svg>
