<svg width="17" height="16" viewBox="0 0 17 16" fill="none" xmlns="http://www.w3.org/2000/svg">
<g clip-path="url(#clip0_6232_185094)">
<path d="M2.93396 2.25004C6.09514 -0.812362 11.1498 -0.730039 14.2122 2.44761C14.5579 1.98661 14.8543 1.47621 15.0683 0.949342C16.0726 4.01174 16.6818 6.58021 16.4513 8.57241C16.3361 10.2518 15.6775 11.8653 14.5908 13.1496C11.7589 16.5083 6.7208 16.9364 3.36203 14.1045L3.29778 14.0473L3.29436 14.0451C3.28384 14.0378 3.27347 14.0301 3.26325 14.0222C3.23259 13.9983 3.20475 13.9724 3.17973 13.9447L3.17072 13.9344L3.06567 13.8411C2.96323 13.7533 2.86078 13.6654 2.7699 13.5661L2.73638 13.5282C-0.326019 10.367 -0.227232 5.31244 2.93396 2.25004ZM4.1194 12.9684C3.82304 12.7379 3.39496 12.7709 3.16446 13.0672C2.96178 13.3278 2.96277 13.6903 3.16745 13.9307L3.17072 13.9344L3.29778 14.0473L3.31024 14.0558C3.59803 14.2451 3.98523 14.2059 4.20609 13.9385L4.21819 13.9234C4.44869 13.627 4.3993 13.1989 4.1194 12.9684ZM14.986 1.77257C14.1628 3.50134 12.1212 4.8185 10.3595 5.23012C8.69654 5.62527 7.24766 5.29597 5.71646 5.8887C2.22598 7.22232 2.29184 11.3714 4.20172 12.3099L4.31698 12.3757C4.31698 12.3757 5.69654 12.1014 7.06077 11.7392L7.17764 11.7079C7.72252 11.5611 8.25858 11.401 8.69654 11.2397C10.9686 10.4 13.4712 8.32545 14.2945 5.92163C13.8664 8.42423 11.7095 10.8445 9.55269 11.9476C8.40018 12.5404 7.51109 12.6721 5.61767 13.3307C5.38717 13.413 5.20606 13.4953 5.20606 13.4953C5.22916 13.4921 5.25227 13.489 5.27532 13.486L5.32133 13.48L5.3671 13.4743C5.78526 13.4224 6.161 13.3965 6.161 13.3965C8.84472 13.2648 13.0596 14.1539 15.0189 11.536C17.0276 8.86878 15.908 4.55507 14.986 1.77257Z" fill="#6DB33F"/>
<path d="M4.11939 12.9685C4.39929 13.199 4.44869 13.627 4.21818 13.9234C3.98768 14.2198 3.5596 14.2527 3.26324 14.0222C2.96688 13.7917 2.93395 13.3636 3.16445 13.0672C3.39496 12.7709 3.82303 12.738 4.11939 12.9685ZM14.986 1.77258C15.908 4.55509 17.0276 8.86879 15.0189 11.536C13.0596 14.1539 8.84471 13.2648 6.161 13.3965C6.161 13.3965 5.78525 13.4224 5.36709 13.4743L5.32132 13.48C5.28306 13.4849 5.24456 13.49 5.20605 13.4953C5.20605 13.4953 5.38716 13.413 5.61767 13.3307C7.51109 12.6721 8.40017 12.5404 9.55269 11.9477C11.7095 10.8445 13.8664 8.42425 14.2945 5.92164C13.4712 8.32546 10.9686 10.4 8.69653 11.2397C7.1324 11.8159 4.31697 12.3757 4.31697 12.3757L4.20172 12.3099C2.29183 11.3714 2.22598 7.22234 5.71645 5.88871C7.24765 5.29599 8.69653 5.62528 10.3594 5.23013C12.1212 4.81852 14.1628 3.50136 14.986 1.77258Z" fill="white"/>
</g>
<defs>
<clipPath id="clip0_6232_185094">
<rect width="16" height="16" fill="white" transform="translate(0.5)"/>
</clipPath>
</defs>
</svg>
