<svg width="17" height="16" viewBox="0 0 17 16" fill="none" xmlns="http://www.w3.org/2000/svg">
<g clip-path="url(#clip0_6232_185033)">
<path d="M8.42321 0.0625C4.37119 0.0625003 4.62422 1.8197 4.62422 1.8197L4.62874 3.64014H8.49548V4.18672H3.09289C3.09289 4.18672 0.5 3.89267 0.5 7.98119C0.5 12.0697 2.76313 11.9247 2.76313 11.9247H4.11378V10.0275C4.11378 10.0275 4.04097 7.76436 6.34077 7.76436H10.1759C10.1759 7.76436 12.3306 7.79919 12.3306 5.68192V2.18108C12.3306 2.18108 12.6577 0.0625 8.42321 0.0625ZM6.29108 1.28667C6.67579 1.28667 6.98673 1.59761 6.98673 1.98232C6.98673 2.36703 6.67579 2.67797 6.29108 2.67797C5.90637 2.67797 5.59543 2.36703 5.59543 1.98232C5.59543 1.59761 5.90637 1.28667 6.29108 1.28667Z" fill="url(#paint0_linear_6232_185033)"/>
<path d="M8.53826 15.9409C12.5903 15.9409 12.3372 14.1837 12.3372 14.1837L12.3327 12.3632H8.46598V11.8166H13.8686C13.8686 11.8166 16.4615 12.1107 16.4615 8.02217C16.4615 3.93365 14.1983 4.07864 14.1983 4.07864H12.8477V5.97587C12.8477 5.97587 12.9205 8.239 10.6207 8.239H6.78557C6.78557 8.239 4.63086 8.20417 4.63086 10.3214V13.8223C4.63086 13.8223 4.30371 15.9409 8.53826 15.9409ZM10.6704 14.7167C10.2857 14.7167 9.97473 14.4058 9.97473 14.021C9.97473 13.6363 10.2857 13.3254 10.6704 13.3254C11.0551 13.3254 11.366 13.6363 11.366 14.021C11.366 14.4058 11.0551 14.7167 10.6704 14.7167Z" fill="url(#paint1_linear_6232_185033)"/>
</g>
<defs>
<linearGradient id="paint0_linear_6232_185033" x1="2.03393" y1="1.49072" x2="9.94387" y2="9.32174" gradientUnits="userSpaceOnUse">
<stop stop-color="#387EB8"/>
<stop offset="1" stop-color="#366994"/>
</linearGradient>
<linearGradient id="paint1_linear_6232_185033" x1="6.88902" y1="6.51928" x2="15.3835" y2="14.5493" gradientUnits="userSpaceOnUse">
<stop stop-color="#FFE052"/>
<stop offset="1" stop-color="#FFC331"/>
</linearGradient>
<clipPath id="clip0_6232_185033">
<rect width="16" height="16" fill="white" transform="translate(0.5)"/>
</clipPath>
</defs>
</svg>
