<svg width="17" height="16" viewBox="0 0 17 16" fill="none" xmlns="http://www.w3.org/2000/svg">
<path d="M5.00902 6.69365C5.00902 6.89054 5.0303 7.05018 5.06755 7.16725C5.11012 7.28432 5.16334 7.41204 5.23784 7.5504C5.26444 7.59297 5.27509 7.63554 5.27509 7.67279C5.27509 7.726 5.24316 7.77922 5.17398 7.83243L4.83873 8.05593C4.79084 8.08786 4.74294 8.10382 4.70037 8.10382C4.64716 8.10382 4.59394 8.07722 4.54073 8.02932C4.46623 7.9495 4.40237 7.86436 4.34916 7.77922C4.29594 7.68875 4.24273 7.58765 4.18419 7.46525C3.76912 7.95482 3.24762 8.19961 2.61969 8.19961C2.17269 8.19961 1.81616 8.0719 1.55541 7.81647C1.29466 7.56104 1.16162 7.22047 1.16162 6.79475C1.16162 6.34243 1.32126 5.97525 1.64587 5.69854C1.97048 5.42182 2.40151 5.28347 2.94962 5.28347C3.13055 5.28347 3.3168 5.29943 3.51369 5.32604C3.71059 5.35264 3.9128 5.39522 4.12566 5.44311V5.05464C4.12566 4.65022 4.04052 4.36818 3.87555 4.20321C3.70527 4.03825 3.41791 3.95843 3.00816 3.95843C2.82191 3.95843 2.63034 3.97971 2.43344 4.02761C2.23655 4.0755 2.04498 4.13404 1.85873 4.20854C1.77359 4.24579 1.70973 4.26707 1.67248 4.27771C1.63523 4.28836 1.60862 4.29368 1.58734 4.29368C1.51284 4.29368 1.47559 4.24046 1.47559 4.12871V3.86796C1.47559 3.78282 1.48623 3.71896 1.51284 3.68171C1.53944 3.64446 1.58734 3.60721 1.66184 3.56996C1.84809 3.47418 2.07159 3.39436 2.33234 3.3305C2.59309 3.26132 2.8698 3.22939 3.16248 3.22939C3.79573 3.22939 4.25869 3.37307 4.55669 3.66043C4.84937 3.94779 4.99837 4.38414 4.99837 4.9695V6.69365H5.00902ZM2.84851 7.5025C3.02412 7.5025 3.20505 7.47057 3.39662 7.40672C3.58819 7.34286 3.75848 7.22579 3.90216 7.06615C3.9873 6.96504 4.05116 6.85329 4.08309 6.72557C4.11502 6.59786 4.1363 6.44354 4.1363 6.26261V6.03911C3.98198 6.00186 3.81702 5.96993 3.64673 5.94864C3.47644 5.92736 3.31148 5.91672 3.14652 5.91672C2.78998 5.91672 2.52923 5.98589 2.35362 6.12957C2.17801 6.27325 2.09287 6.47547 2.09287 6.74154C2.09287 6.99165 2.15673 7.1779 2.28976 7.30561C2.41748 7.43865 2.60373 7.5025 2.84851 7.5025ZM7.12162 8.07722C7.02584 8.07722 6.96198 8.06125 6.91941 8.024C6.87684 7.99207 6.83959 7.91757 6.80766 7.81647L5.55712 3.703C5.5252 3.59657 5.50923 3.52739 5.50923 3.49014C5.50923 3.405 5.5518 3.35711 5.63695 3.35711H6.15845C6.25955 3.35711 6.32873 3.37307 6.36598 3.41032C6.40855 3.44225 6.44048 3.51675 6.47241 3.61786L7.36641 7.14065L8.19655 3.61786C8.22316 3.51143 8.25509 3.44225 8.29766 3.41032C8.34023 3.37839 8.41473 3.35711 8.51052 3.35711H8.93623C9.03734 3.35711 9.10652 3.37307 9.14909 3.41032C9.19166 3.44225 9.22891 3.51675 9.2502 3.61786L10.091 7.18322L11.0116 3.61786C11.0435 3.51143 11.0808 3.44225 11.118 3.41032C11.1606 3.37839 11.2298 3.35711 11.3256 3.35711H11.8204C11.9056 3.35711 11.9535 3.39968 11.9535 3.49014C11.9535 3.51675 11.9482 3.54336 11.9428 3.57529C11.9375 3.60721 11.9269 3.64979 11.9056 3.70832L10.6231 7.82179C10.5912 7.92822 10.5539 7.9974 10.5114 8.02932C10.4688 8.06125 10.3996 8.08254 10.3092 8.08254H9.85152C9.75041 8.08254 9.68123 8.06657 9.63866 8.02932C9.59609 7.99207 9.55884 7.9229 9.53756 7.81647L8.71273 4.38414L7.89323 7.81115C7.86663 7.91757 7.8347 7.98675 7.79213 8.024C7.74955 8.06125 7.67505 8.07722 7.57927 8.07722H7.12162ZM13.9597 8.2209C13.683 8.2209 13.4062 8.18897 13.1402 8.12511C12.8741 8.06125 12.6666 7.99207 12.5282 7.91225C12.4431 7.86436 12.3845 7.81115 12.3632 7.76325C12.3419 7.71536 12.3313 7.66215 12.3313 7.61425V7.34286C12.3313 7.23111 12.3739 7.1779 12.4537 7.1779C12.4856 7.1779 12.5176 7.18322 12.5495 7.19386C12.5814 7.2045 12.6293 7.22579 12.6825 7.24707C12.8635 7.3269 13.0603 7.39075 13.2679 7.43332C13.4807 7.4759 13.6883 7.49718 13.9011 7.49718C14.2364 7.49718 14.4971 7.43865 14.6781 7.32157C14.859 7.2045 14.9548 7.03422 14.9548 6.81604C14.9548 6.66704 14.9069 6.54465 14.8111 6.44354C14.7153 6.34243 14.5344 6.25197 14.2736 6.16682L13.502 5.92736C13.1136 5.80497 12.8262 5.62404 12.6506 5.38457C12.475 5.15043 12.3845 4.88968 12.3845 4.61297C12.3845 4.38946 12.4324 4.19257 12.5282 4.02229C12.624 3.852 12.7517 3.703 12.9113 3.58593C13.071 3.46354 13.2519 3.37307 13.4648 3.30921C13.6776 3.24536 13.9011 3.21875 14.1353 3.21875C14.2523 3.21875 14.3747 3.22407 14.4918 3.24004C14.6142 3.256 14.726 3.27729 14.8377 3.29857C14.9441 3.32518 15.0452 3.35179 15.141 3.38371C15.2368 3.41564 15.3113 3.44757 15.3645 3.4795C15.439 3.52207 15.4922 3.56464 15.5242 3.61254C15.5561 3.65511 15.5721 3.71364 15.5721 3.78814V4.03825C15.5721 4.15 15.5295 4.20854 15.4497 4.20854C15.4071 4.20854 15.3379 4.18725 15.2475 4.14468C14.9441 4.00632 14.6036 3.93714 14.2257 3.93714C13.9224 3.93714 13.683 3.98504 13.518 4.08614C13.353 4.18725 13.2679 4.34157 13.2679 4.55975C13.2679 4.70875 13.3211 4.83647 13.4275 4.93757C13.534 5.03868 13.7308 5.13979 14.0129 5.23025L14.7685 5.46972C15.1517 5.59211 15.4284 5.76239 15.5933 5.98057C15.7583 6.19875 15.8381 6.44886 15.8381 6.72557C15.8381 6.9544 15.7902 7.16193 15.6998 7.34286C15.604 7.52379 15.4763 7.68343 15.3113 7.81115C15.1463 7.94418 14.9495 8.03997 14.7206 8.10915C14.4812 8.18365 14.2311 8.2209 13.9597 8.2209Z" fill="#252F3E"/>
<path d="M14.9654 10.8071C13.2146 12.1002 10.671 12.7867 8.48385 12.7867C5.41871 12.7867 2.65688 11.6532 0.570882 9.76943C0.405918 9.62042 0.554918 9.41821 0.751811 9.53528C3.0081 10.8444 5.79121 11.6372 8.6701 11.6372C10.6124 11.6372 12.7463 11.2328 14.7099 10.4027C15.0026 10.2696 15.2527 10.5942 14.9654 10.8071ZM15.6944 9.97696C15.4709 9.6896 14.215 9.8386 13.6456 9.90778C13.4754 9.92907 13.4487 9.78007 13.6031 9.66832C14.6035 8.96589 16.2478 9.1681 16.4394 9.40225C16.631 9.64171 16.3862 11.286 15.4496 12.0736C15.3059 12.196 15.1676 12.1321 15.2314 11.9725C15.4443 11.4457 15.9179 10.259 15.6944 9.97696Z" fill="#FF9900"/>
</svg>
