<svg width="17" height="16" viewBox="0 0 17 16" fill="none" xmlns="http://www.w3.org/2000/svg">
<g clip-path="url(#clip0_6232_185097)">
<path d="M12.9722 4.49991L13.3174 4.7499C13.9179 5.23425 14.2632 5.78111 14.3383 6.40608C14.9838 6.28109 15.8094 6.37483 16.1697 6.62482L16.5 6.82794L16.44 6.95293C16.3349 7.1873 16.3048 7.2498 16.2898 7.28105C15.7044 8.45287 14.5484 8.4685 14.008 8.45287C12.6419 11.8746 9.72955 13.7652 5.79638 13.7652C3.97992 13.7652 2.59881 13.1871 1.66806 12.0465C0.437064 10.5465 0.437064 8.59349 0.542149 7.96852L0.572173 7.84352H11.4259C11.9964 7.84352 12.4317 7.68728 12.6419 7.56229C12.4167 7.21855 12.3417 6.82794 12.3266 6.6092C12.2816 5.98422 12.4317 5.328 12.732 4.85927L12.9722 4.49991ZM3.39445 5.9686V7.53104H1.74312V5.9686H3.39445ZM5.34602 5.9686V7.53104H3.69469V5.9686H5.34602ZM7.29759 5.9686V7.53104H5.64626V5.9686H7.29759ZM9.24916 5.9686V7.53104H7.59783V5.9686H9.24916ZM11.2007 5.9686V7.53104H9.5494V5.9686H11.2007ZM9.24916 4.09367V5.65611H7.59783V4.09367H9.24916ZM7.29759 4.09367V5.65611H5.64626V4.09367H7.29759ZM5.34602 4.09367V5.65611H3.69469V4.09367H5.34602ZM9.24916 2.21875V3.78119H7.59783V2.21875H9.24916Z" fill="#2396ED"/>
</g>
<defs>
<clipPath id="clip0_6232_185097">
<rect width="16" height="16" fill="white" transform="translate(0.5)"/>
</clipPath>
</defs>
</svg>
