<svg width="17" height="16" viewBox="0 0 17 16" fill="none" xmlns="http://www.w3.org/2000/svg">
<g clip-path="url(#clip0_6232_185038)">
<path fill-rule="evenodd" clip-rule="evenodd" d="M2.96643 10.3864L2.12941 10.6869L2.08447 13.1345L4.98194 12.0941C3.98814 11.7659 3.26241 11.1886 2.96643 10.3864Z" fill="#FDBD39"/>
<path fill-rule="evenodd" clip-rule="evenodd" d="M3.40417 7.79758L0.5 8.84042L2.12912 10.6869L2.96614 10.3863C2.67102 9.5864 2.85302 8.68216 3.40417 7.79758Z" fill="#F69833"/>
<path fill-rule="evenodd" clip-rule="evenodd" d="M8.29116 4.26587C4.59298 5.59383 2.20878 8.33407 2.96593 10.3864L16.3583 5.57742C15.6011 3.5251 11.9894 2.93791 8.29116 4.26587Z" fill="#FECF33"/>
<path fill-rule="evenodd" clip-rule="evenodd" d="M11.0334 11.6979C14.7316 10.3699 17.1203 7.64181 16.3586 5.57736L2.96631 10.3863C3.72793 12.4508 7.33521 13.0258 11.0334 11.6979Z" fill="#EE6723"/>
<path fill-rule="evenodd" clip-rule="evenodd" d="M16.3586 5.57736L2.96631 10.3863C3.22855 11.0971 4.22858 11.4473 5.63173 11.4473C6.99969 11.4473 8.75081 11.1147 10.5764 10.4592C14.2746 9.13123 16.8765 6.98119 16.3586 5.57736Z" fill="#F69833"/>
<path fill-rule="evenodd" clip-rule="evenodd" d="M13.6935 4.51636C12.3255 4.51636 10.5744 4.84897 8.74877 5.50452C5.05059 6.83248 2.44866 8.98252 2.96657 10.3863L16.3589 5.57739C16.0967 4.86656 15.0966 4.51636 13.6935 4.51636Z" fill="#FDBD39"/>
<path fill-rule="evenodd" clip-rule="evenodd" d="M12.9539 13.2641H12.9538C12.5598 13.2641 11.9784 12.9143 11.226 12.2243C10.3358 11.408 9.31606 10.2124 8.35461 8.85778C7.3932 7.50319 6.60319 6.14892 6.13013 5.04441C5.61471 3.84077 5.54122 3.10069 5.9117 2.84472C5.99293 2.78866 6.09085 2.76025 6.20272 2.76025C6.50408 2.76025 7.09126 2.98079 8.17705 4.03149L8.2008 4.05445L8.19759 4.08711C8.19016 4.16259 8.18332 4.23875 8.17722 4.3135L8.16512 4.46193L8.0586 4.35643C6.88869 3.1979 6.37369 3.07283 6.20656 3.07283C6.1589 3.07283 6.12094 3.08236 6.09373 3.10116C5.93304 3.21215 5.92269 3.75575 6.42239 4.92255C6.88701 6.00737 7.66552 7.34116 8.61452 8.67821C9.56356 10.0154 10.5677 11.1933 11.442 11.995C12.3848 12.8595 12.8096 12.9528 12.9485 12.9528C12.9965 12.9528 13.0354 12.9427 13.0643 12.9227C13.2339 12.8056 13.2341 12.2233 12.6768 10.9674L12.6512 10.9098L12.7072 10.8797C12.7632 10.8495 12.8174 10.8198 12.8682 10.7915L12.9353 10.754L12.9662 10.8236C13.3613 11.7135 13.7307 12.8445 13.2464 13.1792C13.1647 13.2355 13.0663 13.2641 12.9539 13.2641ZM12.9538 13.1269H12.9539L12.9538 13.1955L12.9538 13.1269Z" fill="#EE6723"/>
<path fill-rule="evenodd" clip-rule="evenodd" d="M11.1234 11.6604L11.1178 11.7288C11.0243 12.866 10.7781 14.2331 10.1362 14.2885C10.1233 14.2896 10.1099 14.2902 10.0965 14.2902C9.66051 14.2902 9.24798 13.6761 8.87045 12.4649C8.51325 11.3191 8.23606 9.78067 8.08995 8.13301C7.94383 6.4857 7.94603 4.92315 8.09612 3.73324C8.25971 2.4366 8.57116 1.75945 9.02177 1.72058C9.03509 1.71937 9.0489 1.71875 9.06253 1.71875C9.37885 1.71875 9.85558 2.07082 10.3436 3.71067L10.025 3.77113C9.86201 3.22313 9.68443 2.77743 9.50813 2.47117C9.34506 2.1879 9.1865 2.03189 9.06163 2.03189C9.05753 2.03189 9.0534 2.03206 9.04932 2.0324C8.85401 2.04926 8.56956 2.51495 8.41099 3.7719C8.26357 4.94047 8.26179 6.4796 8.40598 8.10577C8.55025 9.73218 8.82291 11.2476 9.17371 12.3729C9.33081 12.8769 9.50313 13.2923 9.67203 13.5741C9.82779 13.834 9.97852 13.9772 10.0965 13.9772C10.1005 13.9772 10.1045 13.977 10.1086 13.9766C10.2955 13.9605 10.6476 13.4759 10.7959 11.7709L11.1234 11.6604Z" fill="#EE6723"/>
</g>
<defs>
<clipPath id="clip0_6232_185038">
<rect width="16" height="16" fill="white" transform="translate(0.5)"/>
</clipPath>
</defs>
</svg>
