<svg width="17" height="16" viewBox="0 0 17 16" fill="none" xmlns="http://www.w3.org/2000/svg">
<path d="M15.6568 4.69122C15.6568 4.42306 15.5993 4.18594 15.4833 3.98242C15.3692 3.78242 15.1985 3.61474 14.9697 3.4821C13.0793 2.39202 11.1875 1.30562 9.29788 0.214904C8.7886 -0.0793363 8.29468 -0.0686164 7.78908 0.229784C7.03676 0.673464 3.2702 2.83138 2.1478 3.48146C1.68556 3.74898 1.4606 4.15858 1.4606 4.6909C1.45996 6.88258 1.46076 9.07426 1.45996 11.2661C1.45996 11.5285 1.515 11.761 1.62588 11.9613C1.73996 12.1675 1.91308 12.3399 2.14748 12.4754C3.26972 13.1255 7.03692 15.2834 7.78908 15.7271C8.29468 16.0255 8.78876 16.0362 9.2982 15.7419C11.1878 14.6511 13.0798 13.5645 14.9702 12.4747C15.2044 12.3392 15.3776 12.1667 15.4916 11.9608C15.6024 11.7603 15.6574 11.5279 15.6576 11.2655C15.6576 11.2655 15.6576 6.8829 15.6568 4.69122Z" fill="#5C8DBC"/>
<path d="M8.58054 7.95715L1.62598 11.9613C1.74006 12.1676 1.91318 12.3399 2.14758 12.4754C3.26982 13.1255 7.03702 15.2834 7.78918 15.7271C8.29478 16.0256 8.78886 16.0362 9.2983 15.7421C11.1879 14.6509 13.0799 13.5645 14.9703 12.4749C15.2045 12.3392 15.3777 12.1668 15.4917 11.9608L8.58054 7.95715Z" fill="#1A4674"/>
<path d="M6.52051 9.14323C6.92531 9.84963 7.68595 10.3261 8.55859 10.3261C9.43667 10.3261 10.2018 9.84355 10.6045 9.12963L8.58051 7.95715L6.52051 9.14323Z" fill="#1A4674"/>
<path d="M15.6569 4.6914C15.6569 4.42308 15.5994 4.18596 15.4834 3.9826L8.58057 7.95684L15.4918 11.9607C15.6025 11.7604 15.6575 11.5277 15.6577 11.2653C15.6577 11.2653 15.6577 6.88308 15.6569 4.6914Z" fill="#1B598E"/>
<path d="M10.6049 9.12959C10.2022 9.84367 9.43704 10.3262 8.55896 10.3262C7.68632 10.3262 6.92552 9.84959 6.52088 9.14319C6.31757 8.78869 6.21082 8.38706 6.21128 7.97839C6.21128 6.68175 7.26248 5.63071 8.55896 5.63071C9.42616 5.63071 10.183 6.10127 10.5895 6.80047L12.6417 5.61887C11.826 4.21087 10.3033 3.26367 8.55912 3.26367C5.95512 3.26367 3.84424 5.37455 3.84424 7.97839C3.84424 8.83279 4.07144 9.63375 4.46872 10.3248C5.28216 11.7402 6.80952 12.6933 8.55912 12.6933C10.3119 12.6933 11.8414 11.7363 12.6538 10.3168L10.6049 9.12959Z" fill="white"/>
</svg>
