<svg width="17" height="16" viewBox="0 0 17 16" fill="none" xmlns="http://www.w3.org/2000/svg">
<path d="M6.84521 5.32523L15.4324 8.00003L6.84521 2.30243V5.32523Z" fill="#004D40"/>
<path d="M11.1599 0H3.6807L1.8335 3.2H7.4335L11.1599 0Z" fill="#26A69A"/>
<path d="M15.4321 8L11.1585 0L7.43213 3.2L15.4321 8Z" fill="#00897B"/>
<path d="M6.9624 13.6264L15.4324 8L6.9624 10.2512V13.6264Z" fill="#004D40"/>
<path d="M7.4335 10.8388L15.4335 8.00002L7.4327 5.16962L5.9375 8.00002L7.4335 10.8388Z" fill="#00897B"/>
<path d="M7.4335 5.16932L5.8711 4.62372L2.2559 7.99972L5.8711 11.3841L7.4335 10.8381V5.16932ZM7.4335 12.8081H1.8335L3.6807 15.9997H11.1599L7.4391 12.8045L7.4335 12.8081Z" fill="#26A69A"/>
<path d="M1.8335 3.19989L6.3071 4.77589L7.4335 3.19989H1.8335Z" fill="#00796B"/>
<path d="M7.43896 12.8048L11.1598 16L15.4334 8L7.43896 12.8048Z" fill="#00897B"/>
<path d="M7.4335 12.8L6.3411 11.2204L1.8335 12.8084H7.4335V12.8Z" fill="#00796B"/>
<path d="M7.43203 10.8383L5.86963 11.3843L7.43203 12.7999V10.8383ZM7.43203 3.19989L5.86963 4.62389L7.43203 5.16949V3.19989Z" fill="#00695C"/>
</svg>
