<svg width="25" height="24" viewBox="0 0 25 24" fill="none" xmlns="http://www.w3.org/2000/svg">
<path d="M10.617 18.3057C10.617 19.4883 11.5761 20.447 12.7586 20.4473C13.9414 20.4472 14.9002 19.4884 14.9002 18.3057H10.617ZM12.7586 3.55273C9.69255 3.55294 7.20711 6.03841 7.20688 9.10449V12.7637C7.20688 12.9689 7.16333 13.1716 7.07993 13.3574L6.98325 13.5371L5.33677 16.1484C5.13734 16.4652 5.36491 16.8775 5.73911 16.8779H19.7782C20.1292 16.8779 20.3516 16.5154 20.2137 16.209L20.1805 16.1484L18.534 13.5371C18.3882 13.3058 18.3114 13.0371 18.3114 12.7637V9.10449C18.3111 6.03829 15.8249 3.55273 12.7586 3.55273ZM16.328 18.3057C16.328 20.2769 14.7299 21.875 12.7586 21.875C10.7876 21.8748 9.1893 20.2768 9.1893 18.3057H5.73911L5.60044 18.3008C4.23135 18.2056 3.40949 16.7157 4.05942 15.5068L4.12876 15.3867L5.77524 12.7754L5.77915 12.7637V9.10449C5.77938 5.24991 8.90405 2.1252 12.7586 2.125L13.118 2.13379C16.8058 2.32074 19.7389 5.37026 19.7391 9.10449V12.7637L19.742 12.7754L21.3885 15.3867C22.1627 16.6147 21.3319 18.2027 19.9168 18.3008L19.7782 18.3057H16.328Z" fill="#12141A"/>
</svg>
