<svg width="21" height="20" viewBox="0 0 21 20" fill="none" xmlns="http://www.w3.org/2000/svg">
<path d="M3.3335 6.5625L9.04894 10.4919C9.51176 10.8101 9.74317 10.9692 9.99488 11.0308C10.2172 11.0852 10.4498 11.0852 10.6721 11.0308C10.9238 10.9692 11.1552 10.8101 11.6181 10.4919L17.3335 6.5625M6.6935 15.5H13.9735C15.1496 15.5 15.7377 15.5 16.1869 15.2752C16.582 15.0775 16.9033 14.7619 17.1046 14.3739C17.3335 13.9327 17.3335 13.3551 17.3335 12.2V7.8C17.3335 6.64489 17.3335 6.06734 17.1046 5.62614C16.9033 5.23806 16.582 4.92254 16.1869 4.7248C15.7377 4.5 15.1496 4.5 13.9735 4.5H6.6935C5.51739 4.5 4.92933 4.5 4.48012 4.7248C4.08498 4.92254 3.76372 5.23806 3.56238 5.62614C3.3335 6.06734 3.3335 6.64489 3.3335 7.8V12.2C3.3335 13.3551 3.3335 13.9327 3.56238 14.3739C3.76372 14.7619 4.08498 15.0775 4.48012 15.2752C4.92933 15.5 5.51739 15.5 6.6935 15.5Z" stroke="#12141A" stroke-width="1.4" stroke-linecap="round" stroke-linejoin="round"/>
</svg>
