<svg width="24" height="24" viewBox="0 0 24 24" fill="none" xmlns="http://www.w3.org/2000/svg">
<path d="M16.8308 9.98034L13.5197 6.66916M4 19.5L6.80156 19.1887C7.14385 19.1507 7.31499 19.1317 7.47496 19.0799C7.61688 19.0339 7.75194 18.969 7.87647 18.8869C8.01684 18.7943 8.1386 18.6726 8.38212 18.4291L19.3142 7.49696C20.2286 6.5826 20.2286 5.10013 19.3142 4.18577C18.3999 3.27141 16.9174 3.27141 16.0031 4.18577L5.07094 15.1179C4.82742 15.3614 4.70566 15.4832 4.6131 15.6235C4.53097 15.7481 4.46606 15.8831 4.42012 16.025C4.36833 16.185 4.34932 16.3561 4.31128 16.6984L4 19.5Z" stroke="currentColor" stroke-width="1.5" stroke-linecap="round" stroke-linejoin="round"/>
</svg>
