<svg width="16" height="16" viewBox="0 0 16 16" fill="none" xmlns="http://www.w3.org/2000/svg">
<path d="M3.19678 3.37988C4.54375 2.20739 6.35453 2.50763 7.49756 3.86914C7.62106 4.01615 7.8036 4.10059 7.99561 4.10059C8.18761 4.10058 8.37015 4.01615 8.49365 3.86914C9.63175 2.5135 11.419 2.21516 12.8013 3.38574C14.2275 4.5935 14.4065 6.64655 13.2983 8.09961C12.8364 8.70518 11.9187 9.65009 10.9233 10.6172C9.93865 11.5739 8.91185 12.5203 8.25537 13.1172C8.1266 13.2343 8.05728 13.2961 8.00439 13.3369C8.00137 13.3392 7.99818 13.3408 7.99561 13.3428C7.99303 13.3408 7.98984 13.3392 7.98682 13.3369C7.93393 13.2961 7.86462 13.2343 7.73584 13.1172C7.07936 12.5203 6.05257 11.5739 5.06787 10.6172C4.07254 9.65009 3.15476 8.70519 2.69287 8.09961C1.59029 6.65388 1.78405 4.60972 3.19678 3.37988Z" stroke="#12141A" stroke-width="1.3" stroke-linecap="round" stroke-linejoin="round"/>
</svg>
