<svg width="24" height="24" viewBox="0 0 24 24" fill="none" xmlns="http://www.w3.org/2000/svg">
<path d="M4.64746 4.90039C6.77974 3.04433 9.63869 3.53766 11.4189 5.6582C11.5614 5.82794 11.7715 5.92578 11.9932 5.92578C12.2148 5.92578 12.4249 5.82794 12.5674 5.6582C14.3419 3.54444 17.1637 3.05866 19.3467 4.90723C21.5804 6.7988 21.8588 10.0143 20.126 12.2861C19.4216 13.2097 18.0339 14.6383 16.542 16.0879C15.0625 17.5254 13.5197 18.9457 12.5342 19.8418C12.3437 20.015 12.2327 20.1155 12.1445 20.1836C12.096 20.2211 12.0708 20.2356 12.0615 20.2402C12.0197 20.253 11.9666 20.253 11.9248 20.2402C11.9156 20.2356 11.8903 20.2211 11.8418 20.1836C11.7537 20.1155 11.6427 20.015 11.4521 19.8418C10.4666 18.9457 8.9238 17.5254 7.44434 16.0879C5.95244 14.6383 4.56477 13.2097 3.86035 12.2861C2.13402 10.0228 2.43924 6.82274 4.64746 4.90039Z" stroke="#12141A" stroke-width="1.5" stroke-linecap="round" stroke-linejoin="round"/>
</svg>
