<svg width="98" height="34" viewBox="0 0 98 34" fill="none" xmlns="http://www.w3.org/2000/svg">
<path d="M12.7767 9.45068V16.7722C12.7767 17.0962 12.6943 17.4007 12.5498 17.6666C12.2324 18.2496 11.6145 18.645 10.9039 18.645C10.1934 18.645 9.57548 18.2496 9.25808 17.6666C9.11317 17.4007 9.03116 17.0962 9.03116 16.7722V9.45068H6.49528V16.7722C6.49528 17.0962 6.41289 17.4007 6.26835 17.6666C5.95095 18.2496 5.33307 18.645 4.62251 18.645C3.91195 18.645 3.29407 18.2496 2.97667 17.6666C2.83213 17.4007 2.74975 17.0962 2.74975 16.7722V9.45068H0.213867V24.5494H15.3126V9.45068H12.7767Z" fill="#0066FF"/>
<path d="M17.3128 9.45068V24.5494H20.8708V20.8042H28.0984V24.5494H31.6563V9.45068H17.3125H17.3128ZM24.4849 17.1462C23.5024 17.1462 22.7058 16.3077 22.7058 15.2735C22.7058 14.2393 23.5024 13.4007 24.4849 13.4007C25.4674 13.4007 26.264 14.2393 26.264 15.2735C26.264 16.3077 25.4674 17.1462 24.4849 17.1462Z" fill="#0066FF"/>
<path d="M42.8276 15.7321V16.7494V16.7501C42.8276 16.7501 42.8276 16.7509 42.8276 16.7512C42.8276 17.1477 42.7098 17.5147 42.51 17.8174C42.1885 18.304 41.6539 18.6229 41.0484 18.6229C40.4429 18.6229 39.908 18.304 39.5869 17.8174C39.387 17.5147 39.2697 17.1473 39.2693 16.7512C39.2693 16.7512 39.2693 16.7505 39.2693 16.7501V16.7494V15.7321H39.2655V11.9869H48V9.45068H33.6562V24.5494H48V15.7321H42.8272H42.8276Z" fill="#0066FF"/>
<path d="M59.1713 15.7321V16.7494V16.7501C59.1713 16.7501 59.1713 16.7509 59.1713 16.7512C59.1713 17.1477 59.0536 17.5147 58.8537 17.8174C58.5323 18.304 57.9977 18.6229 57.3922 18.6229C56.7867 18.6229 56.2517 18.304 55.9307 17.8174C55.7308 17.5147 55.6134 17.1473 55.6131 16.7512C55.6131 16.7512 55.6131 16.7505 55.6131 16.7501V16.7494V15.7321H55.6092V11.9869H64.3438V9.45068H50V24.5494H64.3438V15.7321H59.171H59.1713Z" fill="#0066FF"/>
<path d="M74.7576 18.645C74.6213 18.645 74.4875 18.6347 74.3564 18.6148C73.1444 18.432 72.1822 17.4335 71.9886 16.1646C71.9652 16.0109 71.953 15.8535 71.953 15.6927V9.45068H66.3438V24.5494H80.6875V18.645H74.7576Z" fill="#0066FF"/>
<path d="M88.5919 22.0135V18.268H97.7862V15.7321H88.5919V11.9866H97.7862V9.45068H82.6875V24.5494H97.7862V22.0135H88.5919Z" fill="#0066FF"/>
</svg>
