<svg width="20" height="20" viewBox="0 0 21 20" fill="none" xmlns="http://www.w3.org/2000/svg">
<path d="M3.73438 8.6001C4.50739 8.60031 5.13379 9.22742 5.13379 10.0005C5.13358 10.7734 4.50726 11.3997 3.73438 11.3999C2.96131 11.3999 2.3342 10.7735 2.33398 10.0005C2.33398 9.22729 2.96118 8.6001 3.73438 8.6001ZM10.3359 8.6001C11.109 8.60031 11.7354 9.22742 11.7354 10.0005C11.7351 10.7734 11.1088 11.3997 10.3359 11.3999C9.56287 11.3999 8.93576 10.7735 8.93555 10.0005C8.93555 9.22729 9.56274 8.6001 10.3359 8.6001ZM16.9336 8.6001C17.7066 8.60031 18.333 9.22742 18.333 10.0005C18.3328 10.7734 17.7065 11.3997 16.9336 11.3999C16.1605 11.3999 15.5334 10.7735 15.5332 10.0005C15.5332 9.22729 16.1604 8.6001 16.9336 8.6001Z" fill="#36373C"/>
</svg>
