<svg width="25" height="24" viewBox="0 0 25 24" fill="none" xmlns="http://www.w3.org/2000/svg">
<path d="M6.81767 18.6946C7.36517 17.4047 8.64344 16.5 10.133 16.5H15.533C17.0226 16.5 18.3008 17.4047 18.8483 18.6946M16.433 9.75C16.433 11.7382 14.8212 13.35 12.833 13.35C10.8448 13.35 9.23301 11.7382 9.23301 9.75C9.23301 7.76177 10.8448 6.15 12.833 6.15C14.8212 6.15 16.433 7.76177 16.433 9.75ZM21.833 12C21.833 16.9706 17.8036 21 12.833 21C7.86244 21 3.83301 16.9706 3.83301 12C3.83301 7.02944 7.86244 3 12.833 3C17.8036 3 21.833 7.02944 21.833 12Z" stroke="#12141A" stroke-width="1.35" stroke-linecap="round" stroke-linejoin="round"/>
</svg>
