<svg width="32" height="32" viewBox="0 0 32 32" fill="none" xmlns="http://www.w3.org/2000/svg">
<path d="M15.3499 3.57153C8.49652 3.57153 2.92041 9.14763 2.92041 16.001C2.92041 22.8543 8.49652 28.4304 15.3499 28.4304C22.2032 28.4304 27.7793 22.8543 27.7793 16.001C27.7793 9.14763 22.2032 3.57153 15.3499 3.57153Z" fill="#FFE100"/>
<path d="M13.0305 12.753C13.4481 12.753 13.7867 12.0216 13.7867 11.1194C13.7867 10.2171 13.4481 9.48572 13.0305 9.48572C12.6129 9.48572 12.2744 10.2171 12.2744 11.1194C12.2744 12.0216 12.6129 12.753 13.0305 12.753Z" fill="#12141A"/>
<path d="M15.3504 12.753C15.7679 12.753 16.1065 12.0216 16.1065 11.1194C16.1065 10.2171 15.7679 9.48572 15.3504 9.48572C14.9328 9.48572 14.5942 10.2171 14.5942 11.1194C14.5942 12.0216 14.9328 12.753 15.3504 12.753Z" fill="#12141A"/>
<path d="M8.16335 17.1794C6.60567 17.1794 5.33838 18.4467 5.33838 20.0044C5.33838 21.5621 6.60567 22.8294 8.16335 22.8294C9.72102 22.8294 10.9883 21.5621 10.9883 20.0044C10.9883 18.4467 9.72102 17.1794 8.16335 17.1794Z" fill="#FFE100"/>
<path d="M24.7879 6.56092C22.2668 4.03982 18.9143 2.65112 15.3489 2.65112C11.7834 2.65112 8.43162 4.03982 5.9098 6.56092C3.3887 9.08201 2 12.4345 2 15.9999C2 19.5654 3.3887 22.9179 5.9098 25.439C8.43091 27.9601 11.7834 29.3488 15.3489 29.3488C18.9143 29.3488 22.2661 27.9601 24.7879 25.439C27.3097 22.9179 28.6977 19.5654 28.6977 15.9999C28.6977 12.4345 27.309 9.08272 24.7879 6.56092ZM15.3496 28.4294C8.49622 28.4294 2.92012 22.8533 2.92012 15.9999C2.92012 9.14662 8.49622 3.57053 15.3496 3.57053C22.2029 3.57053 27.779 9.14662 27.779 15.9999C27.779 22.8533 22.2029 28.4294 15.3496 28.4294Z" fill="white"/>
<path d="M8.16291 16.3319C6.13736 16.3319 4.49023 17.9797 4.49023 20.0046C4.49023 22.0294 6.13807 23.6772 8.16291 23.6772C10.1877 23.6772 11.8356 22.0294 11.8356 20.0046C11.8356 17.9797 10.1877 16.3319 8.16291 16.3319ZM8.16291 22.8302C6.60523 22.8302 5.33794 21.563 5.33794 20.0053C5.33794 18.4476 6.60523 17.1803 8.16291 17.1803C9.72058 17.1803 10.9879 18.4476 10.9879 20.0053C10.9879 21.563 9.72058 22.8302 8.16291 22.8302Z" fill="white"/>
<path d="M26.3267 5.82288C24.3012 5.82288 22.6533 7.47071 22.6533 9.49625C22.6533 11.5218 24.3012 13.1689 26.3267 13.1689C28.3523 13.1689 30.0001 11.5211 30.0001 9.49625C30.0001 7.47142 28.3523 5.82288 26.3267 5.82288ZM26.3267 12.3212C24.769 12.3212 23.5017 11.0539 23.5017 9.49625C23.5017 7.93858 24.769 6.67129 26.3267 6.67129C27.8844 6.67129 29.1517 7.93858 29.1517 9.49625C29.1517 11.0539 27.8844 12.3212 26.3267 12.3212Z" fill="white"/>
<path d="M26.3259 6.67053C24.7683 6.67053 23.501 7.93782 23.501 9.4955C23.501 11.0532 24.7683 12.3205 26.3259 12.3205C27.8836 12.3205 29.1509 11.0532 29.1509 9.4955C29.1509 7.93782 27.8836 6.67053 26.3259 6.67053Z" fill="#FFE100"/>
</svg>
