<svg width="25" height="25" viewBox="0 0 25 25" fill="none" xmlns="http://www.w3.org/2000/svg">
<path d="M12.5 2.65918C17.9349 2.65923 22.3408 7.06509 22.3408 12.5C22.3408 17.9349 17.9349 22.3408 12.5 22.3408C7.06509 22.3408 2.65923 17.9349 2.65918 12.5C2.65923 7.06509 7.06509 2.65923 12.5 2.65918ZM6.0957 7.15625C4.88679 8.60353 4.1592 10.4668 4.15918 12.5C4.15923 17.1065 7.89351 20.8408 12.5 20.8408C14.5332 20.8408 16.3955 20.1122 17.8428 18.9033L6.0957 7.15625ZM12.5 4.15918C10.4668 4.1592 8.60353 4.88679 7.15625 6.0957L18.9033 17.8428C20.1122 16.3955 20.8408 14.5332 20.8408 12.5C20.8408 7.89351 17.1065 4.15923 12.5 4.15918Z" fill="#F5552D"/>
</svg>
