<svg width="25" height="25" viewBox="0 0 25 25" fill="none" xmlns="http://www.w3.org/2000/svg">
<path d="M10.3309 2.90119C12.2715 2.46273 14.2967 2.62275 16.1395 3.35627L16.5047 3.51056L16.5741 3.54572C16.9036 3.73477 17.0424 4.14627 16.8846 4.5008C16.7265 4.85519 16.3275 5.02757 15.9666 4.909L15.8944 4.88068L15.5848 4.74982C14.023 4.12813 12.3067 3.9925 10.662 4.36408C8.90759 4.76049 7.32761 5.71363 6.15902 7.08088C4.99071 8.44803 4.29594 10.1565 4.17758 11.951C4.0593 13.7457 4.52386 15.531 5.50277 17.0399C6.48172 18.5486 7.92218 19.7007 9.60922 20.324C11.2963 20.9473 13.1403 21.0088 14.8651 20.4988C16.5898 19.9889 18.1036 18.9344 19.1805 17.494C20.19 16.1436 20.7649 14.521 20.8338 12.8416L20.8407 12.5047V11.6688C20.8407 11.2547 21.1766 10.9189 21.5907 10.9188C22.0049 10.9188 22.3407 11.2546 22.3407 11.6688V12.5057C22.3394 14.6276 21.6522 16.6928 20.3817 18.3924C19.1111 20.0918 17.3247 21.3357 15.2899 21.9373C13.2551 22.5388 11.0801 22.4665 9.08969 21.7313C7.09914 20.9959 5.399 19.6364 4.24398 17.8563C3.08904 16.0761 2.54095 13.9698 2.68051 11.8524C2.82014 9.73496 3.64072 7.71939 5.01937 6.10627C6.39805 4.49322 8.26115 3.36893 10.3309 2.90119ZM21.0604 4.69709C21.3531 4.40421 21.8279 4.40362 22.1209 4.69611C22.4139 4.98885 22.4146 5.46462 22.1219 5.75763L13.0301 14.8572C12.8895 14.9978 12.6986 15.0769 12.4998 15.077C12.301 15.0769 12.1102 14.9978 11.9696 14.8572L9.24203 12.1307L9.19125 12.0731C8.95098 11.7786 8.96761 11.3438 9.24203 11.0692C9.51665 10.7946 9.95138 10.7781 10.2459 11.0184L10.3026 11.0692L12.4989 13.2654L21.0604 4.69709Z" fill="#1AB415"/>
</svg>
