<svg width="134" height="100" viewBox="0 0 134 100" fill="none" xmlns="http://www.w3.org/2000/svg">
<g clip-path="url(#clip0_9523_16964)">
<rect width="134" height="100" fill="white"/>
<path d="M102.833 25L27.8334 25L27.8334 100H102.833V25Z" fill="#DBDCDD"/>
<path d="M63.6666 60.8331C65.0473 60.8331 66.1666 58.5946 66.1666 55.8331C66.1666 53.0717 65.0473 50.8331 63.6666 50.8331C62.2859 50.8331 61.1666 53.0717 61.1666 55.8331C61.1666 58.5946 62.2859 60.8331 63.6666 60.8331Z" fill="#65666A"/>
<path d="M70.3337 60.833C71.7145 60.833 72.8337 58.5945 72.8337 55.833C72.8337 53.0716 71.7145 50.833 70.3337 50.833C68.953 50.833 67.8337 53.0716 67.8337 55.833C67.8337 58.5945 68.953 60.833 70.3337 60.833Z" fill="#65666A"/>
<path d="M79.6059 68.6843C73.5398 68.6843 68.6069 73.6197 68.6069 79.6843C68.6069 85.7489 73.5419 90.6843 79.6059 90.6843C85.6699 90.6843 90.6069 85.7489 90.6069 79.6843C90.6069 73.6197 85.672 68.6843 79.6059 68.6843ZM79.6059 88.1475C74.9409 88.1475 71.1456 84.3518 71.1456 79.6864C71.1456 75.021 74.9409 71.2254 79.6059 71.2254C84.2708 71.2254 88.0661 75.021 88.0661 79.6864C88.0661 84.3518 84.2708 88.1475 79.6059 88.1475Z" fill="white"/>
<path d="M79.6028 71.2232C74.9379 71.2232 71.1426 75.0189 71.1426 79.6843C71.1426 84.3497 74.9379 88.1453 79.6028 88.1453C84.2677 88.1453 88.0631 84.3497 88.0631 79.6843C88.0631 75.0189 84.2677 71.2232 79.6028 71.2232Z" fill="#DBDCDD"/>
<path d="M28.0011 56.6667C21.935 56.6667 17 61.6017 17 67.6678C17 73.7339 21.935 78.6667 28.0011 78.6667C34.0672 78.6667 39 73.7318 39 67.6678C39 61.6038 34.0651 56.6667 28.0011 56.6667ZM28.0011 76.128C23.3362 76.128 19.5408 72.3327 19.5408 67.6678C19.5408 63.0028 23.3362 59.2076 28.0011 59.2076C32.666 59.2076 36.4613 63.0028 36.4613 67.6678C36.4613 72.3327 32.666 76.128 28.0011 76.128Z" fill="white"/>
<path d="M27.9959 59.2067C23.331 59.2067 19.5356 63.002 19.5356 67.6669C19.5356 72.3318 23.331 76.1271 27.9959 76.1271C32.6608 76.1271 36.4561 72.3318 36.4561 67.6669C36.4561 63.002 32.6608 59.2067 27.9959 59.2067Z" fill="#DBDCDD"/>
</g>
<defs>
<clipPath id="clip0_9523_16964">
<rect width="134" height="100" fill="white"/>
</clipPath>
</defs>
</svg>
