<svg width="134" height="100" viewBox="0 0 134 100" fill="none" xmlns="http://www.w3.org/2000/svg">
<rect width="134" height="100" fill="white"/>
<path d="M64.9986 19.9999L16.9999 99.9999H113L64.9986 19.9999Z" fill="#DBDCDD"/>
<path d="M61.8 60.833C63.1254 60.833 64.2 58.5944 64.2 55.833C64.2 53.0716 63.1254 50.833 61.8 50.833C60.4745 50.833 59.4 53.0716 59.4 55.833C59.4 58.5944 60.4745 60.833 61.8 60.833Z" fill="#65666A"/>
<path d="M68.2 60.8329C69.5255 60.8329 70.6 58.5943 70.6 55.8329C70.6 53.0715 69.5255 50.8329 68.2 50.8329C66.8745 50.8329 65.8 53.0715 65.8 55.8329C65.8 58.5943 66.8745 60.8329 68.2 60.8329Z" fill="#65666A"/>
<path d="M90.5996 56.6666C84.7755 56.6666 80.0396 61.602 80.0396 67.6666C80.0396 73.7312 84.7776 78.6666 90.5996 78.6666C96.4215 78.6666 101.16 73.7312 101.16 67.6666C101.16 61.602 96.4215 56.6666 90.5996 56.6666ZM90.5996 76.1298C86.1208 76.1298 82.4769 72.3341 82.4769 67.6687C82.4769 63.0033 86.1208 59.2077 90.5996 59.2077C95.0783 59.2077 98.7222 63.0033 98.7222 67.6687C98.7222 72.3341 95.0783 76.1298 90.5996 76.1298Z" fill="white"/>
<path d="M90.5992 59.205C86.1204 59.205 82.4766 63.0007 82.4766 67.6661C82.4766 72.3315 86.1204 76.1271 90.5992 76.1271C95.0779 76.1271 98.7218 72.3315 98.7218 67.6661C98.7218 63.0007 95.0779 59.205 90.5992 59.205Z" fill="#DBDCDD"/>
<path d="M39.0797 56.6666C33.2557 56.6666 28.5197 61.602 28.5197 67.6666C28.5197 73.7312 33.2577 78.6666 39.0797 78.6666C44.9017 78.6666 49.6397 73.7312 49.6397 67.6666C49.6397 61.602 44.9017 56.6666 39.0797 56.6666ZM39.0797 76.1298C34.601 76.1298 30.9571 72.3341 30.9571 67.6687C30.9571 63.0033 34.601 59.2077 39.0797 59.2077C43.5585 59.2077 47.2023 63.0033 47.2023 67.6687C47.2023 72.3341 43.5585 76.1298 39.0797 76.1298Z" fill="white"/>
<path d="M39.0709 59.205C34.5921 59.205 30.9483 63.0007 30.9483 67.6661C30.9483 72.3315 34.5921 76.1271 39.0709 76.1271C43.5497 76.1271 47.1935 72.3315 47.1935 67.6661C47.1935 63.0007 43.5497 59.205 39.0709 59.205Z" fill="#DBDCDD"/>
</svg>
