<svg width="134" height="100" viewBox="0 0 134 100" fill="none" xmlns="http://www.w3.org/2000/svg">
<g clip-path="url(#clip0_9523_16969)">
<rect width="134" height="100" fill="white"/>
<path d="M104.5 25L29.5 25L29.5 100H104.5V25Z" fill="#DBDCDD"/>
<path d="M63.667 48.3332C65.0477 48.3332 66.167 46.0947 66.167 43.3332C66.167 40.5718 65.0477 38.3332 63.667 38.3332C62.2863 38.3332 61.167 40.5718 61.167 43.3332C61.167 46.0947 62.2863 48.3332 63.667 48.3332Z" fill="#65666A"/>
<path d="M70.3334 48.3331C71.7141 48.3331 72.8334 46.0946 72.8334 43.3331C72.8334 40.5717 71.7141 38.3331 70.3334 38.3331C68.9527 38.3331 67.8334 40.5717 67.8334 43.3331C67.8334 46.0946 68.9527 48.3331 70.3334 48.3331Z" fill="#65666A"/>
<path d="M105.996 56.6667C99.9299 56.6667 94.9971 61.6022 94.9971 67.6667C94.9971 73.7313 99.932 78.6667 105.996 78.6667C112.06 78.6667 116.997 73.7313 116.997 67.6667C116.997 61.6022 112.062 56.6667 105.996 56.6667ZM105.996 76.1299C101.331 76.1299 97.5358 72.3342 97.5358 67.6689C97.5358 63.0035 101.331 59.2078 105.996 59.2078C110.661 59.2078 114.456 63.0035 114.456 67.6689C114.456 72.3342 110.661 76.1299 105.996 76.1299Z" fill="white"/>
<path d="M105.992 59.2057C101.328 59.2057 97.5322 63.0014 97.5322 67.6667C97.5322 72.3321 101.328 76.1278 105.992 76.1278C110.657 76.1278 114.453 72.3321 114.453 67.6667C114.453 63.0014 110.657 59.2057 105.992 59.2057Z" fill="#DBDCDD"/>
<path d="M28.3341 56.6667C22.268 56.6667 17.333 61.6017 17.333 67.6678C17.333 73.7339 22.268 78.6667 28.3341 78.6667C34.4002 78.6667 39.333 73.7318 39.333 67.6678C39.333 61.6038 34.3981 56.6667 28.3341 56.6667ZM28.3341 76.128C23.6692 76.128 19.8739 72.3327 19.8739 67.6678C19.8739 63.0029 23.6692 59.2076 28.3341 59.2076C32.999 59.2076 36.7943 63.0029 36.7943 67.6678C36.7943 72.3327 32.999 76.128 28.3341 76.128Z" fill="white"/>
<path d="M28.3279 59.2067C23.663 59.2067 19.8677 63.002 19.8677 67.6669C19.8677 72.3318 23.663 76.1272 28.3279 76.1272C32.9928 76.1272 36.7881 72.3318 36.7881 67.6669C36.7881 63.002 32.9928 59.2067 28.3279 59.2067Z" fill="#DBDCDD"/>
<path d="M60.1159 7.03812C62.1011 5.34198 64.7432 5.84024 66.3275 7.69253C67.9119 5.84024 70.5199 5.35982 72.5392 7.03812C74.5584 8.71642 74.8038 11.5701 73.2448 13.5762C72.0673 15.0914 68.7222 18.1332 67.1558 19.531C66.8678 19.788 66.7238 19.9165 66.5552 19.9671C66.4089 20.011 66.2462 20.011 66.0999 19.9671C65.9313 19.9165 65.7873 19.788 65.4993 19.531C63.9329 18.1332 60.5878 15.0914 59.4103 13.5762C57.8513 11.5701 58.1308 8.73427 60.1159 7.03812Z" fill="#A6CAFF"/>
</g>
<defs>
<clipPath id="clip0_9523_16969">
<rect width="134" height="100" fill="white"/>
</clipPath>
</defs>
</svg>
