<svg width="164" height="120" viewBox="0 0 164 120" fill="none" xmlns="http://www.w3.org/2000/svg">
<rect width="164" height="120" fill="white"/>
<path d="M79.9984 24L22 120H138L79.9984 24Z" fill="#FFE100"/>
<path d="M76.1333 73C77.735 73 79.0333 70.3137 79.0333 67C79.0333 63.6863 77.735 61 76.1333 61C74.5317 61 73.2333 63.6863 73.2333 67C73.2333 70.3137 74.5317 73 76.1333 73Z" fill="#12141A"/>
<path d="M83.8667 73C85.4683 73 86.7667 70.3137 86.7667 67C86.7667 63.6863 85.4683 61 83.8667 61C82.265 61 80.9667 63.6863 80.9667 67C80.9667 70.3137 82.265 73 83.8667 73Z" fill="#12141A"/>
<path d="M110.933 68C104.003 68 98.3666 73.8328 98.3666 81C98.3666 88.1672 104.005 94 110.933 94C117.862 94 123.5 88.1672 123.5 81C123.5 73.8328 117.862 68 110.933 68ZM110.933 91.0019C105.603 91.0019 101.267 86.5161 101.267 81.0025C101.267 75.4889 105.603 71.0031 110.933 71.0031C116.263 71.0031 120.599 75.4889 120.599 81.0025C120.599 86.5161 116.263 91.0019 110.933 91.0019Z" fill="white"/>
<path d="M110.933 71.0003C105.603 71.0003 101.267 75.4861 101.267 80.9997C101.267 86.5133 105.603 90.9991 110.933 90.9991C116.263 90.9991 120.599 86.5133 120.599 80.9997C120.599 75.4861 116.263 71.0003 110.933 71.0003Z" fill="#FFE100"/>
<path d="M49.0667 68C42.1359 68 36.5 73.8328 36.5 81C36.5 88.1672 42.1384 94 49.0667 94C55.995 94 61.6333 88.1672 61.6333 81C61.6333 73.8328 55.995 68 49.0667 68ZM49.0667 91.0019C43.7368 91.0019 39.4006 86.5161 39.4006 81.0025C39.4006 75.4889 43.7368 71.0031 49.0667 71.0031C54.3965 71.0031 58.7328 75.4889 58.7328 81.0025C58.7328 86.5161 54.3965 91.0019 49.0667 91.0019Z" fill="white"/>
<path d="M49.0567 71.0003C43.7268 71.0003 39.3906 75.4861 39.3906 80.9997C39.3906 86.5133 43.7268 90.9991 49.0567 90.9991C54.3865 90.9991 58.7228 86.5133 58.7228 80.9997C58.7228 75.4861 54.3865 71.0003 49.0567 71.0003Z" fill="#FFE100"/>
<path d="M124 44.7857V41.0357M124 37.2857H124.011M121.667 50.3571L123.289 52.4429C123.53 52.753 123.651 52.9081 123.799 52.9636C123.928 53.0121 124.072 53.0121 124.201 52.9636C124.349 52.9081 124.47 52.753 124.711 52.4429L126.333 50.3571C126.659 49.9384 126.822 49.729 127.021 49.5691C127.285 49.3559 127.598 49.2052 127.934 49.1288C128.186 49.0714 128.457 49.0714 129 49.0714C130.553 49.0714 131.33 49.0714 131.942 48.8268C132.759 48.5005 133.408 47.8748 133.746 47.0872C134 46.4965 134 45.7477 134 44.25V38.1429C134 36.3427 134 35.4426 133.637 34.755C133.317 34.1502 132.807 33.6585 132.18 33.3503C131.467 33 130.534 33 128.667 33H119.333C117.466 33 116.533 33 115.82 33.3503C115.193 33.6585 114.683 34.1502 114.363 34.755C114 35.4426 114 36.3427 114 38.1429V44.25C114 45.7477 114 46.4965 114.254 47.0872C114.592 47.8748 115.241 48.5005 116.058 48.8268C116.67 49.0714 117.447 49.0714 119 49.0714C119.543 49.0714 119.814 49.0714 120.066 49.1288C120.402 49.2052 120.715 49.3559 120.979 49.5691C121.178 49.729 121.341 49.9384 121.667 50.3571Z" stroke="#A6CAFF" stroke-width="1.82536" stroke-linecap="round" stroke-linejoin="round"/>
</svg>
