<svg width="134" height="100" viewBox="0 0 134 100" fill="none" xmlns="http://www.w3.org/2000/svg">
<rect width="134" height="100" fill="white"/>
<path d="M64.9986 19.9999L16.9999 99.9998H113L64.9986 19.9999Z" fill="#FFE100"/>
<path d="M61.7999 60.833C63.1254 60.833 64.1999 58.5944 64.1999 55.833C64.1999 53.0716 63.1254 50.833 61.7999 50.833C60.4744 50.833 59.3999 53.0716 59.3999 55.833C59.3999 58.5944 60.4744 60.833 61.7999 60.833Z" fill="#12141A"/>
<path d="M68.1999 60.8329C69.5254 60.8329 70.5999 58.5943 70.5999 55.8329C70.5999 53.0715 69.5254 50.8329 68.1999 50.8329C66.8744 50.8329 65.7999 53.0715 65.7999 55.8329C65.7999 58.5943 66.8744 60.8329 68.1999 60.8329Z" fill="#12141A"/>
<path d="M90.5996 56.6666C84.7755 56.6666 80.0396 61.602 80.0396 67.6665C80.0396 73.7311 84.7776 78.6665 90.5996 78.6665C96.4215 78.6665 101.16 73.7311 101.16 67.6665C101.16 61.602 96.4215 56.6666 90.5996 56.6666ZM90.5996 76.1297C86.1208 76.1297 82.4769 72.3341 82.4769 67.6687C82.4769 63.0033 86.1208 59.2076 90.5996 59.2076C95.0783 59.2076 98.7222 63.0033 98.7222 67.6687C98.7222 72.3341 95.0783 76.1297 90.5996 76.1297Z" fill="white"/>
<path d="M90.5992 59.205C86.1204 59.205 82.4766 63.0007 82.4766 67.666C82.4766 72.3314 86.1204 76.1271 90.5992 76.1271C95.0779 76.1271 98.7218 72.3314 98.7218 67.666C98.7218 63.0007 95.0779 59.205 90.5992 59.205Z" fill="#FFE100"/>
<path d="M39.0797 56.6666C33.2557 56.6666 28.5197 61.602 28.5197 67.6665C28.5197 73.7311 33.2577 78.6665 39.0797 78.6665C44.9017 78.6665 49.6397 73.7311 49.6397 67.6665C49.6397 61.602 44.9017 56.6666 39.0797 56.6666ZM39.0797 76.1297C34.601 76.1297 30.9571 72.3341 30.9571 67.6687C30.9571 63.0033 34.601 59.2076 39.0797 59.2076C43.5585 59.2076 47.2023 63.0033 47.2023 67.6687C47.2023 72.3341 43.5585 76.1297 39.0797 76.1297Z" fill="white"/>
<path d="M39.0709 59.205C34.5921 59.205 30.9483 63.0007 30.9483 67.666C30.9483 72.3314 34.5921 76.1271 39.0709 76.1271C43.5497 76.1271 47.1935 72.3314 47.1935 67.666C47.1935 63.0007 43.5497 59.205 39.0709 59.205Z" fill="#FFE100"/>
<path d="M102 40.4286V37.4286M102 34.4286H102.009M100.133 44.8857L101.431 46.5543C101.624 46.8024 101.721 46.9265 101.839 46.9709C101.943 47.0097 102.057 47.0097 102.161 46.9709C102.279 46.9265 102.376 46.8024 102.569 46.5543L103.867 44.8857C104.127 44.5507 104.258 44.3832 104.416 44.2553C104.628 44.0848 104.878 43.9641 105.147 43.903C105.349 43.8571 105.566 43.8571 106 43.8571C107.243 43.8571 107.864 43.8571 108.354 43.6614C109.007 43.4004 109.526 42.8998 109.797 42.2698C110 41.7972 110 41.1981 110 40V35.1143C110 33.6742 110 32.9541 109.709 32.404C109.454 31.9202 109.046 31.5268 108.544 31.2803C107.974 31 107.227 31 105.733 31H98.2667C96.7732 31 96.0265 31 95.456 31.2803C94.9543 31.5268 94.5463 31.9202 94.2906 32.404C94 32.9541 94 33.6742 94 35.1143V40C94 41.1981 94 41.7972 94.203 42.2698C94.4736 42.8998 94.9928 43.4004 95.6462 43.6614C96.1362 43.8571 96.7575 43.8571 98 43.8571C98.4343 43.8571 98.6514 43.8571 98.8529 43.903C99.1215 43.9641 99.3717 44.0848 99.5836 44.2553C99.7425 44.3832 99.8728 44.5507 100.133 44.8857Z" stroke="#A6CAFF" stroke-width="1.82536" stroke-linecap="round" stroke-linejoin="round"/>
</svg>
