<svg width="164" height="120" viewBox="0 0 164 120" fill="none" xmlns="http://www.w3.org/2000/svg">
<rect width="164" height="120" fill="white"/>
<path d="M154.75 87.009V52H87.1508V119.998H154.75V105.403C158.949 104.421 162 100.637 162 96.2061C162 91.7758 158.949 87.991 154.75 87.009ZM152.422 103.383V117.658H89.477V54.3418H152.422V89.0325L153.448 89.1555C156.997 89.5787 159.672 92.6094 159.672 96.208C159.672 99.8065 156.997 102.839 153.448 103.26L152.422 103.383Z" fill="white"/>
<path d="M153.45 89.1536L152.423 89.0306V54.3398H89.4785V117.656H152.423V103.381L153.45 103.258C156.999 102.835 159.674 99.8046 159.674 96.206C159.674 92.6075 156.999 89.5749 153.45 89.1536Z" fill="#0066FF"/>
<path d="M101.314 61.9584C94.9307 55.5371 86.442 52 77.4139 52C68.3858 52 59.8988 55.5371 53.5134 61.9584C47.1297 68.3797 43.6134 76.9186 43.6134 86C43.6134 95.0814 47.1297 103.618 53.5134 110.042C59.897 116.463 68.3858 120 77.4139 120C86.442 120 94.9289 116.463 101.314 110.042C107.698 103.62 111.214 95.0814 111.214 86C111.214 76.9186 107.698 68.3816 101.314 61.9584ZM77.4157 117.658C60.0624 117.658 45.9433 103.456 45.9433 86C45.9433 68.5443 60.0624 54.3418 77.4157 54.3418C94.7689 54.3418 108.888 68.5443 108.888 86C108.888 103.456 94.7689 117.658 77.4157 117.658Z" fill="white"/>
<path d="M77.4143 54.3418C60.061 54.3418 45.9419 68.5443 45.9419 86C45.9419 103.456 60.061 117.658 77.4143 117.658C94.7676 117.658 108.887 103.456 108.887 86C108.887 68.5443 94.7676 54.3418 77.4143 54.3418Z" fill="#0066FF"/>
<path d="M73.9301 77C75.0336 77 75.9282 75.2091 75.9282 73C75.9282 70.7909 75.0336 69 73.9301 69C72.8266 69 71.932 70.7909 71.932 73C71.932 75.2091 72.8266 77 73.9301 77Z" fill="white"/>
<path d="M79.9244 77C81.0279 77 81.9225 75.2091 81.9225 73C81.9225 70.7909 81.0279 69 79.9244 69C78.8208 69 77.9263 70.7909 77.9263 73C77.9263 75.2091 78.8208 77 79.9244 77Z" fill="white"/>
<path d="M73.5765 119.998L36.7882 55.9043L18.4121 87.9206C17.0368 87.1593 15.498 86.7614 13.8999 86.7614C8.72246 86.7614 4.50864 90.9983 4.50864 96.2063C4.50864 99.5372 6.24522 102.582 9.02268 104.279L0 119.997H73.5765V119.998ZM13.8999 89.1014C15.4333 89.1014 16.8912 89.5878 18.1155 90.5065L19.1635 91.2931L36.7882 60.586L69.5461 117.658H4.03044L12.2981 103.253L11.099 102.733C8.50854 101.606 6.83486 99.0453 6.83486 96.2081C6.83486 92.2895 10.0042 89.1032 13.8981 89.1032L13.8999 89.1014Z" fill="white"/>
<path d="M69.5451 117.658L36.7873 60.5859L19.1626 91.293L18.1145 90.5064C16.8885 89.5877 15.4306 89.1013 13.8989 89.1013C10.0033 89.1013 6.83573 92.2894 6.83573 96.2062C6.83573 99.0434 8.50941 101.604 11.0999 102.731L12.299 103.251L4.03131 117.656H69.5469L69.5451 117.658Z" fill="#0066FF"/>
<path d="M105.207 77.705C109.75 77.705 113.433 74.0002 113.433 69.4301C113.433 64.8601 109.75 61.1553 105.207 61.1553C100.664 61.1553 96.9807 64.8601 96.9807 69.4301C96.9807 74.0002 100.664 77.705 105.207 77.705Z" fill="white"/>
<path d="M59.2209 104.483C63.7641 104.483 67.4472 100.778 67.4472 96.208C67.4472 91.6379 63.7641 87.9331 59.2209 87.9331C54.6776 87.9331 50.9946 91.6379 50.9946 96.208C50.9946 100.778 54.6776 104.483 59.2209 104.483Z" fill="white"/>
</svg>
