<svg width="16" height="16" viewBox="0 0 16 16" fill="none" xmlns="http://www.w3.org/2000/svg">
<path d="M15.6655 4.12365C15.575 3.78326 15.3967 3.47259 15.1485 3.22275C14.9002 2.97291 14.5907 2.79265 14.2509 2.70001C13 2.36365 8 2.36365 8 2.36365C8 2.36365 3 2.36365 1.74909 2.70001C1.40929 2.79265 1.09977 2.97291 0.851525 3.22275C0.603277 3.47259 0.425004 3.78326 0.334545 4.12365C3.97364e-08 5.38001 0 8.00001 0 8.00001C0 8.00001 3.97364e-08 10.62 0.334545 11.8764C0.425004 12.2168 0.603277 12.5274 0.851525 12.7773C1.09977 13.0271 1.40929 13.2074 1.74909 13.3C3 13.6364 8 13.6364 8 13.6364C8 13.6364 13 13.6364 14.2509 13.3C14.5907 13.2074 14.9002 13.0271 15.1485 12.7773C15.3967 12.5274 15.575 12.2168 15.6655 11.8764C16 10.62 16 8.00001 16 8.00001C16 8.00001 16 5.38001 15.6655 4.12365Z" fill="#FF0302"/>
<path d="M6.3623 10.3796V5.62146L10.5441 8.00055L6.3623 10.3796Z" fill="#FEFEFE"/>
</svg>
