<svg width="16" height="16" viewBox="0 0 16 16" fill="none" xmlns="http://www.w3.org/2000/svg">
<path d="M8 0C3.58185 0 0 3.58185 0 8C0 11.7775 2.61908 14.9415 6.14 15.7803C5.95785 15.7369 5.77723 15.6883 5.6 15.6329V13.8C5.6 13.8 5.3 13.9 4.9 13.9C3.78092 13.9 3.316 12.9015 3.2 12.4C3.12954 12.0945 2.94554 11.8049 2.748 11.628C2.512 11.4175 2.40154 11.4169 2.4 11.3449C2.39692 11.1938 2.60246 11.2 2.7 11.2C3.2 11.2 3.57908 11.732 3.75508 12.0071C4.19108 12.6862 4.65908 12.8 4.9 12.8C5.2 12.8 5.45908 12.7551 5.63754 12.6689C5.72 12.088 5.97846 11.5705 6.4 11.2C4.524 10.8249 3.2 9.74892 3.2 8C3.2 7.09908 3.56154 6.27108 4.164 5.60246C4.10246 5.428 4 5.07508 4 4.5C4 4.12 4.02646 3.65354 4.2 3.2C4.2 3.2 5.34092 3.208 6.41692 4.22708C6.91354 4.08246 7.44492 4 8 4C8.55508 4 9.08646 4.08246 9.58308 4.22708C10.6591 3.208 11.8 3.2 11.8 3.2C11.9745 3.65354 12 4.12 12 4.5C12 5.12 11.9175 5.48154 11.8671 5.63754C12.4511 6.3 12.8 7.11508 12.8 8C12.8 9.74892 11.476 10.8249 9.6 11.2C10.1009 11.64 10.4 12.2809 10.4 13V15.6329C10.2228 15.6886 10.0425 15.7369 9.86 15.7803C13.3809 14.9415 16 11.7775 16 8C16 3.58185 12.4182 0 8 0ZM8.55785 15.9785C8.37354 15.9914 8.18769 16 8 16C8.18769 16 8.37323 15.9911 8.55785 15.9785ZM8 16C7.81231 16 7.62646 15.9914 7.44215 15.9785C7.62677 15.9911 7.81231 16 8 16ZM7.31938 15.9692C6.94492 15.9375 6.57754 15.8803 6.21969 15.7988C6.57785 15.88 6.94492 15.9375 7.31938 15.9692Z" fill="#12141A"/>
</svg>
