<svg width="16" height="16" viewBox="0 0 16 16" fill="none" xmlns="http://www.w3.org/2000/svg">
<g clip-path="url(#clip0_6234_161076)">
<path d="M16 7.99999C16 12.4179 12.4186 16 7.99953 16C3.58138 16 0 12.4179 0 7.99999C0 3.58209 3.58138 0 7.99953 0C12.4186 0 16 3.58209 16 7.99999Z" fill="#231F20"/>
<path d="M9.79587 3.46039C10.5184 2.82402 10.8419 2.72335 10.999 2.9223C11.1894 3.16127 10.7525 4.04049 10.4082 4.48871C9.83248 5.23678 9.06833 5.58832 9.06833 5.58832C9.06833 5.58832 9.45358 5.87357 8.69724 6.61859C7.40337 7.89224 6.81096 8.97439 6.55075 9.39886C6.41623 9.61757 6.46437 9.64171 6.49118 9.60785C7.53422 8.52302 8.46847 7.90107 9.24118 7.90082C9.74902 7.90082 10.0476 8.181 10.0478 8.67035C10.0478 9.96327 8.39093 10.9257 7.80856 11.1811C6.97889 11.544 6.16947 11.6898 5.67575 11.7485L5.29782 11.7827C5.2315 11.7869 5.19326 11.7875 5.19138 11.7875C5.1825 11.7908 4.99241 11.8656 4.92673 12.2436C4.89001 12.4561 4.78367 12.5479 4.27438 12.768C4.21142 12.7948 4.1447 12.8239 4.07517 12.8549C4.01944 12.8794 3.97329 12.8415 4.02341 12.7543C4.0394 12.7261 4.31028 12.2629 4.67575 11.6313C4.49704 11.5462 4.35548 11.4403 4.27927 11.3608L4.37106 11.1987C4.51917 11.3035 4.66283 11.3748 4.79684 11.4213C5.55255 10.1178 6.61546 8.28098 6.7988 7.9389C7.53722 6.55668 8.89747 4.25167 9.79587 3.46039ZM11.1367 12.7084L11.0468 12.8618H4.91013L5.00095 12.7084H11.1367ZM8.98434 8.28656C8.84239 8.28668 8.65943 8.3402 8.46872 8.43695L8.43747 8.4516C6.69335 9.30997 5.34745 11.48 5.33005 11.5082C5.34322 11.5082 5.35493 11.5072 5.36716 11.5063C5.57302 11.4897 6.59501 11.3837 7.51169 10.9057C8.30614 10.4904 9.21014 9.62928 9.31833 8.71917C9.33523 8.57205 9.30944 8.45999 9.24411 8.38617C9.18531 8.32032 9.09817 8.28656 8.98434 8.28656ZM10.5332 3.27191C10.5332 3.27191 8.92842 4.83443 7.8447 6.92914C8.41182 6.30989 8.78491 6.05308 8.77927 5.8471C8.7749 5.68129 8.61307 5.59397 8.77634 5.47699C9.39534 5.03534 10.2049 4.34616 10.5332 3.27191Z" fill="white"/>
</g>
<defs>
<clipPath id="clip0_6234_161076">
<rect width="16" height="16" fill="white"/>
</clipPath>
</defs>
</svg>
