<svg width="16" height="16" viewBox="0 0 16 16" fill="none" xmlns="http://www.w3.org/2000/svg">
<g clip-path="url(#clip0_6234_161073)">
<path d="M12.4499 15.9916L3.56567 16C1.61115 16.0018 0.0106625 14.4044 0.00844149 12.4499L1.48091e-06 3.56567C-0.00177536 1.61115 1.5956 0.0106625 3.55013 0.00844149L12.4343 1.48091e-06C14.3888 -0.00177536 15.9893 1.5956 15.9916 3.55013L16 12.4343C16.0022 14.3893 14.4044 15.9898 12.4499 15.9916Z" fill="url(#paint0_radial_6234_161073)"/>
<path d="M12.4499 15.9916L3.56567 16C1.61115 16.0018 0.0106625 14.4044 0.00844149 12.4499L1.48091e-06 3.56567C-0.00177536 1.61115 1.5956 0.0106625 3.55013 0.00844149L12.4343 1.48091e-06C14.3888 -0.00177536 15.9893 1.5956 15.9916 3.55013L16 12.4343C16.0022 14.3893 14.4044 15.9898 12.4499 15.9916Z" fill="url(#paint1_radial_6234_161073)"/>
<path d="M8.00009 11.1097C6.28589 11.1097 4.89062 9.71487 4.89062 8.00022C4.89062 6.28557 6.28589 4.89075 8.00009 4.89075C9.7143 4.89075 11.1096 6.28557 11.1096 8.00022C11.1096 9.71487 9.7143 11.1097 8.00009 11.1097ZM8.00009 5.77917C6.77541 5.77917 5.77904 6.77553 5.77904 8.00022C5.77904 9.2249 6.77541 10.2213 8.00009 10.2213C9.22478 10.2213 10.2211 9.2249 10.2211 8.00022C10.2211 6.77553 9.22478 5.77917 8.00009 5.77917Z" fill="white"/>
<path d="M11.3323 5.33471C11.7003 5.33471 11.9986 5.03639 11.9986 4.66839C11.9986 4.30039 11.7003 4.00208 11.3323 4.00208C10.9643 4.00208 10.666 4.30039 10.666 4.66839C10.666 5.03639 10.9643 5.33471 11.3323 5.33471Z" fill="white"/>
<path d="M10.6646 13.7749H5.33408C3.61987 13.7749 2.22461 12.3801 2.22461 10.6655V5.33493C2.22461 3.62028 3.61987 2.22546 5.33408 2.22546H10.6646C12.3788 2.22546 13.7741 3.62028 13.7741 5.33493V10.6655C13.7741 12.3801 12.3788 13.7749 10.6646 13.7749ZM5.33408 3.11388C4.10939 3.11388 3.11303 4.11025 3.11303 5.33493V10.6655C3.11303 11.8901 4.10939 12.8865 5.33408 12.8865H10.6646C11.8893 12.8865 12.8856 11.8901 12.8856 10.6655V5.33493C12.8856 4.11025 11.8893 3.11388 10.6646 3.11388H5.33408Z" fill="white"/>
</g>
<defs>
<radialGradient id="paint0_radial_6234_161073" cx="0" cy="0" r="1" gradientUnits="userSpaceOnUse" gradientTransform="translate(5.94797 16.0115) scale(19.9446 19.9446)">
<stop stop-color="#FFDD55"/>
<stop offset="0.328" stop-color="#FF543F"/>
<stop offset="0.348" stop-color="#FC5245"/>
<stop offset="0.504" stop-color="#E64771"/>
<stop offset="0.643" stop-color="#D53E91"/>
<stop offset="0.761" stop-color="#CC39A4"/>
<stop offset="0.841" stop-color="#C837AB"/>
</radialGradient>
<radialGradient id="paint1_radial_6234_161073" cx="0" cy="0" r="1" gradientUnits="userSpaceOnUse" gradientTransform="translate(2.57464 -0.199759) scale(13.2432 8.82396)">
<stop stop-color="#4168C9"/>
<stop offset="0.999" stop-color="#4168C9" stop-opacity="0"/>
</radialGradient>
<clipPath id="clip0_6234_161073">
<rect width="16" height="16" fill="white"/>
</clipPath>
</defs>
</svg>
