<svg width="16" height="16" viewBox="0 0 16 16" fill="none" xmlns="http://www.w3.org/2000/svg">
<path d="M0 1.77778C0 0.8 0.8 0 1.77778 0H14.2222C15.2 0 16 0.8 16 1.77778V14.2222C16 15.2 15.2 16 14.2222 16H1.77778C0.8 16 0 15.2 0 14.2222V1.77778Z" fill="#1E88E5"/>
<path d="M1.77734 2.75524C1.77734 2.22191 2.22179 1.77747 2.75512 1.77747H6.1329C6.66623 1.77747 7.11068 2.22191 7.11068 2.75524V12.3552C7.11068 12.8886 6.66623 13.333 6.1329 13.333H2.75512C2.22179 13.333 1.77734 12.8886 1.77734 12.3552V2.75524ZM8.88845 7.46635C8.88845 7.99969 9.3329 8.44413 9.86623 8.44413H13.244C13.7773 8.44413 14.2218 7.99969 14.2218 7.46635V2.75524C14.2218 2.22191 13.7773 1.77747 13.244 1.77747H9.86623C9.3329 1.77747 8.88845 2.22191 8.88845 2.75524V7.46635Z" fill="white"/>
</svg>
