<svg width="16" height="16" viewBox="0 0 16 16" fill="none" xmlns="http://www.w3.org/2000/svg">
<g clip-path="url(#clip0_6234_161074)">
<rect width="16" height="16" rx="3" fill="white"/>
<path d="M2.66667 0C1.1939 0 0 1.1939 0 2.66667V13.3333C0 14.8061 1.1939 16 2.66667 16H13.3333C14.8061 16 16 14.8061 16 13.3333V2.66667C16 1.1939 14.8061 0 13.3333 0H2.66667ZM3.46131 3.42857H6.48512L8.63244 6.47991L11.2381 3.42857H12.1905L9.0625 7.09077L12.9196 12.5714H9.89658L7.40476 9.03125L4.38095 12.5714H3.42857L6.9747 8.42039L3.46131 3.42857ZM4.91964 4.19048L10.2939 11.8095H11.4613L6.08705 4.19048H4.91964Z" fill="#12141A"/>
</g>
<defs>
<clipPath id="clip0_6234_161074">
<rect width="16" height="16" fill="white"/>
</clipPath>
</defs>
</svg>
