<svg width="16" height="16" viewBox="0 0 16 16" fill="none" xmlns="http://www.w3.org/2000/svg">
<g clip-path="url(#clip0_6234_161072)">
<path d="M2.97283 2.80516C3.47016 3.20916 3.65683 3.17849 4.5915 3.11583L13.4015 2.58716C13.5881 2.58716 13.4328 2.4005 13.3708 2.36983L11.9068 1.31183C11.6268 1.0945 11.2528 0.845166 10.5368 0.907166L2.00683 1.52983C1.69617 1.5605 1.6335 1.7165 1.7575 1.8405L2.97283 2.80516ZM3.5015 4.85849V14.1278C3.5015 14.6258 3.75016 14.8125 4.31083 14.7811L13.9928 14.2211C14.5535 14.1905 14.6161 13.8478 14.6161 13.4431V4.23583C14.6161 3.83183 14.4608 3.61383 14.1175 3.64449L3.9995 4.23583C3.62616 4.26716 3.5015 4.45383 3.5015 4.85782V4.85849ZM13.0595 5.35516C13.1215 5.63516 13.0595 5.91515 12.7795 5.94715L12.3128 6.04049V12.8831C11.9075 13.1011 11.5341 13.2258 11.2228 13.2258C10.7241 13.2258 10.5995 13.0698 10.2261 12.6038L7.17482 7.81315V12.4478L8.14015 12.6665C8.14015 12.6665 8.14015 13.2265 7.36149 13.2265L5.21349 13.3505C5.15149 13.2265 5.21349 12.9151 5.43149 12.8531L5.99149 12.6978V6.56915L5.21483 6.50649C5.15216 6.22649 5.30816 5.82249 5.74349 5.79116L8.04749 5.63582L11.2235 10.4885V6.19515L10.4135 6.10249C10.3515 5.75982 10.6001 5.51116 10.9115 5.48049L13.0595 5.35516ZM1.29084 0.689833L10.1641 0.0365012C11.2535 -0.0568319 11.5341 0.00516796 12.2188 0.503167L15.0515 2.49383C15.5181 2.83583 15.6741 2.92916 15.6741 3.30249V14.2211C15.6741 14.9051 15.4255 15.3105 14.5541 15.3718L4.24883 15.9945C3.5955 16.0258 3.2835 15.9325 2.94083 15.4965L0.854837 12.7898C0.481505 12.2918 0.326172 11.9191 0.326172 11.4831V1.77783C0.326172 1.2185 0.575505 0.751166 1.29084 0.689833Z" fill="#12141A"/>
<path d="M2.97283 2.80516C3.47016 3.20916 3.65683 3.17849 4.5915 3.11583L13.4015 2.58716C13.5881 2.58716 13.4328 2.4005 13.3708 2.36983L11.9068 1.31183C11.6268 1.0945 11.2528 0.845166 10.5368 0.907166L2.00683 1.52983C1.69617 1.5605 1.6335 1.7165 1.7575 1.8405L2.97283 2.80516Z" fill="white"/>
<path fill-rule="evenodd" clip-rule="evenodd" d="M3.5015 4.85849V14.1278C3.5015 14.6258 3.75016 14.8125 4.31083 14.7811L13.9928 14.2211C14.5535 14.1905 14.6161 13.8478 14.6161 13.4431V4.23583C14.6161 3.83183 14.4608 3.61383 14.1175 3.64449L3.9995 4.23583C3.62616 4.26716 3.5015 4.45383 3.5015 4.85782V4.85849ZM12.7795 5.94715C13.0595 5.91515 13.1215 5.63516 13.0595 5.35516L10.9115 5.48049C10.6001 5.51116 10.3515 5.75982 10.4135 6.10249L11.2235 6.19515V10.4885L8.04749 5.63582L5.74349 5.79116C5.30816 5.82249 5.15216 6.22649 5.21483 6.50649L5.99149 6.56915V12.6978L5.43149 12.8531C5.21349 12.9151 5.15149 13.2265 5.21349 13.3505L7.36149 13.2265C8.14015 13.2265 8.14015 12.6665 8.14015 12.6665L7.17482 12.4478V7.81315L10.2261 12.6038L10.2269 12.6047C10.5996 13.07 10.7245 13.2258 11.2228 13.2258C11.5341 13.2258 11.9075 13.1011 12.3128 12.8831V6.04049L12.7795 5.94715Z" fill="white"/>
</g>
<defs>
<clipPath id="clip0_6234_161072">
<rect width="16" height="16" fill="white"/>
</clipPath>
</defs>
</svg>
