<svg width="134" height="100" viewBox="0 0 134 100" fill="none" xmlns="http://www.w3.org/2000/svg">
<g clip-path="url(#clip0_9523_16974)">
<rect width="134" height="100" fill="white"/>
<path d="M67.8335 25C47.1568 25 30.3335 41.8233 30.3335 62.5C30.3335 83.1768 47.1568 100 67.8335 100C88.5103 100 105.334 83.1768 105.334 62.5C105.334 41.8233 88.5103 25 67.8335 25Z" fill="#FFE100"/>
<path d="M63.6668 48.3331C65.0475 48.3331 66.1668 46.0946 66.1668 43.3331C66.1668 40.5717 65.0475 38.3331 63.6668 38.3331C62.286 38.3331 61.1667 40.5717 61.1667 43.3331C61.1667 46.0946 62.286 48.3331 63.6668 48.3331Z" fill="#12141A"/>
<path d="M70.3335 48.3331C71.7142 48.3331 72.8335 46.0945 72.8335 43.3331C72.8335 40.5716 71.7142 38.3331 70.3335 38.3331C68.9528 38.3331 67.8335 40.5716 67.8335 43.3331C67.8335 46.0945 68.9528 48.3331 70.3335 48.3331Z" fill="#12141A"/>
<path d="M50.9719 52.278C46.3065 52.278 42.5109 56.0737 42.5109 60.7391C42.5109 65.4044 46.3065 69.2001 50.9719 69.2001C55.6373 69.2001 59.433 65.4044 59.433 60.7391C59.433 56.0737 55.6373 52.278 50.9719 52.278Z" fill="#FFE100"/>
<path d="M50.9869 49.7401C44.9202 49.7401 39.9869 54.6755 39.9869 60.74C39.9869 66.8046 44.9224 71.7401 50.9869 71.7401C57.0515 71.7401 61.9869 66.8046 61.9869 60.74C61.9869 54.6755 57.0515 49.7401 50.9869 49.7401ZM50.9869 69.2032C46.3216 69.2032 42.5259 65.4075 42.5259 60.7422C42.5259 56.0768 46.3216 52.2811 50.9869 52.2811C55.6523 52.2811 59.448 56.0768 59.448 60.7422C59.448 65.4075 55.6523 69.2032 50.9869 69.2032Z" fill="white"/>
<path d="M95.6627 29.9998C89.5972 29.9998 84.6627 34.9348 84.6627 41.0009C84.6627 47.067 89.5972 51.9998 95.6627 51.9998C101.728 51.9998 106.663 47.0649 106.663 41.0009C106.663 34.9369 101.728 29.9998 95.6627 29.9998ZM95.6627 49.4611C90.9983 49.4611 87.2033 45.6658 87.2033 41.0009C87.2033 36.3359 90.9983 32.5407 95.6627 32.5407C100.327 32.5407 104.122 36.3359 104.122 41.0009C104.122 45.6658 100.327 49.4611 95.6627 49.4611Z" fill="white"/>
<path d="M95.6524 32.5415C90.9879 32.5415 87.193 36.3368 87.193 41.0017C87.193 45.6667 90.9879 49.462 95.6524 49.462C100.317 49.462 104.112 45.6667 104.112 41.0017C104.112 36.3368 100.317 32.5415 95.6524 32.5415Z" fill="#FFE100"/>
</g>
<defs>
<clipPath id="clip0_9523_16974">
<rect width="134" height="100" fill="white"/>
</clipPath>
</defs>
</svg>
