<svg width="134" height="100" viewBox="0 0 134 100" fill="none" xmlns="http://www.w3.org/2000/svg">
<g clip-path="url(#clip0_9523_16963)">
<rect width="134" height="100" fill="white"/>
<path d="M104.5 25L29.4998 25L29.4998 100H104.5V25Z" fill="#C4C4C6"/>
<path d="M99.2152 29.9998C93.1491 29.9998 88.2163 34.9352 88.2163 40.9998C88.2163 47.0644 93.1513 51.9998 99.2152 51.9998C105.279 51.9998 110.216 47.0644 110.216 40.9998C110.216 34.9352 105.281 29.9998 99.2152 29.9998ZM99.2152 49.463C94.5503 49.463 90.755 45.6673 90.755 41.0019C90.755 36.3366 94.5503 32.5409 99.2152 32.5409C103.88 32.5409 107.675 36.3366 107.675 41.0019C107.675 45.6673 103.88 49.463 99.2152 49.463Z" fill="white"/>
<path d="M99.2117 32.5391C94.5468 32.5391 90.7515 36.3347 90.7515 41.0001C90.7515 45.6655 94.5468 49.4612 99.2117 49.4612C103.877 49.4612 107.672 45.6655 107.672 41.0001C107.672 36.3347 103.877 32.5391 99.2117 32.5391Z" fill="#C4C4C6"/>
<path d="M34.3341 29.9998C28.268 29.9998 23.333 34.9348 23.333 41.0009C23.333 47.067 28.268 51.9998 34.3341 51.9998C40.4002 51.9998 45.333 47.0649 45.333 41.0009C45.333 34.9369 40.3981 29.9998 34.3341 29.9998ZM34.3341 49.4611C29.6692 49.4611 25.8739 45.6658 25.8739 41.0009C25.8739 36.3359 29.6692 32.5407 34.3341 32.5407C38.999 32.5407 42.7943 36.3359 42.7943 41.0009C42.7943 45.6658 38.999 49.4611 34.3341 49.4611Z" fill="white"/>
<path d="M34.3289 32.5398C29.664 32.5398 25.8687 36.3351 25.8687 41C25.8687 45.6649 29.664 49.4603 34.3289 49.4603C38.9938 49.4603 42.7891 45.6649 42.7891 41C42.7891 36.3351 38.9938 32.5398 34.3289 32.5398Z" fill="#C4C4C6"/>
<path d="M58.6669 40.0001L75.3335 46.6668" stroke="#12141A" stroke-width="2.82738" stroke-linecap="round"/>
<path d="M75.3334 40.0001L58.6668 46.6667" stroke="#12141A" stroke-width="2.82738" stroke-linecap="round"/>
</g>
<defs>
<clipPath id="clip0_9523_16963">
<rect width="134" height="100" fill="white"/>
</clipPath>
</defs>
</svg>
