<svg width="134" height="100" viewBox="0 0 134 100" fill="none" xmlns="http://www.w3.org/2000/svg">
<g clip-path="url(#clip0_9523_16976)">
<rect width="134" height="100" fill="white"/>
<path d="M102.833 25L27.8334 25L27.8334 100H102.833V25Z" fill="#C4C4C6"/>
<path d="M63.6666 60.8331C65.0473 60.8331 66.1666 58.5946 66.1666 55.8331C66.1666 53.0717 65.0473 50.8331 63.6666 50.8331C62.2859 50.8331 61.1666 53.0717 61.1666 55.8331C61.1666 58.5946 62.2859 60.8331 63.6666 60.8331Z" fill="#12141A"/>
<path d="M70.3337 60.8331C71.7145 60.8331 72.8337 58.5945 72.8337 55.8331C72.8337 53.0716 71.7145 50.8331 70.3337 50.8331C68.953 50.8331 67.8337 53.0716 67.8337 55.8331C67.8337 58.5945 68.953 60.8331 70.3337 60.8331Z" fill="#12141A"/>
<path d="M79.6059 68.6843C73.5398 68.6843 68.6069 73.6197 68.6069 79.6843C68.6069 85.7488 73.5419 90.6843 79.6059 90.6843C85.6699 90.6843 90.6069 85.7488 90.6069 79.6843C90.6069 73.6197 85.672 68.6843 79.6059 68.6843ZM79.6059 88.1474C74.9409 88.1474 71.1456 84.3518 71.1456 79.6864C71.1456 75.021 74.9409 71.2253 79.6059 71.2253C84.2708 71.2253 88.0661 75.021 88.0661 79.6864C88.0661 84.3518 84.2708 88.1474 79.6059 88.1474Z" fill="white"/>
<path d="M79.6028 71.2234C74.9379 71.2234 71.1426 75.0191 71.1426 79.6845C71.1426 84.3499 74.9379 88.1455 79.6028 88.1455C84.2677 88.1455 88.0631 84.3499 88.0631 79.6845C88.0631 75.0191 84.2677 71.2234 79.6028 71.2234Z" fill="#C4C4C6"/>
<path d="M28.0011 56.6667C21.935 56.6667 17 61.6016 17 67.6677C17 73.7339 21.935 78.6667 28.0011 78.6667C34.0672 78.6667 39 73.7317 39 67.6677C39 61.6038 34.0651 56.6667 28.0011 56.6667ZM28.0011 76.128C23.3362 76.128 19.5408 72.3327 19.5408 67.6677C19.5408 63.0028 23.3362 59.2075 28.0011 59.2075C32.666 59.2075 36.4613 63.0028 36.4613 67.6677C36.4613 72.3327 32.666 76.128 28.0011 76.128Z" fill="white"/>
<path d="M27.9959 59.2069C23.331 59.2069 19.5356 63.0022 19.5356 67.6671C19.5356 72.3321 23.331 76.1274 27.9959 76.1274C32.6608 76.1274 36.4561 72.3321 36.4561 67.6671C36.4561 63.0022 32.6608 59.2069 27.9959 59.2069Z" fill="#C4C4C6"/>
</g>
<defs>
<clipPath id="clip0_9523_16976">
<rect width="134" height="100" fill="white"/>
</clipPath>
</defs>
</svg>
