<svg width="64" height="73" viewBox="0 0 64 73" fill="none" xmlns="http://www.w3.org/2000/svg">
<g opacity="0.7">
<rect width="63.4613" height="72.4715" fill="white"/>
<path d="M0 15.4715L0 72.4715H57.0014V15.4715L0 15.4715ZM55.0398 70.51H1.96305L1.96305 17.4345L55.0398 17.4345V70.51Z" fill="white"/>
<path d="M55.042 17.4341L1.96521 17.4341L1.96521 70.5096H55.042V17.4341Z" fill="#D9E8FF"/>
<path d="M25.9295 32.5066C26.8211 32.5066 27.5439 30.945 27.5439 29.0187C27.5439 27.0923 26.8211 25.5307 25.9295 25.5307C25.0379 25.5307 24.3151 27.0923 24.3151 29.0187C24.3151 30.945 25.0379 32.5066 25.9295 32.5066Z" fill="#66A3FF"/>
<path d="M30.8853 32.5065C31.7769 32.5065 32.4997 30.9449 32.4997 29.0185C32.4997 27.0922 31.7769 25.5306 30.8853 25.5306C29.9937 25.5306 29.2709 27.0922 29.2709 29.0185C29.2709 30.9449 29.9937 32.5065 30.8853 32.5065Z" fill="#66A3FF"/>
<path d="M55.6179 21.3384C51.2931 21.3384 47.7762 24.8567 47.7762 29.1798C47.7762 33.503 51.2946 37.0213 55.6179 37.0213C59.9411 37.0213 63.461 33.503 63.461 29.1798C63.461 24.8567 59.9426 21.3384 55.6179 21.3384ZM55.6179 35.2129C52.292 35.2129 49.5862 32.5071 49.5862 29.1813C49.5862 25.8556 52.292 23.1498 55.6179 23.1498C58.9437 23.1498 61.6495 25.8556 61.6495 29.1813C61.6495 32.5071 58.9437 35.2129 55.6179 35.2129Z" fill="white"/>
<path d="M55.6152 23.1481C52.2893 23.1481 49.5835 25.8539 49.5835 29.1796C49.5835 32.5054 52.2893 35.2112 55.6152 35.2112C58.941 35.2112 61.6468 32.5054 61.6468 29.1796C61.6468 25.8539 58.941 23.1481 55.6152 23.1481Z" fill="#D9E8FF"/>
<path d="M16.2151 37.2655C11.8903 37.2655 8.37195 40.7838 8.37195 45.1084C8.37195 49.4331 11.8903 52.9499 16.2151 52.9499C20.5399 52.9499 24.0567 49.4316 24.0567 45.1084C24.0567 40.7853 20.5384 37.2655 16.2151 37.2655ZM16.2151 51.14C12.8893 51.14 10.1834 48.4342 10.1834 45.1084C10.1834 41.7827 12.8893 39.0769 16.2151 39.0769C19.5409 39.0769 22.2467 41.7827 22.2467 45.1084C22.2467 48.4342 19.5409 51.14 16.2151 51.14Z" fill="white"/>
<path d="M16.2109 39.0764C12.885 39.0764 10.1792 41.7821 10.1792 45.1079C10.1792 48.4336 12.885 51.1394 16.2109 51.1394C19.5367 51.1394 22.2425 48.4336 22.2425 45.1079C22.2425 41.7821 19.5367 39.0764 16.2109 39.0764Z" fill="#D9E8FF"/>
<path d="M23.4484 3.75794C23.4484 2.73642 23.4484 2.22565 23.6467 1.83548C23.8212 1.49228 24.0996 1.21324 24.4421 1.03837C24.8314 0.839569 25.341 0.839569 26.3603 0.839569H31.4562C32.4754 0.839569 32.9851 0.839569 33.3744 1.03837C33.7168 1.21324 33.9952 1.49228 34.1697 1.83548C34.3681 2.22565 34.3681 2.73642 34.3681 3.75794V7.22351C34.3681 8.07338 34.3681 8.49832 34.2295 8.83351C34.0448 9.28044 33.6905 9.63552 33.2446 9.82065C32.9101 9.95949 32.4861 9.95949 31.6381 9.95949C31.3418 9.95949 31.1936 9.95949 31.0561 9.99202C30.8727 10.0354 30.702 10.1209 30.5574 10.2419C30.4489 10.3326 30.36 10.4514 30.1822 10.6891L29.2965 11.8726C29.1648 12.0487 29.0989 12.1367 29.0182 12.1681C28.9474 12.1957 28.869 12.1957 28.7983 12.1681C28.7175 12.1367 28.6517 12.0487 28.52 11.8726L27.6343 10.6891C27.4564 10.4514 27.3675 10.3326 27.259 10.2419C27.1144 10.1209 26.9437 10.0354 26.7604 9.99202C26.6229 9.95949 26.4747 9.95949 26.1783 9.95949C25.3303 9.95949 24.9063 9.95949 24.5719 9.82065C24.1259 9.63552 23.7716 9.28044 23.5869 8.83351C23.4484 8.49832 23.4484 8.07338 23.4484 7.22351V3.75794Z" stroke="#66A3FF" stroke-width="1.0657" stroke-linecap="round" stroke-linejoin="round"/>
<path d="M31.0404 3.75867L28.2307 6.67783L26.9536 5.35094" stroke="#66A3FF" stroke-width="1.06841" stroke-linecap="round" stroke-linejoin="round"/>
</g>
</svg>
