<svg width="134" height="100" viewBox="0 0 134 100" fill="none" xmlns="http://www.w3.org/2000/svg">
<g clip-path="url(#clip0_9523_16967)">
<rect width="134" height="100" fill="white"/>
<path d="M60 9.6C60 8.33988 60 7.70982 60.2543 7.22852C60.478 6.80516 60.835 6.46095 61.274 6.24524C61.7731 6 62.4265 6 63.7333 6H70.2667C71.5735 6 72.2269 6 72.726 6.24524C73.165 6.46095 73.522 6.80516 73.7457 7.22852C74 7.70982 74 8.33988 74 9.6V13.875C74 14.9234 74 15.4475 73.8224 15.861C73.5856 16.4123 73.1313 16.8504 72.5596 17.0787C72.1308 17.25 71.5872 17.25 70.5 17.25C70.12 17.25 69.93 17.25 69.7537 17.2901C69.5187 17.3436 69.2998 17.4492 69.1144 17.5984C68.9753 17.7103 68.8613 17.8568 68.6333 18.15L67.4978 19.61C67.3289 19.8271 67.2445 19.9357 67.141 19.9745C67.0503 20.0085 66.9497 20.0085 66.859 19.9745C66.7555 19.9357 66.6711 19.8271 66.5022 19.61L65.3667 18.15C65.1387 17.8568 65.0247 17.7103 64.8856 17.5984C64.7002 17.4492 64.4813 17.3436 64.2463 17.2901C64.07 17.25 63.88 17.25 63.5 17.25C62.4128 17.25 61.8692 17.25 61.4404 17.0787C60.8687 16.8504 60.4144 16.4123 60.1776 15.861C60 15.4475 60 14.9234 60 13.875V9.6Z" stroke="#1AB415" stroke-width="1.48015" stroke-linecap="round" stroke-linejoin="round"/>
<path d="M69.3015 9.81183L66.1896 12.9237L64.7751 11.5092" stroke="#1AB415" stroke-width="1.48391" stroke-linecap="round" stroke-linejoin="round"/>
<path d="M104.5 25L29.5 25L29.5 100H104.5V25Z" fill="#1AB415"/>
<path d="M46.7994 51.7654C40.7333 51.7654 35.7983 56.7003 35.7983 62.7664C35.7983 68.8325 40.7333 73.7654 46.7994 73.7654C52.8655 73.7654 57.7983 68.8304 57.7983 62.7664C57.7983 56.7025 52.8634 51.7654 46.7994 51.7654ZM46.7994 71.2267C42.1345 71.2267 38.3392 67.4314 38.3392 62.7664C38.3392 58.1015 42.1345 54.3062 46.7994 54.3062C51.4643 54.3062 55.2596 58.1015 55.2596 62.7664C55.2596 67.4314 51.4643 71.2267 46.7994 71.2267Z" fill="white"/>
<path d="M46.7932 54.3053C42.1283 54.3053 38.333 58.1006 38.333 62.7655C38.333 67.4304 42.1283 71.2258 46.7932 71.2258C51.4582 71.2258 55.2534 67.4304 55.2534 62.7655C55.2534 58.1006 51.4582 54.3053 46.7932 54.3053Z" fill="#1AB415"/>
<path d="M102.165 29.9998C96.0993 29.9998 91.1665 34.9352 91.1665 40.9997C91.1665 47.0643 96.1015 51.9998 102.165 51.9998C108.229 51.9998 113.167 47.0643 113.167 40.9997C113.167 34.9352 108.232 29.9998 102.165 29.9998ZM102.165 49.4629C97.5005 49.4629 93.7052 45.6673 93.7052 41.0019C93.7052 36.3365 97.5005 32.5408 102.165 32.5408C106.83 32.5408 110.626 36.3365 110.626 41.0019C110.626 45.6673 106.83 49.4629 102.165 49.4629Z" fill="white"/>
<path d="M102.161 32.5389C97.4965 32.5389 93.7012 36.3346 93.7012 41C93.7012 45.6654 97.4965 49.461 102.161 49.461C106.826 49.461 110.622 45.6654 110.622 41C110.622 36.3346 106.826 32.5389 102.161 32.5389Z" fill="#1AB415"/>
<path d="M63.667 48.333C65.0477 48.333 66.167 46.0944 66.167 43.333C66.167 40.5715 65.0477 38.3329 63.667 38.3329C62.2863 38.3329 61.167 40.5715 61.167 43.333C61.167 46.0944 62.2863 48.333 63.667 48.333Z" fill="#12141A"/>
<path d="M70.3336 48.3329C71.7143 48.3329 72.8336 46.0943 72.8336 43.3329C72.8336 40.5715 71.7143 38.3329 70.3336 38.3329C68.9529 38.3329 67.8336 40.5715 67.8336 43.3329C67.8336 46.0943 68.9529 48.3329 70.3336 48.3329Z" fill="#12141A"/>
</g>
<defs>
<clipPath id="clip0_9523_16967">
<rect width="134" height="100" fill="white"/>
</clipPath>
</defs>
</svg>
