<svg width="25" height="24" viewBox="0 0 25 24" fill="none" xmlns="http://www.w3.org/2000/svg">
<path d="M8.50093 0.703398H15.6027L8.23036 22.547C8.075 23.0072 7.64341 23.3172 7.15765 23.3172H1.63068C1.26653 23.3172 0.924653 23.1419 0.712249 22.8461C0.499845 22.5503 0.442921 22.1703 0.559326 21.8253L7.42794 1.47364C7.58325 1.01319 8.015 0.703125 8.50093 0.703125V0.703398Z" fill="url(#paint0_linear_6232_185052)"/>
<path d="M18.8207 15.3546H7.55893C7.34466 15.3544 7.15208 15.4853 7.07347 15.6846C6.99487 15.8839 7.04625 16.111 7.20299 16.2571L14.4395 23.0115C14.6502 23.208 14.9277 23.3172 15.2158 23.3172H21.5926L18.8207 15.3546Z" fill="#0078D4"/>
<path d="M8.50144 0.703377C8.00972 0.701499 7.57394 1.01969 7.42599 1.48863L0.568289 21.8067C0.444011 22.1531 0.49635 22.5384 0.708544 22.8391C0.920738 23.1398 1.26616 23.3182 1.63419 23.3172H7.3038C7.7337 23.2404 8.08902 22.9382 8.23387 22.5262L9.60143 18.4958L14.4863 23.0521C14.6911 23.2214 14.9478 23.315 15.2135 23.3172H21.5666L18.7802 15.3546L10.6575 15.3565L15.6289 0.703377H8.50144Z" fill="url(#paint1_linear_6232_185052)"/>
<path d="M17.5722 1.47252C17.4171 1.01281 16.986 0.703369 16.5008 0.703369H8.58594C9.07107 0.703369 9.50213 1.01287 9.65729 1.47252L16.5262 21.825C16.6427 22.1701 16.5858 22.5502 16.3734 22.8461C16.161 23.142 15.8191 23.3175 15.4548 23.3175H23.37C23.7342 23.3175 24.076 23.1418 24.2883 22.846C24.5007 22.5501 24.5575 22.17 24.4411 21.825L17.5722 1.47252Z" fill="url(#paint2_linear_6232_185052)"/>
<defs>
<linearGradient id="paint0_linear_6232_185052" x1="9.40635" y1="2.37916" x2="2.45099" y2="22.9271" gradientUnits="userSpaceOnUse">
<stop stop-color="#114A8B"/>
<stop offset="1" stop-color="#0669BC"/>
</linearGradient>
<linearGradient id="paint1_linear_6232_185052" x1="13.0815" y1="12.5333" x2="11.5781" y2="13.0416" gradientUnits="userSpaceOnUse">
<stop stop-opacity="0.3"/>
<stop offset="0.071" stop-opacity="0.2"/>
<stop offset="0.321" stop-opacity="0.1"/>
<stop offset="0.623" stop-opacity="0.05"/>
<stop offset="1" stop-opacity="0"/>
</linearGradient>
<linearGradient id="paint2_linear_6232_185052" x1="14.5187" y1="1.74363" x2="22.1101" y2="21.9684" gradientUnits="userSpaceOnUse">
<stop stop-color="#3CCBF4"/>
<stop offset="1" stop-color="#2892DF"/>
</linearGradient>
</defs>
</svg>
