<svg width="24" height="24" viewBox="0 0 24 24" fill="none" xmlns="http://www.w3.org/2000/svg">
<path d="M5 8.06667C5 6.29317 5 5.40642 5.32698 4.72903C5.6146 4.13318 6.07354 3.64875 6.63803 3.34515C7.27976 3 8.11984 3 9.8 3H14.2C15.8802 3 16.7202 3 17.362 3.34515C17.9265 3.64875 18.3854 4.13318 18.673 4.72903C19 5.40642 19 6.29317 19 8.06667V19.1664C19 20.0935 19 20.5571 18.8056 20.8214C18.6361 21.0519 18.3761 21.1987 18.0912 21.2248C17.7645 21.2548 17.3675 21.0153 16.5736 20.5365L12 17.7778L7.42639 20.5365C6.63249 21.0153 6.23555 21.2548 5.90881 21.2248C5.62393 21.1987 5.36385 21.0519 5.19437 20.8214C5 20.5571 5 20.0935 5 19.1664V8.06667Z" stroke="#C4C4C6" stroke-width="1.5" stroke-linecap="round" stroke-linejoin="round"/>
</svg>
