<svg width="24" height="24" viewBox="0 0 24 24" fill="none" xmlns="http://www.w3.org/2000/svg">
<path d="M15.6 7C15.6 6.07003 15.6 5.60504 15.508 5.22354C15.2583 4.18827 14.5306 3.37962 13.5988 3.10222C13.2555 3 12.837 3 12 3C11.163 3 10.7445 3 10.4012 3.10222C9.46944 3.37962 8.74166 4.18827 8.492 5.22354C8.4 5.60504 8.4 6.07003 8.4 7M5.88 21H18.12C19.1281 21 19.6321 21 20.0172 20.782C20.3559 20.5903 20.6312 20.2843 20.8038 19.908C21 19.4802 21 18.9201 21 17.8V10.2C21 9.07989 21 8.51984 20.8038 8.09202C20.6312 7.71569 20.3559 7.40973 20.0172 7.21799C19.6321 7 19.1281 7 18.12 7H5.88C4.87191 7 4.36786 7 3.98282 7.21799C3.64413 7.40973 3.36876 7.71569 3.19619 8.09202C3 8.51984 3 9.07989 3 10.2V17.8C3 18.9201 3 19.4802 3.19619 19.908C3.36876 20.2843 3.64413 20.5903 3.98282 20.782C4.36786 21 4.87191 21 5.88 21Z" stroke="#949598" stroke-width="1.5" stroke-linecap="round" stroke-linejoin="round"/>
</svg>
