<svg width="24" height="24" viewBox="0 0 24 24" fill="none" xmlns="http://www.w3.org/2000/svg">
<path d="M12.9 7.55556L11.896 5.57237C11.6071 5.0016 11.4626 4.7162 11.247 4.5077C11.0564 4.32332 10.8267 4.18309 10.5745 4.09716C10.2892 4 9.96619 4 9.32006 4H5.88C4.87191 4 4.36786 4 3.98282 4.19377C3.64413 4.36421 3.36876 4.63617 3.19619 4.97068C3 5.35097 3 5.8488 3 6.84444V7.55556M3 7.55556H16.68C18.1921 7.55556 18.9482 7.55556 19.5258 7.8462C20.0338 8.10187 20.4469 8.50982 20.7057 9.01158C21 9.58201 21 10.3287 21 11.8222V15.7333C21 17.2268 21 17.9735 20.7057 18.544C20.4469 19.0457 20.0338 19.4537 19.5258 19.7094C18.9482 20 18.1921 20 16.68 20H7.32C5.80786 20 5.05179 20 4.47423 19.7094C3.96619 19.4537 3.55314 19.0457 3.29428 18.544C3 17.9735 3 17.2268 3 15.7333V7.55556Z" stroke="#949598" stroke-width="1.5" stroke-linecap="round" stroke-linejoin="round"/>
</svg>
