<svg width="32" height="32" viewBox="0 0 32 32" fill="none" xmlns="http://www.w3.org/2000/svg">
<g clip-path="url(#clip0_1128_14282)">
<path d="M15.2577 1.79639C7.42535 1.79639 1.05273 8.169 1.05273 16.0013C1.05273 23.8336 7.42535 30.2062 15.2577 30.2062C23.0899 30.2062 29.4626 23.8336 29.4626 16.0013C29.4626 8.169 23.0899 1.79639 15.2577 1.79639Z" fill="#FFE100"/>
<path d="M12.6063 12.2893C13.0836 12.2893 13.4704 11.4534 13.4704 10.4223C13.4704 9.39118 13.0836 8.5553 12.6063 8.5553C12.1291 8.5553 11.7422 9.39118 11.7422 10.4223C11.7422 11.4534 12.1291 12.2893 12.6063 12.2893Z" fill="#12141A"/>
<path d="M15.2567 12.2893C15.7339 12.2893 16.1208 11.4534 16.1208 10.4223C16.1208 9.39118 15.7339 8.5553 15.2567 8.5553C14.7795 8.5553 14.3926 9.39118 14.3926 10.4223C14.3926 11.4534 14.7795 12.2893 15.2567 12.2893Z" fill="#12141A"/>
<path d="M7.04295 17.348C5.26277 17.348 3.81445 18.7963 3.81445 20.5765C3.81445 22.3567 5.26277 23.805 7.04295 23.805C8.82313 23.805 10.2714 22.3567 10.2714 20.5765C10.2714 18.7963 8.82313 17.348 7.04295 17.348Z" fill="#FFE100"/>
<path d="M26.043 5.21262C23.1618 2.33139 19.3304 0.744324 15.2557 0.744324C11.1809 0.744324 7.35034 2.33139 4.4683 5.21262C1.58707 8.09384 0 11.9252 0 16C0 20.0748 1.58707 23.9061 4.4683 26.7873C7.34952 29.6686 11.1809 31.2556 15.2557 31.2556C19.3304 31.2556 23.161 29.6686 26.043 26.7873C28.9251 23.9061 30.5113 20.0748 30.5113 16C30.5113 11.9252 28.9242 8.09465 26.043 5.21262ZM15.2565 30.2049C7.42417 30.2049 1.05155 23.8323 1.05155 16C1.05155 8.16768 7.42417 1.79506 15.2565 1.79506C23.0888 1.79506 29.4614 8.16768 29.4614 16C29.4614 23.8323 23.0888 30.2049 15.2565 30.2049Z" fill="white"/>
<path d="M7.043 16.3793C4.72811 16.3793 2.8457 18.2625 2.8457 20.5766C2.8457 22.8906 4.72893 24.7739 7.043 24.7739C9.35706 24.7739 11.2403 22.8906 11.2403 20.5766C11.2403 18.2625 9.35706 16.3793 7.043 16.3793ZM7.043 23.8059C5.26282 23.8059 3.8145 22.3576 3.8145 20.5774C3.8145 18.7972 5.26282 17.3489 7.043 17.3489C8.82317 17.3489 10.2715 18.7972 10.2715 20.5774C10.2715 22.3576 8.82317 23.8059 7.043 23.8059Z" fill="white"/>
<path d="M27.8016 4.3692C25.4867 4.3692 23.6035 6.25242 23.6035 8.56731C23.6035 10.8822 25.4867 12.7646 27.8016 12.7646C30.1165 12.7646 31.9997 10.8814 31.9997 8.56731C31.9997 6.25324 30.1165 4.3692 27.8016 4.3692ZM27.8016 11.7958C26.0214 11.7958 24.5731 10.3475 24.5731 8.56731C24.5731 6.78713 26.0214 5.33881 27.8016 5.33881C29.5818 5.33881 31.0301 6.78713 31.0301 8.56731C31.0301 10.3475 29.5818 11.7958 27.8016 11.7958Z" fill="white"/>
<path d="M27.8008 5.33795C26.0206 5.33795 24.5723 6.78627 24.5723 8.56645C24.5723 10.3466 26.0206 11.795 27.8008 11.795C29.5809 11.795 31.0293 10.3466 31.0293 8.56645C31.0293 6.78627 29.5809 5.33795 27.8008 5.33795Z" fill="#FFE100"/>
</g>
<defs>
<clipPath id="clip0_1128_14282">
<rect width="32" height="32" fill="white"/>
</clipPath>
</defs>
</svg>
