<svg width="24" height="24" viewBox="0 0 24 24" fill="none" xmlns="http://www.w3.org/2000/svg">
<path d="M15.0048 8.30113C14.632 7.92834 14.4457 7.74194 14.3758 7.527C14.3144 7.33794 14.3144 7.13428 14.3758 6.94521C14.4457 6.73027 14.632 6.54388 15.0048 6.17108L17.6768 3.49916C16.9677 3.1785 16.1806 3 15.3519 3C12.2325 3 9.70371 5.52876 9.70371 8.64815C9.70371 9.11039 9.75924 9.55966 9.86399 9.98966C9.97616 10.4501 10.0322 10.6804 10.0223 10.8258C10.0119 10.9781 9.98916 11.0591 9.91893 11.1946C9.85186 11.3241 9.72334 11.4526 9.46632 11.7096L3.58488 17.591C2.80504 18.3709 2.80504 19.6353 3.58488 20.4151C4.36473 21.195 5.62911 21.195 6.40896 20.4151L12.2904 14.5337C12.5474 14.2767 12.6759 14.1481 12.8054 14.0811C12.9409 14.0108 13.0219 13.9881 13.1742 13.9777C13.3196 13.9678 13.5499 14.0238 14.0103 14.136C14.4403 14.2408 14.8896 14.2963 15.3519 14.2963C18.4712 14.2963 21 11.7675 21 8.64815C21 7.81937 20.8215 7.03228 20.5008 6.32323L17.8289 8.99516C17.4561 9.36795 17.2697 9.55435 17.0548 9.62419C16.8657 9.68562 16.6621 9.68562 16.473 9.62419C16.2581 9.55435 16.0717 9.36795 15.6989 8.99516L15.0048 8.30113Z" stroke="#949598" stroke-width="1.5" stroke-linecap="round" stroke-linejoin="round"/>
</svg>
