<svg width="24" height="24" viewBox="0 0 24 24" fill="none" xmlns="http://www.w3.org/2000/svg">
<g clip-path="url(#clip0_4486_159823)">
<path d="M12 12L7.72711 8.79533C7.09226 8.3192 6.77484 8.08113 6.54664 7.78929C6.34444 7.53072 6.19429 7.24219 6.10301 6.93685C6 6.59225 6 6.22037 6 5.47662V3M12 12L16.2729 8.79534C16.9077 8.3192 17.2252 8.08113 17.4534 7.78929C17.6556 7.53072 17.8057 7.24219 17.897 6.93685C18 6.59225 18 6.22037 18 5.47662V3M12 12L7.72711 15.2047C7.09226 15.6808 6.77484 15.9189 6.54664 16.2107C6.34444 16.4693 6.19429 16.7578 6.10301 17.0631C6 17.4078 6 17.7796 6 18.5234V21M12 12L16.2729 15.2047C16.9077 15.6808 17.2252 15.9189 17.4534 16.2107C17.6556 16.4693 17.8057 16.7578 17.897 17.0631C18 17.4078 18 17.7796 18 18.5234V21M4 3H20M4 21H20" stroke="#949598" stroke-width="1.5" stroke-linecap="round" stroke-linejoin="round"/>
</g>
<defs>
<clipPath id="clip0_4486_159823">
<rect width="24" height="24" fill="white"/>
</clipPath>
</defs>
</svg>
