<svg width="158" height="158" viewBox="0 0 158 158" fill="none" xmlns="http://www.w3.org/2000/svg">
<g clip-path="url(#clip0_4500_146387)">
<rect x="6" y="6" width="146" height="146" rx="73" fill="white"/>
<circle cx="79" cy="79" r="73" fill="#0066FF"/>
<mask id="mask0_4500_146387" style="mask-type:alpha" maskUnits="userSpaceOnUse" x="14" y="14" width="130" height="130">
<circle cx="79" cy="79" r="65" fill="#D9D9D9"/>
</mask>
<g mask="url(#mask0_4500_146387)">
<path d="M79.1743 30.9679L1.92773 164.763H156.421L79.1743 30.9679ZM79.1743 40.0205L148.581 160.232H9.77104L79.1781 40.0205H79.1743Z" fill="#0066FF"/>
<path d="M79.1843 40.0282L9.78125 160.244H148.591L79.1843 40.0282Z" fill="white"/>
</g>
<path d="M72.7248 98.5056C74.9545 98.5056 76.762 94.6003 76.762 89.7828C76.762 84.9654 74.9545 81.0601 72.7248 81.0601C70.495 81.0601 68.6875 84.9654 68.6875 89.7828C68.6875 94.6003 70.495 98.5056 72.7248 98.5056Z" fill="#0066FF"/>
<path d="M85.1486 98.5056C87.3783 98.5056 89.1859 94.6003 89.1859 89.7828C89.1859 84.9654 87.3783 81.0601 85.1486 81.0601C82.9189 81.0601 81.1113 84.9654 81.1113 89.7828C81.1113 94.6003 82.9189 98.5056 85.1486 98.5056Z" fill="#0066FF"/>
</g>
<g clip-path="url(#clip1_4500_146387)">
<rect x="113" y="111" width="34" height="34" rx="17" fill="#65666A"/>
<path d="M121 125.669C121 125.357 121 125.202 121.013 125.07C121.138 123.806 122.139 122.805 123.404 122.68C123.535 122.667 123.699 122.667 124.027 122.667C124.154 122.667 124.217 122.667 124.271 122.663C124.956 122.622 125.556 122.189 125.813 121.552C125.833 121.502 125.851 121.446 125.889 121.333C125.926 121.221 125.945 121.165 125.965 121.115C126.221 120.477 126.822 120.045 127.507 120.003C127.561 120 127.62 120 127.739 120H132.039C132.158 120 132.217 120 132.271 120.003C132.956 120.045 133.556 120.477 133.813 121.115C133.833 121.165 133.851 121.221 133.889 121.333C133.926 121.446 133.945 121.502 133.965 121.552C134.221 122.189 134.822 122.622 135.507 122.663C135.561 122.667 135.624 122.667 135.751 122.667C136.079 122.667 136.243 122.667 136.374 122.68C137.639 122.805 138.639 123.806 138.765 125.07C138.778 125.202 138.778 125.357 138.778 125.669V132.622C138.778 134.116 138.778 134.862 138.487 135.433C138.231 135.935 137.824 136.343 137.322 136.598C136.751 136.889 136.005 136.889 134.511 136.889H125.267C123.773 136.889 123.026 136.889 122.456 136.598C121.954 136.343 121.546 135.935 121.291 135.433C121 134.862 121 134.116 121 132.622V125.669Z" stroke="white" stroke-width="2" stroke-linecap="round" stroke-linejoin="round"/>
<path d="M129.889 132.889C131.853 132.889 133.444 131.297 133.444 129.333C133.444 127.37 131.853 125.778 129.889 125.778C127.925 125.778 126.333 127.37 126.333 129.333C126.333 131.297 127.925 132.889 129.889 132.889Z" stroke="white" stroke-width="2" stroke-linecap="round" stroke-linejoin="round"/>
</g>
<defs>
<clipPath id="clip0_4500_146387">
<rect x="6" y="6" width="146" height="146" rx="73" fill="white"/>
</clipPath>
<clipPath id="clip1_4500_146387">
<rect width="34" height="34" fill="white" transform="translate(113 111)"/>
</clipPath>
</defs>
</svg>
