<svg width="40" height="40" viewBox="0 0 40 40" fill="none" xmlns="http://www.w3.org/2000/svg">
<g clip-path="url(#clip0_1362_19294)">
<rect x="3" y="3" width="34" height="34" rx="17" fill="#65666A"/>
<path d="M11 17.6686C11 17.3572 11 17.2016 11.013 17.0704C11.1383 15.8056 12.1389 14.805 13.4037 14.6797C13.5349 14.6667 13.699 14.6667 14.0272 14.6667C14.1536 14.6667 14.2169 14.6667 14.2706 14.6634C14.9561 14.6219 15.5564 14.1892 15.8126 13.552C15.8326 13.5021 15.8514 13.4458 15.8889 13.3333C15.9264 13.2208 15.9451 13.1646 15.9652 13.1147C16.2214 12.4774 16.8217 12.0448 17.5072 12.0033C17.5609 12 17.6202 12 17.7388 12H22.039C22.1576 12 22.2169 12 22.2706 12.0033C22.9561 12.0448 23.5564 12.4774 23.8126 13.1147C23.8326 13.1646 23.8514 13.2208 23.8889 13.3333C23.9264 13.4458 23.9451 13.5021 23.9652 13.552C24.2214 14.1892 24.8217 14.6219 25.5072 14.6634C25.5609 14.6667 25.6241 14.6667 25.7506 14.6667C26.0788 14.6667 26.2429 14.6667 26.374 14.6797C27.6389 14.805 28.6395 15.8056 28.7648 17.0704C28.7778 17.2016 28.7778 17.3572 28.7778 17.6686V24.6222C28.7778 26.1157 28.7778 26.8624 28.4871 27.4329C28.2315 27.9346 27.8235 28.3426 27.3218 28.5982C26.7513 28.8889 26.0046 28.8889 24.5111 28.8889H15.2667C13.7732 28.8889 13.0265 28.8889 12.456 28.5982C11.9543 28.3426 11.5463 27.9346 11.2906 27.4329C11 26.8624 11 26.1157 11 24.6222V17.6686Z" stroke="white" stroke-width="2" stroke-linecap="round" stroke-linejoin="round"/>
<path d="M19.8889 24.8889C21.8526 24.8889 23.4444 23.297 23.4444 21.3333C23.4444 19.3697 21.8526 17.7778 19.8889 17.7778C17.9252 17.7778 16.3333 19.3697 16.3333 21.3333C16.3333 23.297 17.9252 24.8889 19.8889 24.8889Z" stroke="white" stroke-width="2" stroke-linecap="round" stroke-linejoin="round"/>
</g>
<defs>
<clipPath id="clip0_1362_19294">
<rect width="34" height="34" fill="white" transform="translate(3 3)"/>
</clipPath>
</defs>
</svg>
