<svg width="24" height="24" viewBox="0 0 24 24" fill="none" xmlns="http://www.w3.org/2000/svg">
<g clip-path="url(#clip0_5107_99011)">
<mask id="mask0_5107_99011" style="mask-type:luminance" maskUnits="userSpaceOnUse" x="0" y="6" width="24" height="13">
<path d="M0.486328 12.1806C0.486328 15.5559 5.70793 18.2922 12.1489 18.2922C18.5898 18.2922 23.8114 15.5559 23.8114 12.1806C23.8114 8.80538 18.5898 6.06905 12.1489 6.06905C5.70793 6.06905 0.486328 8.80538 0.486328 12.1806Z" fill="white"/>
</mask>
<g mask="url(#mask0_5107_99011)">
<path d="M0.486328 12.1806C0.486328 15.5559 5.70793 18.2922 12.1489 18.2922C18.5898 18.2922 23.8114 15.5559 23.8114 12.1806C23.8114 8.80538 18.5898 6.06905 12.1489 6.06905C5.70793 6.06905 0.486328 8.80538 0.486328 12.1806Z" fill="url(#paint0_radial_5107_99011)"/>
</g>
<mask id="mask1_5107_99011" style="mask-type:luminance" maskUnits="userSpaceOnUse" x="0" y="5" width="25" height="14">
<path d="M0 5.37313H24.2969V18.9882H0V5.37313Z" fill="white"/>
</mask>
<g mask="url(#mask1_5107_99011)">
<path d="M12.1484 17.8385C18.3377 17.8385 23.3553 15.3054 23.3553 12.1806C23.3553 9.05594 18.3377 6.52279 12.1484 6.52279C5.95901 6.52279 0.941406 9.05594 0.941406 12.1806C0.941406 15.3054 5.95901 17.8385 12.1484 17.8385Z" fill="#777BB3"/>
</g>
<mask id="mask2_5107_99011" style="mask-type:luminance" maskUnits="userSpaceOnUse" x="0" y="5" width="25" height="14">
<path d="M0 5.37313H24.2969V18.9882H0V5.37313Z" fill="white"/>
</mask>
<g mask="url(#mask2_5107_99011)">
<path d="M6.8218 12.8822C7.33073 12.8822 7.71066 12.7887 7.95106 12.6043C8.18888 12.4219 8.35314 12.1059 8.43923 11.665C8.51951 11.253 8.48892 10.9652 8.34837 10.81C8.20466 10.6514 7.89395 10.571 7.42488 10.571H6.61157L6.16068 12.8822H6.8218ZM4.16167 15.7291C4.12392 15.7291 4.08806 15.7123 4.06406 15.6832C4.04001 15.6542 4.03027 15.616 4.03748 15.579L5.23242 9.45432C5.24398 9.39511 5.29607 9.35233 5.35665 9.35233H7.93204C8.74143 9.35233 9.34387 9.57126 9.72254 10.0031C10.1032 10.4372 10.2208 11.0441 10.0719 11.8067C10.0114 12.1174 9.90717 12.406 9.76228 12.6644C9.61721 12.923 9.4255 13.1623 9.19235 13.3758C8.91328 13.636 8.59742 13.8247 8.25439 13.9357C7.91681 14.0452 7.48326 14.1008 6.96581 14.1008H5.92298L5.62518 15.6271C5.61362 15.6863 5.56157 15.7291 5.50099 15.7291H4.16167Z" fill="black"/>
<path d="M6.71548 10.697H7.42448C7.99061 10.697 8.18726 10.8208 8.25408 10.8945C8.36493 11.017 8.38585 11.2751 8.31461 11.6411C8.23455 12.0508 8.08615 12.3413 7.87347 12.5044C7.65572 12.6714 7.30173 12.7561 6.8214 12.7561H6.31378L6.71548 10.697ZM7.93164 9.22624H5.35621C5.23506 9.22624 5.13091 9.3118 5.10779 9.43025L3.91286 15.555C3.89843 15.6289 3.91792 15.7053 3.96597 15.7634C4.01405 15.8215 4.08568 15.8552 4.16127 15.8552H5.50055C5.62174 15.8552 5.72589 15.7696 5.74901 15.6511L6.0269 14.2268H6.96541C7.49615 14.2268 7.94294 14.1692 8.29326 14.0555C8.65354 13.9389 8.98501 13.7412 9.27839 13.4679C9.52102 13.2455 9.72088 12.9959 9.87231 12.7259C10.0238 12.4558 10.1326 12.1546 10.1958 11.8307C10.3525 11.028 10.2252 10.3851 9.81743 9.92019C9.41366 9.45971 8.77916 9.22624 7.93164 9.22624ZM6.00674 13.0082H6.8214C7.36138 13.0082 7.76358 12.9069 8.02785 12.7042C8.29217 12.5015 8.47043 12.1632 8.56306 11.6891C8.65169 11.2339 8.61132 10.9127 8.44196 10.7256C8.27238 10.5384 7.93328 10.4449 7.42448 10.4449H6.50685L6.00674 13.0082ZM7.93164 9.47837C8.7064 9.47837 9.27159 9.68091 9.62685 10.086C9.98207 10.4912 10.089 11.0567 9.94731 11.7827C9.88897 12.0817 9.79031 12.3552 9.6514 12.6029C9.51233 12.8508 9.33073 13.0774 9.10632 13.283C8.83889 13.5323 8.5418 13.71 8.21489 13.8158C7.88798 13.9219 7.4716 13.9747 6.96541 13.9747H5.81823L5.50055 15.603H4.16127L5.35621 9.47837H7.93164Z" fill="white"/>
<path d="M13.1425 14.1008C13.1047 14.1008 13.0689 14.084 13.0449 14.0549C13.0208 14.0258 13.0111 13.9876 13.0183 13.9507L13.5469 11.2407C13.5972 10.983 13.5848 10.798 13.512 10.7199C13.4675 10.6721 13.3337 10.592 12.938 10.592H11.9804L11.3158 13.9987C11.3043 14.058 11.2522 14.1008 11.1916 14.1008H9.86288C9.82509 14.1008 9.78927 14.084 9.76523 14.0549C9.74119 14.0258 9.73144 13.9876 9.73866 13.9507L10.9336 7.82597C10.9451 7.76676 10.9972 7.72398 11.0578 7.72398H12.3866C12.4244 7.72398 12.4602 7.74079 12.4842 7.76983C12.5083 7.79891 12.518 7.8371 12.5108 7.87408L12.2224 9.35232H13.2526C14.0374 9.35232 14.5696 9.49015 14.8795 9.77372C15.1955 10.063 15.294 10.5255 15.1726 11.1486L14.6166 13.9987C14.605 14.058 14.553 14.1008 14.4924 14.1008H13.1425Z" fill="black"/>
<path d="M12.3862 7.5979H11.0574C10.9362 7.5979 10.8321 7.68345 10.809 7.80191L9.61403 13.9266C9.5996 14.0005 9.61909 14.077 9.66718 14.1351C9.71527 14.1932 9.78689 14.2268 9.86248 14.2268H11.1912C11.3124 14.2268 11.4166 14.1413 11.4397 14.0228L12.0843 10.718H12.9376C13.3326 10.718 13.4155 10.802 13.4188 10.8057C13.4428 10.8313 13.4743 10.9503 13.4223 11.2167L12.8937 13.9266C12.8793 14.0005 12.8988 14.077 12.9468 14.1351C12.9949 14.1932 13.0666 14.2268 13.1421 14.2268H14.492C14.6131 14.2268 14.7173 14.1413 14.7404 14.0228L15.2963 11.1727C15.4268 10.5037 15.3152 10.0018 14.9648 9.68091C14.6303 9.37495 14.0702 9.22624 13.2522 9.22624H12.3755L12.6346 7.89814C12.649 7.82423 12.6295 7.74775 12.5815 7.68967C12.5334 7.63156 12.4617 7.5979 12.3862 7.5979ZM12.3862 7.85003L12.0685 9.47837H13.2522C13.997 9.47837 14.5107 9.60788 14.7935 9.86656C15.0762 10.1254 15.1609 10.5448 15.0479 11.1246L14.492 13.9747H13.1421L13.6707 11.2648C13.7309 10.9565 13.7088 10.7462 13.6043 10.6341C13.4998 10.522 13.2776 10.4659 12.9376 10.4659H11.8757L11.1912 13.9747H9.86248L11.0574 7.85003H12.3862Z" fill="white"/>
<path d="M17.2749 12.8821C17.7838 12.8821 18.1638 12.7886 18.4042 12.6043C18.642 12.422 18.8063 12.1059 18.8924 11.665C18.9727 11.253 18.9421 10.9652 18.8015 10.81C18.6578 10.6514 18.3471 10.571 17.878 10.571H17.0647L16.6138 12.8821H17.2749ZM14.6148 15.7291C14.5771 15.7291 14.5412 15.7123 14.5172 15.6832C14.4932 15.6542 14.4834 15.6159 14.4906 15.579L15.6855 9.45431C15.6971 9.3951 15.7492 9.35232 15.8098 9.35232H18.3852C19.1946 9.35232 19.797 9.57126 20.1757 10.0031C20.5564 10.4372 20.6739 11.044 20.5251 11.8067C20.4644 12.1174 20.3603 12.406 20.2154 12.6643C20.0703 12.923 19.8786 13.1623 19.6455 13.3758C19.3664 13.636 19.0505 13.8246 18.7075 13.9357C18.3699 14.0452 17.9364 14.1008 17.4189 14.1008H16.3761L16.0784 15.6271C16.0668 15.6863 16.0147 15.7291 15.9541 15.7291H14.6148Z" fill="black"/>
<path d="M17.1686 10.697H17.8776C18.4437 10.697 18.6403 10.8208 18.7072 10.8945C18.8181 11.017 18.839 11.2751 18.7677 11.6411C18.6876 12.0508 18.5392 12.3413 18.3266 12.5044C18.1088 12.6714 17.7548 12.7561 17.2745 12.7561H16.7669L17.1686 10.697ZM18.3847 9.22624H15.8093C15.6882 9.22624 15.584 9.3118 15.5609 9.43025L14.366 15.555C14.3516 15.6289 14.371 15.7053 14.4191 15.7634C14.4672 15.8215 14.5388 15.8552 14.6144 15.8552H15.9537C16.0748 15.8552 16.179 15.7696 16.2021 15.6511L16.48 14.2268H17.4185C17.9492 14.2268 18.396 14.1692 18.7463 14.0555C19.1066 13.9389 19.4382 13.7411 19.7316 13.4678C19.9742 13.2454 20.174 12.9959 20.3254 12.7259C20.4769 12.4558 20.5857 12.1546 20.6488 11.8307C20.8056 11.0279 20.6782 10.3851 20.2705 9.92014C19.8667 9.45971 19.2323 9.22624 18.3847 9.22624ZM16.4599 13.0082H17.2745C17.8145 13.0082 18.2167 12.9069 18.4809 12.7042C18.7453 12.5015 18.9235 12.1632 19.0161 11.6891C19.1048 11.2339 19.0644 10.9127 18.895 10.7256C18.7255 10.5384 18.3864 10.4449 17.8776 10.4449H16.9599L16.4599 13.0082ZM18.3847 9.47837C19.1595 9.47837 19.7247 9.68091 20.0799 10.086C20.4352 10.4912 20.5421 11.0567 20.4004 11.7827C20.3421 12.0817 20.2434 12.3552 20.1045 12.6029C19.9654 12.8508 19.7838 13.0774 19.5594 13.283C19.292 13.5323 18.9949 13.71 18.668 13.8158C18.3411 13.9219 17.9247 13.9747 17.4185 13.9747H16.2713L15.9537 15.603H14.6144L15.8093 9.47837H18.3847Z" fill="white"/>
</g>
</g>
<defs>
<radialGradient id="paint0_radial_5107_99011" cx="0" cy="0" r="1" gradientUnits="userSpaceOnUse" gradientTransform="translate(7.48857 8.2177) scale(15.3146 15.2563)">
<stop stop-color="#AEB2D5"/>
<stop offset="0.3" stop-color="#AEB2D5"/>
<stop offset="0.75" stop-color="#484C89"/>
<stop offset="1" stop-color="#484C89"/>
</radialGradient>
<clipPath id="clip0_5107_99011">
<rect width="24" height="24" fill="white"/>
</clipPath>
</defs>
</svg>
