<svg width="24" height="24" viewBox="0 0 24 24" fill="none" xmlns="http://www.w3.org/2000/svg">
<path d="M6.76328 10.0405C6.76328 10.3358 6.79521 10.5753 6.85108 10.7509C6.91494 10.9265 6.99476 11.1181 7.10651 11.3256C7.14642 11.3895 7.16239 11.4533 7.16239 11.5092C7.16239 11.589 7.1145 11.6688 7.01073 11.7486L6.50785 12.0839C6.43601 12.1318 6.36417 12.1557 6.30032 12.1557C6.22049 12.1557 6.14067 12.1158 6.06085 12.044C5.9491 11.9243 5.85332 11.7965 5.77349 11.6688C5.69367 11.5331 5.61385 11.3815 5.52605 11.1979C4.90344 11.9322 4.12119 12.2994 3.1793 12.2994C2.5088 12.2994 1.97399 12.1078 1.58287 11.7247C1.19174 11.3416 0.992188 10.8307 0.992188 10.1921C0.992188 9.51365 1.23165 8.96288 1.71856 8.54781C2.20547 8.13273 2.85203 7.9252 3.67419 7.9252C3.94558 7.9252 4.22496 7.94915 4.5203 7.98906C4.81564 8.02897 5.11896 8.09282 5.43824 8.16466V7.58197C5.43824 6.97532 5.31053 6.55227 5.06308 6.30482C4.80765 6.05738 4.37662 5.93764 3.76199 5.93764C3.48262 5.93764 3.19526 5.96957 2.89992 6.04141C2.60458 6.11325 2.31722 6.20105 2.03785 6.3128C1.91013 6.36868 1.81435 6.40061 1.75847 6.41657C1.7026 6.43254 1.66269 6.44052 1.63076 6.44052C1.51901 6.44052 1.46313 6.3607 1.46313 6.19307V5.80195C1.46313 5.67423 1.4791 5.57845 1.51901 5.52257C1.55892 5.4667 1.63076 5.41082 1.74251 5.35495C2.02188 5.21127 2.35713 5.09154 2.74826 4.99575C3.13939 4.89198 3.55446 4.84409 3.99347 4.84409C4.94335 4.84409 5.6378 5.05961 6.0848 5.49064C6.52382 5.92168 6.74732 6.57622 6.74732 7.45425V10.0405H6.76328ZM3.52253 11.2538C3.78594 11.2538 4.05733 11.2059 4.34469 11.1101C4.63205 11.0143 4.88748 10.8387 5.10299 10.5992C5.23071 10.4476 5.32649 10.2799 5.37439 10.0884C5.42228 9.89679 5.45421 9.66531 5.45421 9.39391V9.05866C5.22273 9.00279 4.97528 8.9549 4.71985 8.92297C4.46442 8.89104 4.21698 8.87507 3.96953 8.87507C3.43472 8.87507 3.0436 8.97884 2.78019 9.19436C2.51678 9.40988 2.38906 9.7132 2.38906 10.1123C2.38906 10.4875 2.48485 10.7668 2.6844 10.9584C2.87597 11.158 3.15535 11.2538 3.52253 11.2538ZM9.93219 12.1158C9.78852 12.1158 9.69273 12.0919 9.62887 12.036C9.56501 11.9881 9.50914 11.8764 9.46125 11.7247L7.58544 5.5545C7.53755 5.39486 7.5136 5.29109 7.5136 5.23521C7.5136 5.1075 7.57746 5.03566 7.70517 5.03566H8.48742C8.63909 5.03566 8.74285 5.05961 8.79873 5.11548C8.86259 5.16338 8.91048 5.27513 8.95837 5.42679L10.2994 10.711L11.5446 5.42679C11.5845 5.26714 11.6324 5.16338 11.6962 5.11548C11.7601 5.06759 11.8719 5.03566 12.0155 5.03566H12.6541C12.8058 5.03566 12.9095 5.05961 12.9734 5.11548C13.0372 5.16338 13.0931 5.27513 13.1251 5.42679L14.3862 10.7748L15.7671 5.42679C15.815 5.26714 15.8709 5.16338 15.9268 5.11548C15.9906 5.06759 16.0944 5.03566 16.2381 5.03566H16.9804C17.1081 5.03566 17.18 5.09952 17.18 5.23521C17.18 5.27513 17.172 5.31504 17.164 5.36293C17.156 5.41082 17.1401 5.47468 17.1081 5.56248L15.1844 11.7327C15.1366 11.8923 15.0807 11.9961 15.0168 12.044C14.953 12.0919 14.8492 12.1238 14.7135 12.1238H14.027C13.8754 12.1238 13.7716 12.0999 13.7078 12.044C13.6439 11.9881 13.588 11.8843 13.5561 11.7247L12.3189 6.57622L11.0896 11.7167C11.0497 11.8764 11.0018 11.9801 10.9379 12.036C10.8741 12.0919 10.7623 12.1158 10.6187 12.1158H9.93219ZM20.1893 12.3313C19.7742 12.3313 19.3591 12.2835 18.96 12.1877C18.5609 12.0919 18.2496 11.9881 18.0421 11.8684C17.9143 11.7965 17.8265 11.7167 17.7946 11.6449C17.7627 11.573 17.7467 11.4932 17.7467 11.4214V11.0143C17.7467 10.8467 17.8106 10.7668 17.9303 10.7668C17.9782 10.7668 18.0261 10.7748 18.074 10.7908C18.1219 10.8068 18.1937 10.8387 18.2735 10.8706C18.5449 10.9903 18.8403 11.0861 19.1516 11.15C19.4709 11.2138 19.7822 11.2458 20.1015 11.2458C20.6043 11.2458 20.9955 11.158 21.2668 10.9824C21.5382 10.8068 21.6819 10.5513 21.6819 10.2241C21.6819 10.0006 21.6101 9.81697 21.4664 9.66531C21.3227 9.51365 21.0513 9.37795 20.6602 9.25024L19.5028 8.89104C18.9201 8.70745 18.4891 8.43606 18.2256 8.07686C17.9622 7.72564 17.8265 7.33452 17.8265 6.91945C17.8265 6.5842 17.8984 6.28886 18.0421 6.03343C18.1857 5.778 18.3773 5.5545 18.6168 5.37889C18.8562 5.1953 19.1276 5.05961 19.4469 4.96382C19.7662 4.86804 20.1015 4.82812 20.4527 4.82812C20.6283 4.82812 20.8119 4.83611 20.9875 4.86005C21.1711 4.884 21.3387 4.91593 21.5063 4.94786C21.666 4.98777 21.8176 5.02768 21.9613 5.07557C22.105 5.12346 22.2167 5.17136 22.2965 5.21925C22.4083 5.28311 22.4881 5.34696 22.536 5.4188C22.5839 5.48266 22.6078 5.57046 22.6078 5.68221V6.05738C22.6078 6.225 22.544 6.3128 22.4243 6.3128C22.3604 6.3128 22.2566 6.28088 22.1209 6.21702C21.666 6.00948 21.1551 5.90571 20.5884 5.90571C20.1334 5.90571 19.7742 5.97755 19.5267 6.12922C19.2793 6.28088 19.1516 6.51236 19.1516 6.83963C19.1516 7.06313 19.2314 7.2547 19.391 7.40636C19.5507 7.55802 19.846 7.70968 20.2691 7.84538L21.4025 8.20457C21.9773 8.38816 22.3923 8.64359 22.6398 8.97086C22.8872 9.29813 23.007 9.67329 23.007 10.0884C23.007 10.4316 22.9351 10.7429 22.7994 11.0143C22.6557 11.2857 22.4642 11.5251 22.2167 11.7167C21.9693 11.9163 21.6739 12.06 21.3307 12.1637C20.9715 12.2755 20.5963 12.3313 20.1893 12.3313Z" fill="#252F3E"/>
<path d="M21.698 16.2107C19.0719 18.1503 15.2564 19.18 11.9758 19.18C7.37806 19.18 3.23533 17.4798 0.106324 14.6541C-0.141123 14.4306 0.0823771 14.1273 0.377717 14.3029C3.76215 16.2665 7.93681 17.4559 12.2552 17.4559C15.1686 17.4559 18.3695 16.8492 21.3149 15.604C21.7539 15.4045 22.1291 15.8914 21.698 16.2107ZM22.7916 14.9655C22.4563 14.5344 20.5725 14.7579 19.7185 14.8617C19.463 14.8936 19.4231 14.6701 19.6546 14.5025C21.1552 13.4488 23.6217 13.7522 23.9091 14.1034C24.1964 14.4626 23.8293 16.9291 22.4244 18.1104C22.2089 18.294 22.0014 18.1982 22.0971 17.9588C22.4164 17.1685 23.1268 15.3885 22.7916 14.9655Z" fill="#FF9900"/>
</svg>
