<svg width="24" height="24" viewBox="0 0 24 24" fill="none" xmlns="http://www.w3.org/2000/svg">
<g clip-path="url(#clip0_5107_99024)">
<path d="M14.1336 9.54923e-05C13.9627 9.54923e-05 13.7999 0.0407976 13.6535 0.0897165C13.9709 0.301826 14.1417 0.579002 14.2312 0.89707C14.2393 0.937868 14.2474 0.970449 14.2556 1.01125C14.2638 1.05204 14.2718 1.08462 14.2718 1.12542C14.2963 1.67184 14.1254 1.737 14.0116 2.06319C13.8325 2.4791 13.8813 2.92768 14.101 3.28646C14.1172 3.32725 14.1417 3.37627 14.1742 3.42509C13.9383 1.85118 15.2483 1.61471 15.4924 1.12533C15.5087 0.693178 15.1588 0.407785 14.8821 0.212109C14.5974 0.0489189 14.3532 9.54923e-05 14.1336 9.54923e-05ZM16.1027 0.350745C16.0783 0.497502 16.0945 0.4568 16.0865 0.530083C16.0783 0.579002 16.0783 0.644259 16.0701 0.693178C16.0539 0.742097 16.0457 0.791016 16.0295 0.84003L15.9807 0.986787C15.9562 1.03571 15.94 1.0765 15.9155 1.13354L15.8667 1.20692C15.8504 1.22326 15.8423 1.24772 15.826 1.26406C15.7934 1.30486 15.7609 1.35377 15.7365 1.38636C15.6958 1.42715 15.6714 1.46795 15.6226 1.50053V1.50865C15.5819 1.54133 15.5494 1.57391 15.5087 1.60659C15.3784 1.70442 15.232 1.7778 15.0937 1.87564C15.053 1.90832 15.0042 1.93278 14.9717 1.96545C14.931 1.99794 14.8902 2.03061 14.8577 2.06319L14.7438 2.17737C14.7113 2.21817 14.6787 2.25897 14.6543 2.29967C14.6218 2.34047 14.5892 2.38948 14.5648 2.43018C14.5404 2.4791 14.5242 2.51999 14.4997 2.57703C14.4835 2.62595 14.4591 2.66666 14.4509 2.72379C14.4347 2.78083 14.4184 2.82985 14.4102 2.87877C14.4021 2.90323 14.4021 2.93581 14.3939 2.96026C14.3858 2.98472 14.3858 3.00918 14.3777 3.03364C14.3777 3.08256 14.3695 3.1397 14.3695 3.18862C14.3695 3.22942 14.3695 3.262 14.3776 3.30279C14.3776 3.35171 14.3858 3.40063 14.3939 3.45777C14.4021 3.50669 14.4103 3.5556 14.4265 3.60452L14.4753 3.75128C14.4916 3.78396 14.5079 3.81654 14.516 3.84109L13.0921 3.28646C12.8479 3.2212 12.612 3.15604 12.376 3.0989C12.2458 3.06632 12.1156 3.03364 11.9855 3.00918C11.6111 2.93559 11.2338 2.87846 10.8544 2.83797C10.8382 2.83797 10.8382 2.82975 10.8218 2.82975C10.4476 2.78905 10.0814 2.77271 9.71523 2.77271C9.43867 2.77271 9.17012 2.78895 8.90156 2.80529C8.52729 2.82975 8.14491 2.87877 7.77054 2.94393C7.68102 2.96027 7.5834 2.9766 7.49389 2.99294C7.29865 3.03364 7.11961 3.07444 6.93247 3.11524C6.84296 3.1397 6.74534 3.16416 6.65582 3.18862C6.5663 3.22942 6.47679 3.27021 6.38736 3.30279C6.32111 3.33613 6.25321 3.36607 6.18392 3.39251C6.16762 3.40063 6.15952 3.40063 6.15132 3.40875C6.0935 3.43698 6.03653 3.46694 5.98049 3.49856C5.96428 3.50669 5.94798 3.51481 5.93978 3.51481C5.87467 3.54739 5.80155 3.58006 5.74454 3.61265C5.70383 3.62898 5.65493 3.65344 5.62251 3.6779C5.60621 3.69414 5.58181 3.70236 5.5655 3.71058C5.50859 3.74306 5.45158 3.77574 5.40277 3.8002C5.34576 3.83288 5.29695 3.86546 5.25634 3.89001C5.21563 3.9225 5.16673 3.94705 5.13432 3.97963C5.12612 3.98775 5.11801 3.98775 5.11801 3.99588C5.07666 4.02124 5.03843 4.05139 5.00409 4.08569L4.98779 4.10193C4.95528 4.12639 4.92268 4.15094 4.89827 4.1754C4.88207 4.18353 4.87387 4.19165 4.85757 4.19986C4.82506 4.22432 4.79255 4.2569 4.76805 4.28136C4.75994 4.29761 4.75184 4.29761 4.74364 4.30582C4.70303 4.34662 4.67043 4.37108 4.62972 4.41188C4.62162 4.41188 4.62162 4.42 4.61351 4.42812C4.57281 4.4608 4.5403 4.49338 4.49959 4.53417C4.49149 4.5423 4.49149 4.55042 4.48339 4.55042C4.45078 4.58309 4.41818 4.61577 4.39377 4.64835C4.37757 4.66459 4.36127 4.67281 4.35316 4.68915C4.32056 4.72995 4.28805 4.76253 4.24734 4.80332C4.23924 4.81957 4.23114 4.81957 4.22294 4.83591C4.17413 4.88482 4.13342 4.93374 4.07651 4.98266L4.06021 4.999C3.96259 5.10506 3.85677 5.21111 3.74284 5.30073C3.62892 5.39857 3.515 5.4965 3.39297 5.578C3.27095 5.66772 3.14892 5.7411 3.0187 5.81448C2.89667 5.87973 2.76645 5.94499 2.62812 6.00203C2.49571 6.0595 2.35982 6.10855 2.22124 6.14888C1.96089 6.20592 1.69234 6.31198 1.46459 6.32832C1.41569 6.32832 1.35877 6.34456 1.30996 6.34456C1.25295 6.3608 1.20414 6.36902 1.15533 6.38536C1.10652 6.40169 1.05771 6.42615 1.0089 6.4424C0.960092 6.45864 0.911282 6.48319 0.862472 6.50765C0.821765 6.54033 0.77286 6.56479 0.724145 6.59747C0.683438 6.62995 0.634532 6.66263 0.602119 6.70342C0.561317 6.73601 0.512507 6.7768 0.479998 6.8176C0.439292 6.8583 0.406783 6.8991 0.37418 6.9399C0.341671 6.98882 0.309163 7.02962 0.284758 7.08666C0.252154 7.12745 0.219646 7.17647 0.195145 7.23351C0.170645 7.29055 0.14643 7.33956 0.130129 7.3966C0.113922 7.44552 0.0894218 7.50266 0.0731199 7.5597C0.0569134 7.60862 0.0487149 7.65754 0.0406116 7.70645C0.0406116 7.71458 0.0325083 7.7227 0.0325083 7.7227C0.0162065 7.77983 0.0162065 7.85321 0.0162065 7.89401C0.00810326 7.93481 0 7.9756 0 8.01631C0 8.04077 9.44674e-08 8.07344 0.00810335 8.0979C0.0162066 8.1387 0.0243097 8.1794 0.0325083 8.21208C0.0487148 8.25287 0.0569134 8.28546 0.0731199 8.32625V8.33437C0.0894218 8.37517 0.113827 8.40775 0.138232 8.44855C0.162637 8.48935 0.187042 8.52193 0.219646 8.56273C0.252154 8.59531 0.284758 8.62798 0.325465 8.66056C0.366076 8.70136 0.398585 8.72582 0.439292 8.7584C0.585817 8.88892 0.626429 8.92971 0.813567 9.03567L0.911282 9.08459C0.919386 9.08459 0.927489 9.09281 0.927489 9.09281C0.927489 9.10905 0.927489 9.10905 0.935687 9.12539C0.943791 9.17431 0.951894 9.22323 0.968196 9.27224C0.984466 9.32932 1.00074 9.37823 1.01701 9.419C1.04141 9.48015 1.04961 9.49238 1.06582 9.53318C1.07401 9.54942 1.08212 9.55764 1.08212 9.56576C1.10652 9.61468 1.13093 9.65557 1.15533 9.70439C1.18794 9.74519 1.22045 9.7942 1.24495 9.83491C1.27736 9.8757 1.30996 9.91641 1.35067 9.94908C1.39128 9.98988 1.42388 10.0143 1.46459 10.0551C1.46459 10.0551 1.47269 10.0633 1.4808 10.0633C1.5215 10.0958 1.55401 10.1285 1.59472 10.153C1.63543 10.1856 1.68433 10.21 1.73305 10.2345C1.77375 10.2589 1.82266 10.2834 1.87957 10.2997C1.92018 10.316 1.96089 10.3323 2.0016 10.3405C2.0097 10.3487 2.0178 10.3487 2.026 10.3568C2.05041 10.365 2.08292 10.3731 2.10732 10.3731C2.09112 10.7075 2.08292 11.0255 2.13173 11.1397C2.18874 11.262 2.45729 10.8869 2.73385 10.4465C2.69323 10.8787 2.66883 11.3761 2.73385 11.5311C2.79886 11.6861 3.17333 11.2049 3.49879 10.6667C7.89266 9.64726 11.9041 12.6891 12.3271 16.9949C12.2458 16.3262 11.424 15.9511 11.0416 16.0408C10.8544 16.4975 10.5371 17.0928 10.0326 17.4598C10.0733 17.052 10.057 16.628 9.96748 16.2202C9.82924 16.791 9.56069 17.3293 9.20262 17.786C8.61681 17.8268 8.02279 17.5414 7.71353 17.1172C7.68922 17.101 7.68112 17.0602 7.66482 17.0357C7.64861 16.9949 7.62411 16.9459 7.61601 16.9052C7.59971 16.8644 7.5834 16.8155 7.5753 16.7747C7.5672 16.7339 7.5672 16.6851 7.5672 16.6362V16.5464C7.5753 16.5057 7.5834 16.4567 7.59971 16.4159C7.61601 16.3751 7.62411 16.3262 7.64041 16.2854C7.66482 16.2447 7.68102 16.1957 7.71363 16.155C7.81945 15.8533 7.81945 15.6167 7.62411 15.4699C7.5834 15.4455 7.5509 15.4292 7.51019 15.4047C7.48578 15.3966 7.45328 15.3884 7.42887 15.3802C7.41257 15.3721 7.39627 15.364 7.37996 15.364C7.33935 15.3477 7.29054 15.3394 7.24984 15.3313C7.20913 15.3151 7.16032 15.3151 7.11961 15.3151C7.07891 15.3069 7.0301 15.2987 6.98138 15.2987C6.94878 15.2987 6.91617 15.3069 6.89177 15.3069C6.84296 15.3069 6.80225 15.315 6.75354 15.3231C6.71283 15.3313 6.66392 15.3394 6.62331 15.3477C6.5826 15.3639 6.5337 15.3721 6.49309 15.3884C6.45248 15.4048 6.41177 15.4292 6.37106 15.4455C6.33036 15.4618 6.29785 15.4863 6.25714 15.5107C4.80876 16.4566 5.67132 18.6667 6.66392 19.3028C6.28965 19.368 5.91537 19.4496 5.80965 19.5312L5.79335 19.5474C6.06003 19.7104 6.34046 19.8495 6.63141 19.9633C7.03009 20.0938 7.45318 20.2079 7.63221 20.2651V20.2732C8.14491 20.3792 8.66562 20.42 9.19452 20.3874C11.9367 20.1917 14.1905 18.104 14.5974 15.3394C14.6136 15.3966 14.6218 15.4455 14.638 15.5026C14.6543 15.6167 14.6787 15.731 14.695 15.8533V15.8614C14.7112 15.9184 14.7112 15.9756 14.7194 16.0245V16.049C14.7275 16.1061 14.7356 16.1631 14.7356 16.212C14.7438 16.2773 14.7519 16.3507 14.7519 16.4159V16.5138C14.7519 16.5465 14.7601 16.579 14.7601 16.6116C14.7601 16.6524 14.7519 16.6851 14.7519 16.7258V16.8156C14.7519 16.8563 14.7438 16.8971 14.7438 16.9379C14.7438 16.9624 14.7438 16.9868 14.7357 17.0194C14.7357 17.0602 14.7275 17.1091 14.7275 17.158C14.7194 17.1743 14.7194 17.1988 14.7194 17.2151C14.7113 17.2641 14.7032 17.3049 14.7032 17.3619C14.7032 17.3782 14.7032 17.4027 14.695 17.419C14.6869 17.4842 14.6788 17.5331 14.6706 17.5984V17.6146C14.6544 17.6718 14.6462 17.7289 14.6299 17.786V17.8022C14.6137 17.8593 14.6055 17.9165 14.5892 17.9735C14.5892 17.9817 14.5811 17.9898 14.5811 17.998C14.5649 18.0551 14.5567 18.1121 14.5404 18.1693V18.1855C14.5242 18.2508 14.4997 18.2997 14.4916 18.3568C14.4835 18.365 14.4835 18.3731 14.4835 18.3731C14.4673 18.4383 14.4428 18.4954 14.4265 18.5607C14.4021 18.6259 14.3858 18.6748 14.3613 18.7401C14.3368 18.8053 14.3207 18.8624 14.2963 18.9195C14.2719 18.9848 14.2475 19.0337 14.2231 19.0989H14.2149C14.1905 19.156 14.1661 19.2131 14.1336 19.2701C14.1254 19.2864 14.1173 19.3028 14.1173 19.3109C14.1092 19.3191 14.1092 19.3272 14.1011 19.3272C13.6942 20.1428 13.1001 20.8522 12.3597 21.4148C12.3109 21.4475 12.2621 21.4802 12.2133 21.5209C12.197 21.5372 12.1807 21.5372 12.1726 21.5536C12.1297 21.5881 12.0833 21.6182 12.0343 21.6433L12.0505 21.684H12.0587C12.1482 21.6678 12.2295 21.6595 12.319 21.6433H12.3271C12.49 21.6188 12.6527 21.5862 12.8072 21.5535C12.8479 21.5454 12.8968 21.5372 12.9456 21.521C12.9782 21.5128 13.0026 21.5047 13.0352 21.5047C13.0758 21.4964 13.1246 21.4883 13.1653 21.4802C13.206 21.4639 13.2385 21.4639 13.2792 21.4475C13.8976 21.3008 14.4997 21.0969 15.0774 20.8523C14.0929 22.1977 12.7747 23.2906 11.2287 24C11.9446 23.9512 12.6536 23.8283 13.3442 23.6331C15.8423 22.8909 17.9416 21.211 19.2028 18.944C18.9505 20.3792 18.381 21.7493 17.5348 22.9399C18.1369 22.5403 18.6902 22.0837 19.1865 21.5617C20.5779 20.1101 21.4893 18.2589 21.7984 16.2773C22.0101 17.2559 22.0751 18.2752 21.9774 19.2701C26.4527 13.0153 22.3517 6.52399 20.6349 4.81957C20.6268 4.80332 20.6187 4.80333 20.6187 4.78699C20.6105 4.79511 20.6105 4.79511 20.6105 4.80323C20.6105 4.79511 20.6105 4.79511 20.6023 4.78699C20.6023 4.86037 20.5942 4.93374 20.5861 5.00712C20.5699 5.15397 20.5454 5.28439 20.521 5.42303C20.4885 5.56166 20.4558 5.7003 20.4151 5.83081C20.3744 5.96133 20.3257 6.09996 20.2687 6.23038C20.2118 6.35268 20.1548 6.48319 20.0816 6.60549C20.0131 6.72533 19.9398 6.84231 19.8618 6.95614C19.7805 7.07041 19.691 7.18449 19.6097 7.29055C19.5201 7.40472 19.4143 7.50266 19.3167 7.6004C19.2516 7.65754 19.2028 7.70645 19.1377 7.75537C19.0889 7.79617 19.0482 7.83697 18.9913 7.87767C18.8773 7.96748 18.7715 8.04898 18.6414 8.12226C18.5275 8.19583 18.3973 8.26912 18.2752 8.33437C18.145 8.39963 18.0149 8.44855 17.8846 8.50559C17.7544 8.55461 17.6161 8.5954 17.4778 8.63611C17.3394 8.67681 17.2011 8.70136 17.0628 8.72582C16.9227 8.74964 16.7815 8.76597 16.6397 8.77474C16.5421 8.78286 16.4445 8.79098 16.3386 8.79098C16.1922 8.79098 16.0539 8.77474 15.9155 8.76662C15.769 8.75028 15.6307 8.73394 15.4924 8.70136C15.3459 8.6769 15.2157 8.63611 15.0774 8.59531H15.0693C15.2076 8.57907 15.3459 8.57085 15.4762 8.54639C15.6226 8.52193 15.7528 8.48935 15.8911 8.45667C16.0294 8.41597 16.1678 8.37517 16.2979 8.32625C16.4363 8.27734 16.5665 8.21208 16.6885 8.15494C16.8187 8.08978 16.9326 8.02452 17.0628 7.95114C17.1767 7.86955 17.2988 7.78805 17.4126 7.70645C17.5266 7.61674 17.6324 7.52702 17.7301 7.42918C17.8358 7.33947 17.9253 7.23351 18.023 7.12745C18.1125 7.01328 18.202 6.90722 18.2833 6.79305C18.2995 6.7768 18.3077 6.75234 18.324 6.72788C18.3884 6.63018 18.4481 6.52949 18.5031 6.42615C18.5681 6.30386 18.6332 6.18156 18.6902 6.05104C18.7472 5.92053 18.796 5.79002 18.8366 5.65138C18.8773 5.52096 18.9098 5.38233 18.9424 5.24369C18.9669 5.09684 18.9913 4.96642 19.0075 4.82778C19.0238 4.68093 19.032 4.5423 19.032 4.40366C19.032 4.30582 19.0238 4.20799 19.0157 4.10193C18.9995 3.95517 18.9831 3.82466 18.9669 3.68602C18.9424 3.53927 18.9098 3.40875 18.8772 3.27021C18.8366 3.1397 18.7878 3.00106 18.739 2.87055C18.6902 2.74003 18.6251 2.60962 18.5681 2.48732C18.5031 2.36502 18.4298 2.24272 18.3565 2.12033L18.1125 1.7778C18.0229 1.67175 17.9253 1.56569 17.8276 1.45973C17.7788 1.41081 17.7218 1.35368 17.6649 1.30486C17.3882 1.08463 17.0954 0.880732 16.8024 0.693178C16.7617 0.668718 16.7211 0.652476 16.6804 0.627921C16.4851 0.481164 16.2979 0.416002 16.1027 0.350745Z" fill="#FF1744"/>
</g>
<defs>
<clipPath id="clip0_5107_99024">
<rect width="24" height="24" fill="white"/>
</clipPath>
</defs>
</svg>
