<svg width="24" height="24" viewBox="0 0 24 24" fill="none" xmlns="http://www.w3.org/2000/svg">
<g clip-path="url(#clip0_5107_99014)">
<path d="M0 8.68571C0 5.64543 0 4.12529 0.591679 2.96405C1.11213 1.9426 1.9426 1.11213 2.96405 0.591679C4.12529 0 5.64543 0 8.68571 0H15.3143C18.3546 0 19.8747 0 21.0359 0.591679C22.0574 1.11213 22.8879 1.9426 23.4083 2.96405C24 4.12529 24 5.64543 24 8.68571V15.3143C24 18.3546 24 19.8747 23.4083 21.0359C22.8879 22.0574 22.0574 22.8879 21.0359 23.4083C19.8747 24 18.3546 24 15.3143 24H8.68571C5.64543 24 4.12529 24 2.96405 23.4083C1.9426 22.8879 1.11213 22.0574 0.591679 21.0359C0 19.8747 0 18.3546 0 15.3143V8.68571Z" fill="#49021F"/>
<path d="M8.22178 7.02472V17.5434C8.22178 17.6535 8.17349 17.7086 8.07691 17.7085H6.12876C6.04277 17.7085 5.99985 17.6535 6 17.5434V7.02472C6 6.93672 6.04829 6.89269 6.14487 6.8926H8.09298C8.16689 6.88183 8.23229 6.94891 8.22178 7.02472Z" fill="#FF3366"/>
<path d="M13.9856 17.8736C13.2446 17.8851 12.5103 17.7272 11.8363 17.4112C10.4052 16.7319 9.78335 15.2285 9.78352 13.6793C9.77116 12.134 10.5896 10.6616 11.9248 9.93091C12.8465 9.40727 13.9307 9.27424 14.9677 9.36948V6.11646C14.9677 6.03956 14.9999 6.00087 15.0643 6.00087H17.0929C17.1483 5.99274 17.1974 6.04306 17.1895 6.09992V15.859C17.1895 16.2617 17.2294 16.6629 17.2539 17.0644C17.2579 17.133 17.2182 17.2009 17.1573 17.2296C16.634 17.4534 16.0889 17.6195 15.5312 17.7249C15.0213 17.8215 14.5041 17.8712 13.9856 17.8736ZM14.9677 15.826V11.318C13.5039 10.9113 12.0695 12.0289 12.0697 13.5802C12.0343 15.2049 13.4829 16.2714 14.9677 15.826Z" fill="#FF3366"/>
</g>
<defs>
<clipPath id="clip0_5107_99014">
<rect width="24" height="24" fill="white"/>
</clipPath>
</defs>
</svg>
