<svg width="24" height="24" viewBox="0 0 24 24" fill="none" xmlns="http://www.w3.org/2000/svg">
<g clip-path="url(#clip0_5107_98996)">
<path fill-rule="evenodd" clip-rule="evenodd" d="M23.1872 10.961L12.9939 0.768463C12.4073 0.181346 11.4551 0.181346 10.8677 0.768463L8.7511 2.88511L11.4362 5.57017C12.0602 5.35935 12.7756 5.50075 13.2731 5.99821C13.7728 6.49875 13.9132 7.22035 13.6973 7.8464L16.285 10.4341C16.9111 10.2184 17.6334 10.358 18.1334 10.8588C18.8322 11.5574 18.8322 12.6896 18.1334 13.3887C17.4344 14.0877 16.3022 14.0877 15.6028 13.3887C15.0772 12.8625 14.9473 12.0905 15.2135 11.4429L12.8002 9.0296L12.8 15.3803C12.9703 15.4648 13.1312 15.5773 13.2731 15.7187C13.9719 16.4172 13.9719 17.5495 13.2731 18.249C12.574 18.9478 11.4413 18.9478 10.7432 18.249C10.0444 17.5495 10.0444 16.4172 10.7432 15.7187C10.9159 15.5463 11.1157 15.4159 11.3288 15.3283V8.91843C11.1157 8.83134 10.9162 8.70172 10.7432 8.52804C10.2138 7.99933 10.0865 7.2224 10.3577 6.57227L7.71109 3.92512L0.72178 10.9139C0.134407 11.5015 0.134407 12.4537 0.72178 13.0408L10.9151 23.2336C11.502 23.8208 12.4539 23.8208 13.0415 23.2336L23.1872 13.0882C23.7743 12.5008 23.7743 11.5482 23.1872 10.961Z" fill="#DE4C36"/>
</g>
<defs>
<clipPath id="clip0_5107_98996">
<rect width="23.4375" height="23.3463" fill="white" transform="translate(0.28125 0.328125)"/>
</clipPath>
</defs>
</svg>
