<svg width="24" height="24" viewBox="0 0 24 24" fill="none" xmlns="http://www.w3.org/2000/svg">
<path d="M20.7128 3.17548C18.4843 -0.0141889 14.0828 -0.959617 10.9004 1.06802L5.31125 4.63024C3.78455 5.59072 2.73298 7.14979 2.4144 8.92513C2.14779 10.4041 2.38213 11.9297 3.08032 13.2605C2.6019 13.9862 2.2756 14.8014 2.12113 15.6568C1.79948 17.4663 2.22023 19.329 3.28841 20.8245C5.51745 24.0145 9.9189 24.9595 13.1009 22.932L18.69 19.3697C20.2168 18.4094 21.2684 16.8502 21.5868 15.0748C21.8534 13.5959 21.6193 12.0703 20.9214 10.7394C21.3997 10.0136 21.7259 9.19847 21.8802 8.34313C22.2021 6.53369 21.7813 4.67088 20.7129 3.17548" fill="#FF3E00"/>
<path d="M10.3546 21.128C8.55246 21.5965 6.64939 20.8911 5.58807 19.3612C4.94539 18.4616 4.69222 17.341 4.88574 16.2526C4.91818 16.0757 4.96282 15.9012 5.01934 15.7305L5.12463 15.4094L5.41106 15.6198C6.07256 16.1059 6.81219 16.4754 7.59807 16.7125L7.80586 16.7756L7.78671 16.9829C7.76132 17.278 7.84121 17.5724 8.01221 17.8142C8.33161 18.2751 8.90459 18.4877 9.44732 18.3469C9.56882 18.3144 9.68464 18.2635 9.79073 18.1959L15.3817 14.6331C15.6583 14.4589 15.8489 14.1764 15.907 13.8548C15.9649 13.5267 15.8886 13.1891 15.6953 12.9178C15.3757 12.4569 14.8026 12.2441 14.2596 12.3849C14.1383 12.4173 14.0226 12.4682 13.9167 12.5357L11.7832 13.8957C11.4324 14.1187 11.0495 14.2869 10.6479 14.3942C8.84581 14.8628 6.94277 14.1574 5.88147 12.6274C5.23876 11.7279 4.98559 10.6073 5.17914 9.51886C5.37073 8.45097 6.00336 7.51322 6.9218 6.93567L12.5123 3.37251C12.8632 3.14908 13.2463 2.98075 13.6483 2.87335C15.4504 2.40481 17.3534 3.11022 18.4147 4.64015C19.0574 5.53971 19.3106 6.66026 19.117 7.74874C19.0845 7.92561 19.0398 8.10005 18.9834 8.27083L18.8782 8.59188L18.5919 8.38182C17.9304 7.89549 17.1907 7.52578 16.4047 7.28864L16.1969 7.22558L16.2161 7.0182C16.2412 6.7232 16.1614 6.42879 15.9906 6.18695C15.6712 5.7261 15.0982 5.51343 14.5555 5.6543C14.434 5.68677 14.3181 5.73767 14.2121 5.80522L8.62111 9.36823C8.34454 9.54227 8.15402 9.8247 8.09623 10.1463C8.03793 10.4744 8.11406 10.8121 8.3075 11.0834C8.62709 11.5443 9.20021 11.7571 9.74316 11.6163C9.86464 11.5838 9.98043 11.5329 10.0866 11.4654L12.2197 10.1059C12.5704 9.88256 12.9532 9.71429 13.3549 9.60695C15.157 9.1384 17.06 9.84382 18.1213 11.3738C18.764 12.2733 19.0172 13.3939 18.8237 14.4823C18.632 15.5503 17.9994 16.4881 17.081 17.0659L11.4905 20.6288C11.1396 20.8522 10.7564 21.0206 10.3545 21.128" fill="white"/>
</svg>
