<svg width="24" height="24" viewBox="0 0 24 24" fill="none" xmlns="http://www.w3.org/2000/svg">
<g clip-path="url(#clip0_5107_99010)">
<path d="M3.65093 3.37501C8.39272 -1.21859 15.9746 -1.0951 20.5682 3.67137C21.0869 2.97986 21.5314 2.21426 21.8525 1.42397C23.359 6.01757 24.2727 9.87027 23.927 12.8586C23.7541 15.3776 22.7662 17.7979 21.1363 19.7243C16.8884 24.7624 9.33119 25.4045 4.29305 21.1567L4.19667 21.0709L4.19154 21.0676C4.17576 21.0566 4.1602 21.0451 4.14487 21.0332C4.09888 20.9974 4.05712 20.9585 4.01959 20.9169L4.00607 20.9015L3.84851 20.7615C3.69484 20.6298 3.54117 20.4981 3.40485 20.3491L3.35457 20.2923C-1.23903 15.5505 -1.09085 7.96861 3.65093 3.37501ZM5.4291 19.4526C4.98456 19.1069 4.34244 19.1563 3.99669 19.6008C3.69266 19.9917 3.69416 20.5353 4.00118 20.8959L4.00607 20.9015L4.19667 21.0709L4.21537 21.0837C4.64705 21.3675 5.22785 21.3089 5.55914 20.9077L5.57728 20.885C5.92304 20.4405 5.84895 19.7984 5.4291 19.4526ZM21.729 2.65881C20.4941 5.25197 17.4317 7.22771 14.7892 7.84513C12.2948 8.43785 10.1215 7.94392 7.82469 8.833C2.58897 10.8334 2.68776 17.057 5.55259 18.4647L5.72546 18.5635C5.72546 18.5635 7.79481 18.1521 9.84116 17.6087L10.0165 17.5618C10.8338 17.3416 11.6379 17.1015 12.2948 16.8595C15.703 15.5999 19.4569 12.4881 20.6917 8.88239C20.0496 12.6363 16.8143 16.2667 13.579 17.9214C11.8503 18.8105 10.5166 19.0081 7.67651 19.9959C7.33075 20.1194 7.05909 20.2429 7.05909 20.2429C7.09374 20.2381 7.1284 20.2335 7.16297 20.2289L7.23199 20.22L7.30064 20.2113C7.92789 20.1336 8.4915 20.0947 8.4915 20.0947C12.5171 19.8972 18.8395 21.2308 21.7784 17.304C24.7914 13.3031 23.112 6.83256 21.729 2.65881Z" fill="#6DB33F"/>
<path d="M5.42934 19.4526C5.84918 19.7984 5.92327 20.4405 5.57752 20.885C5.23176 21.3296 4.58965 21.379 4.1451 21.0332C3.70056 20.6875 3.65117 20.0453 3.99692 19.6008C4.34268 19.1563 4.98479 19.1069 5.42934 19.4526ZM21.7292 2.65881C23.1122 6.83257 24.7916 13.3031 21.7786 17.304C18.8397 21.2308 12.5173 19.8972 8.49174 20.0947C8.49174 20.0947 7.92813 20.1336 7.30088 20.2113L7.23222 20.22C7.17484 20.2273 7.11708 20.235 7.05932 20.2429C7.05932 20.2429 7.33099 20.1194 7.67674 19.996C10.5169 19.0081 11.8505 18.8105 13.5793 17.9214C16.8146 16.2667 20.0498 12.6363 20.6919 8.8824C19.4571 12.4881 15.7032 15.5999 12.295 16.8595C9.94885 17.7238 5.7257 18.5635 5.7257 18.5635L5.55282 18.4648C2.68799 17.057 2.58921 10.8334 7.82492 8.83301C10.1217 7.94392 12.295 8.43786 14.7894 7.84514C17.432 7.22772 20.4944 5.25198 21.7292 2.65881Z" fill="white"/>
</g>
<defs>
<clipPath id="clip0_5107_99010">
<rect width="24" height="24" fill="white"/>
</clipPath>
</defs>
</svg>
