<svg width="24" height="24" viewBox="0 0 24 24" fill="none" xmlns="http://www.w3.org/2000/svg">
<g clip-path="url(#clip0_5107_99002)">
<path d="M13.6091 2.67497C12.6122 1.47987 11.7537 0.266096 11.5783 0.014005C11.5598 -0.00466834 11.5321 -0.00466834 11.5136 0.014005C11.3383 0.266096 10.4797 1.47987 9.48277 2.67497C0.925389 13.7016 10.8305 21.143 10.8305 21.143L10.9136 21.199C10.9875 22.3474 11.1721 24 11.1721 24H11.5413H11.9106C11.9106 24 12.0952 22.3567 12.1691 21.199L12.2521 21.1337C12.2614 21.1337 22.1665 13.7016 13.6091 2.67497ZM11.5413 20.9749C11.5413 20.9749 11.0982 20.5921 10.9782 20.396V20.3774L11.5136 8.37035C11.5136 8.333 11.569 8.333 11.569 8.37035L12.1045 20.3774V20.396C11.9844 20.5921 11.5413 20.9749 11.5413 20.9749Z" fill="#00684A"/>
</g>
<defs>
<clipPath id="clip0_5107_99002">
<rect width="11" height="24" fill="white" transform="translate(6)"/>
</clipPath>
</defs>
</svg>
