<svg width="24" height="24" viewBox="0 0 24 24" fill="none" xmlns="http://www.w3.org/2000/svg">
<g clip-path="url(#clip0_5107_99012)">
<path d="M5.33344 0C5.47406 0 18.3928 0 18.6272 0C19.2741 0 19.9022 0.103125 20.5116 0.31875C21.3928 0.6375 22.1897 1.2 22.7897 1.93125C23.3991 2.6625 23.8022 3.5625 23.9428 4.5C23.9991 4.84688 24.0084 5.19375 24.0084 5.54062C24.0084 5.85938 24.0084 17.0906 24.0084 17.5969C24.0084 17.8969 24.0084 18.2062 24.0084 18.5062C24.0084 18.9187 23.9897 19.3406 23.9053 19.7438C23.7178 20.6719 23.2772 21.5438 22.6397 22.2469C22.0116 22.95 21.1866 23.475 20.2959 23.7562C19.7522 23.925 19.1897 24 18.6178 24C18.3647 24 5.29594 24 5.09906 23.9906C4.14281 23.9437 3.19594 23.6344 2.39906 23.1C1.62094 22.575 0.983439 21.8438 0.570939 21C0.214689 20.2781 0.0365637 19.4719 0.0365637 18.6656C0.0365637 18.4781 0.0365637 5.52188 0.0365637 5.33438C0.0178137 4.5375 0.186564 3.75 0.533439 3.0375C0.936564 2.19375 1.56469 1.45312 2.34281 0.928125C3.13969 0.384375 4.07719 0.065625 5.03344 0.01875C5.12719 0 5.23031 0 5.33344 0Z" fill="url(#paint0_linear_5107_99012)"/>
<path d="M20.25 19.6313C20.1656 19.5 20.0719 19.3688 19.9688 19.2469C19.7344 18.9656 19.4625 18.7219 19.1625 18.5156C18.7875 18.2625 18.3469 18.1031 17.8969 18.0844C17.5781 18.0656 17.2594 18.1219 16.9594 18.2344C16.6594 18.3375 16.3688 18.4875 16.0875 18.6375C15.7594 18.8063 15.4312 18.975 15.0844 19.1156C14.6719 19.2844 14.2406 19.4156 13.8 19.5094C13.2469 19.6125 12.6844 19.65 12.1312 19.6406C11.1281 19.6219 10.125 19.4719 9.16875 19.1906C8.325 18.9375 7.51875 18.5906 6.75937 18.15C6.09375 17.7656 5.475 17.325 4.89375 16.8281C4.41563 16.4156 3.975 15.975 3.5625 15.5063C3.28125 15.1781 3.00937 14.8313 2.75625 14.475C2.65313 14.3344 2.55938 14.1844 2.475 14.0344L0 11.3625V5.31563C0 2.38125 2.37187 0 5.30625 0H10.0406L13.5469 3.5625C21.4594 8.94375 18.9 14.8781 18.9 14.8781C18.9 14.8781 21.15 17.4094 20.25 19.6313Z" fill="url(#paint1_linear_5107_99012)"/>
<path d="M13.5652 3.5625C21.4777 8.94375 18.9184 14.8781 18.9184 14.8781C18.9184 14.8781 21.1684 17.4187 20.259 19.6406C20.259 19.6406 19.3309 18.0844 17.7746 18.0844C16.2746 18.0844 15.3934 19.6406 12.3746 19.6406C5.65273 19.6406 2.47461 14.025 2.47461 14.025C8.53086 18.0094 12.6652 15.1875 12.6652 15.1875C9.93711 13.6031 4.13398 6.02813 4.13398 6.02813C9.18711 10.3313 11.3715 11.4656 11.3715 11.4656C10.0684 10.3875 6.41211 5.11875 6.41211 5.11875C9.33711 8.08125 15.1496 12.2156 15.1496 12.2156C16.7996 7.64063 13.5652 3.5625 13.5652 3.5625Z" fill="white"/>
</g>
<defs>
<linearGradient id="paint0_linear_5107_99012" x1="14.2763" y1="-0.856388" x2="9.74186" y2="24.8594" gradientUnits="userSpaceOnUse">
<stop stop-color="#FAAE42"/>
<stop offset="1" stop-color="#EF3E31"/>
</linearGradient>
<linearGradient id="paint1_linear_5107_99012" x1="12.2448" y1="0.387778" x2="8.92622" y2="19.2087" gradientUnits="userSpaceOnUse">
<stop stop-color="#E39F3A"/>
<stop offset="1" stop-color="#D33929"/>
</linearGradient>
<clipPath id="clip0_5107_99012">
<rect width="24" height="24" fill="white"/>
</clipPath>
</defs>
</svg>
