<svg width="24" height="24" viewBox="0 0 24 24" fill="none" xmlns="http://www.w3.org/2000/svg">
<path d="M22.0703 18.0607C21.4888 18.0607 20.9311 17.7846 20.578 17.3229L17.2385 12.9564L13.8984 17.3229C13.5453 17.7846 12.9877 18.0607 12.4061 18.0607H11.082L16.1118 11.4832L11.1077 4.939H12.4318C13.0133 4.939 13.5716 5.21456 13.9241 5.67621L17.2379 10.01L20.5523 5.67621C20.9048 5.21456 21.4631 4.939 22.0446 4.939H23.3687L18.364 11.4832L23.3944 18.0607H22.0703Z" fill="#B0C1D4"/>
<path d="M22.7672 5.23721L17.9909 11.4832L22.7928 17.7625H22.0723C21.5803 17.7625 21.1156 17.5329 20.8168 17.1422L17.2405 12.4655L13.6643 17.1422C13.3655 17.5335 12.9008 17.7625 12.4088 17.7625H11.6883L16.4902 11.4832L11.7127 5.23721H12.4332C12.9253 5.23721 13.3899 5.46684 13.6887 5.85751L17.2399 10.5008L20.7912 5.85751C21.09 5.46625 21.5546 5.23721 22.0467 5.23721H22.7672ZM23.9744 4.64077H22.7672H22.0467C21.3733 4.64077 20.7267 4.96046 20.3176 5.49547L17.2405 9.51967L14.1635 5.49547C13.7537 4.96046 13.1072 4.64077 12.4338 4.64077H11.7133H10.5061L11.2391 5.59925L15.7387 11.4832L11.2141 17.3999L10.4805 18.3589H11.6877H12.4082C13.0816 18.3589 13.7281 18.0392 14.1373 17.5042L17.2399 13.4466L20.3426 17.5042C20.7518 18.0392 21.3983 18.3589 22.0723 18.3589H22.7928H24L23.267 17.4005L18.7424 11.4837L23.2419 5.59985L23.9744 4.64077Z" fill="#66798F"/>
<path d="M5.96503 18.6574C2.84086 18.6574 0.298828 16.0277 0.298828 12.7956V10.204C0.298828 6.97249 2.84086 4.34278 5.96503 4.34278C9.08919 4.34278 11.6312 6.9719 11.6312 10.204V12.6924L2.08815 12.693V12.7956C2.08815 15.0412 3.82738 16.8681 5.96503 16.8681C7.14419 16.8681 8.28698 16.274 9.02179 15.2797C9.39636 14.7722 9.94687 14.4817 10.532 14.4817H11.4082L11.2602 14.8831C10.4288 17.1406 8.30129 18.6574 5.96503 18.6574ZM9.8419 10.9036V10.204C9.8419 7.95841 8.10267 6.13211 5.96503 6.13211C3.82738 6.13211 2.08815 7.95841 2.08815 10.204V10.9036H9.8419Z" fill="#B0C1D4"/>
<path d="M5.96442 4.64091C8.92397 4.64091 11.3324 7.13702 11.3324 10.2039V12.3947H1.78933V12.7955C1.78933 15.2057 3.66215 17.1662 5.96442 17.1662C7.26944 17.1662 8.4832 16.5089 9.26096 15.4568C9.56395 15.047 10.0214 14.7804 10.5314 14.7804H10.9799L10.9805 14.781C10.192 16.9211 8.17483 18.3597 5.96442 18.3597C3.00488 18.3597 0.596442 15.8636 0.596442 12.7961V10.2045C0.596442 7.13702 3.00488 4.64091 5.96442 4.64091ZM1.78933 11.2018H10.1395V10.2039C10.1395 7.7943 8.26669 5.8338 5.96442 5.8338C3.66215 5.8338 1.78933 7.7943 1.78933 10.2039V11.2018ZM5.96442 4.04447C2.67564 4.04447 0 6.80779 0 10.2039V12.7955C0 16.1922 2.67564 18.9555 5.96442 18.9555C8.42474 18.9555 10.665 17.3606 11.54 14.9868L11.8352 14.1852L10.9811 14.184H10.532C9.85084 14.184 9.21324 14.5186 8.78142 15.1025C8.10207 16.021 7.04935 16.5698 5.96442 16.5698C4.05342 16.5698 2.48716 14.9814 2.39054 12.9911H11.3324H11.9288V12.3947V10.2045C11.9288 6.80779 9.2532 4.04447 5.96442 4.04447ZM2.38577 10.6053V10.2039C2.38577 8.12294 3.99139 6.43024 5.96442 6.43024C7.93745 6.43024 9.54307 8.12294 9.54307 10.2039V10.6053H2.38577Z" fill="#66798F"/>
</svg>
