<svg width="24" height="24" viewBox="0 0 24 24" fill="none" xmlns="http://www.w3.org/2000/svg">
<g clip-path="url(#clip0_5107_99020)">
<path d="M13.4174 4.29333L17.1727 6.48667C17.3078 6.56333 17.3111 6.78 17.1727 6.85333L12.7092 9.46C12.5741 9.54 12.416 9.53333 12.2875 9.46L7.82729 6.85333C7.69224 6.77667 7.68565 6.56 7.82729 6.48667L11.5793 4.29333V0L2 5.59667V16.79L5.67624 14.6433V10.2567C5.67294 10.1 5.85741 9.99 5.99247 10.0733L10.456 12.68C10.5911 12.76 10.6668 12.9033 10.6668 13.05V18.2633C10.6701 18.42 10.4889 18.53 10.3539 18.4467L6.59859 16.2533L2.91906 18.4033L12.4984 24L22.0776 18.4033L18.4047 16.2567L14.6494 18.45C14.5176 18.53 14.3299 18.4267 14.3365 18.2667V13.0533C14.3365 12.8967 14.4221 12.7567 14.5473 12.6833L19.0075 10.0767C19.1393 9.99333 19.3271 10.1 19.3238 10.26V14.6467L23 16.7933V5.59667L13.4174 0V4.29333Z" fill="black"/>
</g>
<defs>
<clipPath id="clip0_5107_99020">
<rect width="21" height="24" fill="white" transform="translate(2)"/>
</clipPath>
</defs>
</svg>
