<svg width="24" height="24" viewBox="0 0 24 24" fill="none" xmlns="http://www.w3.org/2000/svg">
<g clip-path="url(#clip0_5107_98994)">
<path d="M0 8.68571C0 5.64543 0 4.12529 0.591679 2.96405C1.11213 1.9426 1.9426 1.11213 2.96405 0.591679C4.12529 0 5.64543 0 8.68571 0H15.3143C18.3546 0 19.8747 0 21.0359 0.591679C22.0574 1.11213 22.8879 1.9426 23.4083 2.96405C24 4.12529 24 5.64543 24 8.68571V15.3143C24 18.3546 24 19.8747 23.4083 21.0359C22.8879 22.0574 22.0574 22.8879 21.0359 23.4083C19.8747 24 18.3546 24 15.3143 24H8.68571C5.64543 24 4.12529 24 2.96405 23.4083C1.9426 22.8879 1.11213 22.0574 0.591679 21.0359C0 19.8747 0 18.3546 0 15.3143V8.68571Z" fill="#470137"/>
<path d="M12.5533 7.05755L9.55866 12.127L12.7626 17.5102C12.8292 17.6322 12.7626 17.6592 12.666 17.6592H10.3798C10.2188 17.6592 10.1061 17.6534 10.0417 17.5432C9.82683 17.1139 9.61216 16.6873 9.39768 16.2635C9.18283 15.8398 8.95476 15.4077 8.71345 14.9672C8.47194 14.527 8.23313 14.0812 7.99699 13.6296C7.78215 14.0701 7.54331 14.5104 7.31272 14.9507C7.08181 15.3911 6.85373 15.8287 6.62849 16.2635C6.4031 16.6985 6.17233 17.1305 5.9362 17.5597C5.89319 17.6588 5.81794 17.669 5.71076 17.669H3.5051C3.41844 17.669 3.40798 17.6039 3.45681 17.5267L6.56408 12.2921L3.53728 7.04102C3.4823 6.96611 3.52962 6.88626 3.6178 6.89241H5.88786C5.98616 6.88685 6.07303 6.92395 6.12937 7.00802C6.32258 7.44842 6.53724 7.88876 6.77336 8.32903C7.00935 8.76947 7.24817 9.2043 7.48982 9.63355C7.73132 10.0629 7.97015 10.4977 8.17409 10.9381C8.38864 10.4868 8.60599 10.0465 8.82614 9.61705C9.04602 9.18771 9.27141 8.75562 9.50231 8.32077C9.73303 7.88603 9.95575 7.45394 10.1705 7.02452C10.199 6.93033 10.2672 6.8826 10.3637 6.89241H12.4728C12.5533 6.89241 12.5866 7.00233 12.5533 7.05755Z" fill="#FF61F6"/>
<path d="M17.1739 17.8736C15.754 17.8957 14.2667 17.3112 13.5192 16.0159C13.1541 15.3941 12.9717 14.6152 12.9718 13.6793C12.9657 12.9214 13.1545 12.1753 13.5192 11.5161C14.46 9.83428 16.3555 9.20413 18.1559 9.36948V6.11646C18.1559 6.03956 18.1882 6.00087 18.2526 6.00087H20.2811C20.3366 5.99274 20.3857 6.04306 20.3778 6.09992V15.859C20.3778 16.2617 20.4177 16.6629 20.4422 17.0644C20.4461 17.133 20.4064 17.2009 20.3455 17.2296C19.3432 17.6583 18.2587 17.8686 17.1739 17.8736ZM18.1559 15.826V11.318C16.6855 10.9094 15.2577 12.0295 15.2579 13.5802C15.223 15.1835 16.6051 16.2912 18.1559 15.826Z" fill="#FF61F6"/>
</g>
<defs>
<clipPath id="clip0_5107_98994">
<rect width="24" height="24" fill="white"/>
</clipPath>
</defs>
</svg>
