<svg width="24" height="24" viewBox="0 0 24 24" fill="none" xmlns="http://www.w3.org/2000/svg">
<path fill-rule="evenodd" clip-rule="evenodd" d="M3.69989 15.5795L2.44436 16.0304L2.37695 19.7018L6.72315 18.1411C5.23246 17.6489 4.14386 16.7829 3.69989 15.5795Z" fill="#FDBD39"/>
<path fill-rule="evenodd" clip-rule="evenodd" d="M4.35625 11.6964L0 13.2606L2.44368 16.0303L3.6992 15.5795C3.25653 14.3796 3.52952 13.0233 4.35625 11.6964Z" fill="#F69833"/>
<path fill-rule="evenodd" clip-rule="evenodd" d="M11.6865 6.3988C6.13923 8.39072 2.56293 12.5011 3.69865 15.5796L23.7871 8.36611C22.6514 5.28764 17.2338 4.40685 11.6865 6.3988Z" fill="#FECF33"/>
<path fill-rule="evenodd" clip-rule="evenodd" d="M15.7998 17.5468C21.3471 15.5549 24.9301 11.4627 23.7877 8.36606L3.69922 15.5795C4.84165 18.6762 10.2526 19.5387 15.7998 17.5468Z" fill="#EE6723"/>
<path fill-rule="evenodd" clip-rule="evenodd" d="M23.7877 8.36606L3.69922 15.5795C4.09258 16.6457 5.59262 17.171 7.69735 17.171C9.74929 17.171 12.376 16.6721 15.1144 15.6888C20.6617 13.6969 24.5646 10.4718 23.7877 8.36606Z" fill="#F69833"/>
<path fill-rule="evenodd" clip-rule="evenodd" d="M19.7905 6.77454C17.7385 6.77454 15.1118 7.27345 12.3734 8.25678C6.82612 10.2487 2.92323 13.4738 3.7001 15.5795L23.7886 8.36609C23.3952 7.29983 21.8952 6.77454 19.7905 6.77454Z" fill="#FDBD39"/>
<path fill-rule="evenodd" clip-rule="evenodd" d="M18.6808 19.8962H18.6807C18.0896 19.8962 17.2177 19.3714 16.089 18.3365C14.7537 17.112 13.2241 15.3186 11.7819 13.2867C10.3398 11.2548 9.15479 9.22337 8.44519 7.56661C7.67207 5.76115 7.56184 4.65104 8.11755 4.26708C8.2394 4.18299 8.38628 4.14038 8.55408 4.14038C9.00611 4.14038 9.88689 4.47119 11.5156 6.04724L11.5512 6.08168L11.5464 6.13067C11.5352 6.24389 11.525 6.35813 11.5158 6.47025L11.4977 6.69289L11.3379 6.53465C9.58303 4.79685 8.81054 4.60924 8.55984 4.60924C8.48835 4.60924 8.43141 4.62353 8.3906 4.65174C8.14955 4.81822 8.13404 5.63363 8.88359 7.38382C9.58052 9.01105 10.7483 11.0117 12.1718 13.0173C13.5953 15.0231 15.1015 16.79 16.4129 17.9925C17.8271 19.2892 18.4644 19.4293 18.6728 19.4293C18.7447 19.4293 18.8032 19.4141 18.8465 19.3841C19.1008 19.2085 19.1011 18.3349 18.2652 16.4512L18.2269 16.3647L18.3109 16.3195C18.3949 16.2743 18.4761 16.2298 18.5523 16.1872L18.6529 16.131L18.6993 16.2354C19.292 17.5703 19.846 19.2668 19.1196 19.7687C18.9971 19.8533 18.8495 19.8962 18.6808 19.8962ZM18.6807 19.6903H18.6808L18.6807 19.7932L18.6807 19.6903Z" fill="#EE6723"/>
<path fill-rule="evenodd" clip-rule="evenodd" d="M15.9349 17.4907L15.9264 17.5933C15.7862 19.299 15.4169 21.3497 14.4541 21.4327C14.4348 21.4344 14.4147 21.4353 14.3946 21.4353C13.7405 21.4353 13.1217 20.5141 12.5554 18.6974C12.0196 16.9787 11.6038 14.671 11.3847 12.1995C11.1655 9.72855 11.1688 7.38473 11.3939 5.59986C11.6393 3.65489 12.1065 2.63917 12.7824 2.58087C12.8024 2.57906 12.8231 2.57812 12.8436 2.57812C13.318 2.57812 14.0331 3.10622 14.7652 5.56601L14.2872 5.6567C14.0428 4.8347 13.7764 4.16615 13.512 3.70676C13.2673 3.28184 13.0295 3.04784 12.8422 3.04784C12.836 3.04784 12.8298 3.04809 12.8237 3.0486C12.5308 3.0739 12.1041 3.77243 11.8662 5.65785C11.6451 7.4107 11.6424 9.7194 11.8587 12.1587C12.0751 14.5983 12.4841 16.8715 13.0103 18.5594C13.246 19.3154 13.5044 19.9384 13.7578 20.3612C13.9914 20.751 14.2175 20.9657 14.3944 20.9657C14.4005 20.9657 14.4066 20.9655 14.4126 20.965C14.6929 20.9408 15.2212 20.2139 15.4435 17.6564L15.9349 17.4907Z" fill="#EE6723"/>
</svg>
