<svg width="24" height="24" viewBox="0 0 24 24" fill="none" xmlns="http://www.w3.org/2000/svg">
<g clip-path="url(#clip0_5107_98990)">
<path d="M0 8.68571C0 5.64543 0 4.12529 0.591679 2.96405C1.11213 1.9426 1.9426 1.11213 2.96405 0.591679C4.12529 0 5.64543 0 8.68571 0H15.3143C18.3546 0 19.8747 0 21.0359 0.591679C22.0574 1.11213 22.8879 1.9426 23.4083 2.96405C24 4.12529 24 5.64543 24 8.68571V15.3143C24 18.3546 24 19.8747 23.4083 21.0359C22.8879 22.0574 22.0574 22.8879 21.0359 23.4083C19.8747 24 18.3546 24 15.3143 24H8.68571C5.64543 24 4.12529 24 2.96405 23.4083C1.9426 22.8879 1.11213 22.0574 0.591679 21.0359C0 19.8747 0 18.3546 0 15.3143V8.68571Z" fill="#00005B"/>
<path d="M5.14258 16.9677V6.17825C5.14258 6.10485 5.17267 6.06291 5.24288 6.06291C6.27936 6.06291 7.31537 6 8.35213 6C10.0344 6 11.856 6.58631 12.4945 8.38018C12.6449 8.82057 12.7251 9.27144 12.7251 9.74329C12.7251 10.645 12.5245 11.3895 12.1234 11.9767C11.0027 13.6169 9.06023 13.5914 7.31905 13.5914V16.9572C7.33267 17.0569 7.24936 17.104 7.16861 17.104H5.26294C5.1827 17.104 5.14258 17.0621 5.14258 16.9677ZM7.32909 8.08659V11.6097C8.01947 11.6612 8.74191 11.6668 9.40526 11.4419C10.1376 11.2266 10.5386 10.5804 10.5386 9.8062C10.559 9.14645 10.2063 8.51342 9.60586 8.27533C8.95051 7.99758 8.03651 7.98094 7.32909 8.08659Z" fill="#9999FF"/>
<path d="M14.0847 8.75308H15.8449C15.942 8.75396 16.0291 8.82405 16.0548 8.92191C16.1838 9.22132 16.1997 9.5824 16.2002 9.90565C16.502 9.53823 16.866 9.23207 17.274 9.00252C17.7115 8.74368 18.2076 8.61249 18.7102 8.62268C18.7937 8.6102 18.8675 8.6874 18.8556 8.77461V10.8173C18.8556 10.8961 18.8016 10.9354 18.6941 10.9354C17.9491 10.8817 16.7892 11.0657 16.2478 11.6782V16.9895C16.2478 17.0908 16.2048 17.1414 16.1186 17.1414H14.2301C14.1373 17.1553 14.0555 17.068 14.0686 16.9726V11.2056C14.0686 10.4328 14.0846 9.63676 13.9717 8.87128C13.9543 8.80083 14.0188 8.73533 14.0847 8.75308Z" fill="#9999FF"/>
</g>
<defs>
<clipPath id="clip0_5107_98990">
<rect width="24" height="24" fill="white"/>
</clipPath>
</defs>
</svg>
