<svg width="24" height="24" viewBox="0 0 24 24" fill="none" xmlns="http://www.w3.org/2000/svg">
<path fill-rule="evenodd" clip-rule="evenodd" d="M13.5883 10.5334C13.3056 10.6124 13.019 10.6926 12.6872 10.7828C12.525 10.8287 12.4882 10.8391 12.3374 10.6558C12.1564 10.4397 12.0237 10.3 11.7704 10.1729C11.0105 9.77901 10.2747 9.89337 9.58719 10.3635C8.76696 10.9226 8.34478 11.7485 8.35685 12.7777C8.36891 13.7943 9.03233 14.6329 9.98524 14.7727C10.8055 14.887 11.493 14.5821 12.0358 13.934C12.1443 13.7943 12.2409 13.6417 12.3615 13.4639H10.0335C9.78018 13.4639 9.71987 13.2987 9.80431 13.0827C9.96111 12.6888 10.2506 12.0281 10.4195 11.6977C10.4557 11.6214 10.5401 11.4944 10.721 11.4944H14.6027C14.777 10.9124 15.0599 10.3625 15.4373 9.84211C16.3179 8.62229 17.3793 7.98696 18.8147 7.72013C20.0451 7.49141 21.2031 7.61848 22.2525 8.36816C23.2054 9.05431 23.7964 9.98188 23.9532 11.2017C24.1583 12.9171 23.6879 14.3148 22.5661 15.5092C21.77 16.3605 20.7929 16.8942 19.6712 17.1356C19.4572 17.1774 19.2432 17.1972 19.0326 17.2167C18.9227 17.2268 18.8137 17.2369 18.7062 17.25C17.6085 17.2246 16.6074 16.8942 15.763 16.1318C15.1692 15.5911 14.7602 14.9266 14.5569 14.153C14.4158 14.4532 14.2471 14.7406 14.0502 15.0141C13.1817 16.2212 12.0479 16.9709 10.6125 17.1742C9.43038 17.3394 8.33272 17.0979 7.36775 16.3356C6.47515 15.624 5.96854 14.6837 5.83585 13.5147C5.67905 12.1297 6.06504 10.8845 6.86114 9.79171C7.71755 8.61001 8.85139 7.86033 10.2385 7.59349C11.3724 7.37748 12.458 7.51725 13.435 8.21611C14.0743 8.66084 14.5327 9.27075 14.8342 10.0077C14.9066 10.1221 14.8584 10.1856 14.7136 10.2237C14.2909 10.3368 13.9427 10.4342 13.5883 10.5334ZM21.5686 11.9807C21.571 12.0234 21.5735 12.0683 21.577 12.1166C21.5167 13.2093 20.998 14.0225 20.0451 14.5435C19.4058 14.8866 18.7424 14.9247 18.0789 14.6198C17.2105 14.2131 16.7521 13.2093 16.9692 12.2182C17.2346 11.0238 17.9583 10.2741 19.0801 10.0073C20.226 9.72775 21.3237 10.4393 21.5408 11.6973C21.5579 11.7872 21.5629 11.8772 21.5686 11.9807Z" fill="#00ACD7"/>
<path d="M1.83345 10.389C1.80933 10.4271 1.82139 10.4525 1.86964 10.4525L5.46195 10.4652C5.49814 10.4652 5.55845 10.4271 5.58257 10.389L5.78763 10.0586C5.81175 10.0205 5.79969 9.98236 5.75144 9.98236H2.21944C2.1712 9.98236 2.11088 10.0078 2.08676 10.0459L1.83345 10.389Z" fill="#00ACD7"/>
<path d="M0.0120622 11.5579C-0.0120622 11.596 5.58794e-09 11.6214 0.0482487 11.6214L4.97946 11.6087C5.02771 11.6087 5.07595 11.5833 5.08802 11.5325L5.18451 11.2275C5.19658 11.1894 5.17245 11.1513 5.1242 11.1513H0.398051C0.349803 11.1513 0.289492 11.1767 0.265368 11.2148L0.0120622 11.5579Z" fill="#00ACD7"/>
<path d="M2.9311 12.7142C2.90697 12.7524 2.91903 12.7905 2.96728 12.7905L4.82264 12.8032C4.85883 12.8032 4.90707 12.7651 4.90707 12.7142L4.9312 12.4093C4.9312 12.3585 4.90707 12.3203 4.85883 12.3203H3.22059C3.17234 12.3203 3.12409 12.3585 3.09997 12.3966L2.9311 12.7142Z" fill="#00ACD7"/>
</svg>
