<svg width="24" height="24" viewBox="0 0 24 24" fill="none" xmlns="http://www.w3.org/2000/svg">
<path d="M3.28125 19.372L3.42654 19.1686L10.2995 6.1274L10.3141 5.98934L7.28429 0.298386C7.03045 -0.178334 6.31585 -0.0578025 6.23255 0.475849L3.28125 19.372Z" fill="#FFC24A"/>
<path d="M3.36719 19.2169L3.4771 19.0026L10.2781 6.098L7.25589 0.383892C7.00472 -0.0878337 6.36688 0.0324187 6.28445 0.560478L3.36719 19.2169Z" fill="#FFA712"/>
<path d="M12.5234 10.294L14.7793 7.98363L12.5228 3.67589C12.3086 3.26813 11.7105 3.26695 11.4985 3.67589L10.293 5.97514V6.17096L12.5234 10.294Z" fill="#F4BD62"/>
<path d="M12.4829 10.1977L14.676 7.95162L12.4829 3.77551C12.2746 3.3791 11.7687 3.33756 11.5626 3.73512L10.3507 6.06999L10.3145 6.18936L12.4829 10.1977Z" fill="#FFA50E"/>
<path d="M3.28125 19.372L3.34711 19.3058L3.58639 19.2085L12.381 10.4466L12.4925 10.1432L10.2986 5.96258L3.28125 19.372Z" fill="#F6820C"/>
<path d="M12.8045 23.7909L20.7638 19.3519L18.4909 5.35364C18.4198 4.91567 17.8825 4.74253 17.569 5.05656L3.28125 19.372L11.195 23.7905C11.6951 24.0697 12.3042 24.0698 12.8045 23.7909Z" fill="#FDE068"/>
<path d="M20.6921 19.3146L18.4365 5.4227C18.3659 4.98805 17.9191 4.8082 17.608 5.11985L3.36914 19.3448L11.1959 23.7196C11.6923 23.9967 12.2967 23.9968 12.7932 23.7199L20.6921 19.3146Z" fill="#FCCA3F"/>
<path d="M12.8045 23.6601C12.3042 23.9391 11.6951 23.9389 11.195 23.6597L3.34499 19.3047L3.28125 19.372L11.195 23.7905C11.6951 24.0697 12.3042 24.0698 12.8045 23.7909L20.7638 19.3519L20.7443 19.2319L12.8045 23.6601Z" fill="#EEAB37"/>
</svg>
