<svg width="24" height="24" viewBox="0 0 24 24" fill="none" xmlns="http://www.w3.org/2000/svg">
<path d="M18.7082 6.74986L19.2262 7.12485C20.1269 7.85138 20.6448 8.67166 20.7574 9.60912C21.7257 9.42163 22.9642 9.56225 23.5046 9.93723L24 10.2419L23.9099 10.4294C23.7523 10.781 23.7073 10.8747 23.6847 10.9216C22.8065 12.6793 21.0726 12.7027 20.262 12.6793C18.2128 17.8119 13.8443 20.6477 7.94457 20.6477C5.21988 20.6477 3.14821 19.7806 1.75208 18.0697C-0.0944035 15.8198 -0.0944035 12.8902 0.0632234 11.9528L0.10826 11.7653H16.3889C17.2446 11.7653 17.8976 11.5309 18.2128 11.3434C17.8751 10.8278 17.7625 10.2419 17.74 9.9138C17.6724 8.97634 17.8976 7.992 18.3479 7.2889L18.7082 6.74986ZM4.34167 8.9529V11.2966H1.86467V8.9529H4.34167ZM7.26903 8.9529V11.2966H4.79203V8.9529H7.26903ZM10.1964 8.9529V11.2966H7.71939V8.9529H10.1964ZM13.1237 8.9529V11.2966H10.6467V8.9529H13.1237ZM16.0511 8.9529V11.2966H13.5741V8.9529H16.0511ZM13.1237 6.14051V8.48417H10.6467V6.14051H13.1237ZM10.1964 6.14051V8.48417H7.71939V6.14051H10.1964ZM7.26903 6.14051V8.48417H4.79203V6.14051H7.26903ZM13.1237 3.32812V5.67178H10.6467V3.32812H13.1237Z" fill="#2396ED"/>
</svg>
