<svg width="24" height="24" viewBox="0 0 24 24" fill="none" xmlns="http://www.w3.org/2000/svg">
<g clip-path="url(#clip0_5107_98993)">
<path d="M0 8.68571C0 5.64543 0 4.12529 0.591679 2.96405C1.11213 1.9426 1.9426 1.11213 2.96405 0.591679C4.12529 0 5.64543 0 8.68571 0H15.3143C18.3546 0 19.8747 0 21.0359 0.591679C22.0574 1.11213 22.8879 1.9426 23.4083 2.96405C24 4.12529 24 5.64543 24 8.68571V15.3143C24 18.3546 24 19.8747 23.4083 21.0359C22.8879 22.0574 22.0574 22.8879 21.0359 23.4083C19.8747 24 18.3546 24 15.3143 24H8.68571C5.64543 24 4.12529 24 2.96405 23.4083C1.9426 22.8879 1.11213 22.0574 0.591679 21.0359C0 19.8747 0 18.3546 0 15.3143V8.68571Z" fill="#00005B"/>
<path d="M10.1063 15.0548H6.38717L5.63048 17.4702C5.60947 17.5598 5.52699 17.6233 5.43727 17.6189H3.55358C3.44616 17.6189 3.40859 17.5583 3.44088 17.4372L6.66085 7.96514C6.69308 7.86609 6.72525 7.76924 6.75748 7.64254C6.7996 7.42222 6.82116 7.1983 6.82188 6.97379C6.81265 6.90745 6.8699 6.84873 6.93458 6.85818H9.49445C9.56945 6.85818 9.61238 6.88571 9.62325 6.94076L13.278 17.4537C13.3102 17.5639 13.278 17.6189 13.1814 17.6189H11.0883C11.0149 17.6272 10.9448 17.5769 10.9274 17.5033L10.1063 15.0548ZM6.96676 13.0181H9.51056C9.09262 11.5899 8.62096 10.1805 8.23869 8.74126C7.80548 10.2343 7.40548 11.6189 6.96676 13.0181Z" fill="#9999FF"/>
<path d="M15.9961 14.1221C16.1441 15.3486 17.174 15.9333 18.3145 15.9084C18.9576 15.8957 19.6449 15.7959 20.2458 15.5527C20.2993 15.5089 20.3263 15.5362 20.3263 15.6353V17.204C20.3314 17.2856 20.2973 17.3585 20.2297 17.4022C19.4828 17.7415 18.6254 17.8438 17.8154 17.8308C15.4001 17.8308 13.7414 16.129 13.7421 13.653C13.7358 11.3067 15.258 9.32719 17.6222 9.32719C19.6262 9.27523 21.0137 10.8798 21.0193 12.8769C21.0193 13.2407 20.999 13.6057 20.9549 13.9668C20.9463 14.0412 20.883 14.0989 20.81 14.0989C19.2094 14.0989 17.601 14.1221 15.9961 14.1221ZM15.9961 12.6178C16.8881 12.6178 17.7853 12.6493 18.6767 12.6095C18.8107 12.5958 18.9102 12.5704 18.9102 12.4311C18.8916 11.6907 18.2668 11.0817 17.5417 11.1101C16.6657 11.0558 16.105 11.7952 15.9961 12.6178Z" fill="#9999FF"/>
</g>
<defs>
<clipPath id="clip0_5107_98993">
<rect width="24" height="24" fill="white"/>
</clipPath>
</defs>
</svg>
