<svg width="24" height="24" viewBox="0 0 24 24" fill="none" xmlns="http://www.w3.org/2000/svg">
<path fill-rule="evenodd" clip-rule="evenodd" d="M14.0429 2.75036L18.9779 5.59963C19.1168 5.45244 19.2791 5.32248 19.4633 5.21553C20.4868 4.62717 21.7922 4.97651 22.3867 6C22.975 7.02349 22.6257 8.32891 21.6022 8.92339C21.4195 9.02843 21.2276 9.10358 21.0322 9.15035V14.8511C21.2254 14.898 21.4152 14.9727 21.5961 15.0766C22.6257 15.6711 22.975 16.9765 22.3805 18C21.7922 19.0235 20.4806 19.3728 19.4571 18.7845C19.2534 18.6673 19.0763 18.5215 18.9281 18.3551L14.0232 21.1869C14.0934 21.3988 14.1313 21.6255 14.1313 21.8611C14.1313 23.0378 13.1752 24 11.9924 24C10.8095 24 9.85346 23.0439 9.85346 21.8611C9.85346 21.6508 9.88367 21.4477 9.93999 21.2559L5.00636 18.4074C4.86889 18.5517 4.70882 18.6792 4.52762 18.7845C3.498 19.3728 2.19259 19.0235 1.60423 18C1.01587 16.9765 1.36521 15.6711 2.3887 15.0766C2.56967 14.9726 2.75944 14.8979 2.95254 14.851V9.15035C2.75721 9.10358 2.5653 9.02843 2.38258 8.92339C1.35908 8.33504 1.00975 7.02349 1.5981 6C2.18646 4.97651 3.498 4.62717 4.52149 5.21553C4.70463 5.3219 4.86617 5.45103 5.00463 5.59723L9.94091 2.74719C9.884 2.55445 9.85346 2.3503 9.85346 2.13892C9.85346 0.956078 10.8095 0 11.9924 0C13.1752 0 14.1313 0.956078 14.1313 2.13892C14.1313 2.35146 14.1004 2.55669 14.0429 2.75036ZM13.5288 3.62823L18.4754 6.48429C18.3225 7.02133 18.3787 7.6168 18.6788 8.13892C18.9799 8.66273 19.4704 9.00996 20.0149 9.14529V14.8532C19.9871 14.86 19.9595 14.8674 19.9321 14.8753L13.4713 3.68528C13.4908 3.66662 13.51 3.6476 13.5288 3.62823ZM10.5148 3.68657L4.05417 14.8764C4.02624 14.8683 3.99814 14.8607 3.96991 14.8537V9.14529C4.51431 9.00996 5.00485 8.66273 5.30597 8.13892C5.6067 7.61577 5.66245 7.01897 5.5084 6.4811L10.4537 3.62585C10.4737 3.6465 10.494 3.66674 10.5148 3.68657ZM12.59 4.1935L19.0492 15.3808C18.9046 15.5186 18.7772 15.6792 18.6727 15.8611C18.5687 16.0419 18.494 16.2317 18.4472 16.4249H5.53769C5.49084 16.2318 5.41612 16.042 5.3121 15.8611C5.20712 15.6804 5.07999 15.5207 4.93615 15.3834L11.3965 4.19402C11.5856 4.2486 11.7855 4.27783 11.9924 4.27783C12.1999 4.27783 12.4004 4.24841 12.59 4.1935ZM13.5742 20.4201L18.4888 17.5826C18.474 17.5363 18.4608 17.4895 18.4493 17.4423H5.53496C5.52811 17.47 5.52071 17.4976 5.51276 17.525L10.4515 20.3765C10.8403 19.9729 11.3866 19.7222 11.9924 19.7222C12.6197 19.7222 13.1832 19.9911 13.5742 20.4201Z" fill="#E535AB"/>
</svg>
