<svg width="24" height="24" viewBox="0 0 24 24" fill="none" xmlns="http://www.w3.org/2000/svg">
<path d="M8.00093 0.703398H15.1027L7.73036 22.547C7.575 23.0072 7.14341 23.3172 6.65765 23.3172H1.13068C0.76653 23.3172 0.424653 23.1419 0.212249 22.8461C-0.00015521 22.5503 -0.0570793 22.1703 0.0593258 21.8253L6.92794 1.47364C7.08325 1.01319 7.515 0.703125 8.00093 0.703125V0.703398Z" fill="url(#paint0_linear_5107_99021)"/>
<path d="M18.3207 15.3546H7.05893C6.84466 15.3544 6.65208 15.4853 6.57347 15.6846C6.49487 15.8839 6.54625 16.111 6.70299 16.2571L13.9395 23.0115C14.1502 23.208 14.4277 23.3172 14.7158 23.3172H21.0926L18.3207 15.3546Z" fill="#0078D4"/>
<path d="M8.00144 0.703377C7.50972 0.701499 7.07394 1.01969 6.92599 1.48863L0.0682891 21.8067C-0.055989 22.1531 -0.0036503 22.5384 0.208544 22.8391C0.420738 23.1398 0.76616 23.3182 1.13419 23.3172H6.8038C7.2337 23.2404 7.58902 22.9382 7.73387 22.5262L9.10143 18.4958L13.9863 23.0521C14.1911 23.2214 14.4478 23.315 14.7135 23.3172H21.0666L18.2802 15.3546L10.1575 15.3565L15.1289 0.703377H8.00144Z" fill="url(#paint1_linear_5107_99021)"/>
<path d="M17.0722 1.47252C16.9171 1.01281 16.486 0.703369 16.0008 0.703369H8.08594C8.57107 0.703369 9.00213 1.01287 9.15729 1.47252L16.0262 21.825C16.1427 22.1701 16.0858 22.5502 15.8734 22.8461C15.661 23.142 15.3191 23.3175 14.9548 23.3175H22.87C23.2342 23.3175 23.576 23.1418 23.7883 22.846C24.0007 22.5501 24.0575 22.17 23.9411 21.825L17.0722 1.47252Z" fill="url(#paint2_linear_5107_99021)"/>
<defs>
<linearGradient id="paint0_linear_5107_99021" x1="8.90635" y1="2.37916" x2="1.95099" y2="22.9271" gradientUnits="userSpaceOnUse">
<stop stop-color="#114A8B"/>
<stop offset="1" stop-color="#0669BC"/>
</linearGradient>
<linearGradient id="paint1_linear_5107_99021" x1="12.5815" y1="12.5333" x2="11.0781" y2="13.0416" gradientUnits="userSpaceOnUse">
<stop stop-opacity="0.3"/>
<stop offset="0.071" stop-opacity="0.2"/>
<stop offset="0.321" stop-opacity="0.1"/>
<stop offset="0.623" stop-opacity="0.05"/>
<stop offset="1" stop-opacity="0"/>
</linearGradient>
<linearGradient id="paint2_linear_5107_99021" x1="14.0187" y1="1.74363" x2="21.6101" y2="21.9684" gradientUnits="userSpaceOnUse">
<stop stop-color="#3CCBF4"/>
<stop offset="1" stop-color="#2892DF"/>
</linearGradient>
</defs>
</svg>
