<svg width="24" height="24" viewBox="0 0 24 24" fill="none" xmlns="http://www.w3.org/2000/svg">
<path d="M7.66186 23.3262C7.1032 23.3262 6.57558 23.0779 6.21866 22.6279L0.78726 15.8775C0.43034 15.4274 0.290676 14.8533 0.43034 14.2946L2.37012 5.86818C2.49427 5.30952 2.86671 4.85949 3.37881 4.6112L11.2311 0.855775C11.4794 0.731629 11.7587 0.669556 12.038 0.669556C12.3173 0.669556 12.5967 0.731629 12.845 0.855775L20.6972 4.59568C21.2093 4.84397 21.5817 5.294 21.7059 5.85266L23.6457 14.2791C23.7698 14.8377 23.6457 15.4119 23.2888 15.8619L17.8574 22.6124C17.5004 23.0469 16.9728 23.3107 16.4142 23.3107L7.66186 23.3262Z" fill="#326DE6"/>
<path d="M12.0233 1.05748C12.2405 1.05748 12.4578 1.10404 12.6595 1.19715L20.5118 4.93705C20.9152 5.13879 21.2256 5.51123 21.3187 5.94574L23.2585 14.3722C23.3671 14.8222 23.2585 15.2877 22.9637 15.6447L17.5323 22.3951C17.2529 22.752 16.8184 22.9538 16.3684 22.9538H7.66264C7.21261 22.9538 6.7781 22.752 6.49877 22.3951L1.06738 15.6447C0.788047 15.2877 0.679419 14.8222 0.772528 14.3722L2.71231 5.94574C2.82094 5.49571 3.11579 5.12327 3.51926 4.93705L11.3715 1.18163C11.5732 1.10404 11.806 1.05748 12.0233 1.05748ZM12.0233 0.328125C11.6974 0.328125 11.3715 0.405716 11.0611 0.545381L3.2089 4.3008C2.58817 4.59565 2.15365 5.13879 1.99847 5.80608L0.0586878 14.2325C-0.0964949 14.8998 0.0586878 15.5826 0.493199 16.1257L5.9246 22.8762C6.34359 23.4038 6.97984 23.6986 7.64712 23.6986H16.3529C17.0202 23.6986 17.6564 23.4038 18.0754 22.8762L23.5068 16.1257C23.9413 15.5981 24.0965 14.8998 23.9413 14.2325L22.0015 5.80608C21.8463 5.13879 21.4118 4.59565 20.7911 4.3008L12.9699 0.545381C12.675 0.405716 12.3492 0.328125 12.0233 0.328125Z" fill="white"/>
<path d="M19.8912 13.7049C19.8757 13.7049 19.8757 13.7049 19.8912 13.7049H19.8757C19.8602 13.7049 19.8446 13.7049 19.8446 13.6894C19.8136 13.6894 19.7826 13.6738 19.7515 13.6738C19.6429 13.6583 19.5498 13.6428 19.4567 13.6428C19.4101 13.6428 19.3636 13.6428 19.3015 13.6273H19.286C18.9601 13.5962 18.6963 13.5652 18.448 13.4876C18.3394 13.4411 18.3083 13.379 18.2773 13.3169C18.2773 13.3014 18.2618 13.3014 18.2618 13.2859L18.06 13.2238C18.1531 12.51 18.1221 11.7651 17.9514 11.0357C17.7807 10.3064 17.4859 9.62357 17.0824 9.00284L17.2376 8.86317V8.83214C17.2376 8.75455 17.2531 8.67696 17.3152 8.59936C17.5014 8.42866 17.7342 8.289 18.0135 8.1183C18.06 8.08726 18.1066 8.07174 18.1531 8.04071C18.2463 7.99415 18.3238 7.9476 18.417 7.88552C18.4325 7.87001 18.4635 7.85449 18.4945 7.82345C18.5101 7.80793 18.5256 7.80793 18.5256 7.79241C18.7428 7.60619 18.7894 7.29583 18.6342 7.09409C18.5566 6.98546 18.417 6.92339 18.2773 6.92339C18.1531 6.92339 18.0445 6.96995 17.9359 7.04754C17.9204 7.06306 17.9204 7.06306 17.9049 7.07857C17.8738 7.09409 17.8583 7.12513 17.8273 7.14065C17.7497 7.21824 17.6876 7.28031 17.6255 7.3579C17.5945 7.38894 17.5635 7.43549 17.5169 7.46653C17.2996 7.6993 17.0979 7.88552 16.8962 8.02519C16.8496 8.05622 16.8031 8.07174 16.7565 8.07174C16.7255 8.07174 16.6944 8.07174 16.6634 8.05622H16.6324L16.4461 8.18037C16.2444 7.96311 16.0271 7.7769 15.8099 7.59068C14.8788 6.86132 13.746 6.41129 12.5666 6.30266L12.5511 6.10092C12.5355 6.0854 12.5355 6.0854 12.52 6.06989C12.4735 6.02333 12.4114 5.97678 12.3959 5.86815C12.3803 5.61986 12.4114 5.34053 12.4424 5.03016V5.01464C12.4424 4.96809 12.4579 4.90601 12.4735 4.85946C12.489 4.76635 12.5045 4.67324 12.52 4.56461V4.4715V4.42495C12.52 4.14562 12.3028 3.91285 12.0389 3.91285C11.9148 3.91285 11.7907 3.97492 11.6975 4.06803C11.6044 4.16114 11.5579 4.28528 11.5579 4.42495V4.45599V4.54909C11.5579 4.65772 11.5734 4.75083 11.6044 4.84394C11.62 4.8905 11.62 4.93705 11.6355 4.99912V5.01464C11.6665 5.32501 11.7131 5.60434 11.682 5.85263C11.6665 5.96126 11.6044 6.00781 11.5579 6.05437C11.5424 6.06989 11.5424 6.06989 11.5268 6.0854L11.5113 6.28714C11.232 6.31818 10.9527 6.34921 10.6733 6.41129C9.47843 6.6751 8.42319 7.28031 7.60072 8.14933L7.44554 8.04071H7.4145C7.38347 8.04071 7.35243 8.05622 7.32139 8.05622C7.27484 8.05622 7.22828 8.04071 7.18173 8.00967C6.97999 7.87001 6.77825 7.66827 6.561 7.43549C6.52996 7.40446 6.49892 7.3579 6.45237 7.32687C6.3903 7.24927 6.32822 7.1872 6.25063 7.10961C6.23511 7.09409 6.20408 7.07857 6.17304 7.04754C6.15752 7.03202 6.142 7.03202 6.142 7.0165C6.04889 6.93891 5.92475 6.89235 5.8006 6.89235C5.66094 6.89235 5.52127 6.95443 5.44368 7.06306C5.2885 7.26479 5.33505 7.57516 5.55231 7.76138C5.56783 7.76138 5.56783 7.7769 5.58335 7.7769C5.61438 7.79241 5.6299 7.82345 5.66094 7.83897C5.75405 7.90104 5.83164 7.9476 5.92475 7.99415C5.9713 8.00967 6.01786 8.04071 6.06441 8.07174C6.34374 8.24244 6.57651 8.38211 6.76273 8.55281C6.84033 8.6304 6.84033 8.70799 6.84033 8.78558V8.81662L6.99551 8.95628C6.96447 9.00284 6.93343 9.03388 6.91792 9.08043C6.142 10.3064 5.84716 11.7496 6.04889 13.1773L5.84716 13.2393C5.84716 13.2548 5.83164 13.2548 5.83164 13.2704C5.8006 13.3324 5.75405 13.3945 5.66094 13.4411C5.42816 13.5187 5.14883 13.5497 4.82295 13.5807H4.80743C4.76088 13.5807 4.6988 13.5807 4.65225 13.5962C4.55914 13.5962 4.46603 13.6118 4.3574 13.6273C4.32637 13.6273 4.29533 13.6428 4.26429 13.6428C4.24877 13.6428 4.23326 13.6428 4.21774 13.6583C3.93841 13.7204 3.76771 13.9842 3.81426 14.2325C3.86082 14.4498 4.06255 14.5894 4.31085 14.5894C4.3574 14.5894 4.38844 14.5894 4.43499 14.5739C4.45051 14.5739 4.46603 14.5739 4.46603 14.5584C4.49707 14.5584 4.5281 14.5429 4.55914 14.5429C4.66777 14.5118 4.74536 14.4808 4.83847 14.4342C4.88502 14.4187 4.93158 14.3877 4.97813 14.3722H4.99365C5.2885 14.2635 5.55231 14.1704 5.8006 14.1394H5.83164C5.92475 14.1394 5.98682 14.1859 6.03338 14.217C6.04889 14.217 6.04889 14.2325 6.06441 14.2325L6.28167 14.2015C6.65411 15.3498 7.36795 16.374 8.31456 17.1189C8.53182 17.2896 8.74907 17.4293 8.98185 17.5689L8.88874 17.7707C8.88874 17.7862 8.90426 17.7862 8.90426 17.8017C8.93529 17.8638 8.96633 17.9414 8.93529 18.05C8.84218 18.2828 8.70252 18.5155 8.53182 18.7794V18.7949C8.50078 18.8414 8.46974 18.8725 8.43871 18.919C8.37663 18.9966 8.33008 19.0742 8.26801 19.1673C8.25249 19.1828 8.23697 19.2139 8.22145 19.2449C8.22145 19.2604 8.20593 19.2759 8.20593 19.2759C8.08179 19.5397 8.1749 19.8346 8.40767 19.9432C8.46974 19.9743 8.53182 19.9898 8.59389 19.9898C8.78011 19.9898 8.96633 19.8656 9.05944 19.6949C9.05944 19.6794 9.07496 19.6639 9.07496 19.6639C9.09048 19.6329 9.10599 19.6018 9.12151 19.5863C9.16807 19.4777 9.18358 19.4001 9.21462 19.307C9.23014 19.2604 9.24566 19.2139 9.26118 19.1673C9.3698 18.8569 9.4474 18.6087 9.58706 18.3914C9.64913 18.2983 9.72672 18.2828 9.7888 18.2517C9.80432 18.2517 9.80432 18.2517 9.81983 18.2362L9.92846 18.0345C10.6113 18.2983 11.3561 18.438 12.101 18.438C12.5511 18.438 13.0166 18.3914 13.4511 18.2828C13.7304 18.2207 13.9943 18.1431 14.2581 18.05L14.3512 18.2207C14.3667 18.2207 14.3667 18.2207 14.3822 18.2362C14.4598 18.2517 14.5219 18.2828 14.5839 18.3759C14.7081 18.5931 14.8012 18.8569 14.9098 19.1518V19.1673C14.9253 19.2139 14.9409 19.2604 14.9564 19.307C14.9874 19.4001 15.0029 19.4932 15.0495 19.5863C15.065 19.6173 15.0805 19.6329 15.096 19.6639C15.096 19.6794 15.1116 19.6949 15.1116 19.6949C15.2047 19.8811 15.3909 19.9898 15.5771 19.9898C15.6392 19.9898 15.7013 19.9743 15.7633 19.9432C15.872 19.8811 15.9651 19.788 15.9961 19.6639C16.0271 19.5397 16.0271 19.4001 15.9651 19.2759C15.9651 19.2604 15.9496 19.2604 15.9496 19.2449C15.934 19.2139 15.9185 19.1828 15.903 19.1673C15.8564 19.0742 15.7944 18.9966 15.7323 18.919C15.7013 18.8725 15.6702 18.8414 15.6392 18.7949V18.7794C15.4685 18.5155 15.3133 18.2828 15.2357 18.05C15.2047 17.9414 15.2357 17.8793 15.2512 17.8017C15.2512 17.7862 15.2667 17.7862 15.2667 17.7707L15.1892 17.5844C16.0116 17.1034 16.7099 16.4206 17.2376 15.5826C17.5169 15.1481 17.7342 14.667 17.8893 14.1859L18.0756 14.217C18.0911 14.217 18.0911 14.2015 18.1066 14.2015C18.1687 14.1704 18.2152 14.1239 18.3083 14.1239H18.3394C18.5877 14.1549 18.8515 14.248 19.1463 14.3566H19.1618C19.2084 14.3722 19.2549 14.4032 19.3015 14.4187C19.3946 14.4653 19.4722 14.4963 19.5808 14.5273C19.6119 14.5273 19.6429 14.5429 19.6739 14.5429C19.6895 14.5429 19.705 14.5429 19.7205 14.5584C19.767 14.5739 19.7981 14.5739 19.8446 14.5739C20.0774 14.5739 20.2792 14.4187 20.3412 14.217C20.3412 14.0308 20.1705 13.7825 19.8912 13.7049ZM12.7062 12.9445L12.0234 13.2704L11.3406 12.9445L11.1699 12.2151L11.6355 11.6254H12.3959L12.8614 12.2151L12.7062 12.9445ZM16.7565 11.3306C16.8806 11.8582 16.9117 12.3858 16.8651 12.8979L14.4908 12.2151C14.2736 12.153 14.1494 11.9358 14.196 11.7185C14.2115 11.6565 14.2425 11.5944 14.2891 11.5478L16.1668 9.85634C16.4306 10.2909 16.6324 10.7874 16.7565 11.3306ZM15.4219 8.92525L13.389 10.3684C13.2183 10.4771 12.9856 10.446 12.8459 10.2753C12.7993 10.2288 12.7838 10.1667 12.7683 10.1046L12.6286 7.57516C13.6994 7.6993 14.6771 8.18037 15.4219 8.92525ZM10.9216 7.65275C11.0923 7.62171 11.2475 7.59068 11.4182 7.55964L11.2786 10.0426C11.263 10.2598 11.0923 10.446 10.8596 10.446C10.7975 10.446 10.7199 10.4305 10.6733 10.3995L8.60941 8.92525C9.24566 8.289 10.0371 7.85449 10.9216 7.65275ZM7.86453 9.85634L9.71121 11.5013C9.88191 11.6409 9.89743 11.9048 9.75776 12.0755C9.71121 12.1375 9.64913 12.1841 9.57154 12.1996L7.16621 12.8979C7.0731 11.8427 7.30587 10.7719 7.86453 9.85634ZM7.44554 14.0618L9.91294 13.6428C10.1147 13.6273 10.3009 13.7669 10.3475 13.9687C10.363 14.0618 10.363 14.1394 10.3319 14.217L9.38532 16.4982C8.5163 15.9395 7.81798 15.086 7.44554 14.0618ZM13.1097 17.1499C12.7528 17.2275 12.3959 17.2741 12.0234 17.2741C11.4803 17.2741 10.9527 17.181 10.4561 17.0258L11.682 14.8067C11.8062 14.667 12.0079 14.6049 12.1786 14.698C12.2562 14.7446 12.3183 14.8067 12.3648 14.8687L13.5597 17.0258C13.4201 17.0723 13.2649 17.1034 13.1097 17.1499ZM16.1358 14.9929C15.7478 15.6136 15.2357 16.1102 14.646 16.4982L13.6684 14.1549C13.6218 13.9687 13.6994 13.7669 13.8856 13.6738C13.9477 13.6428 14.0253 13.6273 14.1029 13.6273L16.5858 14.0463C16.4927 14.3877 16.3375 14.698 16.1358 14.9929Z" fill="white"/>
</svg>
