<svg width="24" height="24" viewBox="0 0 24 24" fill="none" xmlns="http://www.w3.org/2000/svg">
<g clip-path="url(#clip0_5107_98991)">
<path d="M0 8.68571C0 5.64543 0 4.12529 0.591679 2.96405C1.11213 1.9426 1.9426 1.11213 2.96405 0.591679C4.12529 0 5.64543 0 8.68571 0H15.3143C18.3546 0 19.8747 0 21.0359 0.591679C22.0574 1.11213 22.8879 1.9426 23.4083 2.96405C24 4.12529 24 5.64543 24 8.68571V15.3143C24 18.3546 24 19.8747 23.4083 21.0359C22.8879 22.0574 22.0574 22.8879 21.0359 23.4083C19.8747 24 18.3546 24 15.3143 24H8.68571C5.64543 24 4.12529 24 2.96405 23.4083C1.9426 22.8879 1.11213 22.0574 0.591679 21.0359C0 19.8747 0 18.3546 0 15.3143V8.68571Z" fill="#001E36"/>
<path d="M5.14258 17.5854V7.03151C5.14258 6.95971 5.17258 6.91869 5.24258 6.91869C6.27597 6.91869 7.3089 6.85715 8.34258 6.85715C10.0199 6.85715 11.836 7.43066 12.4726 9.18535C12.6226 9.61612 12.7026 10.0571 12.7026 10.5187C12.7026 11.4007 12.5026 12.1289 12.1026 12.7033C10.9852 14.3077 9.04858 14.2828 7.31258 14.2828V17.5751C7.32615 17.6726 7.24309 17.7187 7.16258 17.7187H5.26258C5.18258 17.7187 5.14258 17.6777 5.14258 17.5854ZM7.32258 8.89817V12.3443C8.01091 12.3948 8.7312 12.4002 9.39258 12.1802C10.1227 11.9696 10.5226 11.3376 10.5226 10.5802C10.5429 9.93488 10.1912 9.31568 9.59258 9.08279C8.93918 8.8111 8.0279 8.79483 7.32258 8.89817Z" fill="#31A8FF"/>
<path d="M18.9397 11.6635C18.6371 11.504 18.3149 11.3874 17.9818 11.3167C17.5537 11.216 15.8652 10.8632 15.8646 11.746C15.8796 12.2389 16.662 12.4804 17.0077 12.6212C18.2213 13.0379 19.5946 13.7826 19.5676 15.2798C19.6047 17.1436 17.7989 17.8886 16.251 17.8888C15.4452 17.8971 14.6057 17.7723 13.8682 17.4264C13.7978 17.3892 13.7525 17.3095 13.7555 17.2283V15.4449C13.7476 15.3734 13.8243 15.3109 13.8843 15.3623C14.6069 15.7993 15.4634 16.0115 16.2993 16.0228C16.6683 16.0228 17.3997 15.9871 17.3941 15.4449C17.3941 14.9246 16.5192 14.6854 16.1705 14.5532C15.665 14.3727 15.1856 14.1228 14.7456 13.8101C14.1307 13.3715 13.745 12.6683 13.7555 11.8946C13.7519 10.1397 15.4141 9.35204 16.9111 9.35167C17.6109 9.3459 18.3624 9.39772 19.0139 9.68192C19.1076 9.7095 19.127 9.80817 19.1266 9.89659V11.5644C19.1325 11.6679 19.0175 11.7032 18.9397 11.6635Z" fill="#31A8FF"/>
</g>
<defs>
<clipPath id="clip0_5107_98991">
<rect width="24" height="24" fill="white"/>
</clipPath>
</defs>
</svg>
