<svg width="24" height="24" viewBox="0 0 24 24" fill="none" xmlns="http://www.w3.org/2000/svg">
<g clip-path="url(#clip0_5107_99016)">
<path d="M8.88806 18.5605C8.88806 18.5605 7.97092 19.0939 9.54076 19.2743C11.4426 19.4913 12.4146 19.4602 14.5104 19.0635C14.5104 19.0635 15.0614 19.409 15.8309 19.7083C11.1327 21.7219 5.19782 19.5916 8.88806 18.5605Z" fill="#5382A1"/>
<path d="M8.31319 15.9329C8.31319 15.9329 7.28453 16.6944 8.85553 16.8569C10.8871 17.0664 12.4915 17.0836 15.2677 16.549C15.2677 16.549 15.6517 16.9383 16.2555 17.1512C10.575 18.8122 4.24796 17.2822 8.31319 15.9329Z" fill="#5382A1"/>
<path d="M13.1536 11.4756C14.3113 12.8084 12.8494 14.0078 12.8494 14.0078C12.8494 14.0078 15.7889 12.4904 14.439 10.5902C13.1781 8.81811 12.2112 7.93765 17.4456 4.90192C17.4456 4.90192 9.2294 6.95394 13.1536 11.4756Z" fill="#E76F00"/>
<path d="M19.3678 20.5041C19.3678 20.5041 20.0465 21.0633 18.6203 21.4959C15.9084 22.3175 7.33306 22.5655 4.95087 21.5287C4.09454 21.1561 5.70041 20.6391 6.20555 20.5307C6.73237 20.4164 7.03343 20.4377 7.03343 20.4377C6.08109 19.7668 0.877939 21.755 4.39048 22.3244C13.9697 23.8779 21.8525 21.6249 19.3678 20.5041Z" fill="#5382A1"/>
<path d="M9.32952 13.2104C9.32952 13.2104 4.96756 14.2464 7.78484 14.6227C8.97439 14.7819 11.3457 14.7459 13.5545 14.5608C15.3597 14.4085 17.1723 14.0848 17.1723 14.0848C17.1723 14.0848 16.5358 14.3574 16.0753 14.6718C11.6458 15.8368 3.08884 15.2948 5.55228 14.1032C7.63561 13.0962 9.32952 13.2104 9.32952 13.2104Z" fill="#5382A1"/>
<path d="M17.155 17.5842C21.6577 15.2444 19.5758 12.9958 18.1227 13.2987C17.7665 13.3729 17.6077 13.4371 17.6077 13.4371C17.6077 13.4371 17.7399 13.23 17.9925 13.1403C20.8672 12.1296 23.0781 16.1212 17.0645 17.7021C17.0645 17.7022 17.1341 17.6399 17.155 17.5842Z" fill="#5382A1"/>
<path d="M14.4384 0C14.4384 0 16.9322 2.49455 12.0733 6.33047C8.17694 9.40753 11.1848 11.162 12.0717 13.1665C9.7973 11.1145 8.12823 9.30811 9.24797 7.62687C10.8915 5.15897 15.4446 3.96245 14.4384 0Z" fill="#E76F00"/>
<path d="M9.77197 23.9246C14.0941 24.2012 20.7312 23.7711 20.8884 21.726C20.8884 21.726 20.5862 22.5012 17.3164 23.1169C13.6274 23.8112 9.07748 23.7301 6.37891 23.2852C6.37897 23.2851 6.93134 23.7424 9.77197 23.9246Z" fill="#5382A1"/>
</g>
<defs>
<clipPath id="clip0_5107_99016">
<rect width="24" height="24" fill="white"/>
</clipPath>
</defs>
</svg>
