<svg width="24" height="24" viewBox="0 0 24 24" fill="none" xmlns="http://www.w3.org/2000/svg">
<path d="M21.4962 11.8166C21.4962 10.5828 20.496 9.58271 19.2622 9.58271C19.1829 9.58271 19.1046 9.58696 19.0275 9.59504L22.0957 0.545532H9.0566L12.1206 9.58718C12.0756 9.58445 12.0305 9.58271 11.9849 9.58271C10.7511 9.58271 9.75092 10.5828 9.75092 11.8166C9.75092 12.8139 10.4045 13.6581 11.3065 13.9454C10.8301 14.7707 10.2306 15.5139 9.54998 16.1561C8.62449 17.0292 7.56527 17.6912 6.41963 18.0992C5.0557 17.3985 4.41157 15.8402 4.99279 14.4739C5.05837 14.3196 5.12543 14.1632 5.18942 14.0075C6.17761 13.7769 6.91389 12.8911 6.91389 11.8326C6.91389 10.5989 5.91376 9.59875 4.67995 9.59875C3.44619 9.59875 2.44601 10.5989 2.44601 11.8326C2.44601 12.5892 2.82247 13.2575 3.39786 13.6616C2.84495 14.9205 2.03218 16.238 1.77897 17.765C1.47551 19.595 1.77798 21.5376 3.36075 22.6346C7.0469 25.1894 11.0482 21.0508 15.267 20.0104C16.796 19.6334 18.4743 19.6942 19.8213 18.914C20.8329 18.328 21.4998 17.3571 21.6891 16.267C21.8761 15.1901 21.6035 14.1179 20.9766 13.2485C21.3008 12.8608 21.4962 12.3616 21.4962 11.8166Z" fill="#99425B"/>
<path d="M21.151 16.1737C20.9867 17.1201 20.4022 17.9467 19.5473 18.4419C18.7505 18.9034 17.7956 19.0411 16.7846 19.1869C16.243 19.265 15.6829 19.3458 15.1358 19.4807C13.6892 19.8374 12.288 20.5335 10.9329 21.2065C8.22117 22.5535 5.87926 23.7166 3.67102 22.1862C2.05349 21.0651 2.12818 18.9909 2.31663 17.8543C2.49128 16.8012 2.96344 15.8314 3.42004 14.8935C3.49894 14.7313 3.57625 14.5722 3.65148 14.4144C3.8778 14.5048 4.11851 14.5665 4.36943 14.5945C3.90464 16.1285 4.63557 17.7964 6.16979 18.5845L6.37973 18.6924L6.60212 18.6132C7.81497 18.1813 8.93257 17.4882 9.92386 16.5529C10.5646 15.9484 11.1155 15.2796 11.5683 14.565C11.7041 14.5854 11.8429 14.5962 11.9843 14.5962C13.3924 14.5962 14.5584 13.5435 14.7388 12.1839C15.3152 12.1628 15.9274 12.1627 16.5071 12.1837C16.6874 13.5434 17.8535 14.5962 19.2617 14.5962C19.8504 14.5962 20.3966 14.4117 20.8464 14.0982C21.1588 14.7376 21.2754 15.457 21.151 16.1737ZM4.67938 10.1444C5.61039 10.1444 6.36773 10.9017 6.36773 11.8327C6.36773 12.1671 6.26963 12.4789 6.10115 12.7415C5.82044 13.1792 5.34354 13.4792 4.79538 13.5166C4.75702 13.5192 4.71839 13.521 4.67938 13.521C4.47195 13.521 4.27319 13.4832 4.08943 13.4145C3.71772 13.2754 3.40799 13.0087 3.21315 12.6681C3.07212 12.4216 2.99104 12.1365 2.99104 11.8327C2.99104 10.9017 3.74844 10.1444 4.67938 10.1444ZM10.296 11.8167C10.296 10.9708 10.9212 10.2685 11.7337 10.147C11.8155 10.1347 11.8992 10.1283 11.9843 10.1283C12.5255 10.1283 13.0074 10.3847 13.3165 10.782C13.3933 10.8807 13.4599 10.9878 13.5135 11.1022C13.6154 11.3193 13.6726 11.5614 13.6726 11.8167C13.6726 11.9516 13.6563 12.0828 13.6262 12.2087C13.4617 12.8975 12.8743 13.424 12.1546 13.4964C12.0987 13.5021 12.0418 13.505 11.9843 13.505C11.6472 13.505 11.3332 13.4053 11.0693 13.2344C10.6044 12.9333 10.296 12.4105 10.296 11.8167ZM17.3425 9.80903C16.9808 10.1551 16.7118 10.5972 16.5779 11.0945C15.9527 11.071 15.2897 11.071 14.6681 11.0945C14.5254 10.5645 14.2292 10.097 13.8309 9.74187L15.5779 6.2093L17.3425 9.80903ZM9.81703 1.09119H21.334L18.6139 9.11394C18.496 9.14226 18.381 9.17788 18.2693 9.22071L15.5822 3.73901L12.8874 9.18798C12.7709 9.14788 12.6509 9.11558 12.528 9.09108L9.81703 1.09119ZM20.95 11.8167C20.95 11.986 20.9247 12.1494 20.8781 12.3037C20.7673 12.6707 20.5346 12.9853 20.2274 13.2003C19.9535 13.3921 19.6206 13.505 19.2617 13.505C18.4821 13.505 17.8245 12.9738 17.6312 12.2543C17.5937 12.1147 17.5733 11.968 17.5733 11.8167C17.5733 11.5859 17.62 11.3658 17.7041 11.1653C17.7475 11.062 17.8016 10.9643 17.8638 10.8726C18.1676 10.4241 18.6804 10.1283 19.2617 10.1283C19.315 10.1283 19.3676 10.1311 19.4196 10.1359C20.2768 10.2158 20.95 10.939 20.95 11.8167ZM22.0412 11.8167C22.0412 10.4597 21.0635 9.32743 19.7757 9.08552L22.8562 0H8.2951L11.3803 9.10401C10.1372 9.38063 9.20477 10.4915 9.20477 11.8167C9.20477 12.8117 9.73066 13.6858 10.5188 14.177C10.1397 14.7418 9.69013 15.2732 9.17503 15.7592C8.358 16.53 7.44784 17.1145 6.46659 17.4991C5.47824 16.8782 5.06043 15.7075 5.49434 14.6875L5.52833 14.6075C5.54961 14.5576 5.57089 14.5076 5.59211 14.4576C6.67768 14.0789 7.45892 13.0457 7.45892 11.8327C7.45892 10.3 6.21202 9.05316 4.67938 9.05316C3.14675 9.05316 1.89985 10.3 1.89985 11.8327C1.89985 12.6063 2.21783 13.3068 2.72959 13.8112C2.63684 14.0089 2.53918 14.21 2.43895 14.4158C1.97105 15.3769 1.44073 16.4662 1.24017 17.6757C0.841835 20.078 1.48438 21.9983 3.04942 23.083C3.99914 23.7412 4.96353 24 5.93409 24C7.76161 24 9.61025 23.0819 11.4184 22.1838C12.7205 21.537 14.0671 20.8682 15.3971 20.5402C15.892 20.4181 16.4012 20.3447 16.9404 20.2669C18.0095 20.1127 19.115 19.9533 20.0942 19.3861C21.2293 18.7286 22.0064 17.6258 22.2261 16.3604C22.4147 15.274 22.1877 14.186 21.6341 13.2632C21.8922 12.8416 22.0412 12.3462 22.0412 11.8167Z" fill="white"/>
</svg>
