<svg width="24" height="24" viewBox="0 0 24 24" fill="none" xmlns="http://www.w3.org/2000/svg">
<g clip-path="url(#clip0_5107_98986)">
<path d="M12.5855 23.4155C18.5665 23.4155 23.4151 18.3048 23.4151 12.0005C23.4151 5.69613 18.5665 0.585449 12.5855 0.585449C6.60445 0.585449 1.75586 5.69613 1.75586 12.0005C1.75586 18.3048 6.60445 23.4155 12.5855 23.4155Z" fill="#616161"/>
<path d="M14.6363 18.1092C19.4857 18.1092 23.417 14.3047 23.417 9.61171C23.417 4.9187 19.4857 1.11426 14.6363 1.11426C9.78676 1.11426 5.85547 4.9187 5.85547 9.61171C5.85547 14.3047 9.78676 18.1092 14.6363 18.1092Z" fill="#212121"/>
<path d="M14.0474 1.75586C14.0474 1.75586 16.9743 2.92663 15.7444 3.96979C15.1221 4.49722 14.3313 4.77645 13.5937 5.12183C12.7373 5.52281 11.8551 5.87112 11.0812 6.43192C10.4964 6.85574 9.9438 7.31117 9.54691 7.92348C9.07158 8.65638 8.79176 9.45836 8.74376 10.3341C8.70044 11.1226 8.84679 11.8801 9.1746 12.5937C9.64233 13.6123 10.4016 14.3575 11.3979 14.8703C12.1074 15.2355 12.8596 15.4047 13.6534 15.386C14.583 15.3643 15.4394 15.1009 16.208 14.5705C16.6441 14.2696 16.9918 13.888 17.3197 13.47C17.699 12.9865 18.0051 12.4667 18.268 11.9187C18.5952 11.2373 18.8417 10.5232 19.1127 9.81837C19.3205 9.27865 19.5324 8.736 19.855 8.25422C21.072 6.43894 22.2428 8.1951 22.2428 8.1951C22.2428 8.1951 21.6574 5.85356 19.9012 4.0974C18.1451 2.34124 14.0474 1.75586 14.0474 1.75586Z" fill="#3949AB"/>
<path d="M20.4881 9.36628C20.2306 12.652 19.5826 15.1083 18.6969 16.933C17.3505 20.265 13.9558 22.5492 10.07 22.212C5.98698 21.8572 2.68072 18.5141 2.36695 14.4275C2.11817 11.1886 3.69051 8.30088 6.16435 6.66941C8.18861 5.17726 11.0271 4.58485 13.4635 4.09781C15.4374 3.70326 16.4127 3.10851 16.8389 2.49444C17.258 1.89032 16.9331 1.04795 16.2464 0.785698C14.67 0.184507 12.939 -0.101161 11.1214 0.0323068C4.83201 0.494176 -0.11391 5.91953 0.00199614 12.2247C0.127854 19.1223 6.0742 24.598 13.1363 23.9488C18.5078 23.4548 22.9567 19.3132 23.8354 13.9914C24.2212 11.6563 23.9097 9.43536 23.1019 7.46905C22.7232 6.54823 21.4259 6.46452 20.9769 7.35314C20.6327 8.03511 20.5209 8.94831 20.4881 9.36628Z" fill="#E0E0E0"/>
</g>
<defs>
<clipPath id="clip0_5107_98986">
<rect width="24" height="24" fill="white"/>
</clipPath>
</defs>
</svg>
