<svg width="24" height="24" viewBox="0 0 24 24" fill="none" xmlns="http://www.w3.org/2000/svg">
<g clip-path="url(#clip0_5107_98999)">
<path d="M0 8.68571C0 5.64543 0 4.12529 0.591679 2.96405C1.11213 1.9426 1.9426 1.11213 2.96405 0.591679C4.12529 0 5.64543 0 8.68571 0H15.3143C18.3546 0 19.8747 0 21.0359 0.591679C22.0574 1.11213 22.8879 1.9426 23.4083 2.96405C24 4.12529 24 5.64543 24 8.68571V15.3143C24 18.3546 24 19.8747 23.4083 21.0359C22.8879 22.0574 22.0574 22.8879 21.0359 23.4083C19.8747 24 18.3546 24 15.3143 24H8.68571C5.64543 24 4.12529 24 2.96405 23.4083C1.9426 22.8879 1.11213 22.0574 0.591679 21.0359C0 19.8747 0 18.3546 0 15.3143V8.68571Z" fill="#330000"/>
<path d="M11.6297 15.0825H7.91061L7.15392 17.4934C7.13291 17.583 7.05043 17.6464 6.96071 17.642H5.07702C4.9696 17.642 4.93203 17.5815 4.96432 17.4604L8.1843 7.94897C8.21652 7.84991 8.24873 7.73708 8.28093 7.61046C8.32304 7.39014 8.34461 7.16622 8.34533 6.94171C8.3361 6.87539 8.39439 6.8168 8.45803 6.8261H11.0179C11.0929 6.8261 11.1358 6.85363 11.1467 6.90868L14.8014 17.4769C14.8336 17.587 14.8014 17.6421 14.7048 17.642H12.6118C12.5384 17.6503 12.4683 17.6 12.4508 17.5264L11.6297 15.0825ZM8.49021 13.0019H11.034C10.6161 11.5738 10.1444 10.1644 9.76213 8.72509C9.34968 10.1668 8.89968 11.6027 8.49021 13.0019Z" fill="#FF9A00"/>
<path d="M16.9747 8.57642C16.8105 8.58318 16.6468 8.55432 16.4942 8.49172C16.3416 8.42912 16.2036 8.33419 16.0892 8.21314C15.9752 8.08684 15.8866 7.93867 15.8286 7.77714C15.7705 7.61561 15.7442 7.44391 15.7511 7.27191C15.7452 7.10161 15.7745 6.93196 15.8369 6.77404C15.8993 6.61612 15.9935 6.47348 16.1133 6.35544C16.232 6.23862 16.3721 6.1471 16.5255 6.08616C16.6788 6.02522 16.8425 5.99608 17.0069 6.00042C17.3933 6.00042 17.6965 6.11876 17.9166 6.35544C18.0276 6.47844 18.1139 6.6227 18.1706 6.77996C18.2272 6.93722 18.253 7.10439 18.2466 7.27191C18.2533 7.44458 18.2262 7.61688 18.1667 7.77857C18.1072 7.94026 18.0167 8.08804 17.9005 8.21314C17.779 8.33596 17.634 8.43165 17.4747 8.49418C17.3153 8.5567 17.1451 8.5847 16.9747 8.57642ZM15.8638 17.4768V9.58368C15.8638 9.48462 15.9066 9.43507 15.9926 9.43507H17.9729C18.0587 9.43507 18.1016 9.48461 18.1017 9.58368V17.4768C18.1017 17.587 18.0588 17.642 17.9729 17.642H16.0087C15.9121 17.642 15.8638 17.5869 15.8638 17.4768Z" fill="#FF9A00"/>
</g>
<defs>
<clipPath id="clip0_5107_98999">
<rect width="24" height="24" fill="white"/>
</clipPath>
</defs>
</svg>
