<svg width="24" height="24" viewBox="0 0 24 24" fill="none" xmlns="http://www.w3.org/2000/svg">
<path d="M9.51758 7.98781L22.3984 12L9.51758 3.45361V7.98781Z" fill="#004D40"/>
<path d="M15.9896 0H4.7708L2 4.8H10.4L15.9896 0Z" fill="#26A69A"/>
<path d="M22.3984 12L15.988 0L10.3984 4.8L22.3984 12Z" fill="#00897B"/>
<path d="M9.69336 20.4396L22.3984 12L9.69336 15.3768V20.4396Z" fill="#004D40"/>
<path d="M10.4003 16.2582L22.4003 12L10.399 7.75439L8.15625 12L10.4003 16.2582Z" fill="#00897B"/>
<path d="M10.4 7.75395L8.0564 6.93555L2.6336 11.9995L8.0564 17.0761L10.4 16.2571V7.75395ZM10.4 19.2121H2L4.7708 23.9995H15.9896L10.4084 19.2067L10.4 19.2121Z" fill="#26A69A"/>
<path d="M2 4.7998L8.7104 7.1638L10.4 4.7998H2Z" fill="#00796B"/>
<path d="M10.4082 19.2072L15.9894 24L22.3998 12L10.4082 19.2072Z" fill="#00897B"/>
<path d="M10.4 19.2L8.7614 16.8306L2 19.2126H10.4V19.2Z" fill="#00796B"/>
<path d="M10.3983 16.2574L8.05469 17.0764L10.3983 19.1998V16.2574ZM10.3983 4.7998L8.05469 6.93581L10.3983 7.7542V4.7998Z" fill="#00695C"/>
</svg>
