<svg width="24" height="24" viewBox="0 0 24 24" fill="none" xmlns="http://www.w3.org/2000/svg">
<g clip-path="url(#clip0_5107_99026)">
<path fill-rule="evenodd" clip-rule="evenodd" d="M0 0H24V24H0V0Z" fill="#F7DF1E"/>
<path fill-rule="evenodd" clip-rule="evenodd" d="M6.31058 20.0562L8.14723 18.9446C8.50156 19.5729 8.82388 20.1044 9.59702 20.1044C10.3381 20.1044 10.8054 19.8145 10.8054 18.6869V11.0183H13.0608V18.7188C13.0608 21.0548 11.6915 22.1181 9.69371 22.1181C7.88948 22.1181 6.84217 21.1836 6.31055 20.056" fill="black"/>
<path fill-rule="evenodd" clip-rule="evenodd" d="M14.2852 19.8144L16.1216 18.7512C16.605 19.5407 17.2333 20.1206 18.3449 20.1206C19.2794 20.1206 19.8753 19.6533 19.8753 19.0089C19.8753 18.2356 19.2631 17.9617 18.2321 17.5108L17.6684 17.269C16.0411 16.5764 14.9617 15.7064 14.9617 13.8698C14.9617 12.1782 16.2505 10.8893 18.2644 10.8893C19.6982 10.8893 20.7292 11.3888 21.4702 12.6938L19.7142 13.8214C19.3275 13.1287 18.9088 12.8549 18.2644 12.8549C17.6039 12.8549 17.185 13.2738 17.185 13.8214C17.185 14.4981 17.6039 14.772 18.5704 15.1909L19.1342 15.4325C21.0513 16.2542 22.1308 17.0919 22.1308 18.9767C22.1308 21.0067 20.5359 22.1182 18.3932 22.1182C16.2989 22.1182 14.9456 21.1194 14.2852 19.8144" fill="black"/>
</g>
<defs>
<clipPath id="clip0_5107_99026">
<rect width="24" height="24" fill="white"/>
</clipPath>
</defs>
</svg>
