<svg width="24" height="24" viewBox="0 0 24 24" fill="none" xmlns="http://www.w3.org/2000/svg">
<path d="M9.41624 12.799C9.50352 11.2422 10.2658 9.87077 11.4159 8.89849C12.5437 7.94355 14.0617 7.35986 15.7181 7.35986C17.3728 7.35986 18.8909 7.94355 20.0195 8.89849C21.1687 9.87067 21.9311 11.2422 22.0192 12.7974C22.1064 14.3969 21.4635 15.8829 20.3357 16.9843C19.1856 18.1047 17.5498 18.8078 15.7181 18.8078C13.8864 18.8078 12.2474 18.1047 11.0981 16.9843C9.96946 15.8828 9.32812 14.3968 9.41624 12.799Z" fill="white"/>
<path d="M12.4846 12.9383C12.5293 12.1396 12.9205 11.4358 13.5106 10.9369C14.0893 10.447 14.8682 10.1475 15.7181 10.1475C16.5671 10.1475 17.3461 10.447 17.9252 10.9369C18.5149 11.4358 18.906 12.1396 18.9512 12.9376C18.996 13.7582 18.6662 14.5207 18.0874 15.0858C17.4973 15.6607 16.658 16.0215 15.7181 16.0215C14.7783 16.0215 13.9372 15.6607 13.3476 15.0858C12.7685 14.5207 12.4394 13.7582 12.4846 12.9383Z" fill="#265787"/>
<path d="M7.35101 14.5794C7.35664 14.8925 7.45648 15.5013 7.60639 15.9766C7.92129 16.9828 8.45548 17.9138 9.19882 18.7341C9.96166 19.5773 10.9009 20.2547 11.986 20.7355C13.1264 21.2406 14.362 21.4979 15.6454 21.4958C16.9268 21.4941 18.1625 21.2317 19.3029 20.7228C20.3879 20.2373 21.3263 19.557 22.0879 18.7134C22.8308 17.8896 23.3641 16.957 23.68 15.9508C23.8387 15.4424 23.939 14.9264 23.9792 14.4086C24.0186 13.8979 24.002 13.3843 23.9297 12.8771C23.7884 11.8824 23.4441 10.949 22.9141 10.0981C22.4295 9.31624 21.8047 8.63177 21.0617 8.05559L21.0634 8.05437L13.5663 2.29766C13.5594 2.29259 13.5539 2.28716 13.5467 2.28247C13.0548 1.90485 12.2276 1.90616 11.6867 2.28453C11.1397 2.66722 11.0771 3.30012 11.5638 3.69922L11.5618 3.70137L14.6888 6.24425L5.15792 6.25437H5.14517C4.35739 6.25531 3.60017 6.77215 3.45017 7.42531C3.29614 8.09074 3.83127 8.64274 4.65036 8.64574L4.64905 8.64865L9.47998 8.63927L0.859489 15.2562C0.84852 15.2643 0.836614 15.2727 0.826489 15.2808C0.0133023 15.9035 -0.249572 16.9389 0.262583 17.5942C0.782426 18.2605 1.88774 18.2618 2.70936 17.598L7.4141 13.7476C7.4141 13.7476 7.34548 14.2674 7.35101 14.5794ZM19.4405 16.3199C18.4712 17.3076 17.1139 17.8675 15.6455 17.8705C14.1749 17.8731 12.8178 17.3181 11.8484 16.3322C11.3747 15.8517 11.0268 15.2989 10.8121 14.71C10.601 14.1306 10.5198 13.5118 10.5742 12.8975C10.6254 12.2917 10.8058 11.7139 11.0936 11.1911C11.3763 10.6772 11.7658 10.2128 12.2467 9.81996C13.1889 9.05215 14.3886 8.63637 15.6433 8.63468C16.8993 8.63299 18.0981 9.04493 19.0413 9.8103C19.5213 10.2013 19.9104 10.6641 20.1931 11.1772C20.4847 11.7028 20.6624 12.2839 20.7147 12.8827C20.7683 13.4966 20.6868 14.1149 20.4759 14.6939C20.2608 15.2845 19.9141 15.8374 19.4405 16.3199Z" fill="#EA7600"/>
</svg>
