<svg width="24" height="24" viewBox="0 0 24 24" fill="none" xmlns="http://www.w3.org/2000/svg">
<g clip-path="url(#clip0_5107_98985)">
<path d="M21.375 0H2.625C1.17525 0 0 1.17525 0 2.625V21.375C0 22.8247 1.17525 24 2.625 24H21.375C22.8247 24 24 22.8247 24 21.375V2.625C24 1.17525 22.8247 0 21.375 0Z" fill="#092E20"/>
<path d="M17.473 8.83107V15.0398C17.473 17.1791 17.3165 18.2051 16.847 19.0921C16.412 19.9445 15.8381 20.4835 14.6555 21.0749L12.1684 19.8923C13.3511 19.3358 13.925 18.8488 14.2902 18.1007C14.6729 17.3356 14.7948 16.4485 14.7948 14.1181V8.83107H17.473ZM13.2122 4.69482V17.0922C11.8383 17.353 10.8295 17.4574 9.73386 17.4574C6.46414 17.4574 4.75977 15.9792 4.75977 13.1442C4.75977 10.4137 6.56858 8.63982 9.36852 8.63982C9.80333 8.63982 10.1338 8.67451 10.5338 8.77886V4.69501L13.2122 4.69482ZM9.62952 10.7963C8.27295 10.7963 7.49023 11.6311 7.49023 13.0919C7.49023 14.5182 8.23817 15.3008 9.61217 15.3008C9.90767 15.3008 10.1512 15.2834 10.5338 15.2314V10.9353C10.2208 10.831 9.95998 10.7963 9.62952 10.7963ZM17.473 4.70907V7.45707H14.7948V4.70917L17.473 4.70907Z" fill="#FFFFFD"/>
</g>
<defs>
<clipPath id="clip0_5107_98985">
<rect width="24" height="24" fill="white"/>
</clipPath>
</defs>
</svg>
