<svg width="24" height="24" viewBox="0 0 24 24" fill="none" xmlns="http://www.w3.org/2000/svg">
<path d="M13.75 11.35H8.5M10.25 14.6167H8.5M15.5 8.08333H8.5M19 7.92V16.4133C19 17.7855 19 18.4715 18.7139 18.9956C18.4622 19.4566 18.0607 19.8314 17.5667 20.0663C17.0052 20.3333 16.2701 20.3333 14.8 20.3333H9.2C7.72986 20.3333 6.99479 20.3333 6.43327 20.0663C5.93935 19.8314 5.53778 19.4566 5.28611 18.9956C5 18.4715 5 17.7855 5 16.4133V7.92C5 6.54787 5 5.86181 5.28611 5.33772C5.53778 4.87673 5.93935 4.50192 6.43327 4.26703C6.99479 4 7.72986 4 9.2 4H14.8C16.2701 4 17.0052 4 17.5667 4.26703C18.0607 4.50192 18.4622 4.87673 18.7139 5.33772C19 5.86181 19 6.54787 19 7.92Z" stroke="#949598" stroke-width="1.5" stroke-linecap="round" stroke-linejoin="round"/>
</svg>
