<svg width="20" height="20" viewBox="0 0 20 20" fill="currentColor" stroke="currentColor" xmlns="http://www.w3.org/2000/svg">
<path d="M4 6.56672C4 5.07324 4 4.32651 4.28027 3.75607C4.5268 3.25431 4.92018 2.84636 5.40402 2.5907C5.95408 2.30005 6.67415 2.30005 8.11429 2.30005H11.8857C13.3258 2.30005 14.0459 2.30005 14.596 2.5907C15.0798 2.84636 15.4732 3.25431 15.7197 3.75607C16 4.32651 16 5.07324 16 6.56672V15.8932C16 16.6817 16 17.0759 15.8346 17.3019C15.6903 17.4991 15.4688 17.6253 15.2257 17.6489C14.9469 17.676 14.6077 17.475 13.9294 17.073L10 14.7445L6.07059 17.073C5.39228 17.475 5.05313 17.676 4.77433 17.6489C4.53119 17.6253 4.30968 17.4991 4.16542 17.3019C4 17.0759 4 16.6817 4 15.8932V6.56672Z" stroke-width="1.4" stroke-linecap="round" stroke-linejoin="round"/>
</svg>
