<svg width="24" height="24" viewBox="0 0 24 24" fill="none" xmlns="http://www.w3.org/2000/svg">
<path d="M3.86231 10.9499C3.36701 10.7573 3.11937 10.661 3.04707 10.5222C2.98439 10.4019 2.98431 10.2586 3.04684 10.1383C3.11898 9.9994 3.36651 9.9028 3.86158 9.70961L17.9112 4.22683C18.3581 4.05243 18.5816 3.96523 18.7243 4.01293C18.8483 4.05435 18.9456 4.15166 18.9871 4.27566C19.0348 4.41845 18.9476 4.6419 18.7732 5.0888L13.2904 19.1384C13.0972 19.6335 13.0006 19.881 12.8617 19.9532C12.7414 20.0157 12.5981 20.0156 12.4778 19.9529C12.339 19.8806 12.2427 19.633 12.0501 19.1377L9.86364 13.5154C9.82455 13.4149 9.805 13.3646 9.7748 13.3223C9.74804 13.2848 9.71523 13.252 9.67771 13.2252C9.63538 13.195 9.58511 13.1755 9.48457 13.1364L3.86231 10.9499Z" stroke="#949598" stroke-width="1.5" stroke-linecap="round" stroke-linejoin="round"/>
</svg>
