<svg width="20" height="20" viewBox="0 0 20 20" fill="none" xmlns="http://www.w3.org/2000/svg">
<path d="M10.7 6.54326L9.91912 5.00079C9.69438 4.55686 9.58201 4.33488 9.41436 4.17271C9.26611 4.0293 9.08743 3.92023 8.89125 3.8534C8.66941 3.77783 8.41814 3.77783 7.9156 3.77783H5.24C4.45593 3.77783 4.06389 3.77783 3.76441 3.92854C3.50099 4.0611 3.28681 4.27263 3.15259 4.53281C3 4.82859 3 5.21578 3 5.99018V6.54326M3 6.54326H13.64C14.8161 6.54326 15.4042 6.54326 15.8534 6.76932C16.2485 6.96817 16.5698 7.28547 16.7711 7.67573C17 8.1194 17 8.70019 17 9.86178V12.9038C17 14.0653 17 14.6461 16.7711 15.0898C16.5698 15.4801 16.2485 15.7974 15.8534 15.9962C15.4042 16.2223 14.8161 16.2223 13.64 16.2223H6.36C5.18389 16.2223 4.59583 16.2223 4.14662 15.9962C3.75148 15.7974 3.43022 15.4801 3.22889 15.0898C3 14.6461 3 14.0653 3 12.9038V6.54326Z" stroke="#949598" stroke-width="1.4" stroke-linecap="round" stroke-linejoin="round"/>
</svg>
