<svg width="24" height="24" viewBox="0 0 24 24" fill="none" xmlns="http://www.w3.org/2000/svg">
<path d="M5 7.56667C5 5.79317 5 4.90642 5.33282 4.22903C5.62558 3.63318 6.09271 3.14875 6.66728 2.84515C7.32047 2.5 8.17555 2.5 9.88571 2.5H14.3643C16.0744 2.5 16.9295 2.5 17.5827 2.84515C18.1573 3.14875 18.6244 3.63318 18.9172 4.22903C19.25 4.90642 19.25 5.79317 19.25 7.56667V18.6419C19.25 19.5782 19.25 20.0463 19.0536 20.3148C18.8823 20.5489 18.6192 20.6987 18.3305 20.7268C17.9994 20.7589 17.5967 20.5202 16.7912 20.0429L12.125 17.2778L7.45882 20.0429C6.65334 20.5202 6.2506 20.7589 5.91951 20.7268C5.63079 20.6987 5.36774 20.5489 5.19644 20.3148C5 20.0463 5 19.5782 5 18.6419V7.56667Z" stroke="#949598" stroke-width="1.5" stroke-linecap="round" stroke-linejoin="round"/>
</svg>
