<svg width="20" height="20" viewBox="0 0 20 20" fill="none" xmlns="http://www.w3.org/2000/svg">
<path d="M11.5 9.46663H7M8.5 12.2666H7M13 6.66663H7M16 6.52663V13.8066C16 14.9827 16 15.5708 15.7548 16.02C15.539 16.4151 15.1948 16.7364 14.7715 16.9377C14.2902 17.1666 13.6601 17.1666 12.4 17.1666H7.6C6.33988 17.1666 5.70982 17.1666 5.22852 16.9377C4.80516 16.7364 4.46095 16.4151 4.24524 16.02C4 15.5708 4 14.9827 4 13.8066V6.52663C4 5.35052 4 4.76246 4.24524 4.31325C4.46095 3.91811 4.80516 3.59685 5.22852 3.39551C5.70982 3.16663 6.33988 3.16663 7.6 3.16663H12.4C13.6601 3.16663 14.2902 3.16663 14.7715 3.39551C15.1948 3.59685 15.539 3.91811 15.7548 4.31325C16 4.76246 16 5.35052 16 6.52663Z" stroke="#949598" stroke-width="1.4" stroke-linecap="round" stroke-linejoin="round"/>
</svg>
