<svg width="20" height="20" viewBox="0 0 20 20" fill="none" xmlns="http://www.w3.org/2000/svg">
<g clip-path="url(#clip0_6455_203250)">
<line opacity="0.2" x1="20.0147" y1="0.0147314" x2="0.0147331" y2="20.0147" stroke="#222222" stroke-width="0.0416667"/>
<path d="M12.8889 13.6111L16.5 10M16.5 10L12.8889 6.38889M16.5 10H7.83333M7.83333 3.5H6.96667C5.75322 3.5 5.1465 3.5 4.68302 3.73615C4.27534 3.94388 3.94388 4.27534 3.73615 4.68302C3.5 5.1465 3.5 5.75322 3.5 6.96667V13.0333C3.5 14.2468 3.5 14.8535 3.73615 15.317C3.94388 15.7247 4.27534 16.0561 4.68302 16.2638C5.1465 16.5 5.75322 16.5 6.96667 16.5H7.83333" stroke="#949598" stroke-width="1.4" stroke-linecap="round" stroke-linejoin="round"/>
</g>
<defs>
<clipPath id="clip0_6455_203250">
<rect width="20" height="20" fill="white"/>
</clipPath>
</defs>
</svg>
