<svg width="20" height="20" viewBox="0 0 21 21" fill="none" xmlns="http://www.w3.org/2000/svg">
<path d="M17.3335 16.5V15.1667C17.3335 13.9241 16.4412 12.88 15.2335 12.584M12.7835 4.69384C13.8096 5.08943 14.5335 6.04754 14.5335 7.16667C14.5335 8.28579 13.8096 9.2439 12.7835 9.63949M13.8335 16.5C13.8335 15.2575 13.8335 14.6362 13.6204 14.1462C13.3362 13.4928 12.7911 12.9736 12.105 12.703C11.5905 12.5 10.9381 12.5 9.6335 12.5H7.5335C6.22886 12.5 5.57654 12.5 5.06198 12.703C4.3759 12.9736 3.83082 13.4928 3.54663 14.1462C3.3335 14.6362 3.3335 15.2575 3.3335 16.5M11.3835 7.16667C11.3835 8.63943 10.1299 9.83333 8.5835 9.83333C7.0371 9.83333 5.7835 8.63943 5.7835 7.16667C5.7835 5.69391 7.0371 4.5 8.5835 4.5C10.1299 4.5 11.3835 5.69391 11.3835 7.16667Z" stroke="#12141A" stroke-width="1.5" stroke-linecap="round" stroke-linejoin="round"/>
</svg>
