<svg width="25" height="24" viewBox="0 0 25 24" fill="none" xmlns="http://www.w3.org/2000/svg">
<path d="M12.4998 12L8.70166 9.15141C8.13735 8.72818 7.8552 8.51656 7.65235 8.25715C7.47262 8.0273 7.33915 7.77083 7.25802 7.49943C7.16645 7.19311 7.16645 6.86255 7.16645 6.20144V4M12.4998 12L16.2979 9.15141C16.8622 8.72818 17.1444 8.51656 17.3472 8.25715C17.5269 8.0273 17.6604 7.77083 17.7415 7.49943C17.8331 7.19311 17.8331 6.86255 17.8331 6.20144V4M12.4998 12L8.70166 14.8486C8.13735 15.2718 7.8552 15.4834 7.65235 15.7429C7.47262 15.9727 7.33915 16.2292 7.25802 16.5006C7.16645 16.8069 7.16645 17.1374 7.16645 17.7986V20M12.4998 12L16.2979 14.8486C16.8622 15.2718 17.1444 15.4834 17.3472 15.7429C17.5269 15.9727 17.6604 16.2292 17.7415 16.5006C17.8331 16.8069 17.8331 17.1374 17.8331 17.7986V20M5.38867 4H19.6109M5.38867 20H19.6109" stroke="#949598" stroke-width="1.5" stroke-linecap="round" stroke-linejoin="round"/>
</svg>
