<svg width="25" height="24" viewBox="0 0 25 24" fill="none" xmlns="http://www.w3.org/2000/svg">
<path d="M15.171 8.71212C14.8396 8.38075 14.6739 8.21506 14.6118 8.024C14.5572 7.85595 14.5572 7.67491 14.6118 7.50686C14.6739 7.3158 14.8396 7.15011 15.171 6.81874L17.546 4.4437C16.9158 4.15867 16.2161 4 15.4794 4C12.7066 4 10.4589 6.24779 10.4589 9.02057C10.4589 9.43146 10.5082 9.83081 10.6013 10.213C10.701 10.6223 10.7509 10.827 10.742 10.9563C10.7328 11.0916 10.7126 11.1637 10.6502 11.2841C10.5905 11.3992 10.4763 11.5134 10.2478 11.7419L5.0199 16.9698C4.3267 17.663 4.3267 18.7869 5.0199 19.4801C5.71309 20.1733 6.83699 20.1733 7.53018 19.4801L12.7581 14.2522C12.9866 14.0237 13.1008 13.9095 13.2159 13.8498C13.3363 13.7874 13.4084 13.7672 13.5437 13.758C13.673 13.7491 13.8777 13.799 14.287 13.8987C14.6692 13.9918 15.0685 14.0411 15.4794 14.0411C18.2522 14.0411 20.5 11.7934 20.5 9.02057C20.5 8.28388 20.3413 7.58425 20.0563 6.95399L17.6813 9.32903C17.3499 9.6604 17.1842 9.82609 16.9931 9.88816C16.8251 9.94277 16.6441 9.94277 16.476 9.88816C16.2849 9.82609 16.1193 9.6604 15.7879 9.32903L15.171 8.71212Z" stroke="#949598" stroke-width="1.5" stroke-linecap="round" stroke-linejoin="round"/>
</svg>
