<svg width="24" height="24" viewBox="0 0 24 24" fill="none" xmlns="http://www.w3.org/2000/svg">
<path d="M15.2 7.55556C15.2 6.72891 15.2 6.31559 15.1182 5.97648C14.8963 5.05624 14.2494 4.33744 13.4212 4.09086C13.116 4 12.744 4 12 4C11.256 4 10.884 4 10.5788 4.09086C9.75061 4.33744 9.1037 5.05624 8.88178 5.97648C8.8 6.31559 8.8 6.72891 8.8 7.55556M6.56 20H17.44C18.3361 20 18.7841 20 19.1264 19.8062C19.4274 19.6358 19.6722 19.3638 19.8256 19.0293C20 18.649 20 18.1512 20 17.1556V10.4C20 9.40435 20 8.90653 19.8256 8.52624C19.6722 8.19173 19.4274 7.91976 19.1264 7.74932C18.7841 7.55556 18.3361 7.55556 17.44 7.55556H6.56C5.66392 7.55556 5.21587 7.55556 4.87362 7.74932C4.57256 7.91976 4.32779 8.19173 4.17439 8.52624C4 8.90653 4 9.40435 4 10.4V17.1556C4 18.1512 4 18.649 4.17439 19.0293C4.32779 19.3638 4.57256 19.6358 4.87362 19.8062C5.21587 20 5.66392 20 6.56 20Z" stroke="#949598" stroke-width="1.5" stroke-linecap="round" stroke-linejoin="round"/>
</svg>
