<svg width="25" height="24" viewBox="0 0 25 24" fill="none" xmlns="http://www.w3.org/2000/svg">
<path d="M21.5 20V18.2222C21.5 16.5655 20.3527 15.1734 18.8 14.7787M15.65 4.25845C16.9693 4.78591 17.9 6.06339 17.9 7.55556C17.9 9.04772 16.9693 10.3252 15.65 10.8527M17 20C17 18.3433 17 17.515 16.726 16.8616C16.3606 15.9904 15.6598 15.2982 14.7777 14.9373C14.1161 14.6667 13.2774 14.6667 11.6 14.6667H8.9C7.22261 14.6667 6.38392 14.6667 5.72234 14.9373C4.84024 15.2982 4.13941 15.9904 3.77403 16.8616C3.5 17.515 3.5 18.3433 3.5 20M13.85 7.55556C13.85 9.51923 12.2382 11.1111 10.25 11.1111C8.26177 11.1111 6.65 9.51923 6.65 7.55556C6.65 5.59188 8.26177 4 10.25 4C12.2382 4 13.85 5.59188 13.85 7.55556Z" stroke="#949598" stroke-width="1.5" stroke-linecap="round" stroke-linejoin="round"/>
</svg>
