<svg width="20" height="20" viewBox="0 0 21 21" fill="none" xmlns="http://www.w3.org/2000/svg">
<path d="M11.0335 7.16667L10.2526 5.67928C10.0279 5.2512 9.9155 5.03715 9.74786 4.88078C9.5996 4.74249 9.42092 4.63732 9.22475 4.57287C9.00291 4.5 8.75164 4.5 8.2491 4.5H5.5735C4.78942 4.5 4.39739 4.5 4.09791 4.64532C3.83448 4.77316 3.62031 4.97713 3.48609 5.22801C3.3335 5.51323 3.3335 5.8866 3.3335 6.63333V7.16667M3.3335 7.16667H13.9735C15.1496 7.16667 15.7377 7.16667 16.1869 7.38465C16.582 7.5764 16.9033 7.88236 17.1046 8.25869C17.3335 8.68651 17.3335 9.24656 17.3335 10.3667V13.3C17.3335 14.4201 17.3335 14.9802 17.1046 15.408C16.9033 15.7843 16.582 16.0903 16.1869 16.282C15.7377 16.5 15.1496 16.5 13.9735 16.5H6.6935C5.51739 16.5 4.92933 16.5 4.48012 16.282C4.08498 16.0903 3.76372 15.7843 3.56238 15.408C3.3335 14.9802 3.3335 14.4201 3.3335 13.3V7.16667Z" stroke="#12141A" stroke-width="1.5" stroke-linecap="round" stroke-linejoin="round"/>
</svg>
