<svg width="20" height="20" viewBox="0 0 21 21" fill="none" xmlns="http://www.w3.org/2000/svg">
<g clip-path="url(#clip0_4486_158717)">
<path d="M10.3335 10.5L7.12883 8.00748C6.65269 7.63715 6.41463 7.45199 6.24347 7.22501C6.09183 7.02389 5.97921 6.79948 5.91076 6.562C5.8335 6.29397 5.8335 6.00473 5.8335 5.42626V3.5M10.3335 10.5L13.5382 8.00748C14.0143 7.63715 14.2524 7.45199 14.4235 7.22501C14.5752 7.02389 14.6878 6.79948 14.7562 6.562C14.8335 6.29397 14.8335 6.00473 14.8335 5.42626V3.5M10.3335 10.5L7.12883 12.9925C6.65269 13.3628 6.41463 13.548 6.24347 13.775C6.09183 13.9761 5.97921 14.2005 5.91076 14.438C5.8335 14.706 5.8335 14.9953 5.8335 15.5737V17.5M10.3335 10.5L13.5382 12.9925C14.0143 13.3628 14.2524 13.548 14.4235 13.775C14.5752 13.9761 14.6878 14.2005 14.7562 14.438C14.8335 14.706 14.8335 14.9953 14.8335 15.5737V17.5M4.3335 3.5H16.3335M4.3335 17.5H16.3335" stroke="#12141A" stroke-width="1.5" stroke-linecap="round" stroke-linejoin="round"/>
</g>
<defs>
<clipPath id="clip0_4486_158717">
<rect width="20" height="20" fill="white" transform="translate(0.333496 0.5)"/>
</clipPath>
</defs>
</svg>
