<svg width="297" height="60" viewBox="0 0 297 60" fill="none" xmlns="http://www.w3.org/2000/svg">
<rect x="0.5" width="296" height="60" rx="12" fill="#FEE500"/>
<g clip-path="url(#clip0_5143_105803)">
<path fill-rule="evenodd" clip-rule="evenodd" d="M30.5 18.7998C23.8722 18.7998 18.5 22.9504 18.5 28.0695C18.5 31.2532 20.5779 34.0598 23.742 35.7291L22.4107 40.5925C22.2931 41.0222 22.7846 41.3647 23.162 41.1157L28.9978 37.2641C29.4903 37.3116 29.9908 37.3393 30.5 37.3393C37.1273 37.3393 42.4999 33.1889 42.4999 28.0695C42.4999 22.9504 37.1273 18.7998 30.5 18.7998Z" fill="black"/>
</g>
<path d="M115.22 23.56C115.22 29.52 112.58 33.8667 107.3 36.6L105.86 34.94C108.46 33.74 110.373 31.9667 111.6 29.62L106.66 30.16C106.54 29.3333 106.433 28.66 106.34 28.14L112.38 27.7C112.58 26.9267 112.707 26.1933 112.76 25.5H107.22V23.56H115.22ZM120.02 21.76V28.6H122.52V30.54H120.02V39.58H117.7V21.76H120.02ZM132.525 23.56C132.525 29.52 129.885 33.8667 124.605 36.6L123.165 34.94C125.765 33.74 127.678 31.9667 128.905 29.62L123.965 30.16C123.845 29.3333 123.738 28.66 123.645 28.14L129.685 27.7C129.885 26.9267 130.011 26.1933 130.065 25.5H124.525V23.56H132.525ZM137.325 21.76V28.6H139.825V30.54H137.325V39.58H135.005V21.76H137.325ZM156.809 37.36H140.709V35.5H147.569V32.66C145.943 32.4733 144.643 31.94 143.669 31.06C142.709 30.1667 142.229 29.0733 142.229 27.78C142.229 26.3267 142.829 25.1467 144.029 24.24C145.229 23.3333 146.809 22.88 148.769 22.88C150.729 22.88 152.309 23.3333 153.509 24.24C154.709 25.1467 155.309 26.3267 155.309 27.78C155.309 29.0867 154.823 30.1867 153.849 31.08C152.876 31.96 151.563 32.4867 149.909 32.66V35.5H156.809V37.36ZM152.949 27.8C152.949 26.9067 152.569 26.1867 151.809 25.64C151.049 25.08 150.036 24.8 148.769 24.8C147.516 24.8 146.509 25.08 145.749 25.64C144.989 26.1867 144.609 26.9067 144.609 27.8C144.609 28.7067 144.989 29.4333 145.749 29.98C146.509 30.5267 147.516 30.8 148.769 30.8C150.023 30.8 151.029 30.5267 151.789 29.98C152.563 29.4333 152.949 28.7067 152.949 27.8ZM177.848 32.72H172.448V35.5H179.368V37.36H163.268V35.5H170.108V32.72H165.328V26.82H175.008V24.76H165.228V22.9H177.328V28.68H167.648V30.84H177.848V32.72ZM196.673 37.06H180.573V35.22H196.673V37.06ZM194.633 23.58C194.633 27.74 194.359 31.2667 193.813 34.16L191.533 33.94C191.746 33.02 191.926 31.7267 192.073 30.06C192.233 28.3933 192.306 26.8467 192.293 25.42H182.413V23.58H194.633ZM212.597 34.68H210.277V21.76H212.597V34.68ZM212.997 39.1H200.637V33.4H202.997V37.26H212.997V39.1ZM198.437 27.48C198.437 26.2 198.877 25.1467 199.757 24.32C200.651 23.4933 201.817 23.08 203.257 23.08C204.711 23.08 205.877 23.4933 206.757 24.32C207.637 25.1467 208.077 26.2 208.077 27.48C208.077 28.7733 207.637 29.8267 206.757 30.64C205.877 31.4533 204.711 31.86 203.257 31.86C201.804 31.86 200.637 31.4533 199.757 30.64C198.877 29.8267 198.437 28.7733 198.437 27.48ZM200.837 27.48C200.837 28.2 201.057 28.7933 201.497 29.26C201.937 29.7133 202.524 29.94 203.257 29.94C204.017 29.94 204.611 29.7133 205.037 29.26C205.477 28.7933 205.697 28.2 205.697 27.48C205.697 26.7867 205.477 26.2133 205.037 25.76C204.597 25.3067 204.004 25.08 203.257 25.08C202.524 25.08 201.937 25.3067 201.497 25.76C201.057 26.2133 200.837 26.7867 200.837 27.48Z" fill="black" fill-opacity="0.85"/>
<defs>
<clipPath id="clip0_5143_105803">
<rect width="23.9999" height="24" fill="white" transform="translate(18.5 18)"/>
</clipPath>
</defs>
</svg>
