<svg width="223" height="45" viewBox="0 0 223 45" fill="none" xmlns="http://www.w3.org/2000/svg">
<rect x="0.5" width="222" height="45" rx="6" fill="#F2F2F2"/>
<mask id="mask0_5143_105804" style="mask-type:luminance" maskUnits="userSpaceOnUse" x="14" y="12" width="21" height="21">
<path d="M34.5 12.5H14.5V32.5H34.5V12.5Z" fill="white"/>
</mask>
<g mask="url(#mask0_5143_105804)">
<path d="M34.1 22.7271C34.1 22.018 34.0364 21.3362 33.9182 20.6816H24.5V24.5498H29.8818C29.65 25.7998 28.9455 26.8589 27.8864 27.568V30.0771H31.1182C33.0091 28.3362 34.1 25.7725 34.1 22.7271Z" fill="#4285F4"/>
<path d="M24.4989 32.4999C27.1989 32.4999 29.4625 31.6044 31.117 30.0772L27.8852 27.5681C26.9898 28.1681 25.8443 28.5226 24.4989 28.5226C21.8943 28.5226 19.6898 26.7635 18.9034 24.3999H15.5625V26.9908C17.208 30.259 20.5898 32.4999 24.4989 32.4999Z" fill="#34A853"/>
<path d="M18.9045 24.4002C18.7045 23.8002 18.5909 23.1593 18.5909 22.5002C18.5909 21.8411 18.7045 21.2002 18.9045 20.6002V18.0093H15.5636C14.8864 19.3593 14.5 20.8866 14.5 22.5002C14.5 24.1138 14.8864 25.6411 15.5636 26.9911L18.9045 24.4002Z" fill="#FBBC04"/>
<path d="M24.4989 16.4773C25.967 16.4773 27.2852 16.9818 28.3216 17.9727L31.1898 15.1045C29.458 13.4909 27.1943 12.5 24.4989 12.5C20.5898 12.5 17.208 14.7409 15.5625 18.0091L18.9034 20.6C19.6898 18.2364 21.8943 16.4773 24.4989 16.4773Z" fill="#E94235"/>
</g>
<path d="M89.418 16.024H97.538V17.494H89.418V16.024ZM88.074 21.54H99.806V23.052H88.074V21.54ZM92.932 22.604H94.808V28.246H92.932V22.604ZM96.586 16.024H98.42V17.172C98.42 17.6387 98.4107 18.1333 98.392 18.656C98.3827 19.1787 98.3453 19.7527 98.28 20.378C98.2147 20.994 98.0933 21.6847 97.916 22.45L96.096 22.226C96.3387 21.1527 96.4787 20.2147 96.516 19.412C96.5627 18.6 96.586 17.8533 96.586 17.172V16.024ZM102.395 15.786H110.599V17.256H102.395V15.786ZM100.953 19.832H112.699V21.316H100.953V19.832ZM109.479 15.786H111.313V16.668C111.313 17.1347 111.299 17.6667 111.271 18.264C111.243 18.852 111.145 19.524 110.977 20.28L109.143 20.112C109.311 19.3747 109.409 18.7307 109.437 18.18C109.465 17.6293 109.479 17.1253 109.479 16.668V15.786ZM102.255 22.198H111.285V25.838H104.131V27.154H102.269V24.466H109.423V23.626H102.255V22.198ZM102.269 26.706H111.621V28.148H102.269V26.706ZM117.318 25.306H129.064V26.818H117.318V25.306ZM122.246 22.842H124.094V25.908H122.246V22.842ZM118.648 16.108H127.734V20.434H120.51V22.604H118.662V18.978H125.886V17.592H118.648V16.108ZM118.662 21.876H128.028V23.36H118.662V21.876ZM131.401 16.458H139.605V17.942H131.401V16.458ZM130.197 25.04H141.929V26.552H130.197V25.04ZM138.625 16.458H140.487V17.998C140.487 18.6047 140.478 19.2207 140.459 19.846C140.45 20.4713 140.412 21.1387 140.347 21.848C140.291 22.5573 140.179 23.36 140.011 24.256L138.149 24.088C138.317 23.2573 138.429 22.492 138.485 21.792C138.55 21.092 138.588 20.434 138.597 19.818C138.616 19.1927 138.625 18.586 138.625 17.998V16.458ZM151.98 15.282H153.842V24.592H151.98V15.282ZM145.204 26.524H154.178V28.022H145.204V26.524ZM145.204 23.668H147.066V27.14H145.204V23.668ZM146.786 16.108C147.449 16.108 148.046 16.248 148.578 16.528C149.11 16.808 149.53 17.1953 149.838 17.69C150.155 18.1847 150.314 18.754 150.314 19.398C150.314 20.0233 150.155 20.588 149.838 21.092C149.53 21.5867 149.11 21.9787 148.578 22.268C148.046 22.548 147.449 22.688 146.786 22.688C146.123 22.688 145.526 22.548 144.994 22.268C144.462 21.9787 144.037 21.5867 143.72 21.092C143.412 20.588 143.258 20.0233 143.258 19.398C143.258 18.754 143.412 18.1847 143.72 17.69C144.037 17.1953 144.462 16.808 144.994 16.528C145.526 16.248 146.123 16.108 146.786 16.108ZM146.786 17.704C146.469 17.704 146.179 17.774 145.918 17.914C145.657 18.0447 145.451 18.236 145.302 18.488C145.153 18.7307 145.078 19.034 145.078 19.398C145.078 19.7433 145.153 20.042 145.302 20.294C145.451 20.5367 145.657 20.728 145.918 20.868C146.179 20.9987 146.469 21.064 146.786 21.064C147.103 21.064 147.393 20.9987 147.654 20.868C147.915 20.728 148.121 20.5367 148.27 20.294C148.419 20.042 148.494 19.7433 148.494 19.398C148.494 19.034 148.419 18.7307 148.27 18.488C148.121 18.236 147.915 18.0447 147.654 17.914C147.393 17.774 147.103 17.704 146.786 17.704Z" fill="#1F1F1F" fill-opacity="0.85"/>
</svg>
