<svg width="296" height="60" viewBox="0 0 296 60" fill="none" xmlns="http://www.w3.org/2000/svg">
<rect width="296" height="60" rx="12" fill="#F2F2F2"/>
<mask id="mask0_5143_105802" style="mask-type:luminance" maskUnits="userSpaceOnUse" x="18" y="17" width="26" height="26">
<path d="M44 17H18V43H44V17Z" fill="white"/>
</mask>
<g mask="url(#mask0_5143_105802)">
<path d="M43.478 30.2954C43.478 29.3736 43.3954 28.4872 43.2417 27.6362H30.998V32.6649H37.9944C37.693 34.2899 36.7772 35.6667 35.4004 36.5885V39.8504H39.6017C42.0599 37.5872 43.478 34.2544 43.478 30.2954Z" fill="#4285F4"/>
<path d="M31.0021 43.0002C34.5121 43.0002 37.4548 41.8361 39.6056 39.8507L35.4043 36.5889C34.2403 37.3689 32.7511 37.8297 31.0021 37.8297C27.6161 37.8297 24.7503 35.5429 23.7279 32.4702H19.3848V35.8384C21.5239 40.087 25.9203 43.0002 31.0021 43.0002Z" fill="#34A853"/>
<path d="M23.7258 32.4698C23.4658 31.6898 23.3182 30.8566 23.3182 29.9998C23.3182 29.143 23.4658 28.3098 23.7258 27.5298V24.1616H19.3827C18.5023 25.9166 18 27.9021 18 29.9998C18 32.0975 18.5023 34.083 19.3827 35.838L23.7258 32.4698Z" fill="#FBBC04"/>
<path d="M31.0021 22.1705C32.9106 22.1705 34.6243 22.8263 35.9716 24.1145L39.7003 20.3858C37.4489 18.2882 34.5061 17 31.0021 17C25.9203 17 21.5239 19.9132 19.3848 24.1618L23.7279 27.53C24.7503 24.4573 27.6161 22.1705 31.0021 22.1705Z" fill="#E94235"/>
</g>
<path d="M117.103 21.604H128.123V23.599H117.103V21.604ZM115.279 29.09H131.201V31.142H115.279V29.09ZM121.872 30.534H124.418V38.191H121.872V30.534ZM126.831 21.604H129.32V23.162C129.32 23.7953 129.307 24.4667 129.282 25.176C129.269 25.8853 129.219 26.6643 129.13 27.513C129.041 28.349 128.877 29.2863 128.636 30.325L126.166 30.021C126.495 28.5643 126.685 27.2913 126.736 26.202C126.799 25.1 126.831 24.0867 126.831 23.162V21.604ZM134.715 21.281H145.849V23.276H134.715V21.281ZM132.758 26.772H148.699V28.786H132.758V26.772ZM144.329 21.281H146.818V22.478C146.818 23.1113 146.799 23.8333 146.761 24.644C146.723 25.442 146.59 26.354 146.362 27.38L143.873 27.152C144.101 26.1513 144.234 25.2773 144.272 24.53C144.31 23.7827 144.329 23.0987 144.329 22.478V21.281ZM134.525 29.983H146.78V34.923H137.071V36.709H134.544V33.061H144.253V31.921H134.525V29.983ZM134.544 36.101H147.236V38.058H134.544V36.101ZM154.967 34.201H170.908V36.253H154.967V34.201ZM161.655 30.857H164.163V35.018H161.655V30.857ZM156.772 21.718H169.103V27.589H159.299V30.534H156.791V25.613H166.595V23.732H156.772V21.718ZM156.791 29.546H169.502V31.56H156.791V29.546ZM174.08 22.193H185.214V24.207H174.08V22.193ZM172.446 33.84H188.368V35.892H172.446V33.84ZM183.884 22.193H186.411V24.283C186.411 25.1063 186.398 25.9423 186.373 26.791C186.36 27.6397 186.31 28.5453 186.221 29.508C186.145 30.4707 185.993 31.56 185.765 32.776L183.238 32.548C183.466 31.4207 183.618 30.382 183.694 29.432C183.783 28.482 183.833 27.589 183.846 26.753C183.871 25.9043 183.884 25.081 183.884 24.283V22.193ZM202.009 20.597H204.536V33.232H202.009V20.597ZM192.813 35.854H204.992V37.887H192.813V35.854ZM192.813 31.978H195.34V36.69H192.813V31.978ZM194.96 21.718C195.859 21.718 196.67 21.908 197.392 22.288C198.114 22.668 198.684 23.1937 199.102 23.865C199.532 24.5363 199.748 25.309 199.748 26.183C199.748 27.0317 199.532 27.798 199.102 28.482C198.684 29.1533 198.114 29.6853 197.392 30.078C196.67 30.458 195.859 30.648 194.96 30.648C194.06 30.648 193.25 30.458 192.528 30.078C191.806 29.6853 191.229 29.1533 190.799 28.482C190.381 27.798 190.172 27.0317 190.172 26.183C190.172 25.309 190.381 24.5363 190.799 23.865C191.229 23.1937 191.806 22.668 192.528 22.288C193.25 21.908 194.06 21.718 194.96 21.718ZM194.96 23.884C194.529 23.884 194.136 23.979 193.782 24.169C193.427 24.3463 193.148 24.606 192.946 24.948C192.743 25.2773 192.642 25.689 192.642 26.183C192.642 26.6517 192.743 27.057 192.946 27.399C193.148 27.7283 193.427 27.988 193.782 28.178C194.136 28.3553 194.529 28.444 194.96 28.444C195.39 28.444 195.783 28.3553 196.138 28.178C196.492 27.988 196.771 27.7283 196.974 27.399C197.176 27.057 197.278 26.6517 197.278 26.183C197.278 25.689 197.176 25.2773 196.974 24.948C196.771 24.606 196.492 24.3463 196.138 24.169C195.783 23.979 195.39 23.884 194.96 23.884Z" fill="#1F1F1F" fill-opacity="0.85"/>
</svg>
