<svg width="223" height="45" viewBox="0 0 223 45" fill="none" xmlns="http://www.w3.org/2000/svg">
<rect x="0.5" width="222" height="45" rx="6" fill="#FEE500"/>
<g clip-path="url(#clip0_5143_105805)">
<path fill-rule="evenodd" clip-rule="evenodd" d="M23.5 14.1001C18.5292 14.1001 14.5 17.2131 14.5 21.0524C14.5 23.4401 16.0584 25.5451 18.4315 26.7971L17.433 30.4446C17.3448 30.7669 17.7134 31.0238 17.9965 30.837L22.3733 27.9483C22.7427 27.9839 23.1181 28.0047 23.5 28.0047C28.4705 28.0047 32.4999 24.8919 32.4999 21.0524C32.4999 17.2131 28.4705 14.1001 23.5 14.1001Z" fill="black"/>
</g>
<path d="M86.79 18.17C86.79 22.64 84.81 25.9 80.85 27.95L79.77 26.705C81.72 25.805 83.155 24.475 84.075 22.715L80.37 23.12C80.28 22.5 80.2 21.995 80.13 21.605L84.66 21.275C84.81 20.695 84.905 20.145 84.945 19.625H80.79V18.17H86.79ZM90.39 16.82V21.95H92.265V23.405H90.39V30.185H88.65V16.82H90.39ZM99.7685 18.17C99.7685 22.64 97.7885 25.9 93.8285 27.95L92.7485 26.705C94.6985 25.805 96.1335 24.475 97.0535 22.715L93.3485 23.12C93.2585 22.5 93.1785 21.995 93.1085 21.605L97.6385 21.275C97.7885 20.695 97.8835 20.145 97.9235 19.625H93.7685V18.17H99.7685ZM103.369 16.82V21.95H105.244V23.405H103.369V30.185H101.629V16.82H103.369ZM117.982 28.52H105.907V27.125H111.052V24.995C109.832 24.855 108.857 24.455 108.127 23.795C107.407 23.125 107.047 22.305 107.047 21.335C107.047 20.245 107.497 19.36 108.397 18.68C109.297 18 110.482 17.66 111.952 17.66C113.422 17.66 114.607 18 115.507 18.68C116.407 19.36 116.857 20.245 116.857 21.335C116.857 22.315 116.492 23.14 115.762 23.81C115.032 24.47 114.047 24.865 112.807 24.995V27.125H117.982V28.52ZM115.087 21.35C115.087 20.68 114.802 20.14 114.232 19.73C113.662 19.31 112.902 19.1 111.952 19.1C111.012 19.1 110.257 19.31 109.687 19.73C109.117 20.14 108.832 20.68 108.832 21.35C108.832 22.03 109.117 22.575 109.687 22.985C110.257 23.395 111.012 23.6 111.952 23.6C112.892 23.6 113.647 23.395 114.217 22.985C114.797 22.575 115.087 22.03 115.087 21.35ZM133.761 25.04H129.711V27.125H134.901V28.52H122.826V27.125H127.956V25.04H124.371V20.615H131.631V19.07H124.296V17.675H133.371V22.01H126.111V23.63H133.761V25.04ZM147.879 28.295H135.804V26.915H147.879V28.295ZM146.349 18.185C146.349 21.305 146.144 23.95 145.734 26.12L144.024 25.955C144.184 25.265 144.319 24.295 144.429 23.045C144.549 21.795 144.604 20.635 144.594 19.565H137.184V18.185H146.349ZM159.823 26.51H158.083V16.82H159.823V26.51ZM160.123 29.825H150.853V25.55H152.623V28.445H160.123V29.825ZM149.203 21.11C149.203 20.15 149.533 19.36 150.193 18.74C150.863 18.12 151.738 17.81 152.818 17.81C153.908 17.81 154.783 18.12 155.443 18.74C156.103 19.36 156.433 20.15 156.433 21.11C156.433 22.08 156.103 22.87 155.443 23.48C154.783 24.09 153.908 24.395 152.818 24.395C151.728 24.395 150.853 24.09 150.193 23.48C149.533 22.87 149.203 22.08 149.203 21.11ZM151.003 21.11C151.003 21.65 151.168 22.095 151.498 22.445C151.828 22.785 152.268 22.955 152.818 22.955C153.388 22.955 153.833 22.785 154.153 22.445C154.483 22.095 154.648 21.65 154.648 21.11C154.648 20.59 154.483 20.16 154.153 19.82C153.823 19.48 153.378 19.31 152.818 19.31C152.268 19.31 151.828 19.48 151.498 19.82C151.168 20.16 151.003 20.59 151.003 21.11Z" fill="black" fill-opacity="0.85"/>
<defs>
<clipPath id="clip0_5143_105805">
<rect width="17.9999" height="18" fill="white" transform="translate(14.5 13.5)"/>
</clipPath>
</defs>
</svg>
