<svg width="14" height="18" viewBox="0 0 14 18" fill="none" xmlns="http://www.w3.org/2000/svg">
<g id="bookmark-02">
<path id="bookmark-02_2" d="M0 4.8C0 3.11984 0 2.27976 0.32698 1.63803C0.614601 1.07354 1.07354 0.614601 1.63803 0.32698C2.27976 0 3.11984 0 4.8 0H9.2C10.8802 0 11.7202 0 12.362 0.32698C12.9265 0.614601 13.3854 1.07354 13.673 1.63803C14 2.27976 14 3.11984 14 4.8V15.2429C14 16.1483 14 16.601 13.8098 16.8635C13.6439 17.0925 13.3888 17.2406 13.1076 17.271C12.7853 17.3059 12.3923 17.0813 11.6062 16.6321L7 14L2.39382 16.6321C1.60772 17.0813 1.21467 17.3059 0.892372 17.271C0.611227 17.2406 0.356112 17.0925 0.190199 16.8635C0 16.601 0 16.1483 0 15.2429V4.8Z" fill="#E8E8E9"/>
</g>
</svg>
