<svg width="22" height="23" viewBox="0 0 22 23" fill="none" xmlns="http://www.w3.org/2000/svg">
<path id="system" d="M6.5 4C6.5 2.61929 7.61929 1.5 9 1.5C10.3807 1.5 11.5 2.61929 11.5 4V5.5H12.5C13.8978 5.5 14.5967 5.5 15.1481 5.72836C15.8831 6.03284 16.4672 6.61687 16.7716 7.35195C17 7.90326 17 8.60218 17 10H18.5C19.8807 10 21 11.1193 21 12.5C21 13.8807 19.8807 15 18.5 15H17V16.7C17 18.3802 17 19.2202 16.673 19.862C16.3854 20.4265 15.9265 20.8854 15.362 21.173C14.7202 21.5 13.8802 21.5 12.2 21.5H11.5V19.75C11.5 18.5074 10.4926 17.5 9.25 17.5C8.00736 17.5 7 18.5074 7 19.75V21.5H5.8C4.11984 21.5 3.27976 21.5 2.63803 21.173C2.07354 20.8854 1.6146 20.4265 1.32698 19.862C1 19.2202 1 18.3802 1 16.7V15H2.5C3.88071 15 5 13.8807 5 12.5C5 11.1193 3.88071 10 2.5 10H1C1 8.60218 1 7.90326 1.22836 7.35195C1.53284 6.61687 2.11687 6.03284 2.85195 5.72836C3.40326 5.5 4.10218 5.5 5.5 5.5H6.5V4Z" stroke="#17171B" stroke-width="2" stroke-linecap="round" stroke-linejoin="round"/>
</svg>
