<svg width="16" height="23" viewBox="0 0 16 23" fill="none" xmlns="http://www.w3.org/2000/svg">
<path id="period" d="M5 18H11M2.6 1.5H13.4C13.9601 1.5 14.2401 1.5 14.454 1.60899C14.6422 1.70487 14.7951 1.85785 14.891 2.04601C15 2.25992 15 2.53995 15 3.1V5.17452C15 5.6637 15 5.90829 14.9447 6.13846C14.8957 6.34254 14.8149 6.53763 14.7053 6.71657C14.5816 6.9184 14.4086 7.09135 14.0627 7.43726L11.1314 10.3686C10.7354 10.7646 10.5373 10.9627 10.4632 11.191C10.3979 11.3918 10.3979 11.6082 10.4632 11.809C10.5373 12.0373 10.7354 12.2354 11.1314 12.6314L14.0627 15.5627C14.4086 15.9086 14.5816 16.0816 14.7053 16.2834C14.8149 16.4624 14.8957 16.6575 14.9447 16.8615C15 17.0917 15 17.3363 15 17.8255V19.9C15 20.4601 15 20.7401 14.891 20.954C14.7951 21.1422 14.6422 21.2951 14.454 21.391C14.2401 21.5 13.9601 21.5 13.4 21.5H2.6C2.03995 21.5 1.75992 21.5 1.54601 21.391C1.35785 21.2951 1.20487 21.1422 1.10899 20.954C1 20.7401 1 20.4601 1 19.9V17.8255C1 17.3363 1 17.0917 1.05526 16.8615C1.10425 16.6575 1.18506 16.4624 1.29472 16.2834C1.4184 16.0816 1.59135 15.9086 1.93726 15.5627L4.86863 12.6314C5.26465 12.2354 5.46265 12.0373 5.53684 11.809C5.6021 11.6082 5.6021 11.3918 5.53684 11.191C5.46266 10.9627 5.26464 10.7646 4.86863 10.3686L1.93726 7.43726C1.59136 7.09136 1.4184 6.9184 1.29472 6.71657C1.18506 6.53763 1.10425 6.34254 1.05526 6.13846C1 5.90829 1 5.6637 1 5.17452V3.1C1 2.53995 1 2.25992 1.10899 2.04601C1.20487 1.85785 1.35785 1.70487 1.54601 1.60899C1.75992 1.5 2.03995 1.5 2.6 1.5Z" stroke="#17171B" stroke-width="2" stroke-linecap="round" stroke-linejoin="round"/>
</svg>
