<svg width="16" height="16" viewBox="0 0 16 16" fill="none" xmlns="http://www.w3.org/2000/svg">
<path d="M6.59395 7.85373C6.83149 8.17161 7.13455 8.43464 7.48257 8.62497C7.83059 8.8153 8.21543 8.92848 8.61099 8.95684C9.00655 8.9852 9.40358 8.92807 9.77515 8.78932C10.1467 8.65058 10.4841 8.43347 10.7645 8.15271L12.4239 6.49168C12.9276 5.96955 13.2064 5.27025 13.2001 4.54439C13.1938 3.81852 12.9029 3.12418 12.3902 2.61089C11.8774 2.09761 11.1837 1.80646 10.4586 1.80015C9.73348 1.79385 9.03488 2.07288 8.51328 2.57717L7.56191 3.52396M8.80644 6.74637C8.5689 6.42849 8.26584 6.16546 7.91782 5.97513C7.5698 5.7848 7.18496 5.67162 6.7894 5.64326C6.39384 5.6149 5.99681 5.67203 5.62524 5.81077C5.25368 5.94952 4.91627 6.16663 4.6359 6.44738L2.97653 8.10842C2.47276 8.63055 2.194 9.32985 2.2003 10.0557C2.2066 10.7816 2.49746 11.4759 3.01022 11.9892C3.52299 12.5025 4.21664 12.7936 4.94177 12.7999C5.66691 12.8063 6.36551 12.5272 6.88711 12.0229L7.83294 11.0761" stroke="currentColor" stroke-width="1.3" stroke-linecap="round" stroke-linejoin="round"/>
</svg>
