<svg width="24" height="24" viewBox="0 0 24 24" fill="none" xmlns="http://www.w3.org/2000/svg">
<path d="M3 7.88576L10.3115 12.6439C10.9198 13.0605 11.2239 13.2688 11.5548 13.3494C11.847 13.4207 12.1526 13.4207 12.4448 13.3494C12.7757 13.2688 13.0798 13.0605 13.6881 12.6439L21 7.88576M7.21581 19.2H16.7838C18.3296 19.2 19.1024 19.2 19.6928 18.9058C20.2121 18.6469 20.6344 18.2339 20.899 17.7258C21.1998 17.1483 21.1998 16.3922 21.1998 14.88V9.12005C21.1998 7.60791 21.1998 6.85184 20.899 6.27427C20.6344 5.76624 20.2121 5.35319 19.6928 5.09433C19.1024 4.80005 18.3296 4.80005 16.7838 4.80005H7.21581C5.67006 4.80005 4.89719 4.80005 4.30679 5.09433C3.78746 5.35319 3.36524 5.76624 3.10063 6.27427C2.7998 6.85184 2.7998 7.60791 2.7998 9.12005V14.88C2.7998 16.3922 2.7998 17.1483 3.10063 17.7258C3.36524 18.2339 3.78746 18.6469 4.30679 18.9058C4.89719 19.2 5.67006 19.2 7.21581 19.2Z" stroke="currentColor" stroke-width="1.5" stroke-linecap="round" stroke-linejoin="round"/>
</svg>
