<svg width="16" height="16" viewBox="0 0 16 16" fill="none" xmlns="http://www.w3.org/2000/svg">
<path d="M1.83729 5.25709L6.84409 8.42922C7.26063 8.70691 7.4689 8.84576 7.69544 8.89954C7.89555 8.94704 8.10484 8.94704 8.30495 8.89954C8.53149 8.84576 8.73976 8.70691 9.1563 8.42922L14.1634 5.25709M4.7242 12.8H11.2762C12.3347 12.8 12.8639 12.8 13.2682 12.6038C13.6239 12.4312 13.913 12.1558 14.0942 11.8171C14.3002 11.4321 14.3002 10.928 14.3002 9.91995V6.07995C14.3002 5.07186 14.3002 4.56781 14.0942 4.18277C13.913 3.84408 13.6239 3.56871 13.2682 3.39614C12.8639 3.19995 12.3347 3.19995 11.2762 3.19995H4.7242C3.6657 3.19995 3.13645 3.19995 2.73215 3.39614C2.37653 3.56871 2.08739 3.84408 1.90619 4.18277C1.7002 4.56781 1.7002 5.07186 1.7002 6.07995V9.91995C1.7002 10.928 1.7002 11.4321 1.90619 11.8171C2.08739 12.1558 2.37653 12.4312 2.73215 12.6038C3.13645 12.8 3.6657 12.8 4.7242 12.8Z" stroke="currentColor" stroke-width="1.3" stroke-linecap="round" stroke-linejoin="round"/>
</svg>
