<svg width="24" height="24" viewBox="0 0 24 24" fill="none" xmlns="http://www.w3.org/2000/svg">
<path d="M10.3904 12.8806C10.7467 13.3574 11.2013 13.7519 11.7234 14.0374C12.2454 14.3229 12.8227 14.4927 13.416 14.5352C14.0093 14.5778 14.6049 14.4921 15.1622 14.284C15.7196 14.0758 16.2257 13.7502 16.6462 13.329L19.1353 10.8375C19.891 10.0543 20.3091 9.00535 20.2996 7.91656C20.2902 6.82776 19.8539 5.78624 19.0848 5.01631C18.3156 4.24639 17.2751 3.80967 16.1874 3.80021C15.0997 3.79074 14.0518 4.2093 13.2694 4.96573L11.8424 6.38592M13.7092 11.2195C13.3529 10.7427 12.8983 10.3482 12.3762 10.0627C11.8542 9.77717 11.2769 9.6074 10.6836 9.56486C10.0903 9.52233 9.49472 9.60802 8.93738 9.81614C8.38003 10.0243 7.87392 10.3499 7.45336 10.7711L4.96431 13.2626C4.20865 14.0458 3.79051 15.0947 3.79996 16.1835C3.80941 17.2723 4.2457 18.3139 5.01485 19.0838C5.784 19.8537 6.82447 20.2904 7.91217 20.2999C8.99987 20.3094 10.0478 19.8908 10.8302 19.1344L12.2489 17.7142" stroke="currentColor" stroke-width="1.5" stroke-linecap="round" stroke-linejoin="round"/>
</svg>
