<svg width="16" height="19" viewBox="0 0 16 19" fill="none" xmlns="http://www.w3.org/2000/svg">
<path d="M0.875 5.56667C0.875 3.79317 0.875 2.90642 1.20782 2.22903C1.50058 1.63318 1.96771 1.14875 2.54228 0.845146C3.19547 0.5 4.05055 0.5 5.76071 0.5H10.2393C11.9494 0.5 12.8045 0.5 13.4577 0.845146C14.0323 1.14875 14.4994 1.63318 14.7922 2.22903C15.125 2.90642 15.125 3.79317 15.125 5.56667V16.6419C15.125 17.5782 15.125 18.0463 14.9286 18.3148C14.7573 18.5489 14.4942 18.6987 14.2055 18.7268C13.8744 18.7589 13.4717 18.5202 12.6662 18.0429L8 15.2778L3.33382 18.0429C2.52834 18.5202 2.1256 18.7589 1.79451 18.7268C1.50579 18.6987 1.24274 18.5489 1.07144 18.3148C0.875 18.0463 0.875 17.5782 0.875 16.6419V5.56667Z" fill="#0066FF"/>
</svg>
