<svg width="19" height="19" viewBox="0 0 19 19" fill="none" xmlns="http://www.w3.org/2000/svg">
<path d="M14.3308 7.98034L11.0197 4.66916M1.5 17.5L4.30156 17.1887C4.64385 17.1507 4.81499 17.1317 4.97496 17.0799C5.11688 17.0339 5.25194 16.969 5.37647 16.8869C5.51684 16.7943 5.6386 16.6726 5.88212 16.4291L16.8142 5.49696C17.7286 4.5826 17.7286 3.10013 16.8142 2.18577C15.8999 1.27141 14.4174 1.27141 13.5031 2.18577L2.57094 13.1179C2.32742 13.3614 2.20566 13.4832 2.1131 13.6235C2.03097 13.7481 1.96606 13.8831 1.92012 14.025C1.86833 14.185 1.84932 14.3561 1.81128 14.6984L1.5 17.5Z" stroke="#C4C4C6" stroke-width="1.5" stroke-linecap="round" stroke-linejoin="round"/>
</svg>
