<svg width="21" height="16" viewBox="0 0 21 16" fill="none" xmlns="http://www.w3.org/2000/svg">
<path d="M1.5 3.625L8.84843 8.62601C9.44348 9.03098 9.74101 9.23346 10.0646 9.31189C10.3505 9.38117 10.6495 9.38117 10.9354 9.31189C11.259 9.23346 11.5565 9.03098 12.1516 8.62601L19.5 3.625M5.82 15H15.18C16.6921 15 17.4482 15 18.0258 14.7139C18.5338 14.4622 18.9469 14.0607 19.2057 13.5667C19.5 13.0052 19.5 12.2701 19.5 10.8V5.2C19.5 3.72986 19.5 2.99479 19.2057 2.43327C18.9469 1.93935 18.5338 1.53778 18.0258 1.28611C17.4482 1 16.6921 1 15.18 1H5.82C4.30786 1 3.55179 1 2.97423 1.28611C2.46619 1.53778 2.05314 1.93935 1.79428 2.43327C1.5 2.99479 1.5 3.72986 1.5 5.2V10.8C1.5 12.2701 1.5 13.0052 1.79428 13.5667C2.05314 14.0607 2.46619 14.4622 2.97423 14.7139C3.55179 15 4.30786 15 5.82 15Z" stroke="#C4C4C6" stroke-width="1.5" stroke-linecap="round" stroke-linejoin="round"/>
</svg>
