<svg width="21" height="20" viewBox="0 0 21 20" fill="none" xmlns="http://www.w3.org/2000/svg">
<path d="M8.68978 10.906C9.07848 11.4262 9.5744 11.8566 10.1439 12.1681C10.7134 12.4795 11.3431 12.6647 11.9904 12.7111C12.6377 12.7575 13.2874 12.664 13.8954 12.437C14.5034 12.21 15.0555 11.8547 15.5143 11.3953L18.2296 8.67721C19.054 7.82283 19.5101 6.67851 19.4998 5.49073C19.4895 4.30296 19.0136 3.16675 18.1745 2.32684C17.3354 1.48692 16.2004 1.01049 15.0138 1.00017C13.8272 0.98985 12.684 1.44646 11.8305 2.27165L10.2737 3.82095M12.3102 9.09398C11.9215 8.57381 11.4256 8.1434 10.8561 7.83195C10.2866 7.5205 9.65688 7.33529 9.0096 7.28889C8.36232 7.24248 7.71264 7.33597 7.10462 7.563C6.49661 7.79004 5.94449 8.14531 5.4857 8.60473L2.77037 11.3228C1.94601 12.1772 1.48986 13.3215 1.50017 14.5093C1.51048 15.697 1.98643 16.8332 2.8255 17.6732C3.66457 18.5131 4.79964 18.9895 5.98622 18.9998C7.1728 19.0102 8.31596 18.5535 9.16949 17.7283L10.7172 16.1791" stroke="#C4C4C6" stroke-width="1.5" stroke-linecap="round" stroke-linejoin="round"/>
</svg>
