<svg width="19" height="20" viewBox="0 0 19 20" fill="none" xmlns="http://www.w3.org/2000/svg">
<path d="M13.0556 4.6V3.88C13.0556 2.87191 13.0556 2.36786 12.8618 1.98282C12.6913 1.64413 12.4194 1.36876 12.0849 1.19619C11.7046 1 11.2068 1 10.2111 1H8.78889C7.79324 1 7.29542 1 6.91513 1.19619C6.58062 1.36876 6.30865 1.64413 6.13821 1.98282C5.94444 2.36786 5.94444 2.87191 5.94444 3.88V4.6M7.72222 9.55V14.05M11.2778 9.55V14.05M1.5 4.6H17.5M15.7222 4.6V14.68C15.7222 16.1921 15.7222 16.9482 15.4316 17.5258C15.1759 18.0338 14.768 18.4469 14.2662 18.7057C13.6958 19 12.949 19 11.4556 19H7.54445C6.05097 19 5.30423 19 4.7338 18.7057C4.23204 18.4469 3.82409 18.0338 3.56843 17.5258C3.27778 16.9482 3.27778 16.1921 3.27778 14.68V4.6" stroke="#C4C4C6" stroke-width="1.5" stroke-linecap="round" stroke-linejoin="round"/>
</svg>
