<svg width="32" height="32" viewBox="0 0 34 34" fill="none" xmlns="http://www.w3.org/2000/svg">
<path d="M33 17C33 25.8366 25.8366 33 17 33C8.16344 33 1 25.8366 1 17C1 8.16344 8.16345 0.999998 17 0.999999C25.8366 0.999999 33 8.16344 33 17Z" fill="white"/>
<path d="M17 0.999999L17 1.5C25.5604 1.5 32.5 8.43959 32.5 17L33 17L33.5 17C33.5 7.8873 26.1127 0.499999 17 0.499999L17 0.999999ZM1 17L1.5 17C1.5 8.43958 8.43959 1.5 17 1.5L17 0.999999L17 0.499999C7.88731 0.499998 0.500002 7.8873 0.500001 17L1 17ZM17 33L17 32.5C8.43959 32.5 1.5 25.5604 1.5 17L1 17L0.500001 17C0.500001 26.1127 7.8873 33.5 17 33.5L17 33ZM17 33L17 33.5C26.1127 33.5 33.5 26.1127 33.5 17L33 17L32.5 17C32.5 25.5604 25.5604 32.5 17 32.5L17 33Z" fill="#C4C4C6"/>
<path d="M11 17H23" stroke="#12141A" stroke-width="1.3" stroke-linecap="round"/>
<path d="M17 11L17 23" stroke="#12141A" stroke-width="1.3" stroke-linecap="round"/>
</svg>
