<svg width="32" height="32" viewBox="0 0 34 34" fill="none" xmlns="http://www.w3.org/2000/svg">
<path d="M1 17C1 8.16344 8.16344 1 17 1C25.8366 1 33 8.16344 33 17C33 25.8366 25.8366 33 17 33C8.16344 33 1 25.8366 1 17Z" fill="white"/>
<path d="M17 33V32.5C8.43959 32.5 1.5 25.5604 1.5 17H1H0.5C0.5 26.1127 7.8873 33.5 17 33.5V33ZM33 17H32.5C32.5 25.5604 25.5604 32.5 17 32.5V33V33.5C26.1127 33.5 33.5 26.1127 33.5 17H33ZM17 1V1.5C25.5604 1.5 32.5 8.43959 32.5 17H33H33.5C33.5 7.8873 26.1127 0.5 17 0.5V1ZM17 1V0.5C7.8873 0.5 0.5 7.8873 0.5 17H1H1.5C1.5 8.43959 8.43959 1.5 17 1.5V1Z" fill="#C4C4C6"/>
<g clip-path="url(#clip0_1822_25848)">
<path d="M11 17H23" stroke="#12141A" stroke-width="1.3" stroke-linecap="round"/>
</g>
<defs>
<clipPath id="clip0_1822_25848">
<rect width="16" height="16" fill="white" transform="translate(9 9)"/>
</clipPath>
</defs>
</svg>
