<svg width="36" height="36" viewBox="0 0 36 36" fill="none" xmlns="http://www.w3.org/2000/svg">
<rect width="36" height="36" rx="18" fill="#65666A"/>
<path d="M9 15.6686C9 15.3572 9 15.2016 9.01299 15.0704C9.13831 13.8056 10.1389 12.805 11.4037 12.6797C11.5349 12.6667 11.699 12.6667 12.0272 12.6667C12.1536 12.6667 12.2169 12.6667 12.2706 12.6634C12.9561 12.6219 13.5564 12.1892 13.8126 11.552C13.8326 11.5021 13.8514 11.4458 13.8889 11.3333C13.9264 11.2208 13.9451 11.1646 13.9652 11.1147C14.2214 10.4774 14.8217 10.0448 15.5072 10.0033C15.5609 10 15.6202 10 15.7388 10H20.039C20.1576 10 20.2169 10 20.2706 10.0033C20.9561 10.0448 21.5564 10.4774 21.8126 11.1147C21.8326 11.1646 21.8514 11.2208 21.8889 11.3333C21.9264 11.4458 21.9451 11.5021 21.9652 11.552C22.2214 12.1892 22.8217 12.6219 23.5072 12.6634C23.5609 12.6667 23.6241 12.6667 23.7506 12.6667C24.0788 12.6667 24.2429 12.6667 24.374 12.6797C25.6389 12.805 26.6395 13.8056 26.7648 15.0704C26.7778 15.2016 26.7778 15.3572 26.7778 15.6686V22.6222C26.7778 24.1157 26.7778 24.8624 26.4871 25.4329C26.2315 25.9346 25.8235 26.3426 25.3218 26.5982C24.7513 26.8889 24.0046 26.8889 22.5111 26.8889H13.2667C11.7732 26.8889 11.0265 26.8889 10.456 26.5982C9.95426 26.3426 9.54631 25.9346 9.29065 25.4329C9 24.8624 9 24.1157 9 22.6222V15.6686Z" stroke="white" stroke-width="2" stroke-linecap="round" stroke-linejoin="round"/>
<path d="M17.8889 22.8889C19.8526 22.8889 21.4444 21.297 21.4444 19.3333C21.4444 17.3697 19.8526 15.7778 17.8889 15.7778C15.9252 15.7778 14.3333 17.3697 14.3333 19.3333C14.3333 21.297 15.9252 22.8889 17.8889 22.8889Z" stroke="white" stroke-width="2" stroke-linecap="round" stroke-linejoin="round"/>
</svg>
