<svg width="146" height="146" viewBox="0 0 146 146" fill="none" xmlns="http://www.w3.org/2000/svg">
<circle cx="73" cy="73" r="73" fill="#0066FF"/>
<mask id="mask0_4500_147743" style="mask-type:alpha" maskUnits="userSpaceOnUse" x="8" y="8" width="130" height="130">
<circle cx="73" cy="73" r="65" fill="#D9D9D9"/>
</mask>
<g mask="url(#mask0_4500_147743)">
<path d="M73.1743 24.9679L-4.07227 158.762H150.421L73.1743 24.9679ZM73.1743 34.0205L142.581 154.232H3.77104L73.1781 34.0205H73.1743Z" fill="#0066FF"/>
<path d="M73.1848 34.0281L3.78174 154.244H142.592L73.1848 34.0281Z" fill="white"/>
</g>
<path d="M66.7243 92.5056C68.954 92.5056 70.7615 88.6003 70.7615 83.7828C70.7615 78.9654 68.954 75.0601 66.7243 75.0601C64.4946 75.0601 62.687 78.9654 62.687 83.7828C62.687 88.6003 64.4946 92.5056 66.7243 92.5056Z" fill="#0066FF"/>
<path d="M79.1486 92.5056C81.3783 92.5056 83.1859 88.6003 83.1859 83.7828C83.1859 78.9654 81.3783 75.0601 79.1486 75.0601C76.9189 75.0601 75.1113 78.9654 75.1113 83.7828C75.1113 88.6003 76.9189 92.5056 79.1486 92.5056Z" fill="#0066FF"/>
</svg>
