<svg width="140" height="140" viewBox="0 0 140 140" fill="none" xmlns="http://www.w3.org/2000/svg">
<rect width="140" height="140" rx="70" fill="white"/>
<circle cx="70" cy="70" r="60.3051" fill="#0066FF" stroke="#0066FF" stroke-width="6.61017"/>
<mask id="mask0_4502_112394" style="mask-type:alpha" maskUnits="userSpaceOnUse" x="13" y="13" width="114" height="114">
<circle cx="70" cy="70" r="57" fill="#D9D9D9"/>
</mask>
<g mask="url(#mask0_4502_112394)">
<path d="M70.1514 27.8802L2.41211 145.208H137.891L70.1514 27.8802ZM70.1514 35.8187L131.016 141.235H9.29009L70.1547 35.8187H70.1514Z" fill="#0066FF"/>
<path d="M70.162 35.825L9.30078 141.245H131.026L70.162 35.825Z" fill="white"/>
</g>
<path d="M33.6101 92.1938C24.7504 92.1938 17.5459 99.4015 17.5459 108.258C17.5459 117.115 24.7535 124.322 33.6101 124.322C42.4667 124.322 49.6743 117.115 49.6743 108.258C49.6743 99.4015 42.4667 92.1938 33.6101 92.1938ZM33.6101 120.617C26.7969 120.617 21.2537 115.074 21.2537 108.261C21.2537 101.448 26.7969 95.9048 33.6101 95.9048C40.4233 95.9048 45.9664 101.448 45.9664 108.261C45.9664 115.074 40.4233 120.617 33.6101 120.617Z" fill="#0066FF"/>
<path d="M33.6532 95.9229C26.84 95.9229 21.2969 101.466 21.2969 108.279C21.2969 115.092 26.84 120.636 33.6532 120.636C40.4665 120.636 46.0096 115.092 46.0096 108.279C46.0096 101.466 40.4665 95.9229 33.6532 95.9229Z" fill="white"/>
<path d="M107.099 92.1938C98.2397 92.1938 91.0352 99.4015 91.0352 108.258C91.0352 117.115 98.2428 124.322 107.099 124.322C115.956 124.322 123.164 117.115 123.164 108.258C123.164 99.4015 115.956 92.1938 107.099 92.1938ZM107.099 120.617C100.286 120.617 94.743 115.074 94.743 108.261C94.743 101.448 100.286 95.9048 107.099 95.9048C113.913 95.9048 119.456 101.448 119.456 108.261C119.456 115.074 113.913 120.617 107.099 120.617Z" fill="#0066FF"/>
<path d="M107.167 95.9229C100.354 95.9229 94.8105 101.466 94.8105 108.279C94.8105 115.092 100.354 120.636 107.167 120.636C113.98 120.636 119.523 115.092 119.523 108.279C119.523 101.466 113.98 95.9229 107.167 95.9229Z" fill="white"/>
<path d="M64.4964 87.1049C66.4517 87.1049 68.0368 83.6803 68.0368 79.4557C68.0368 75.2312 66.4517 71.8065 64.4964 71.8065C62.5411 71.8065 60.9561 75.2312 60.9561 79.4557C60.9561 83.6803 62.5411 87.1049 64.4964 87.1049Z" fill="#0066FF"/>
<path d="M75.3929 87.1049C77.3482 87.1049 78.9333 83.6803 78.9333 79.4557C78.9333 75.2312 77.3482 71.8065 75.3929 71.8065C73.4376 71.8065 71.8525 75.2312 71.8525 79.4557C71.8525 83.6803 73.4376 87.1049 75.3929 87.1049Z" fill="#0066FF"/>
</svg>
