<svg width="242" height="144" viewBox="0 0 242 144" fill="none" xmlns="http://www.w3.org/2000/svg">
<path d="M232.504 103.307V60.1244H148.631V143.998H232.504V125.995C237.715 124.784 241.5 120.116 241.5 114.651C241.5 109.186 237.715 104.518 232.504 103.307ZM229.616 123.504V141.111H151.517V63.0129H229.616V105.803L230.889 105.954C235.292 106.476 238.611 110.215 238.611 114.653C238.611 119.092 235.292 122.833 230.889 123.352L229.616 123.504Z" fill="white"/>
<path d="M230.892 105.954L229.618 105.802V63.0122H151.52V141.111H229.618V123.503L230.892 123.352C235.295 122.83 238.614 119.091 238.614 114.653C238.614 110.214 235.295 106.473 230.892 105.954Z" fill="#0066FF"/>
<path d="M166.21 72.4077C158.289 64.4872 147.757 60.1244 136.555 60.1244C125.354 60.1244 114.823 64.4872 106.901 72.4077C98.9802 80.3282 94.6173 90.8606 94.6173 102.062C94.6173 113.264 98.9802 123.794 106.901 131.717C114.821 139.637 125.354 144 136.555 144C147.757 144 158.287 139.637 166.21 131.717C174.13 123.796 178.493 113.264 178.493 102.062C178.493 90.8606 174.13 80.3305 166.21 72.4077ZM136.557 141.111C115.026 141.111 97.5081 123.593 97.5081 102.062C97.5081 80.5312 115.026 63.0129 136.557 63.0129C158.088 63.0129 175.607 80.5312 175.607 102.062C175.607 123.593 158.088 141.111 136.557 141.111Z" fill="white"/>
<path d="M136.554 63.0122C115.023 63.0122 97.5049 80.5305 97.5049 102.061C97.5049 123.592 115.023 141.111 136.554 141.111C158.085 141.111 175.603 123.592 175.603 102.061C175.603 80.5305 158.085 63.0122 136.554 63.0122Z" fill="#0066FF"/>
<path d="M129.271 91.896C130.583 91.896 131.647 89.5981 131.647 86.7636C131.647 83.9291 130.583 81.6312 129.271 81.6312C127.959 81.6312 126.896 83.9291 126.896 86.7636C126.896 89.5981 127.959 91.896 129.271 91.896Z" fill="white"/>
<path d="M136.555 91.8958C137.867 91.8958 138.931 89.598 138.931 86.7635C138.931 83.9289 137.867 81.6311 136.555 81.6311C135.243 81.6311 134.18 83.9289 134.18 86.7635C134.18 89.598 135.243 91.8958 136.555 91.8958Z" fill="white"/>
<path d="M171.042 91.834C176.679 91.834 181.249 87.2643 181.249 81.6273C181.249 75.9903 176.679 71.4205 171.042 71.4205C165.405 71.4205 160.835 75.9903 160.835 81.6273C160.835 87.2643 165.405 91.834 171.042 91.834Z" fill="white"/>
<path d="M131.79 144L86.145 64.9419L63.3448 104.433C61.6385 103.494 59.7292 103.003 57.7463 103.003C51.3225 103.003 46.0942 108.229 46.0942 114.653C46.0942 118.762 48.2489 122.518 51.695 124.61L40.5001 143.997H131.79V144ZM57.7463 105.889C59.6489 105.889 61.4578 106.489 62.9768 107.622L64.2772 108.593L86.145 70.7167L126.789 141.113H45.5009L55.7589 123.345L54.2712 122.703C51.0571 121.313 48.9804 118.155 48.9804 114.655C48.9804 109.822 52.9128 105.892 57.7441 105.892L57.7463 105.889Z" fill="white"/>
<path d="M126.795 141.114L86.1508 70.7177L64.283 108.594L62.9826 107.623C61.4614 106.49 59.6525 105.89 57.7521 105.89C52.9186 105.89 48.9885 109.823 48.9885 114.654C48.9885 118.154 51.0651 121.312 54.2792 122.702L55.767 123.344L45.5089 141.112H126.797L126.795 141.114Z" fill="#0066FF"/>
<path d="M113.972 124.866C119.61 124.866 124.179 120.296 124.179 114.659C124.179 109.022 119.61 104.453 113.972 104.453C108.335 104.453 103.766 109.022 103.766 114.659C103.766 120.296 108.335 124.866 113.972 124.866Z" fill="white"/>
<mask id="path-11-inside-1_1304_19763" fill="white">
<path d="M27.1671 0C12.4395 0 0.500122 11.9394 0.500122 26.667C0.500305 41.3944 12.4396 53.333 27.1671 53.333H33.6945C33.8449 53.4651 33.9988 53.6032 34.1544 53.75C37.4838 56.8978 46.4076 64.9878 46.421 65C45.6264 60.4148 44.3122 55.9705 45.6486 53.333H133.833C148.561 53.333 160.5 41.3944 160.5 26.667C160.5 11.9394 148.561 0 133.833 0H27.1671Z"/>
</mask>
<path d="M0.500122 26.667L-1.49988 26.667V26.667H0.500122ZM33.6945 53.333V51.333H34.4476L35.0137 51.8298L33.6945 53.333ZM34.1544 53.75L35.5268 52.2951L35.5284 52.2967L34.1544 53.75ZM46.421 65L48.3916 64.6585L49.3842 70.3858L45.0777 66.4817L46.421 65ZM45.6486 53.333L43.8645 52.4291L44.4198 51.333H45.6486V53.333ZM160.5 26.667H162.5V26.667L160.5 26.667ZM27.1671 0V2C13.5441 2 2.50012 13.044 2.50012 26.667H0.500122H-1.49988C-1.49988 10.8348 11.3349 -2 27.1671 -2V0ZM0.500122 26.667L2.50012 26.667C2.50029 40.2898 13.5441 51.333 27.1671 51.333V53.333V55.333C11.3351 55.333 -1.49969 42.4991 -1.49988 26.667L0.500122 26.667ZM27.1671 53.333V51.333H33.6945V53.333V55.333H27.1671V53.333ZM33.6945 53.333L35.0137 51.8298C35.1756 51.9719 35.3483 52.1268 35.5268 52.2952L34.1544 53.75L32.782 55.2048C32.6493 55.0796 32.5144 54.9583 32.3752 54.8362L33.6945 53.333ZM34.1544 53.75L35.5284 52.2967C38.8386 55.4263 47.7424 63.4984 47.7643 63.5183L46.421 65L45.0777 66.4817C45.0728 66.4773 36.1291 58.3693 32.7804 55.2033L34.1544 53.75ZM46.421 65L44.4504 65.3415C44.0855 63.236 43.5172 60.7384 43.2523 58.693C42.9859 56.6363 42.9017 54.3293 43.8645 52.4291L45.6486 53.333L47.4326 54.2369C47.0591 54.9742 46.9638 56.2081 47.2191 58.1792C47.4759 60.1617 47.9619 62.1788 48.3916 64.6585L46.421 65ZM45.6486 53.333V51.333H133.833V53.333V55.333H45.6486V53.333ZM133.833 53.333V51.333C147.456 51.333 158.5 40.2898 158.5 26.667L160.5 26.667L162.5 26.667C162.5 42.4991 149.665 55.333 133.833 55.333V53.333ZM160.5 26.667H158.5C158.5 13.044 147.456 2 133.833 2V0V-2C149.665 -2 162.5 10.8348 162.5 26.667H160.5ZM133.833 0V2H27.1671V0V-2H133.833V0Z" fill="#0066FF" mask="url(#path-11-inside-1_1304_19763)"/>
<path d="M39.1251 25.3854V26.8073H37.0314V34.026H35.297V19.9323H37.0314V25.3854H39.1251ZM26.4689 30.5416V21.3073H28.1876V29.1041C30.0704 29.0729 32.0704 28.9088 34.2032 28.4635L34.3907 29.9323C32.0079 30.4088 29.7501 30.5338 27.6564 30.5416H26.4689ZM44.3751 20.9166C46.6173 20.9088 48.2501 22.3229 48.2657 24.3229C48.2501 26.3307 46.6173 27.7369 44.3751 27.7448C42.1564 27.7369 40.4923 26.3307 40.5001 24.3229C40.4923 22.3229 42.1564 20.9088 44.3751 20.9166ZM39.8595 29.6979C42.4064 29.6979 45.9298 29.6666 48.9845 29.2291L49.1251 30.4948C45.9611 31.0963 42.5704 31.1198 40.0782 31.1198L39.8595 29.6979ZM42.2189 24.3229C42.2111 25.5026 43.1407 26.2291 44.3751 26.2291C45.6251 26.2291 46.5548 25.5026 46.5626 24.3229C46.5548 23.151 45.6329 22.4166 44.3751 22.4166C43.1407 22.4166 42.2111 23.151 42.2189 24.3229ZM49.8282 34.0729V19.9323H51.5626V34.0729H49.8282ZM70.3126 26.6979V28.0885H57.422V26.6979H63.0157V25.3541H59.0001V20.5729H68.7501V21.9323H60.7345V23.9791H68.8282V25.3541H64.7189V26.6979H70.3126ZM58.922 31.4791C58.922 29.8229 60.7736 28.8932 63.8439 28.901C66.8907 28.8932 68.7267 29.8229 68.7345 31.4791C68.7267 33.1198 66.8907 34.0494 63.8439 34.0573C60.7736 34.0494 58.922 33.1198 58.922 31.4791ZM60.6876 31.4791C60.6798 32.2994 61.7892 32.7213 63.8439 32.7135C65.8673 32.7213 66.9845 32.2994 67.0001 31.4791C66.9845 30.6666 65.8673 30.2291 63.8439 30.2291C61.7892 30.2291 60.6798 30.6666 60.6876 31.4791ZM84.1564 30.9791V32.4166H71.2501V30.9791H74.672V28.651H72.7814V24.0416H80.9064V22.3073H72.7501V20.901H82.6251V25.4323H74.5157V27.2448H82.9532V28.651H80.8907V30.9791H84.1564ZM76.3595 30.9791H79.1876V28.651H76.3595V30.9791ZM96.1407 19.9323V25.4479H98.2345V26.901H96.1407V34.026H94.4064V19.9323H96.1407ZM85.0001 30.1666C88.4376 28.4479 90.297 26.0573 90.6407 22.8385H85.7657V21.401H92.4064C92.3986 25.5494 90.6798 29.1979 85.9845 31.5104L85.0001 30.1666ZM102.516 29.7448C103.352 29.7448 104.383 29.7369 105.469 29.7135V27.1823H103.188V21.2604H109.234V22.6823H104.891V25.7916H109.359V27.1823H107.125V29.651C108.047 29.6119 108.953 29.5416 109.75 29.4479L109.844 30.6979C107.547 31.1119 104.609 31.1744 102.766 31.1823L102.516 29.7448ZM110.344 33.3698V20.1979H111.969V25.6354H113.281V19.9323H114.953V34.0573H113.281V27.0573H111.969V33.3698H110.344ZM127.594 19.9323V25.3541H129.766V26.8073H127.594V34.0729H125.875V19.9323H127.594ZM117.094 22.5729V21.1666H123.594V26.4948H118.844V29.3073C121.086 29.2916 122.828 29.1979 124.797 28.8541L124.953 30.2604C122.774 30.651 120.852 30.7448 118.281 30.7448H117.125V25.1041H121.859V22.5729H117.094ZM133.266 21.3541L133.094 29.3385H131.328L131.141 21.3541H133.266ZM131 31.5729C130.992 30.9166 131.547 30.3776 132.219 30.3698C132.867 30.3776 133.422 30.9166 133.422 31.5729C133.422 32.2448 132.867 32.7916 132.219 32.7916C131.547 32.7916 130.992 32.2448 131 31.5729Z" fill="#12141A"/>
</svg>
